<svg width="31" height="30" viewBox="0 0 31 30" fill="none" xmlns="http://www.w3.org/2000/svg">
<path d="M20.1375 14.8047C20.1375 16.0317 19.6477 17.2085 18.7757 18.0761C17.9037 18.9437 16.7211 19.4312 15.488 19.4312C14.2548 19.4312 13.0722 18.9437 12.2002 18.0761C11.3283 17.2085 10.8384 16.0317 10.8384 14.8047C10.8384 14.541 10.8663 14.2834 10.9143 14.0336H9.28855V20.1976C9.28855 20.6263 9.63727 20.9733 10.0681 20.9733H20.9093C21.1158 20.9729 21.3137 20.891 21.4596 20.7456C21.6054 20.6001 21.6874 20.4031 21.6874 20.1976V14.0336H20.0616C20.1096 14.2834 20.1375 14.541 20.1375 14.8047ZM15.488 17.889C15.8951 17.8889 16.2983 17.809 16.6744 17.6539C17.0505 17.4987 17.3923 17.2714 17.6801 16.9849C17.9679 16.6983 18.1962 16.3582 18.3519 15.9838C18.5077 15.6095 18.5878 15.2083 18.5877 14.8031C18.5876 14.398 18.5073 13.9969 18.3514 13.6226C18.1954 13.2483 17.967 12.9083 17.679 12.6219C17.391 12.3355 17.0492 12.1083 16.673 11.9534C16.2968 11.7984 15.8936 11.7187 15.4864 11.7188C14.6641 11.719 13.8756 12.0443 13.2943 12.623C12.713 13.2017 12.3865 13.9865 12.3867 14.8047C12.3869 15.6229 12.7138 16.4075 13.2954 16.9859C13.877 17.5644 14.6657 17.8892 15.488 17.889ZM19.2076 11.5662H21.0659C21.1893 11.5662 21.3078 11.5175 21.3952 11.4307C21.4826 11.344 21.532 11.2264 21.5324 11.1035V9.25447C21.5324 9.13136 21.4832 9.01329 21.3957 8.92624C21.3083 8.83919 21.1896 8.79028 21.0659 8.79028H19.2076C19.0839 8.79028 18.9652 8.83919 18.8777 8.92624C18.7902 9.01329 18.7411 9.13136 18.7411 9.25447V11.1035C18.7426 11.358 18.9519 11.5662 19.2076 11.5662ZM15.488 0C11.5419 0 7.75749 1.55977 4.96721 4.33619C2.17694 7.11261 0.609375 10.8782 0.609375 14.8047C0.609375 18.7311 2.17694 22.4968 4.96721 25.2732C7.75749 28.0496 11.5419 29.6094 15.488 29.6094C17.4418 29.6094 19.3766 29.2264 21.1817 28.4824C22.9869 27.7384 24.6271 26.6479 26.0087 25.2732C27.3903 23.8984 28.4863 22.2664 29.234 20.4702C29.9817 18.674 30.3665 16.7489 30.3665 14.8047C30.3665 12.8605 29.9817 10.9354 29.234 9.13918C28.4863 7.34299 27.3903 5.71093 26.0087 4.33619C24.6271 2.96145 22.9869 1.87094 21.1817 1.12694C19.3766 0.382935 17.4418 0 15.488 0ZM23.2372 20.8021C23.2372 21.7444 22.4623 22.5155 21.5153 22.5155H9.46058C8.51362 22.5155 7.7387 21.7444 7.7387 20.8021V8.80725C7.7387 7.86499 8.51362 7.09391 9.46058 7.09391H21.5153C22.4623 7.09391 23.2372 7.86499 23.2372 8.80725V20.8021Z" fill="#5FB8DE"/>
</svg>
