<svg width="30" height="31" viewBox="0 0 30 31" fill="none" xmlns="http://www.w3.org/2000/svg">
<path d="M19.7799 15.2988C19.7799 16.5258 19.2928 17.7026 18.4256 18.5702C17.5584 19.4379 16.3823 19.9253 15.156 19.9253C13.9296 19.9253 12.7535 19.4379 11.8864 18.5702C11.0192 17.7026 10.532 16.5258 10.532 15.2988C10.532 15.0351 10.5598 14.7776 10.6076 14.5278H8.99073V20.6917C8.99073 21.1205 9.33752 21.4674 9.76601 21.4674H20.5475C20.7528 21.467 20.9496 21.3851 21.0947 21.2397C21.2398 21.0943 21.3212 20.8972 21.3212 20.6917V14.5278H19.7044C19.7522 14.7776 19.7799 15.0351 19.7799 15.2988ZM15.156 18.3831C15.5609 18.383 15.9618 18.3031 16.3359 18.148C16.7099 17.9929 17.0498 17.7655 17.3361 17.479C17.6223 17.1924 17.8493 16.8523 18.0042 16.478C18.1591 16.1036 18.2387 15.7024 18.2386 15.2973C18.2385 14.8921 18.1587 14.491 18.0036 14.1167C17.8486 13.7425 17.6213 13.4024 17.335 13.116C17.0486 12.8296 16.7086 12.6025 16.3345 12.4475C15.9603 12.2926 15.5594 12.2129 15.1544 12.213C14.3367 12.2132 13.5525 12.5384 12.9744 13.1171C12.3963 13.6958 12.0716 14.4806 12.0718 15.2988C12.072 16.117 12.3971 16.9017 12.9755 17.4801C13.5539 18.0585 14.3382 18.3833 15.156 18.3831ZM18.8551 12.0603H20.7032C20.8259 12.0603 20.9437 12.0116 21.0307 11.9249C21.1176 11.8382 21.1667 11.7205 21.1671 11.5977V9.74861C21.1671 9.6255 21.1182 9.50743 21.0312 9.42038C20.9442 9.33333 20.8262 9.28442 20.7032 9.28442H18.8551C18.7321 9.28442 18.6141 9.33333 18.5271 9.42038C18.4401 9.50743 18.3912 9.6255 18.3912 9.74861V11.5977C18.3927 11.8521 18.6008 12.0603 18.8551 12.0603ZM15.156 0.494141C11.2317 0.494141 7.4681 2.05392 4.6932 4.83033C1.9183 7.60675 0.359375 11.3724 0.359375 15.2988C0.359375 19.2253 1.9183 22.9909 4.6932 25.7673C7.4681 28.5437 11.2317 30.1035 15.156 30.1035C17.0991 30.1035 19.0232 29.7206 20.8184 28.9766C22.6136 28.2326 24.2448 27.1421 25.6188 25.7673C26.9928 24.3926 28.0827 22.7605 28.8263 20.9643C29.5699 19.1681 29.9526 17.243 29.9526 15.2988C29.9526 13.3546 29.5699 11.4295 28.8263 9.63332C28.0827 7.83713 26.9928 6.20508 25.6188 4.83033C24.2448 3.45559 22.6136 2.36509 20.8184 1.62108C19.0232 0.877075 17.0991 0.494141 15.156 0.494141ZM22.8625 21.2963C22.8625 22.2385 22.0919 23.0096 21.1502 23.0096H9.16181C8.22007 23.0096 7.44942 22.2385 7.44942 21.2963V9.30139C7.44942 8.35913 8.22007 7.58805 9.16181 7.58805H21.1502C22.0919 7.58805 22.8625 8.35913 22.8625 9.30139V21.2963Z" fill="white"/>
</svg>
