<svg width="31" height="31" viewBox="0 0 31 31" fill="none" xmlns="http://www.w3.org/2000/svg">
<path d="M15.6641 0.465576C7.37969 0.465576 0.664062 7.1812 0.664062 15.4656C0.664062 23.75 7.37969 30.4656 15.6641 30.4656C23.9484 30.4656 30.6641 23.75 30.6641 15.4656C30.6641 7.1812 23.9484 0.465576 15.6641 0.465576ZM11.9922 21.6828H8.95469V11.9078H11.9922V21.6828ZM10.4547 10.7078C9.49531 10.7078 8.875 10.0281 8.875 9.18745C8.875 8.32964 9.51406 7.67026 10.4937 7.67026C11.4734 7.67026 12.0734 8.32964 12.0922 9.18745C12.0922 10.0281 11.4734 10.7078 10.4547 10.7078ZM23.0859 21.6828H20.0484V16.2656C20.0484 15.0046 19.6078 14.1484 18.5094 14.1484C17.6703 14.1484 17.1719 14.7281 16.9516 15.2859C16.8703 15.4843 16.85 15.7656 16.85 16.0453V21.6812H13.8109V15.025C13.8109 13.8046 13.7719 12.7843 13.7312 11.9062H16.3703L16.5094 13.264H16.5703C16.9703 12.6265 17.95 11.6859 19.5891 11.6859C21.5875 11.6859 23.0859 13.025 23.0859 15.9031V21.6828Z" fill="white"/>
</svg>
