<svg width="31" height="31" viewBox="0 0 31 31" fill="none" xmlns="http://www.w3.org/2000/svg">
<path d="M15.0831 0C6.75283 0 0 6.71912 0 15.0078C0 23.2965 6.75283 30.0156 15.0831 30.0156C23.4134 30.0156 30.1662 23.2965 30.1662 15.0078C30.1662 6.71912 23.4134 0 15.0831 0ZM11.3909 21.2282H8.33656V11.4481H11.3909V21.2282ZM9.84487 10.2475C8.88018 10.2475 8.25643 9.56748 8.25643 8.72642C8.25643 7.86816 8.89903 7.20844 9.88415 7.20844C10.8693 7.20844 11.4726 7.86816 11.4914 8.72642C11.4914 9.56748 10.8693 10.2475 9.84487 10.2475ZM22.5461 21.2282H19.4918V15.8082C19.4918 14.5466 19.0487 13.6899 17.9442 13.6899C17.1005 13.6899 16.5993 14.2699 16.3777 14.828C16.296 15.0266 16.2756 15.308 16.2756 15.5878V21.2267H13.2197V14.567C13.2197 13.346 13.1804 12.3252 13.1396 11.4466H15.7933L15.9331 12.8051H15.9944C16.3966 12.1673 17.3817 11.2262 19.0298 11.2262C21.0394 11.2262 22.5461 12.5659 22.5461 15.4455V21.2282Z" fill="#5FB8DE"/>
</svg>
