<svg width="8516" height="3761" viewBox="0 0 8516 3761" fill="none" xmlns="http://www.w3.org/2000/svg">
<path d="M203.848 2925.47C203.693 2896.35 209.45 2870.87 221.12 2849.04C232.789 2826.85 248.818 2809.69 269.206 2797.56C289.942 2785.42 313.136 2779.36 338.789 2779.36C360.976 2779.36 381.63 2784.56 400.752 2794.96C419.873 2805.01 434.504 2818.36 444.646 2835L443.842 2684.2H491.682L493.732 3068.99H445.892L445.607 3015.43C436.337 3032.42 422.546 3046.46 404.231 3057.55C385.915 3068.3 364.451 3073.67 339.837 3073.67C314.531 3073.67 291.444 3067.43 270.577 3054.95C250.058 3042.47 233.844 3024.97 221.938 3002.43C210.031 2979.9 204.001 2954.25 203.848 2925.47ZM445.13 2925.99C445.016 2904.5 440.583 2885.78 431.831 2869.83C423.08 2853.89 411.228 2841.76 396.277 2833.44C381.671 2824.77 365.528 2820.44 347.848 2820.44C330.168 2820.44 314.07 2824.6 299.555 2832.92C285.039 2841.24 273.49 2853.37 264.909 2869.31C256.327 2885.26 252.093 2903.98 252.208 2925.47C252.324 2947.31 256.759 2966.38 265.512 2982.67C274.264 2998.62 285.943 3010.93 300.549 3019.59C315.153 3027.91 331.296 3032.07 348.976 3032.07C366.656 3032.07 382.753 3027.91 397.269 3019.59C412.13 3010.93 423.851 2998.62 432.432 2982.67C441.012 2966.38 445.245 2947.49 445.13 2925.99ZM555.254 2925.47C555.099 2896.35 560.856 2870.87 572.527 2849.04C584.195 2826.85 600.224 2809.69 620.612 2797.56C641.348 2785.42 664.369 2779.36 689.676 2779.36C714.636 2779.36 736.331 2784.73 754.761 2795.48C773.192 2806.22 786.957 2819.74 796.057 2836.04L795.78 2784.04H843.62L845.139 3068.99H797.299L797.016 3015.95C787.745 3032.59 773.778 3046.46 755.118 3057.55C736.801 3068.3 715.337 3073.67 690.723 3073.67C665.417 3073.67 642.504 3067.43 621.984 3054.95C601.464 3042.47 585.251 3024.97 573.344 3002.43C561.437 2979.9 555.407 2954.25 555.254 2925.47ZM796.537 2925.99C796.422 2904.5 791.989 2885.78 783.238 2869.83C774.486 2853.89 762.635 2841.76 747.684 2833.44C733.077 2824.77 716.934 2820.44 699.254 2820.44C681.574 2820.44 665.477 2824.6 650.961 2832.92C636.445 2841.24 624.896 2853.37 616.315 2869.31C607.733 2885.26 603.499 2903.98 603.614 2925.47C603.73 2947.31 608.165 2966.38 616.919 2982.67C625.67 2998.62 637.349 3010.93 651.955 3019.59C666.56 3027.91 682.702 3032.07 700.382 3032.07C718.062 3032.07 734.16 3027.91 748.675 3019.59C763.536 3010.93 775.257 2998.62 783.839 2982.67C792.419 2966.38 796.651 2947.49 796.537 2925.99ZM1026.01 3073.67C1004.17 3073.67 984.564 3070.03 967.192 3062.75C949.818 3055.13 936.069 3044.73 925.945 3031.55C915.82 3018.03 910.191 3002.61 909.059 2985.27H957.939C959.401 2999.49 966.05 3011.1 977.884 3020.11C990.066 3029.13 1005.86 3033.63 1025.28 3033.63C1043.3 3033.63 1057.5 3029.65 1067.85 3021.67C1078.21 3013.7 1083.36 3003.65 1083.29 2991.51C1083.23 2979.03 1077.63 2969.85 1066.51 2963.95C1055.38 2957.71 1038.19 2951.65 1014.93 2945.75C993.752 2940.21 976.389 2934.66 962.84 2929.11C949.635 2923.22 938.15 2914.73 928.384 2903.63C918.963 2892.19 914.203 2877.29 914.106 2858.91C914.028 2844.36 918.29 2831.01 926.892 2818.88C935.494 2806.74 947.75 2797.21 963.66 2790.28C979.568 2783 997.748 2779.36 1018.2 2779.36C1049.75 2779.36 1075.27 2787.33 1094.77 2803.28C1114.27 2819.22 1124.78 2841.06 1126.32 2868.79H1079C1077.88 2853.89 1071.75 2841.93 1060.61 2832.92C1049.81 2823.9 1035.23 2819.4 1016.86 2819.4C999.868 2819.4 986.368 2823.04 976.353 2830.32C966.339 2837.6 961.363 2847.13 961.426 2858.91C961.475 2868.27 964.464 2876.07 970.39 2882.31C976.662 2888.21 984.314 2893.06 993.348 2896.87C1002.73 2900.34 1015.57 2904.33 1031.89 2908.83C1052.37 2914.38 1069.04 2919.93 1081.9 2925.47C1094.75 2930.67 1105.72 2938.65 1114.79 2949.39C1124.2 2960.14 1129.13 2974.18 1129.57 2991.51C1129.66 3007.11 1125.4 3021.15 1116.8 3033.63C1108.2 3046.11 1095.94 3055.99 1080.03 3063.27C1064.47 3070.21 1046.46 3073.67 1026.01 3073.67ZM1316.97 2925.47C1316.82 2896.35 1322.58 2870.87 1334.25 2849.04C1345.91 2826.85 1361.94 2809.69 1382.33 2797.56C1403.07 2785.42 1426.26 2779.36 1451.91 2779.36C1474.1 2779.36 1494.76 2784.56 1513.88 2794.96C1533 2805.01 1547.63 2818.36 1557.77 2835L1556.97 2684.2H1604.81L1606.86 3068.99H1559.02L1558.73 3015.43C1549.46 3032.42 1535.67 3046.46 1517.36 3057.55C1499.04 3068.3 1477.58 3073.67 1452.96 3073.67C1427.66 3073.67 1404.57 3067.43 1383.7 3054.95C1363.18 3042.47 1346.97 3024.97 1335.06 3002.43C1323.16 2979.9 1317.13 2954.25 1316.97 2925.47ZM1558.26 2925.99C1558.14 2904.5 1553.71 2885.78 1544.96 2869.83C1536.2 2853.89 1524.35 2841.76 1509.4 2833.44C1494.8 2824.77 1478.65 2820.44 1460.97 2820.44C1443.29 2820.44 1427.2 2824.6 1412.68 2832.92C1398.16 2841.24 1386.62 2853.37 1378.03 2869.31C1369.45 2885.26 1365.22 2903.98 1365.33 2925.47C1365.45 2947.31 1369.88 2966.38 1378.64 2982.67C1387.39 2998.62 1399.07 3010.93 1413.67 3019.59C1428.28 3027.91 1444.42 3032.07 1462.1 3032.07C1479.78 3032.07 1495.88 3027.91 1510.39 3019.59C1525.25 3010.93 1536.98 2998.62 1545.56 2982.67C1554.14 2966.38 1558.37 2947.49 1558.26 2925.99ZM1709.5 2737.76C1700.49 2737.76 1692.84 2734.64 1686.57 2728.4C1680.3 2722.16 1677.14 2714.53 1677.09 2705.52C1677.04 2696.5 1680.12 2688.88 1686.33 2682.64C1692.53 2676.4 1700.14 2673.28 1709.16 2673.28C1717.82 2673.28 1725.12 2676.4 1731.05 2682.64C1737.32 2688.88 1740.48 2696.5 1740.53 2705.52C1740.58 2714.53 1737.5 2722.16 1731.29 2728.4C1725.43 2734.64 1718.17 2737.76 1709.5 2737.76ZM1732.63 2784.04L1734.14 3068.99H1686.82L1685.31 2784.04H1732.63ZM1930.77 2779.36C1955.38 2779.36 1976.9 2784.73 1995.34 2795.48C2014.11 2806.22 2028.05 2819.74 2037.15 2836.04L2036.87 2784.04H2084.71L2086.27 3075.23C2086.4 3101.23 2080.98 3124.28 2069.99 3144.39C2059.01 3164.84 2043.15 3180.79 2022.41 3192.23C2002.02 3203.67 1978.13 3209.39 1950.74 3209.39C1913.3 3209.39 1882.05 3200.55 1857 3182.87C1831.94 3165.19 1817.08 3141.1 1812.41 3110.59H1859.21C1864.51 3127.92 1875.33 3141.79 1891.68 3152.19C1908.03 3162.94 1927.64 3168.31 1950.52 3168.31C1976.52 3168.31 1997.62 3160.16 2013.83 3143.87C2030.38 3127.58 2038.58 3104.7 2038.43 3075.23L2038.11 3015.43C2028.84 3032.07 2015.04 3045.94 1996.73 3057.03C1978.41 3068.13 1956.95 3073.67 1932.34 3073.67C1907.03 3073.67 1883.94 3067.43 1863.08 3054.95C1842.56 3042.47 1826.34 3024.97 1814.44 3002.43C1802.53 2979.9 1796.5 2954.25 1796.35 2925.47C1796.19 2896.35 1801.95 2870.87 1813.62 2849.04C1825.29 2826.85 1841.32 2809.69 1861.71 2797.56C1882.44 2785.42 1905.46 2779.36 1930.77 2779.36ZM2037.63 2925.99C2037.52 2904.5 2033.08 2885.78 2024.33 2869.83C2015.58 2853.89 2003.73 2841.76 1988.78 2833.44C1974.17 2824.77 1958.03 2820.44 1940.35 2820.44C1922.67 2820.44 1906.57 2824.6 1892.05 2832.92C1877.54 2841.24 1865.99 2853.37 1857.41 2869.31C1848.83 2885.26 1844.59 2903.98 1844.71 2925.47C1844.82 2947.31 1849.26 2966.38 1858.01 2982.67C1866.76 2998.62 1878.44 3010.93 1893.05 3019.59C1907.65 3027.91 1923.8 3032.07 1941.48 3032.07C1959.16 3032.07 1975.25 3027.91 1989.77 3019.59C2004.63 3010.93 2016.35 2998.62 2024.93 2982.67C2033.51 2966.38 2037.74 2947.49 2037.63 2925.99ZM2188.87 2737.76C2179.86 2737.76 2172.22 2734.64 2165.94 2728.4C2159.67 2722.16 2156.51 2714.53 2156.46 2705.52C2156.41 2696.5 2159.49 2688.88 2165.7 2682.64C2171.91 2676.4 2179.52 2673.28 2188.53 2673.28C2197.2 2673.28 2204.49 2676.4 2210.42 2682.64C2216.69 2688.88 2219.85 2696.5 2219.9 2705.52C2219.95 2714.53 2216.87 2722.16 2210.66 2728.4C2204.8 2734.64 2197.54 2737.76 2188.87 2737.76ZM2212 2784.04L2213.52 3068.99H2166.2L2164.68 2784.04H2212ZM2350.58 2823.04L2351.47 2990.99C2351.55 3004.86 2354.54 3014.74 2360.47 3020.63C2366.39 3026.18 2376.63 3028.95 2391.19 3028.95H2426.03L2426.25 3068.99H2383.61C2357.26 3068.99 2337.47 3062.93 2324.23 3050.79C2310.99 3038.66 2304.3 3018.73 2304.15 2990.99L2303.26 2823.04H2266.34L2266.13 2784.04H2303.05L2302.67 2712.28H2349.99L2350.37 2784.04H2424.73L2424.94 2823.04H2350.58ZM2465.14 2925.47C2464.98 2896.35 2470.74 2870.87 2482.41 2849.04C2494.08 2826.85 2510.11 2809.69 2530.5 2797.56C2551.23 2785.42 2574.25 2779.36 2599.56 2779.36C2624.52 2779.36 2646.21 2784.73 2664.64 2795.48C2683.07 2806.22 2696.84 2819.74 2705.94 2836.04L2705.66 2784.04H2753.5L2755.02 3068.99H2707.18L2706.9 3015.95C2697.63 3032.59 2683.66 3046.46 2665 3057.55C2646.68 3068.3 2625.22 3073.67 2600.61 3073.67C2575.3 3073.67 2552.39 3067.43 2531.87 3054.95C2511.35 3042.47 2495.13 3024.97 2483.23 3002.43C2471.32 2979.9 2465.29 2954.25 2465.14 2925.47ZM2706.42 2925.99C2706.31 2904.5 2701.87 2885.78 2693.12 2869.83C2684.37 2853.89 2672.52 2841.76 2657.57 2833.44C2642.96 2824.77 2626.82 2820.44 2609.14 2820.44C2591.46 2820.44 2575.36 2824.6 2560.84 2832.92C2546.33 2841.24 2534.78 2853.37 2526.2 2869.31C2517.62 2885.26 2513.38 2903.98 2513.5 2925.47C2513.61 2947.31 2518.05 2966.38 2526.8 2982.67C2535.55 2998.62 2547.23 3010.93 2561.84 3019.59C2576.44 3027.91 2592.58 3032.07 2610.26 3032.07C2627.94 3032.07 2644.04 3027.91 2658.56 3019.59C2673.42 3010.93 2685.14 2998.62 2693.72 2982.67C2702.3 2966.38 2706.53 2947.49 2706.42 2925.99ZM2880.26 2684.2L2882.31 3068.99H2834.99L2832.94 2684.2H2880.26ZM3222.14 2915.59C3222.19 2924.61 3221.72 2934.14 3220.73 2944.19H2992.97C2994.85 2972.27 3004.5 2994.29 3021.92 3010.23C3039.69 3025.83 3061.05 3033.63 3086.01 3033.63C3106.46 3033.63 3123.42 3028.95 3136.89 3019.59C3150.71 3009.89 3160.35 2997.06 3165.81 2981.11H3216.77C3209.29 3008.5 3194.15 3030.86 3171.37 3048.19C3148.58 3065.18 3120.19 3073.67 3086.22 3073.67C3059.18 3073.67 3034.88 3067.61 3013.32 3055.47C2992.11 3043.34 2975.38 3026.18 2963.13 3003.99C2950.88 2981.46 2944.67 2955.46 2944.51 2925.99C2944.36 2896.53 2950.11 2870.7 2961.78 2848.52C2973.45 2826.33 2989.83 2809.34 3010.91 2797.56C3032.34 2785.42 3056.92 2779.36 3084.65 2779.36C3111.69 2779.36 3135.64 2785.25 3156.51 2797.04C3177.37 2808.82 3193.4 2825.12 3204.61 2845.92C3216.16 2866.37 3222 2889.59 3222.14 2915.59ZM3173.21 2905.71C3173.11 2887.69 3169.04 2872.26 3161 2859.43C3152.96 2846.26 3141.98 2836.38 3128.08 2829.8C3114.53 2822.86 3099.43 2819.4 3082.79 2819.4C3058.87 2819.4 3038.45 2827.02 3021.55 2842.28C3004.99 2857.53 2995.57 2878.67 2993.29 2905.71H3173.21ZM3645.2 2706.56L3645.4 2745.04H3546.6L3548.33 3068.99H3501.01L3499.28 2745.04H3399.96L3399.76 2706.56H3645.2ZM3845.27 2778.84C3866.77 2778.84 3886.2 2783.52 3903.59 2792.88C3920.97 2801.89 3934.56 2815.58 3944.37 2833.96C3954.52 2852.33 3959.66 2874.69 3959.8 2901.03L3960.7 3068.99H3913.9L3913.04 2907.79C3912.89 2879.37 3905.67 2857.7 3891.37 2842.8C3877.08 2827.54 3857.62 2819.92 3833.01 2819.92C3808.05 2819.92 3788.16 2827.72 3773.34 2843.32C3758.86 2858.91 3751.7 2881.62 3751.86 2911.43L3752.7 3068.99H3705.38L3703.33 2684.2H3750.65L3751.4 2824.6C3760.68 2810.04 3773.45 2798.77 3789.7 2790.8C3806.29 2782.82 3824.82 2778.84 3845.27 2778.84ZM4297.18 2915.59C4297.23 2924.61 4296.76 2934.14 4295.77 2944.19H4068.01C4069.89 2972.27 4079.54 2994.29 4096.96 3010.23C4114.73 3025.83 4136.09 3033.63 4161.05 3033.63C4181.5 3033.63 4198.46 3028.95 4211.93 3019.59C4225.75 3009.89 4235.39 2997.06 4240.85 2981.11H4291.81C4284.33 3008.5 4269.19 3030.86 4246.4 3048.19C4223.62 3065.18 4195.23 3073.67 4161.26 3073.67C4134.22 3073.67 4109.92 3067.61 4088.36 3055.47C4067.15 3043.34 4050.42 3026.18 4038.17 3003.99C4025.92 2981.46 4019.71 2955.46 4019.55 2925.99C4019.4 2896.53 4025.15 2870.7 4036.82 2848.52C4048.49 2826.33 4064.87 2809.34 4085.95 2797.56C4107.38 2785.42 4131.96 2779.36 4159.69 2779.36C4186.73 2779.36 4210.68 2785.25 4231.55 2797.04C4252.41 2808.82 4268.44 2825.12 4279.65 2845.92C4291.2 2866.37 4297.04 2889.59 4297.18 2915.59ZM4248.25 2905.71C4248.15 2887.69 4244.08 2872.26 4236.04 2859.43C4228 2846.26 4217.02 2836.38 4203.12 2829.8C4189.56 2822.86 4174.47 2819.4 4157.83 2819.4C4133.91 2819.4 4113.49 2827.02 4096.59 2842.28C4080.03 2857.53 4070.61 2878.67 4068.33 2905.71H4248.25ZM4406.5 2830.32C4414.74 2814.02 4426.46 2801.37 4441.66 2792.36C4457.21 2783.34 4476.08 2778.84 4498.27 2778.84L4498.53 2827.72H4486.05C4433.01 2827.72 4406.64 2856.49 4406.95 2914.03L4407.78 3068.99H4360.46L4358.94 2784.04H4406.26L4406.5 2830.32ZM4536 2925.47C4535.84 2896.35 4541.6 2870.87 4553.27 2849.04C4564.94 2826.85 4580.97 2809.69 4601.35 2797.56C4622.09 2785.42 4645.11 2779.36 4670.42 2779.36C4695.38 2779.36 4717.07 2784.73 4735.5 2795.48C4753.93 2806.22 4767.7 2819.74 4776.8 2836.04L4776.52 2784.04H4824.36L4825.88 3068.99H4778.04L4777.76 3015.95C4768.49 3032.59 4754.52 3046.46 4735.86 3057.55C4717.54 3068.3 4696.08 3073.67 4671.47 3073.67C4646.16 3073.67 4623.25 3067.43 4602.73 3054.95C4582.21 3042.47 4565.99 3024.97 4554.09 3002.43C4542.18 2979.9 4536.15 2954.25 4536 2925.47ZM4777.28 2925.99C4777.16 2904.5 4772.73 2885.78 4763.98 2869.83C4755.23 2853.89 4743.38 2841.76 4728.43 2833.44C4713.82 2824.77 4697.68 2820.44 4680 2820.44C4662.32 2820.44 4646.22 2824.6 4631.7 2832.92C4617.19 2841.24 4605.64 2853.37 4597.06 2869.31C4588.48 2885.26 4584.24 2903.98 4584.36 2925.47C4584.47 2947.31 4588.91 2966.38 4597.66 2982.67C4606.41 2998.62 4618.09 3010.93 4632.7 3019.59C4647.3 3027.91 4663.44 3032.07 4681.12 3032.07C4698.8 3032.07 4714.9 3027.91 4729.42 3019.59C4744.28 3010.93 4756 2998.62 4764.58 2982.67C4773.16 2966.38 4777.39 2947.49 4777.28 2925.99ZM4951.93 2836.56C4961.2 2820.26 4975 2806.74 4993.31 2796C5011.97 2784.9 5033.61 2779.36 5058.22 2779.36C5083.53 2779.36 5106.44 2785.42 5126.96 2797.56C5147.83 2809.69 5164.21 2826.85 5176.12 2849.04C5188.02 2870.87 5194.05 2896.35 5194.2 2925.47C5194.36 2954.25 5188.6 2979.9 5176.93 3002.43C5165.27 3024.97 5149.07 3042.47 5128.33 3054.95C5107.95 3067.43 5085.1 3073.67 5059.79 3073.67C5035.53 3073.67 5014 3068.3 4995.23 3057.55C4976.79 3046.46 4962.68 3032.77 4952.89 3016.47L4953.89 3204.19H4906.57L4904.33 2784.04H4951.65L4951.93 2836.56ZM5145.84 2925.47C5145.73 2903.98 5141.29 2885.26 5132.54 2869.31C5123.79 2853.37 5111.94 2841.24 5096.99 2832.92C5082.38 2824.6 5066.24 2820.44 5048.56 2820.44C5031.23 2820.44 5015.13 2824.77 5000.27 2833.44C4985.76 2841.76 4974.04 2854.06 4965.11 2870.35C4956.53 2886.3 4952.29 2904.85 4952.41 2925.99C4952.52 2947.49 4956.95 2966.38 4965.71 2982.67C4974.81 2998.62 4986.66 3010.93 5001.26 3019.59C5016.21 3027.91 5032.36 3032.07 5049.69 3032.07C5067.37 3032.07 5083.47 3027.91 5097.98 3019.59C5112.84 3010.93 5124.57 2998.62 5133.15 2982.67C5141.73 2966.38 5145.96 2947.31 5145.84 2925.47ZM5279.93 2737.76C5270.92 2737.76 5263.27 2734.64 5257 2728.4C5250.73 2722.16 5247.56 2714.53 5247.52 2705.52C5247.47 2696.5 5250.55 2688.88 5256.75 2682.64C5262.96 2676.4 5270.57 2673.28 5279.59 2673.28C5288.25 2673.28 5295.55 2676.4 5301.47 2682.64C5307.75 2688.88 5310.91 2696.5 5310.96 2705.52C5311 2714.53 5307.93 2722.16 5301.72 2728.4C5295.86 2734.64 5288.6 2737.76 5279.93 2737.76ZM5303.06 2784.04L5304.57 3068.99H5257.25L5255.74 2784.04H5303.06ZM5644.4 2915.59C5644.45 2924.61 5643.98 2934.14 5643 2944.19H5415.24C5417.12 2972.27 5426.77 2994.29 5444.19 3010.23C5461.95 3025.83 5483.31 3033.63 5508.27 3033.63C5528.73 3033.63 5545.69 3028.95 5559.16 3019.59C5572.97 3009.89 5582.61 2997.06 5588.07 2981.11H5639.03C5631.55 3008.5 5616.42 3030.86 5593.63 3048.19C5570.84 3065.18 5542.46 3073.67 5508.49 3073.67C5481.45 3073.67 5457.15 3067.61 5435.59 3055.47C5414.38 3043.34 5397.65 3026.18 5385.4 3003.99C5373.14 2981.46 5366.94 2955.46 5366.78 2925.99C5366.62 2896.53 5372.38 2870.7 5384.05 2848.52C5395.72 2826.33 5412.09 2809.34 5433.18 2797.56C5454.6 2785.42 5479.19 2779.36 5506.92 2779.36C5533.96 2779.36 5557.91 2785.25 5578.77 2797.04C5599.64 2808.82 5615.67 2825.12 5626.87 2845.92C5638.42 2866.37 5644.27 2889.59 5644.4 2915.59ZM5595.47 2905.71C5595.38 2887.69 5591.31 2872.26 5583.27 2859.43C5575.22 2846.26 5564.25 2836.38 5550.35 2829.8C5536.79 2822.86 5521.69 2819.4 5505.05 2819.4C5481.13 2819.4 5460.72 2827.02 5443.81 2842.28C5427.26 2857.53 5417.83 2878.67 5415.55 2905.71H5595.47ZM5764.09 2823.04L5764.99 2990.99C5765.06 3004.86 5768.06 3014.74 5773.99 3020.63C5779.91 3026.18 5790.15 3028.95 5804.71 3028.95H5839.55L5839.76 3068.99H5797.12C5770.78 3068.99 5750.98 3062.93 5737.75 3050.79C5724.51 3038.66 5717.82 3018.73 5717.67 2990.99L5716.77 2823.04H5679.85L5679.64 2784.04H5716.56L5716.18 2712.28H5763.5L5763.88 2784.04H5838.24L5838.45 2823.04H5764.09ZM5878.65 2925.47C5878.5 2896.35 5884.25 2870.87 5895.93 2849.04C5907.59 2826.85 5923.62 2809.69 5944.01 2797.56C5964.75 2785.42 5987.77 2779.36 6013.07 2779.36C6038.03 2779.36 6059.73 2784.73 6078.16 2795.48C6096.59 2806.22 6110.36 2819.74 6119.46 2836.04L6119.18 2784.04H6167.02L6168.54 3068.99H6120.7L6120.41 3015.95C6111.14 3032.59 6097.18 3046.46 6078.52 3057.55C6060.2 3068.3 6038.74 3073.67 6014.12 3073.67C5988.82 3073.67 5965.9 3067.43 5945.38 3054.95C5924.86 3042.47 5908.65 3024.97 5896.74 3002.43C5884.84 2979.9 5878.81 2954.25 5878.65 2925.47ZM6119.94 2925.99C6119.82 2904.5 6115.39 2885.78 6106.64 2869.83C6097.88 2853.89 6086.03 2841.76 6071.08 2833.44C6056.48 2824.77 6040.33 2820.44 6022.65 2820.44C6004.97 2820.44 5988.87 2824.6 5974.36 2832.92C5959.84 2841.24 5948.29 2853.37 5939.71 2869.31C5931.13 2885.26 5926.9 2903.98 5927.01 2925.47C5927.13 2947.31 5931.56 2966.38 5940.32 2982.67C5949.07 2998.62 5960.75 3010.93 5975.35 3019.59C5989.96 3027.91 6006.1 3032.07 6023.78 3032.07C6041.46 3032.07 6057.56 3027.91 6072.07 3019.59C6086.93 3010.93 6098.66 2998.62 6107.24 2982.67C6115.82 2966.38 6120.05 2947.49 6119.94 2925.99ZM6364.48 2779.36C6389.09 2779.36 6410.62 2784.73 6429.05 2795.48C6447.82 2806.22 6461.76 2819.74 6470.86 2836.04L6470.59 2784.04H6518.43L6519.98 3075.23C6520.11 3101.23 6514.69 3124.28 6503.7 3144.39C6492.72 3164.84 6476.86 3180.79 6456.12 3192.23C6435.73 3203.67 6411.84 3209.39 6384.45 3209.39C6347.01 3209.39 6315.76 3200.55 6290.71 3182.87C6265.66 3165.19 6250.79 3141.1 6246.12 3110.59H6292.92C6298.22 3127.92 6309.04 3141.79 6325.39 3152.19C6341.74 3162.94 6361.35 3168.31 6384.23 3168.31C6410.23 3168.31 6431.34 3160.16 6447.54 3143.87C6464.1 3127.58 6472.29 3104.7 6472.14 3075.23L6471.82 3015.43C6462.55 3032.07 6448.75 3045.94 6430.44 3057.03C6412.13 3068.13 6390.66 3073.67 6366.05 3073.67C6340.74 3073.67 6317.65 3067.43 6296.79 3054.95C6276.27 3042.47 6260.06 3024.97 6248.15 3002.43C6236.24 2979.9 6230.21 2954.25 6230.06 2925.47C6229.9 2896.35 6235.66 2870.87 6247.33 2849.04C6259 2826.85 6275.03 2809.69 6295.42 2797.56C6316.15 2785.42 6339.17 2779.36 6364.48 2779.36ZM6471.34 2925.99C6471.23 2904.5 6466.79 2885.78 6458.04 2869.83C6449.29 2853.89 6437.44 2841.76 6422.49 2833.44C6407.88 2824.77 6391.74 2820.44 6374.06 2820.44C6356.38 2820.44 6340.28 2824.6 6325.77 2832.92C6311.25 2841.24 6299.7 2853.37 6291.12 2869.31C6282.54 2885.26 6278.3 2903.98 6278.42 2925.47C6278.53 2947.31 6282.97 2966.38 6291.72 2982.67C6300.47 2998.62 6312.15 3010.93 6326.76 3019.59C6341.36 3027.91 6357.51 3032.07 6375.19 3032.07C6392.87 3032.07 6408.96 3027.91 6423.48 3019.59C6438.34 3010.93 6450.06 2998.62 6458.64 2982.67C6467.22 2966.38 6471.46 2947.49 6471.34 2925.99ZM6859.09 2915.59C6859.14 2924.61 6858.67 2934.14 6857.68 2944.19H6629.92C6631.81 2972.27 6641.46 2994.29 6658.88 3010.23C6676.64 3025.83 6698 3033.63 6722.96 3033.63C6743.41 3033.63 6760.38 3028.95 6773.85 3019.59C6787.66 3009.89 6797.3 2997.06 6802.76 2981.11H6853.72C6846.24 3008.5 6831.11 3030.86 6808.32 3048.19C6785.53 3065.18 6757.15 3073.67 6723.17 3073.67C6696.13 3073.67 6671.84 3067.61 6650.28 3055.47C6629.07 3043.34 6612.33 3026.18 6600.08 3003.99C6587.83 2981.46 6581.62 2955.46 6581.47 2925.99C6581.31 2896.53 6587.07 2870.7 6598.73 2848.52C6610.4 2826.33 6626.78 2809.34 6647.86 2797.56C6669.29 2785.42 6693.87 2779.36 6721.61 2779.36C6748.65 2779.36 6772.6 2785.25 6793.46 2797.04C6814.32 2808.82 6830.36 2825.12 6841.56 2845.92C6853.11 2866.37 6858.95 2889.59 6859.09 2915.59ZM6810.16 2905.71C6810.06 2887.69 6805.99 2872.26 6797.95 2859.43C6789.91 2846.26 6778.94 2836.38 6765.04 2829.8C6751.48 2822.86 6736.38 2819.4 6719.74 2819.4C6695.82 2819.4 6675.41 2827.02 6658.5 2842.28C6641.94 2857.53 6632.52 2878.67 6630.24 2905.71H6810.16ZM6968.45 2837.08C6978.07 2820.09 6992.21 2806.22 7010.87 2795.48C7029.54 2784.73 7050.83 2779.36 7074.75 2779.36C7100.4 2779.36 7123.49 2785.42 7144 2797.56C7164.52 2809.69 7180.73 2826.85 7192.64 2849.04C7204.54 2870.87 7210.57 2896.35 7210.73 2925.47C7210.88 2954.25 7205.12 2979.9 7193.46 3002.43C7181.79 3024.97 7165.59 3042.47 7144.86 3054.95C7124.47 3067.43 7101.62 3073.67 7076.32 3073.67C7051.7 3073.67 7030.01 3068.3 7011.23 3057.55C6992.8 3046.81 6978.86 3033.11 6969.41 3016.47L6969.69 3068.99H6922.37L6920.32 2684.2H6967.64L6968.45 2837.08ZM7162.37 2925.47C7162.25 2903.98 7157.82 2885.26 7149.07 2869.31C7140.32 2853.37 7128.46 2841.24 7113.51 2832.92C7098.91 2824.6 7082.77 2820.44 7065.09 2820.44C7047.75 2820.44 7031.66 2824.77 7016.8 2833.44C7002.28 2841.76 6990.56 2854.06 6981.63 2870.35C6973.05 2886.3 6968.82 2904.85 6968.93 2925.99C6969.04 2947.49 6973.48 2966.38 6982.23 2982.67C6991.33 2998.62 7003.18 3010.93 7017.79 3019.59C7032.74 3027.91 7048.88 3032.07 7066.21 3032.07C7083.89 3032.07 7099.99 3027.91 7114.51 3019.59C7129.37 3010.93 7141.09 2998.62 7149.67 2982.67C7158.25 2966.38 7162.48 2947.31 7162.37 2925.47ZM7524.98 2784.04L7526.5 3068.99H7479.18L7478.95 3026.87C7470.02 3041.43 7457.42 3052.87 7441.18 3061.19C7425.27 3069.17 7407.61 3073.15 7388.2 3073.15C7366.01 3073.15 7346.05 3068.65 7328.33 3059.63C7310.6 3050.27 7296.48 3036.41 7285.99 3018.03C7275.83 2999.66 7270.69 2977.3 7270.55 2950.95L7269.66 2784.04H7316.46L7317.31 2944.71C7317.46 2972.79 7324.69 2994.46 7338.98 3009.71C7353.27 3024.62 7372.73 3032.07 7397.34 3032.07C7422.65 3032.07 7442.54 3024.27 7457.02 3008.67C7471.49 2993.07 7478.65 2970.37 7478.49 2940.55L7477.66 2784.04H7524.98ZM7587.95 2925.99C7587.8 2896.53 7593.55 2870.87 7605.22 2849.04C7616.89 2826.85 7633.09 2809.69 7653.83 2797.56C7674.91 2785.42 7698.97 2779.36 7726.01 2779.36C7761.02 2779.36 7789.84 2787.85 7812.47 2804.84C7835.44 2821.82 7850.64 2845.4 7858.08 2875.55H7807.12C7802.18 2858.22 7792.57 2844.53 7778.3 2834.48C7764.38 2824.42 7747.02 2819.4 7726.22 2819.4C7699.18 2819.4 7677.39 2828.76 7660.85 2847.48C7644.31 2865.85 7636.13 2892.02 7636.31 2925.99C7636.49 2960.31 7644.96 2986.83 7661.7 3005.55C7678.44 3024.27 7700.33 3033.63 7727.37 3033.63C7748.17 3033.63 7765.47 3028.78 7779.29 3019.07C7793.1 3009.37 7802.56 2995.5 7807.67 2977.47H7858.63C7851.15 3006.59 7836.03 3029.99 7813.24 3047.67C7790.45 3065.01 7761.9 3073.67 7727.58 3073.67C7700.54 3073.67 7676.41 3067.61 7655.2 3055.47C7634.34 3043.34 7617.95 3026.18 7606.05 3003.99C7594.14 2981.81 7588.11 2955.81 7587.95 2925.99ZM8062.15 2778.84C8083.64 2778.84 8103.08 2783.52 8120.46 2792.88C8137.84 2801.89 8151.44 2815.58 8161.24 2833.96C8171.39 2852.33 8176.54 2874.69 8176.68 2901.03L8177.57 3068.99H8130.77L8129.91 2907.79C8129.76 2879.37 8122.54 2857.7 8108.25 2842.8C8093.95 2827.54 8074.5 2819.92 8049.89 2819.92C8024.93 2819.92 8005.03 2827.72 7990.21 2843.32C7975.73 2858.91 7968.58 2881.62 7968.73 2911.43L7969.57 3068.99H7922.25L7920.2 2684.2H7967.52L7968.27 2824.6C7977.55 2810.04 7990.32 2798.77 8006.57 2790.8C8023.17 2782.82 8041.69 2778.84 8062.15 2778.84Z" fill="#515151"/>
<path d="M4212.5 2385.11C4212.5 2395.39 4209.03 2403.81 4201.75 2409.88C4194.22 2416.17 4181.21 2421.09 4160.06 2421.09C4138.93 2421.09 4120.34 2416.16 4107.42 2408.77C4094.2 2401.19 4088.93 2392.42 4088.93 2385.11C4088.93 2377.81 4094.2 2369.03 4107.42 2361.46C4120.34 2354.06 4138.93 2349.13 4160.06 2349.13C4181.21 2349.13 4194.22 2354.06 4201.75 2360.34C4209.03 2366.42 4212.5 2374.84 4212.5 2385.11Z" fill="#FF896D" stroke="#FF896D" stroke-width="22.2542"/>
<path d="M4387.97 2385.11C4387.97 2395.39 4391.45 2403.81 4398.72 2409.88C4406.26 2416.17 4419.26 2421.09 4440.41 2421.09C4461.55 2421.09 4480.13 2416.16 4493.05 2408.77C4506.28 2401.19 4511.54 2392.42 4511.54 2385.11C4511.54 2377.81 4506.28 2369.03 4493.05 2361.46C4480.13 2354.06 4461.55 2349.13 4440.41 2349.13C4419.26 2349.13 4406.26 2354.06 4398.72 2360.34C4391.45 2366.42 4387.97 2374.84 4387.97 2385.11Z" fill="#FF896D" stroke="#FF896D" stroke-width="22.2542"/>
<path d="M4137.16 2339.78L4116.28 1955.8L4137.15 1572.81C4138.09 1555.55 4152.36 1542.03 4169.65 1542.03C4188.84 1542.03 4203.87 1558.56 4202.04 1577.67L4169.28 1920.84C4167.06 1944.09 4167.06 1967.5 4169.27 1990.75L4202.05 2334.92C4203.87 2354.03 4188.85 2370.56 4169.65 2370.56C4152.37 2370.56 4138.09 2357.04 4137.16 2339.78Z" fill="#FF896D" stroke="#FF896D" stroke-width="22.2542"/>
<path d="M3940.18 1922.12L3919.55 1722.83C3917.84 1706.31 3917.84 1689.65 3919.53 1673.13L3940.2 1471.56C3941.27 1461.19 3950 1453.31 3960.43 1453.31C3972.42 1453.31 3981.81 1463.64 3980.66 1475.58L3961.36 1676.5C3959.99 1690.8 3959.99 1705.19 3961.38 1719.48L3980.63 1918.07C3981.79 1930.02 3972.4 1940.36 3960.4 1940.36C3949.98 1940.36 3941.25 1932.49 3940.18 1922.12Z" fill="#FF896D" stroke="#FF896D" stroke-width="22.2542"/>
<path d="M4656.88 1695.59L4656.93 1694.83L4656.88 1694.06L4641.7 1475.04C4640.89 1463.29 4650.2 1453.31 4661.98 1453.31C4672.65 1453.31 4681.5 1461.56 4682.25 1472.2L4697.94 1694.84L4682.22 1921.44C4681.48 1932.09 4672.63 1940.36 4661.95 1940.36C4650.17 1940.36 4640.87 1930.39 4641.67 1918.65L4656.88 1695.59Z" fill="#FF896D" stroke="#FF896D" stroke-width="22.2542"/>
<path d="M4424.11 1951.27L4424.17 1950.5L4424.11 1949.72L4397.83 1577.05C4396.5 1558.12 4411.5 1542.03 4430.47 1542.03C4448.1 1542.03 4462.56 1556 4463.17 1573.62L4476.28 1950.51L4463.14 2338.92C4462.54 2356.56 4448.06 2370.56 4430.41 2370.56C4411.44 2370.56 4396.44 2354.49 4397.74 2335.57L4424.11 1951.27Z" fill="#FF896D" stroke="#FF896D" stroke-width="22.2542"/>
<path d="M4707.7 1956.85C4707.7 1984.18 4688.94 2003.4 4669.15 2003.4C4649.37 2003.4 4630.61 1984.18 4630.61 1956.85C4630.61 1929.53 4649.37 1910.3 4669.15 1910.3C4688.94 1910.3 4707.7 1929.53 4707.7 1956.85Z" fill="#FF896D" stroke="#FF896D" stroke-width="22.2542"/>
<path d="M4002.11 1951.49C4002.11 1978.82 3983.35 1998.04 3963.57 1998.04C3943.78 1998.04 3925.02 1978.82 3925.02 1951.49C3925.02 1924.17 3943.78 1904.94 3963.57 1904.94C3983.35 1904.94 4002.11 1924.17 4002.11 1951.49Z" fill="#FF896D" stroke="#FF896D" stroke-width="22.2542"/>
<path d="M5067.56 638.017C5067.56 1035.17 4936.14 1674.74 4202.36 1773.3C3644.66 1521.41 3644.66 1035.17 3644.66 638.017C3644.66 240.863 3919.99 65 4329.46 65C4738.94 65 5067.56 240.863 5067.56 638.017Z" fill="#FF896D"/>
<path d="M4279.42 544.625C4252.66 601.76 4162.14 661.439 4072.81 661.36C3983.48 661.28 3900.16 593.436 3873.49 544.265C3913.6 491.966 3983.69 427.935 4073.01 428.014C4162.34 428.093 4258.11 486.931 4279.42 544.625Z" fill="white"/>
<path d="M4770.24 545.038C4743.48 602.173 4652.95 661.852 4563.62 661.773C4474.3 661.694 4390.97 593.849 4364.31 544.678C4404.42 492.38 4474.5 428.349 4563.83 428.428C4653.16 428.507 4748.92 487.344 4770.24 545.038Z" fill="white"/>
<circle cx="4071.23" cy="503.74" r="75.7333" transform="rotate(9.41996 4071.23 503.74)" fill="black"/>
<circle cx="4565.91" cy="505.194" r="75.7333" transform="rotate(9.41996 4565.91 505.194)" fill="black"/>
<path d="M4478.83 858.697C4478.83 886.65 4457.7 913.458 4420.1 933.223C4382.5 952.988 4331.49 964.092 4278.32 964.092C4225.14 964.092 4174.13 952.988 4136.53 933.223C4098.93 913.458 4077.8 886.65 4077.8 858.697L4087.85 858.697C4087.85 885.249 4107.91 910.714 4143.63 929.489C4179.35 948.264 4227.8 958.812 4278.32 958.812C4328.83 958.812 4377.28 948.264 4413 929.489C4448.72 910.714 4468.78 885.249 4468.78 858.697H4478.83Z" fill="white"/>
<path d="M1538.54 1381.15C1616.36 1381.15 1685.68 1397.57 1746.48 1430.4C1807.29 1462.02 1855.32 1510.06 1890.59 1574.51C1925.85 1638.96 1943.49 1717.4 1943.49 1809.82V2399H1779.32V1833.53C1779.32 1733.81 1754.39 1657.81 1704.53 1605.52C1655.89 1552.01 1589.61 1525.26 1505.7 1525.26C1419.36 1525.26 1350.65 1553.23 1299.58 1609.17C1248.51 1663.89 1222.97 1743.54 1222.97 1848.12V2399H1058.8V1833.53C1058.8 1733.81 1033.87 1657.81 984.011 1605.52C935.368 1552.01 869.092 1525.26 785.184 1525.26C698.843 1525.26 630.136 1553.23 579.061 1609.17C527.986 1663.89 502.449 1743.54 502.449 1848.12V2399H336.456V1399.39H502.449V1543.5C535.282 1491.21 579.061 1451.08 633.784 1423.11C689.723 1395.14 751.134 1381.15 818.018 1381.15C901.926 1381.15 976.106 1400 1040.56 1437.7C1105.01 1475.4 1153.04 1530.73 1184.66 1603.69C1212.63 1533.16 1258.84 1478.44 1323.29 1439.52C1387.74 1400.61 1459.49 1381.15 1538.54 1381.15ZM2319.75 1237.05C2288.13 1237.05 2261.38 1226.1 2239.49 1204.22C2217.6 1182.33 2206.66 1155.57 2206.66 1123.95C2206.66 1092.34 2217.6 1065.58 2239.49 1043.69C2261.38 1021.81 2288.13 1010.86 2319.75 1010.86C2350.15 1010.86 2375.69 1021.81 2396.36 1043.69C2418.25 1065.58 2429.2 1092.34 2429.2 1123.95C2429.2 1155.57 2418.25 1182.33 2396.36 1204.22C2375.69 1226.1 2350.15 1237.05 2319.75 1237.05ZM2400.01 1399.39V2399H2234.02V1399.39H2400.01ZM3188.19 1381.15C3309.8 1381.15 3408.3 1418.24 3483.7 1492.42C3559.09 1565.39 3596.79 1671.18 3596.79 1809.82V2399H3432.62V1833.53C3432.62 1733.81 3407.69 1657.81 3357.83 1605.52C3307.97 1552.01 3239.87 1525.26 3153.53 1525.26C3065.98 1525.26 2996.05 1552.62 2943.76 1607.34C2892.69 1662.06 2867.15 1741.72 2867.15 1846.3V2399H2701.16V1399.39H2867.15V1541.67C2899.98 1490.6 2944.37 1451.08 3000.31 1423.11C3057.46 1395.14 3120.09 1381.15 3188.19 1381.15ZM6310.05 1381.15C6387.88 1381.15 6457.2 1397.57 6518 1430.4C6578.8 1462.02 6626.84 1510.06 6662.1 1574.51C6697.37 1638.96 6715 1717.4 6715 1809.82V2399H6550.83V1833.53C6550.83 1733.81 6525.9 1657.81 6476.04 1605.52C6427.4 1552.01 6361.13 1525.26 6277.22 1525.26C6190.88 1525.26 6122.17 1553.23 6071.09 1609.17C6020.02 1663.89 5994.48 1743.54 5994.48 1848.12V2399H5830.31V1833.53C5830.31 1733.81 5805.38 1657.81 5755.53 1605.52C5706.88 1552.01 5640.61 1525.26 5556.7 1525.26C5470.36 1525.26 5401.65 1553.23 5350.58 1609.17C5299.5 1663.89 5273.96 1743.54 5273.96 1848.12V2399H5107.97V1399.39H5273.96V1543.5C5306.8 1491.21 5350.58 1451.08 5405.3 1423.11C5461.24 1395.14 5522.65 1381.15 5589.53 1381.15C5673.44 1381.15 5747.62 1400 5812.07 1437.7C5876.52 1475.4 5924.56 1530.73 5956.18 1603.69C5984.15 1533.16 6030.36 1478.44 6094.81 1439.52C6159.26 1400.61 6231.01 1381.15 6310.05 1381.15ZM7917.58 1860.89C7917.58 1892.51 7915.76 1925.95 7912.11 1961.22H7113.15C7119.23 2059.72 7152.68 2136.94 7213.48 2192.88C7275.5 2247.6 7350.29 2274.96 7437.84 2274.96C7509.59 2274.96 7569.18 2258.54 7616.6 2225.71C7665.25 2191.66 7699.3 2146.67 7718.75 2090.73H7897.52C7870.76 2186.8 7817.26 2265.23 7736.99 2326.04C7656.73 2385.62 7557.02 2415.42 7437.84 2415.42C7342.99 2415.42 7257.86 2394.14 7182.47 2351.57C7108.29 2309.01 7049.92 2248.82 7007.36 2170.99C6964.79 2091.94 6943.51 2000.74 6943.51 1897.37C6943.51 1794.01 6964.19 1703.41 7005.53 1625.58C7046.88 1547.75 7104.64 1488.17 7178.82 1446.82C7254.22 1404.26 7340.56 1382.98 7437.84 1382.98C7532.7 1382.98 7616.6 1403.65 7689.57 1445C7762.53 1486.34 7818.47 1543.5 7857.39 1616.46C7897.52 1688.21 7917.58 1769.69 7917.58 1860.89ZM7746.12 1826.23C7746.12 1763 7732.13 1708.88 7704.16 1663.89C7676.19 1617.68 7637.89 1583.02 7589.24 1559.91C7541.82 1535.59 7488.92 1523.43 7430.55 1523.43C7346.64 1523.43 7274.89 1550.19 7215.3 1603.69C7156.93 1657.2 7123.49 1731.38 7114.98 1826.23H7746.12Z" fill="#515151"/>
<path d="M8016.2 1078L7966.4 992.5H7933.4V1078H7906.1V868.9H7973.6C7989.4 868.9 8002.7 871.6 8013.5 877C8024.5 882.4 8032.7 889.7 8038.1 898.9C8043.5 908.1 8046.2 918.6 8046.2 930.4C8046.2 944.8 8042 957.5 8033.6 968.5C8025.4 979.5 8013 986.8 7996.4 990.4L8048.9 1078H8016.2ZM7933.4 970.6H7973.6C7988.4 970.6 7999.5 967 8006.9 959.8C8014.3 952.4 8018 942.6 8018 930.4C8018 918 8014.3 908.4 8006.9 901.6C7999.7 894.8 7988.6 891.4 7973.6 891.4H7933.4V970.6Z" fill="#515151"/>
<circle cx="7969" cy="970.68" r="225" stroke="#515151" stroke-width="50"/>
</svg>
