<svg width="8791" height="2869" viewBox="0 0 8791 2869" fill="none" xmlns="http://www.w3.org/2000/svg">
<path d="M4016.5 2520.25C4016.5 2530.53 4013.03 2538.95 4005.75 2545.02C3998.22 2551.31 3985.22 2556.23 3964.06 2556.23C3942.93 2556.23 3924.34 2551.3 3911.43 2543.91C3898.2 2536.33 3892.93 2527.56 3892.93 2520.25C3892.93 2512.95 3898.2 2504.17 3911.43 2496.6C3924.34 2489.2 3942.93 2484.27 3964.06 2484.27C3985.22 2484.27 3998.22 2489.2 4005.75 2495.48C4013.03 2501.56 4016.5 2509.98 4016.5 2520.25Z" fill="#FF896D" stroke="#FF896D" stroke-width="22.2542"/>
<path d="M4191.97 2520.25C4191.97 2530.53 4195.45 2538.95 4202.72 2545.02C4210.26 2551.31 4223.26 2556.23 4244.41 2556.23C4265.55 2556.23 4284.13 2551.3 4297.05 2543.91C4310.28 2536.33 4315.54 2527.56 4315.54 2520.25C4315.54 2512.95 4310.28 2504.17 4297.05 2496.6C4284.13 2489.2 4265.55 2484.27 4244.41 2484.27C4223.26 2484.27 4210.26 2489.2 4202.72 2495.48C4195.45 2501.56 4191.97 2509.98 4191.97 2520.25Z" fill="#FF896D" stroke="#FF896D" stroke-width="22.2542"/>
<path d="M3941.15 1707.95C3942.09 1690.69 3956.36 1677.17 3973.65 1677.17C3992.84 1677.17 4007.87 1693.7 4006.04 1712.81L3973.28 2055.98C3971.06 2079.23 3971.06 2102.64 3973.27 2125.89L4006.05 2470.06C4007.87 2489.17 3992.85 2505.7 3973.65 2505.7C3956.37 2505.7 3942.09 2492.18 3941.16 2474.92L3920.28 2090.94L3941.15 1707.95Z" fill="#FF896D" stroke="#FF896D" stroke-width="22.2542"/>
<path d="M3744.2 1606.71C3745.27 1596.34 3754 1588.45 3764.43 1588.45C3776.42 1588.45 3785.81 1598.78 3784.66 1610.72L3765.36 1811.64C3763.99 1825.94 3763.99 1840.33 3765.38 1854.62L3784.63 2053.21C3785.79 2065.16 3776.4 2075.5 3764.4 2075.5C3753.98 2075.5 3745.25 2067.63 3744.18 2057.27L3723.55 1857.97C3721.84 1841.45 3721.84 1824.8 3723.53 1808.27L3744.2 1606.71Z" fill="#FF896D" stroke="#FF896D" stroke-width="22.2542"/>
<path d="M4460.88 1830.73L4460.93 1829.97L4460.88 1829.2L4445.7 1610.18C4444.89 1598.43 4454.2 1588.45 4465.98 1588.45C4476.65 1588.45 4485.5 1596.7 4486.25 1607.35L4501.94 1829.98L4486.22 2056.58C4485.48 2067.24 4476.63 2075.5 4465.95 2075.5C4454.17 2075.5 4444.87 2065.54 4445.67 2053.79L4460.88 1830.73Z" fill="#FF896D" stroke="#FF896D" stroke-width="22.2542"/>
<path d="M4228.11 2086.41L4228.17 2085.64L4228.11 2084.86L4201.83 1712.2C4200.5 1693.27 4215.49 1677.17 4234.47 1677.17C4252.1 1677.17 4266.56 1691.14 4267.17 1708.76L4280.28 2085.65L4267.13 2474.06C4266.54 2491.7 4252.06 2505.7 4234.41 2505.7C4215.44 2505.7 4200.44 2489.63 4201.74 2470.71L4228.11 2086.41Z" fill="#FF896D" stroke="#FF896D" stroke-width="22.2542"/>
<path d="M4511.7 2091.99C4511.7 2119.32 4492.94 2138.54 4473.15 2138.54C4453.37 2138.54 4434.61 2119.32 4434.61 2091.99C4434.61 2064.67 4453.37 2045.44 4473.15 2045.44C4492.94 2045.44 4511.7 2064.67 4511.7 2091.99Z" fill="#FF896D" stroke="#FF896D" stroke-width="22.2542"/>
<path d="M3806.11 2086.63C3806.11 2113.96 3787.35 2133.18 3767.57 2133.18C3747.78 2133.18 3729.02 2113.96 3729.02 2086.63C3729.02 2059.31 3747.78 2040.08 3767.57 2040.08C3787.35 2040.08 3806.11 2059.31 3806.11 2086.63Z" fill="#FF896D" stroke="#FF896D" stroke-width="22.2542"/>
<path d="M4871.56 773.158C4871.56 1170.31 4740.14 1809.88 4006.36 1908.44C3448.66 1656.55 3448.66 1170.31 3448.66 773.158C3448.66 376.004 3723.99 200.141 4133.46 200.141C4542.94 200.141 4871.56 376.004 4871.56 773.158Z" fill="#FF896D"/>
<path d="M4083.42 679.764C4056.66 736.899 3966.13 796.578 3876.81 796.499C3787.48 796.42 3704.15 728.575 3677.49 679.404C3717.6 627.105 3787.68 563.074 3877.01 563.153C3966.34 563.232 4062.1 622.07 4083.42 679.764Z" fill="white"/>
<path d="M4574.24 680.178C4547.48 737.313 4456.95 796.992 4367.62 796.913C4278.3 796.834 4194.97 728.989 4168.31 679.818C4208.42 627.519 4278.5 563.488 4367.83 563.567C4457.16 563.647 4552.92 622.484 4574.24 680.178Z" fill="white"/>
<circle cx="3875.23" cy="638.881" r="75.7333" transform="rotate(9.41996 3875.23 638.881)" fill="black"/>
<circle cx="4369.91" cy="640.334" r="75.7333" transform="rotate(9.41996 4369.91 640.334)" fill="black"/>
<path d="M4282.83 993.837C4282.83 1021.79 4261.71 1048.6 4224.1 1068.36C4186.5 1088.13 4135.5 1099.23 4082.32 1099.23C4029.14 1099.23 3978.14 1088.13 3940.53 1068.36C3902.93 1048.6 3881.8 1021.79 3881.8 993.837H3891.85C3891.85 1020.39 3911.92 1045.85 3947.64 1064.63C3983.36 1083.4 4031.8 1093.95 4082.32 1093.95C4132.83 1093.95 4181.28 1083.4 4217 1064.63C4252.72 1045.85 4272.79 1020.39 4272.79 993.837H4282.83Z" fill="white"/>
<path d="M1342.54 1516.29C1420.36 1516.29 1489.68 1532.71 1550.48 1565.54C1611.29 1597.16 1659.32 1645.2 1694.59 1709.65C1729.85 1774.1 1747.49 1852.54 1747.49 1944.96V2534.14H1583.32V1968.67C1583.32 1868.95 1558.39 1792.95 1508.53 1740.66C1459.89 1687.15 1393.61 1660.4 1309.7 1660.4C1223.36 1660.4 1154.65 1688.37 1103.58 1744.31C1052.51 1799.03 1026.97 1878.68 1026.97 1983.26V2534.14H862.799V1968.67C862.799 1868.95 837.869 1792.95 788.011 1740.66C739.368 1687.15 673.092 1660.4 589.184 1660.4C502.843 1660.4 434.136 1688.37 383.061 1744.31C331.986 1799.03 306.449 1878.68 306.449 1983.26V2534.14H140.456V1534.53H306.449V1678.64C339.282 1626.35 383.061 1586.22 437.784 1558.25C493.723 1530.28 555.134 1516.29 622.018 1516.29C705.926 1516.29 780.106 1535.14 844.558 1572.84C909.009 1610.54 957.044 1665.87 988.662 1738.83C1016.63 1668.3 1062.84 1613.58 1127.29 1574.66C1191.74 1535.75 1263.49 1516.29 1342.54 1516.29ZM2123.75 1372.19C2092.13 1372.19 2065.38 1361.25 2043.49 1339.36C2021.6 1317.47 2010.66 1290.71 2010.66 1259.1C2010.66 1227.48 2021.6 1200.72 2043.49 1178.84C2065.38 1156.95 2092.13 1146 2123.75 1146C2154.15 1146 2179.69 1156.95 2200.36 1178.84C2222.25 1200.72 2233.2 1227.48 2233.2 1259.1C2233.2 1290.71 2222.25 1317.47 2200.36 1339.36C2179.69 1361.25 2154.15 1372.19 2123.75 1372.19ZM2204.01 1534.53V2534.14H2038.02V1534.53H2204.01ZM2992.19 1516.29C3113.8 1516.29 3212.3 1553.38 3287.7 1627.56C3363.09 1700.53 3400.79 1806.33 3400.79 1944.96V2534.14H3236.62V1968.67C3236.62 1868.95 3211.69 1792.95 3161.83 1740.66C3111.97 1687.15 3043.87 1660.4 2957.53 1660.4C2869.98 1660.4 2800.05 1687.76 2747.76 1742.48C2696.69 1797.2 2671.15 1876.86 2671.15 1981.44V2534.14H2505.16V1534.53H2671.15V1676.81C2703.98 1625.74 2748.37 1586.22 2804.31 1558.25C2861.46 1530.28 2924.09 1516.29 2992.19 1516.29ZM6114.05 1516.29C6191.88 1516.29 6261.2 1532.71 6322 1565.54C6382.8 1597.16 6430.84 1645.2 6466.1 1709.65C6501.37 1774.1 6519 1852.54 6519 1944.96V2534.14H6354.83V1968.67C6354.83 1868.95 6329.9 1792.95 6280.04 1740.66C6231.4 1687.15 6165.13 1660.4 6081.22 1660.4C5994.88 1660.4 5926.17 1688.37 5875.09 1744.31C5824.02 1799.03 5798.48 1878.68 5798.48 1983.26V2534.14H5634.31V1968.67C5634.31 1868.95 5609.38 1792.95 5559.53 1740.66C5510.88 1687.15 5444.61 1660.4 5360.7 1660.4C5274.36 1660.4 5205.65 1688.37 5154.58 1744.31C5103.5 1799.03 5077.96 1878.68 5077.96 1983.26V2534.14H4911.97V1534.53H5077.96V1678.64C5110.8 1626.35 5154.58 1586.22 5209.3 1558.25C5265.24 1530.28 5326.65 1516.29 5393.53 1516.29C5477.44 1516.29 5551.62 1535.14 5616.07 1572.84C5680.52 1610.54 5728.56 1665.87 5760.18 1738.83C5788.15 1668.3 5834.36 1613.58 5898.81 1574.66C5963.26 1535.75 6035.01 1516.29 6114.05 1516.29ZM7721.58 1996.03C7721.58 2027.65 7719.76 2061.09 7716.11 2096.36H6917.15C6923.23 2194.86 6956.68 2272.08 7017.48 2328.02C7079.5 2382.74 7154.29 2410.1 7241.84 2410.1C7313.59 2410.1 7373.18 2393.69 7420.6 2360.85C7469.25 2326.8 7503.3 2281.81 7522.75 2225.87H7701.52C7674.76 2321.94 7621.26 2400.37 7540.99 2461.18C7460.73 2520.76 7361.02 2550.56 7241.84 2550.56C7146.99 2550.56 7061.86 2529.28 6986.47 2486.71C6912.29 2444.15 6853.92 2383.96 6811.36 2306.13C6768.79 2227.08 6747.51 2135.88 6747.51 2032.51C6747.51 1929.15 6768.19 1838.55 6809.53 1760.72C6850.88 1682.89 6908.64 1623.31 6982.82 1581.96C7058.22 1539.4 7144.56 1518.12 7241.84 1518.12C7336.7 1518.12 7420.6 1538.79 7493.57 1580.14C7566.53 1621.48 7622.47 1678.64 7661.39 1751.6C7701.52 1823.35 7721.58 1904.83 7721.58 1996.03ZM7550.12 1961.37C7550.12 1898.14 7536.13 1844.02 7508.16 1799.03C7480.19 1752.82 7441.89 1718.16 7393.24 1695.06C7345.82 1670.73 7292.92 1658.57 7234.55 1658.57C7150.64 1658.57 7078.89 1685.33 7019.3 1738.83C6960.93 1792.34 6927.49 1866.52 6918.98 1961.37H7550.12Z" fill="#5FB8DE"/>
<path d="M8018.4 1183.14L7918.8 1012.14H7852.8V1183.14H7798.2V764.941H7933.2C7964.8 764.941 7991.4 770.341 8013 781.141C8035 791.941 8051.4 806.541 8062.2 824.941C8073 843.341 8078.4 864.341 8078.4 887.941C8078.4 916.741 8070 942.141 8053.2 964.141C8036.8 986.141 8012 1000.74 7978.8 1007.94L8083.8 1183.14H8018.4ZM7852.8 968.341H7933.2C7962.8 968.341 7985 961.141 7999.8 946.741C8014.6 931.941 8022 912.341 8022 887.941C8022 863.141 8014.6 843.941 7999.8 830.341C7985.4 816.741 7963.2 809.941 7933.2 809.941H7852.8V968.341Z" fill="#5FB8DE"/>
<circle cx="7951" cy="973.141" r="407" stroke="#5FB8DE" stroke-width="50"/>
</svg>
