<svg width="8726" height="2734" viewBox="0 0 8726 2734" fill="none" xmlns="http://www.w3.org/2000/svg">
<path d="M4016.5 2385.11C4016.5 2395.39 4013.03 2403.81 4005.75 2409.88C3998.22 2416.17 3985.22 2421.09 3964.06 2421.09C3942.93 2421.09 3924.34 2416.16 3911.43 2408.77C3898.2 2401.19 3892.93 2392.42 3892.93 2385.11C3892.93 2377.81 3898.2 2369.03 3911.43 2361.46C3924.34 2354.06 3942.93 2349.13 3964.06 2349.13C3985.22 2349.13 3998.22 2354.06 4005.75 2360.34C4013.03 2366.42 4016.5 2374.83 4016.5 2385.11Z" fill="#FF896D" stroke="#FF896D" stroke-width="22.2542"/>
<path d="M4191.97 2385.11C4191.97 2395.39 4195.45 2403.81 4202.72 2409.88C4210.26 2416.17 4223.26 2421.09 4244.41 2421.09C4265.55 2421.09 4284.13 2416.16 4297.05 2408.77C4310.28 2401.19 4315.54 2392.42 4315.54 2385.11C4315.54 2377.81 4310.28 2369.03 4297.05 2361.46C4284.13 2354.06 4265.55 2349.13 4244.41 2349.13C4223.26 2349.13 4210.26 2354.06 4202.72 2360.34C4195.45 2366.42 4191.97 2374.83 4191.97 2385.11Z" fill="#FF896D" stroke="#FF896D" stroke-width="22.2542"/>
<path d="M3941.16 2339.78L3920.28 1955.8L3941.15 1572.81C3942.09 1555.55 3956.36 1542.03 3973.65 1542.03C3992.84 1542.03 4007.87 1558.56 4006.04 1577.67L3973.28 1920.84C3971.06 1944.09 3971.06 1967.5 3973.27 1990.75L4006.05 2334.92C4007.87 2354.03 3992.85 2370.56 3973.65 2370.56C3956.37 2370.56 3942.09 2357.04 3941.16 2339.78Z" fill="#FF896D" stroke="#FF896D" stroke-width="22.2542"/>
<path d="M3744.18 1922.13L3723.55 1722.83C3721.84 1706.31 3721.84 1689.66 3723.53 1673.13L3744.2 1471.57C3745.27 1461.2 3754 1453.31 3764.43 1453.31C3776.42 1453.31 3785.81 1463.64 3784.66 1475.58L3765.36 1676.5C3763.99 1690.8 3763.99 1705.19 3765.38 1719.48L3784.63 1918.07C3785.79 1930.02 3776.4 1940.36 3764.4 1940.36C3753.98 1940.36 3745.25 1932.49 3744.18 1922.13Z" fill="#FF896D" stroke="#FF896D" stroke-width="22.2542"/>
<path d="M4460.88 1695.59L4460.93 1694.83L4460.88 1694.06L4445.7 1475.04C4444.89 1463.29 4454.2 1453.31 4465.98 1453.31C4476.65 1453.31 4485.5 1461.56 4486.25 1472.21L4501.94 1694.84L4486.22 1921.44C4485.48 1932.1 4476.63 1940.36 4465.95 1940.36C4454.17 1940.36 4444.87 1930.39 4445.67 1918.65L4460.88 1695.59Z" fill="#FF896D" stroke="#FF896D" stroke-width="22.2542"/>
<path d="M4228.11 1951.27L4228.17 1950.5L4228.11 1949.72L4201.83 1577.05C4200.5 1558.12 4215.49 1542.03 4234.47 1542.03C4252.1 1542.03 4266.56 1556 4267.17 1573.62L4280.28 1950.51L4267.13 2338.92C4266.54 2356.56 4252.06 2370.56 4234.41 2370.56C4215.44 2370.56 4200.44 2354.49 4201.74 2335.57L4228.11 1951.27Z" fill="#FF896D" stroke="#FF896D" stroke-width="22.2542"/>
<path d="M4511.7 1956.85C4511.7 1984.18 4492.94 2003.4 4473.15 2003.4C4453.37 2003.4 4434.61 1984.18 4434.61 1956.85C4434.61 1929.53 4453.37 1910.3 4473.15 1910.3C4492.94 1910.3 4511.7 1929.53 4511.7 1956.85Z" fill="#FF896D" stroke="#FF896D" stroke-width="22.2542"/>
<path d="M3806.11 1951.49C3806.11 1978.82 3787.35 1998.04 3767.57 1998.04C3747.78 1998.04 3729.02 1978.82 3729.02 1951.49C3729.02 1924.17 3747.78 1904.94 3767.57 1904.94C3787.35 1904.94 3806.11 1924.17 3806.11 1951.49Z" fill="#FF896D" stroke="#FF896D" stroke-width="22.2542"/>
<path d="M4871.56 638.017C4871.56 1035.17 4740.14 1674.74 4006.36 1773.3C3448.66 1521.41 3448.66 1035.17 3448.66 638.017C3448.66 240.863 3723.99 65 4133.46 65C4542.94 65 4871.56 240.863 4871.56 638.017Z" fill="#FF896D"/>
<path d="M4083.42 544.623C4056.66 601.758 3966.13 661.437 3876.81 661.358C3787.48 661.279 3704.15 593.434 3677.49 544.263C3717.6 491.965 3787.68 427.933 3877.01 428.013C3966.34 428.092 4062.1 486.929 4083.42 544.623Z" fill="white"/>
<path d="M4574.24 545.037C4547.48 602.172 4456.95 661.851 4367.62 661.772C4278.3 661.693 4194.97 593.848 4168.31 544.678C4208.42 492.379 4278.5 428.348 4367.83 428.427C4457.16 428.506 4552.92 487.343 4574.24 545.037Z" fill="white"/>
<circle cx="3875.23" cy="503.74" r="75.7333" transform="rotate(9.41996 3875.23 503.74)" fill="black"/>
<circle cx="4369.91" cy="505.193" r="75.7333" transform="rotate(9.41996 4369.91 505.193)" fill="black"/>
<path d="M4282.83 858.696C4282.83 886.648 4261.71 913.456 4224.1 933.221C4186.5 952.987 4135.5 964.091 4082.32 964.091C4029.14 964.091 3978.14 952.987 3940.53 933.221C3902.93 913.456 3881.8 886.648 3881.8 858.696L3891.85 858.696C3891.85 885.248 3911.92 910.712 3947.64 929.488C3983.36 948.263 4031.8 958.81 4082.32 958.81C4132.83 958.81 4181.28 948.263 4217 929.488C4252.72 910.712 4272.79 885.248 4272.79 858.696H4282.83Z" fill="white"/>
<path d="M1342.54 1381.15C1420.36 1381.15 1489.68 1397.57 1550.48 1430.4C1611.29 1462.02 1659.32 1510.06 1694.59 1574.51C1729.85 1638.96 1747.49 1717.4 1747.49 1809.82V2399H1583.32V1833.53C1583.32 1733.81 1558.39 1657.81 1508.53 1605.52C1459.89 1552.01 1393.61 1525.26 1309.7 1525.26C1223.36 1525.26 1154.65 1553.23 1103.58 1609.17C1052.51 1663.89 1026.97 1743.54 1026.97 1848.12V2399H862.799V1833.53C862.799 1733.81 837.869 1657.81 788.011 1605.52C739.368 1552.01 673.092 1525.26 589.184 1525.26C502.843 1525.26 434.136 1553.23 383.061 1609.17C331.986 1663.89 306.449 1743.54 306.449 1848.12V2399H140.456V1399.39H306.449V1543.5C339.282 1491.21 383.061 1451.08 437.784 1423.11C493.723 1395.14 555.134 1381.15 622.018 1381.15C705.926 1381.15 780.106 1400 844.558 1437.7C909.009 1475.4 957.044 1530.73 988.662 1603.69C1016.63 1533.16 1062.84 1478.44 1127.29 1439.52C1191.74 1400.61 1263.49 1381.15 1342.54 1381.15ZM2123.75 1237.05C2092.13 1237.05 2065.38 1226.1 2043.49 1204.22C2021.6 1182.33 2010.66 1155.57 2010.66 1123.95C2010.66 1092.34 2021.6 1065.58 2043.49 1043.69C2065.38 1021.81 2092.13 1010.86 2123.75 1010.86C2154.15 1010.86 2179.69 1021.81 2200.36 1043.69C2222.25 1065.58 2233.2 1092.34 2233.2 1123.95C2233.2 1155.57 2222.25 1182.33 2200.36 1204.22C2179.69 1226.1 2154.15 1237.05 2123.75 1237.05ZM2204.01 1399.39V2399H2038.02V1399.39H2204.01ZM2992.19 1381.15C3113.8 1381.15 3212.3 1418.24 3287.7 1492.42C3363.09 1565.39 3400.79 1671.18 3400.79 1809.82V2399H3236.62V1833.53C3236.62 1733.81 3211.69 1657.81 3161.83 1605.52C3111.97 1552.01 3043.87 1525.26 2957.53 1525.26C2869.98 1525.26 2800.05 1552.62 2747.76 1607.34C2696.69 1662.06 2671.15 1741.72 2671.15 1846.3V2399H2505.16V1399.39H2671.15V1541.67C2703.98 1490.6 2748.37 1451.08 2804.31 1423.11C2861.46 1395.14 2924.09 1381.15 2992.19 1381.15ZM6114.05 1381.15C6191.88 1381.15 6261.2 1397.57 6322 1430.4C6382.8 1462.02 6430.84 1510.06 6466.1 1574.51C6501.37 1638.96 6519 1717.4 6519 1809.82V2399H6354.83V1833.53C6354.83 1733.81 6329.9 1657.81 6280.04 1605.52C6231.4 1552.01 6165.13 1525.26 6081.22 1525.26C5994.88 1525.26 5926.17 1553.23 5875.09 1609.17C5824.02 1663.89 5798.48 1743.54 5798.48 1848.12V2399H5634.31V1833.53C5634.31 1733.81 5609.38 1657.81 5559.53 1605.52C5510.88 1552.01 5444.61 1525.26 5360.7 1525.26C5274.36 1525.26 5205.65 1553.23 5154.58 1609.17C5103.5 1663.89 5077.96 1743.54 5077.96 1848.12V2399H4911.97V1399.39H5077.96V1543.5C5110.8 1491.21 5154.58 1451.08 5209.3 1423.11C5265.24 1395.14 5326.65 1381.15 5393.53 1381.15C5477.44 1381.15 5551.62 1400 5616.07 1437.7C5680.52 1475.4 5728.56 1530.73 5760.18 1603.69C5788.15 1533.16 5834.36 1478.44 5898.81 1439.52C5963.26 1400.61 6035.01 1381.15 6114.05 1381.15ZM7721.58 1860.89C7721.58 1892.51 7719.76 1925.95 7716.11 1961.22H6917.15C6923.23 2059.72 6956.68 2136.94 7017.48 2192.88C7079.5 2247.6 7154.29 2274.96 7241.84 2274.96C7313.59 2274.96 7373.18 2258.54 7420.6 2225.71C7469.25 2191.66 7503.3 2146.67 7522.75 2090.73H7701.52C7674.76 2186.8 7621.26 2265.23 7540.99 2326.04C7460.73 2385.62 7361.02 2415.42 7241.84 2415.42C7146.99 2415.42 7061.86 2394.14 6986.47 2351.57C6912.29 2309.01 6853.92 2248.82 6811.36 2170.99C6768.79 2091.94 6747.51 2000.74 6747.51 1897.37C6747.51 1794.01 6768.19 1703.41 6809.53 1625.58C6850.88 1547.75 6908.64 1488.17 6982.82 1446.82C7058.22 1404.26 7144.56 1382.98 7241.84 1382.98C7336.7 1382.98 7420.6 1403.65 7493.57 1445C7566.53 1486.34 7622.47 1543.5 7661.39 1616.46C7701.52 1688.21 7721.58 1769.69 7721.58 1860.89ZM7550.12 1826.23C7550.12 1763 7536.13 1708.88 7508.16 1663.89C7480.19 1617.68 7441.89 1583.02 7393.24 1559.91C7345.82 1535.59 7292.92 1523.43 7234.55 1523.43C7150.64 1523.43 7078.89 1550.19 7019.3 1603.69C6960.93 1657.2 6927.49 1731.38 6918.98 1826.23H7550.12Z" fill="#5FB8DE"/>
<path d="M7820.2 1078L7770.4 992.5H7737.4V1078H7710.1V868.9H7777.6C7793.4 868.9 7806.7 871.6 7817.5 877C7828.5 882.4 7836.7 889.7 7842.1 898.9C7847.5 908.1 7850.2 918.6 7850.2 930.4C7850.2 944.8 7846 957.5 7837.6 968.5C7829.4 979.5 7817 986.8 7800.4 990.4L7852.9 1078H7820.2ZM7737.4 970.6H7777.6C7792.4 970.6 7803.5 967 7810.9 959.8C7818.3 952.4 7822 942.6 7822 930.4C7822 918 7818.3 908.4 7810.9 901.6C7803.7 894.8 7792.6 891.4 7777.6 891.4H7737.4V970.6Z" fill="#5FB8DE"/>
<circle cx="7773" cy="970.68" r="225" stroke="#5FB8DE" stroke-width="50"/>
</svg>
