<svg width="569" height="165" viewBox="0 0 569 165" fill="none" xmlns="http://www.w3.org/2000/svg">
<g filter="url(#filter0_d_1860_28015)">
<rect x="18.0312" y="0.803711" width="533.354" height="94.6274" rx="43.0124" fill="white"/>
</g>
<g filter="url(#filter1_d_1860_28015)">
<path d="M285.449 130.55L243.948 95.6826L325.888 94.4554L285.449 130.55Z" fill="white"/>
</g>
<g clip-path="url(#clip0_1860_28015)">
<path d="M298.727 64.6035H313.064V82.5254H298.727V64.6035ZM338.155 64.6035H352.492V82.5254H338.155V64.6035Z" fill="#FFDC5D"/>
<path d="M352.492 69.4783C352.492 69.4783 347.116 73.0627 338.155 71.2705V62.3096H352.492V69.4783ZM298.727 69.4783C298.727 69.4783 304.103 73.0627 313.064 71.2705V62.3096H298.727V69.4783Z" fill="#F9CA55"/>
<path d="M300.438 51.3512H314.775V65.6886H300.438V51.3512ZM336.322 50.4551H350.66V64.7926H336.322V50.4551Z" fill="#EF9645"/>
<path d="M294.007 39.2145C294.007 39.2145 294.012 37.019 296.206 37.0244C298.403 37.0316 298.396 39.227 298.396 39.227L298.362 49.4138C298.719 49.2486 299.086 49.1044 299.461 48.9819L299.505 34.8433C299.505 34.8433 299.513 32.6479 301.704 32.6551C303.898 32.6604 303.893 34.8577 303.893 34.8577L303.855 48.1557C304.212 48.1234 304.579 48.0983 304.948 48.0804L304.998 32.664C304.998 32.664 305.004 30.4686 307.199 30.4776C309.395 30.4847 309.386 32.6802 309.386 32.6802L309.336 48.0929C309.712 48.1145 310.074 48.1521 310.436 48.1861L310.481 33.7788C310.481 33.7788 310.488 31.5833 312.68 31.5923C314.873 31.5977 314.864 33.7913 314.864 33.7913L314.821 49.0267L314.816 50.2472V51.3422C308.232 51.326 303.825 56.794 303.805 62.2817C303.805 63.3785 304.902 63.3857 304.902 63.3857C304.92 56.794 309.323 52.4265 315.909 52.4462L319.137 44.9405C319.137 44.9405 319.845 42.8634 321.926 43.5749C324.001 44.2774 323.297 46.3581 323.297 46.3581L321.696 51.9228C321.062 54.1344 320.469 56.3603 320.157 58.6328C319.714 61.7846 318.145 64.6697 315.741 66.755C313.336 68.8403 310.258 69.9849 307.076 69.9773C299.808 69.9469 293.93 64.0362 293.953 56.7689C293.955 56.4037 293.976 56.0389 294.014 55.6757L293.957 55.6685L294.007 39.2145ZM357.171 39.2145C357.171 39.2145 357.165 37.019 354.972 37.0244C352.774 37.0316 352.78 39.227 352.78 39.227L352.814 49.4138C352.457 49.2486 352.091 49.1044 351.717 48.9819L351.672 34.8433C351.672 34.8433 351.665 32.6479 349.473 32.6551C347.278 32.6604 347.283 34.8577 347.283 34.8577L347.323 48.1557C346.959 48.1229 346.594 48.0978 346.229 48.0804L346.181 32.664C346.181 32.664 346.174 30.4686 343.978 30.4776C341.783 30.4847 341.792 32.6802 341.792 32.6802L341.842 48.0929C341.466 48.1145 341.104 48.1521 340.742 48.1861L340.697 33.7788C340.697 33.7788 340.688 31.5833 338.496 31.5923C336.303 31.5977 336.311 33.7913 336.311 33.7913L336.354 49.0267L336.36 50.2472V51.3422C342.944 51.326 347.351 56.794 347.373 62.2817C347.373 63.3785 346.276 63.3857 346.276 63.3857C346.256 56.794 341.853 52.4265 335.268 52.4462L332.041 44.9405C332.041 44.9405 331.335 42.8634 329.252 43.5749C327.179 44.2774 327.881 46.3581 327.881 46.3581L329.481 51.9228C330.116 54.1344 330.709 56.3603 331.021 58.6328C331.464 61.7846 333.032 64.6697 335.437 66.755C337.841 68.8403 340.919 69.9849 344.102 69.9773C351.369 69.9469 357.25 64.0362 357.224 56.7689C357.222 56.4037 357.202 56.0389 357.164 55.6757L357.221 55.6685L357.171 39.2145Z" fill="#FFDC5D"/>
<path d="M335.508 29.5837C335.173 29.5831 334.845 29.4889 334.562 29.3116C334.278 29.1343 334.049 28.8811 333.902 28.5806C333.754 28.2801 333.694 27.9443 333.728 27.6113C333.761 27.2783 333.888 26.9614 334.092 26.6965L339.431 19.7876C339.573 19.5962 339.752 19.4351 339.957 19.3137C340.162 19.1922 340.389 19.1129 340.625 19.0803C340.861 19.0477 341.102 19.0625 341.332 19.1239C341.562 19.1853 341.778 19.292 341.966 19.4378C342.155 19.5835 342.312 19.7654 342.43 19.9728C342.547 20.1802 342.622 20.4089 342.65 20.6456C342.678 20.8823 342.658 21.1222 342.593 21.3512C342.527 21.5802 342.416 21.7938 342.266 21.9795L336.927 28.8883C336.76 29.1055 336.545 29.2813 336.299 29.4019C336.053 29.5225 335.782 29.5847 335.508 29.5837ZM315.758 29.5837C315.484 29.5839 315.213 29.5212 314.967 29.4003C314.721 29.2794 314.506 29.1037 314.339 28.8865L309 21.9795C308.725 21.6019 308.608 21.132 308.674 20.6697C308.74 20.2075 308.984 19.7892 309.354 19.5038C309.724 19.2184 310.19 19.0884 310.654 19.1414C311.118 19.1944 311.543 19.4262 311.839 19.7876L317.177 26.6965C317.381 26.9619 317.507 27.279 317.54 27.6121C317.573 27.9451 317.513 28.2808 317.365 28.5812C317.217 28.8816 316.989 29.1346 316.705 29.3118C316.421 29.489 316.093 29.5831 315.758 29.5837ZM325.577 28.7629C325.102 28.7629 324.646 28.5741 324.31 28.238C323.974 27.9019 323.785 27.446 323.785 26.9707V19.802C323.785 19.3266 323.974 18.8708 324.31 18.5347C324.646 18.1986 325.102 18.0098 325.577 18.0098C326.053 18.0098 326.509 18.1986 326.845 18.5347C327.181 18.8708 327.37 19.3266 327.37 19.802V26.9707C327.37 27.446 327.181 27.9019 326.845 28.238C326.509 28.5741 326.053 28.7629 325.577 28.7629Z" fill="#5DADEC"/>
</g>
<g clip-path="url(#clip1_1860_28015)">
<path d="M172.317 17.9697L156.117 67.7096H160.17L176.37 17.9697H172.317Z" fill="#186193"/>
<path d="M168.229 17.9707L152.039 67.7105H156.092L172.292 17.9707H168.229Z" fill="#D1D3D4"/>
<path d="M164.034 17.9707L147.844 67.7105H152.08L168.27 17.9707H164.034Z" fill="#C41C5C"/>
<path d="M131.148 17.9717L147.349 67.7115H151.401L135.201 17.9717H131.148Z" fill="#1C75BC"/>
<path d="M135.172 17.9717L151.372 67.7115H155.425L139.224 17.9717H135.172Z" fill="#E6E7E8"/>
<path d="M139.188 17.9707L155.388 67.7105H159.623L143.433 17.9707H139.188Z" fill="#DA1C5C"/>
<path d="M165.933 69.6113C165.933 76.5612 160.3 82.1925 153.353 82.1925C146.406 82.1925 140.773 76.5602 140.773 69.6113C140.773 62.6665 146.405 57.0322 153.353 57.0322C160.3 57.0322 165.933 62.6665 165.933 69.6113Z" fill="#F7941E"/>
<path d="M162.97 69.6138C162.97 70.8787 162.722 72.1313 162.238 73.3C161.754 74.4687 161.045 75.5306 160.15 76.4251C159.256 77.3195 158.194 78.0289 157.025 78.5128C155.857 78.9967 154.604 79.2456 153.339 79.2452C148.022 79.2452 143.711 74.9356 143.711 69.6138C143.711 64.298 148.022 59.9844 153.339 59.9844C154.604 59.9841 155.856 60.233 157.025 60.7168C158.193 61.2006 159.255 61.9099 160.149 62.8041C161.044 63.6983 161.753 64.76 162.237 65.9284C162.721 67.0968 162.97 68.3491 162.97 69.6138Z" fill="#F2A755"/>
<path d="M146.849 72.56L146.508 71.812C147.327 71.808 148.383 72.6659 149.256 73.547C147.718 70.1567 148.449 69.2837 148.495 69.2373L149.018 69.9107C149.006 69.9228 147.939 71.194 151.94 77.4685H151.938C152.059 77.6661 152.072 77.8667 151.964 77.9161C151.856 77.9695 151.664 77.8505 151.539 77.6519C151.525 77.632 151.513 77.6104 151.504 77.5874H151.498C150.963 76.748 150.457 75.8899 149.983 75.0147C149.356 74.2677 147.809 72.556 146.849 72.56Z" fill="#E29850"/>
<path d="M147.146 72.1378C147.146 72.1378 146.971 71.4815 146.423 71.2527C145.874 71.0219 145.186 71.5582 145.047 71.916L145.121 72.0269C145.121 72.0269 145.272 71.9836 145.797 72.6187C146.32 73.2528 146.967 72.6489 146.967 72.6489L147.21 72.5753L147.427 72.4735L147.146 72.1378ZM148.41 70.2607C148.41 70.2607 147.697 69.6357 147.791 68.9421C147.881 68.2526 149.04 67.9572 149.588 68.0782L149.682 68.2234C149.682 68.2234 149.518 68.3403 149.959 69.2899C150.402 70.2396 149.186 70.4452 149.186 70.4452L148.922 70.6307L148.636 70.7688L148.41 70.2607ZM148.3 74.0119L148.104 73.5582C148.655 73.529 149.326 74.028 149.871 74.5462C148.988 72.4866 149.518 71.9201 149.549 71.8898L149.873 72.2911C149.863 72.3011 149.091 73.1268 151.499 76.8961H151.495C151.573 77.014 151.571 77.137 151.495 77.1743C151.42 77.2096 151.297 77.141 151.222 77.0221C151.213 77.01 151.205 76.9989 151.201 76.9848H151.197C150.876 76.4808 150.574 75.9643 150.294 75.4363C149.908 74.9928 148.946 73.9796 148.3 74.0119Z" fill="#E29850"/>
<path d="M148.581 73.7302C148.581 73.7302 148.493 73.3309 148.136 73.2049C147.779 73.0799 147.293 73.4358 147.186 73.6646L147.228 73.7332C147.228 73.7332 147.334 73.6979 147.655 74.0759C147.979 74.454 148.438 74.0548 148.438 74.0548L148.606 74.0034L148.756 73.9298L148.581 73.7302ZM149.519 72.5305C149.519 72.5305 149.067 72.1646 149.159 71.7341C149.248 71.2986 150.04 71.0768 150.402 71.1333L150.46 71.217C150.46 71.217 150.344 71.2986 150.599 71.8742C150.854 72.4499 150.032 72.6182 150.032 72.6182L149.845 72.7432L149.648 72.839L149.519 72.5305ZM145.577 69.728L145.305 69.1564C145.888 69.1796 146.673 69.853 147.321 70.5425C146.1 67.9467 146.585 67.3126 146.616 67.2793L147.014 67.8025C147.008 67.8106 146.296 68.735 149.381 73.5739H149.379C149.475 73.7261 149.49 73.8773 149.417 73.9146C149.338 73.9499 149.2 73.8552 149.102 73.7009C149.092 73.6853 149.083 73.6684 149.077 73.6505L149.073 73.6525C148.661 73.0045 148.269 72.3435 147.899 71.6706C147.423 71.0859 146.259 69.7552 145.575 69.728" fill="#E29850"/>
<path d="M145.77 69.4241C145.77 69.4241 145.62 68.9251 145.223 68.7366C144.824 68.5451 144.356 68.9281 144.273 69.1943L144.328 69.28C144.328 69.28 144.436 69.2517 144.831 69.7467C145.227 70.2377 145.662 69.8052 145.662 69.8052L145.833 69.7548L145.984 69.6822L145.77 69.4241ZM146.596 68.0461C146.596 68.0461 146.066 67.5551 146.105 67.04C146.14 66.5208 146.955 66.3333 147.346 66.4381L147.419 66.552C147.419 66.552 147.309 66.6337 147.66 67.3626C148.01 68.0894 147.155 68.2084 147.155 68.2084L146.974 68.3394L146.779 68.4352L146.596 68.0461ZM159.802 72.4525L160.143 71.7045C159.323 71.7004 158.268 72.5603 157.394 73.4414C158.932 70.0492 158.201 69.1761 158.156 69.1308L157.633 69.8042C157.643 69.8163 158.71 71.0885 154.71 77.363H154.712C154.591 77.5585 154.579 77.7601 154.687 77.8085C154.795 77.864 154.988 77.744 155.113 77.5464C155.127 77.5256 155.138 77.5033 155.148 77.4799H155.154C155.69 76.6412 156.195 75.7831 156.667 74.9072C157.295 74.1592 158.84 72.4484 159.802 72.4525Z" fill="#E29850"/>
<path d="M159.5 72.0205C159.5 72.0205 159.674 71.3672 160.223 71.1353C160.773 70.9065 161.46 71.4438 161.599 71.8017L161.524 71.9106C161.524 71.9106 161.374 71.8672 160.849 72.5013C160.326 73.1384 159.678 72.5326 159.678 72.5326L159.435 72.461L159.219 72.3562L159.5 72.0205ZM158.242 70.1494C158.242 70.1494 158.954 69.5234 158.86 68.8318C158.769 68.1403 157.611 67.8469 157.062 67.9649L156.969 68.11C156.969 68.11 157.133 68.23 156.691 69.1796C156.249 70.1262 157.465 70.3349 157.465 70.3349L157.73 70.5214L158.015 70.6585L158.242 70.1494ZM158.347 73.9056L158.542 73.452C157.992 73.4247 157.32 73.9217 156.776 74.4419C157.659 72.3824 157.129 71.8158 157.095 71.7836L156.774 72.1858C156.784 72.1939 157.555 73.0195 155.148 76.7918L155.152 76.7898C155.073 76.9067 155.075 77.0328 155.152 77.067C155.226 77.1023 155.35 77.0368 155.425 76.9168C155.433 76.9027 155.441 76.8916 155.445 76.8805H155.449C155.771 76.3759 156.072 75.8587 156.353 75.3301C156.74 74.8875 157.701 73.8734 158.347 73.9056Z" fill="#E29850"/>
<path d="M158.061 73.6269C158.061 73.6269 158.15 73.2257 158.506 73.1007C158.864 72.9777 159.35 73.3326 159.456 73.5624L159.413 73.6289C159.413 73.6289 159.308 73.5957 158.987 73.9737C158.662 74.3507 158.204 73.9525 158.204 73.9525L158.035 73.8991L157.885 73.8275L158.061 73.6269ZM157.132 72.4202C157.132 72.4202 157.583 72.0523 157.492 71.6218C157.401 71.1863 156.611 70.9655 156.247 71.022L156.189 71.1067C156.189 71.1067 156.305 71.1863 156.048 71.7619C155.796 72.3366 156.618 72.5049 156.618 72.5049L156.804 72.6309L157.002 72.7287L157.132 72.4202ZM161.071 69.6147L161.344 69.0441C160.758 69.0653 159.974 69.7407 159.327 70.4302C160.549 67.8323 160.061 67.1982 160.032 67.167L159.634 67.6882C159.64 67.6983 160.353 68.6217 157.267 73.4616L157.269 73.4596C157.173 73.6138 157.158 73.765 157.232 73.8003C157.308 73.8356 157.449 73.7408 157.546 73.5886C157.554 73.5725 157.566 73.5553 157.571 73.5372C157.571 73.5372 157.575 73.5372 157.575 73.5392C158.045 72.7983 158.431 72.142 158.75 71.5563C159.226 70.9726 160.388 69.6399 161.073 69.6147" fill="#E29850"/>
<path d="M160.911 69.3062C160.911 69.3062 161.061 68.8052 161.458 68.6167C161.858 68.4272 162.326 68.8082 162.408 69.0754L162.353 69.1611C162.353 69.1611 162.246 69.1338 161.85 69.6268C161.454 70.1208 161.02 69.6863 161.02 69.6863L160.848 69.6369L160.697 69.5653L160.911 69.3062ZM160.084 67.9261C160.084 67.9261 160.615 67.4352 160.575 66.9201C160.54 66.4009 159.726 66.2144 159.334 66.3172L159.263 66.4301C159.263 66.4301 159.372 66.5148 159.022 67.2406C158.671 67.9695 159.527 68.0874 159.527 68.0874L159.707 68.2205L159.903 68.3143L160.084 67.9261Z" fill="#E29850"/>
</g>
<path d="M483.468 80.4939C483.115 80.4839 482.758 80.4536 482.41 80.3931C481.339 80.2023 480.339 79.7274 479.514 79.0181C478.69 78.3088 478.071 77.391 477.722 76.3607L467.641 46.1176C466.583 42.9421 468.296 39.5145 471.472 38.456C474.647 37.3975 478.075 39.1113 479.133 42.2868L485.686 61.9448L517.038 22.3264C519.11 19.6952 522.925 19.2466 525.557 21.3182C528.188 23.3899 528.636 27.2056 526.565 29.8367L488.257 78.2257C487.675 78.9328 486.944 79.5027 486.116 79.8947C485.288 80.2868 484.384 80.4914 483.468 80.4939Z" fill="#546D7A"/>
<path opacity="0.35" d="M503.232 47.7045C503.983 47.0794 518.338 29.9518 518.338 29.9518C518.338 29.9518 519.538 28.6765 518.519 27.5575C517.562 26.5343 516.312 27.2047 515.712 27.87C515.112 28.5354 502.158 43.8081 501.624 44.5642C501.367 44.9821 501.227 45.4613 501.219 45.9517C501.211 46.4421 501.335 46.9256 501.578 47.3516C502.052 48.1178 502.712 48.1581 503.232 47.7045Z" fill="white"/>
<path opacity="0.35" d="M520.031 26.1383C520.949 26.1383 521.694 25.3935 521.694 24.4749C521.694 23.5562 520.949 22.8115 520.031 22.8115C519.112 22.8115 518.367 23.5562 518.367 24.4749C518.367 25.3935 519.112 26.1383 520.031 26.1383Z" fill="white"/>
<path opacity="0.35" d="M471.713 51.0223C472.05 51.0173 471.98 49.1271 472.862 47.3176C473.482 46.0373 474.283 45.3921 474.278 44.6763C474.273 43.9606 473.31 40.4725 472.59 40.7044C471.587 41.022 470.306 42.3123 470.019 44.3235C469.57 47.4889 471.093 51.0324 471.713 51.0223Z" fill="white"/>
<path d="M383.139 80.1423C384.284 81.3823 388.997 79.2199 392.716 77.486C395.504 76.1906 406.659 71.6138 412.203 69.2397C413.7 68.5996 415.878 67.7628 417.445 65.7013C418.836 63.8665 422.526 56.0739 415.096 48.1804C407.556 40.166 399.788 42.3788 396.885 44.4353C395.176 45.645 393.785 48.372 393.16 49.7581C390.519 55.6152 386.754 66.3464 385.221 70.5654C384.097 73.6754 382.005 78.9125 383.139 80.1423Z" fill="#FFC107"/>
<path d="M392.391 51.5215C392.462 52.3985 392.638 53.825 393.243 56.5721C393.656 58.4572 394.332 60.4331 394.881 61.7386C396.529 65.6652 398.843 67.2479 401.187 68.5181C405.169 70.6755 407.876 71.0787 407.876 71.0787L404.63 72.4044C404.63 72.4044 402.664 71.9961 399.982 70.6755C397.427 69.4153 394.765 67.2832 392.82 63.1096C391.978 61.3001 391.489 59.546 391.207 58.1548C390.859 56.431 390.803 55.4531 390.803 55.4531L392.391 51.5215ZM388.404 61.7437C388.404 61.7437 388.807 65.015 391.509 69.1431C394.675 73.972 399.095 74.7633 399.095 74.7633L396.156 75.973C396.156 75.973 392.875 74.97 389.755 70.7107C387.809 68.0544 387.265 64.8789 387.265 64.8789L388.404 61.7437ZM385.607 69.496C385.607 69.496 386.343 72.3187 387.956 74.4256C389.876 76.9408 392.321 77.6717 392.321 77.6717L390.067 78.6697C390.067 78.6697 388.359 78.3118 386.489 75.9428C385.067 74.1433 384.664 72.0767 384.664 72.0767L385.607 69.496Z" fill="#FF8F00"/>
<path opacity="0.44" d="M384.364 76.6627C384.263 76.4359 384.263 76.1788 384.369 75.957L397.207 49.333L399.319 57.2718L385.811 76.7837C385.448 77.328 384.631 77.2575 384.364 76.6627Z" fill="#FFFDE7"/>
<path d="M400.39 59.9413C406.388 66.9577 413.218 66.0806 415.491 64.3064C417.769 62.5271 419.569 56.4129 413.596 49.5124C407.335 42.2843 400.248 44.3459 398.61 45.9085C396.972 47.471 394.885 53.5045 400.39 59.9413Z" fill="url(#paint0_linear_1860_28015)"/>
<path d="M420.921 62.8302C418.734 60.9954 417.569 61.3231 416.007 61.9733C413.991 62.81 410.82 63.43 406.516 61.9733L407.811 58.8532C410.367 59.7151 412.216 59.2968 413.814 58.3542C415.871 57.1445 418.683 55.4861 423.059 59.1607C424.883 60.693 426.753 61.7112 428.124 61.2474C429.122 60.9148 429.652 59.4278 429.919 58.2433C429.944 58.1374 429.984 57.835 430.015 57.5679C430.256 55.718 430.66 51.7259 433.634 49.6845C436.814 47.502 440.156 47.502 440.156 47.502L440.761 53.5103C439.224 53.2834 438.155 53.5959 437.253 54.095C433.855 55.9851 436.814 63.2435 431.527 65.6831C426.441 68.0471 422.282 63.9693 420.921 62.8302Z" fill="#03A9F4"/>
<path d="M402.261 55.1679L400.074 53.2071C404.091 48.7211 403.032 45.4246 402.261 43.0253C402.105 42.5414 401.959 42.0827 401.863 41.6442C401.52 40.0917 401.45 38.7408 401.555 37.5614C400.013 35.6409 399.333 33.6298 399.287 33.4937C398.35 30.6558 399.055 27.8886 400.673 25.2927C403.945 20.0254 409.867 20.0254 409.867 20.0254L411.843 25.3129C410.341 25.2524 405.416 25.328 403.904 27.7122C401.994 30.7163 403.249 32.5712 403.34 32.7829C403.708 32.3041 404.081 31.921 404.413 31.6236C406.828 29.4814 408.925 29.1739 410.26 29.2949C411.762 29.431 413.123 30.1871 414.096 31.427C415.16 32.788 415.598 34.5572 415.261 36.1651C414.933 37.7327 413.89 39.0584 412.322 39.9002C409.585 41.372 407.307 41.1704 405.779 40.6613C405.789 40.6966 405.795 40.7369 405.805 40.7722C405.86 41.0242 405.971 41.377 406.102 41.7853C406.994 44.5475 408.652 48.9328 402.261 55.1679ZM405.966 36.2508C406.258 36.4625 406.566 36.6389 406.883 36.765C407.942 37.1884 409.096 37.0472 410.407 36.3416C411.178 35.9282 411.269 35.4847 411.299 35.3385C411.389 34.9 411.238 34.3405 410.911 33.9221C410.623 33.5541 410.291 33.3626 409.892 33.3223C409.136 33.2568 408.113 33.7356 407.09 34.6479C406.601 35.0865 406.228 35.6258 405.966 36.2508Z" fill="#F44336"/>
<path d="M410.982 55.991L407.852 55.9053C407.852 55.9053 409.339 47.5078 414.152 46.0965C415.054 45.8344 416.042 45.5672 417.035 45.421C417.625 45.3303 418.558 45.1942 419.016 45.0228C419.122 44.2315 418.789 43.2234 418.416 42.0792C418.124 41.192 417.822 40.2797 417.66 39.2817C417.348 37.3361 417.867 35.6172 419.122 34.4327C420.654 32.9962 423.129 32.5375 425.922 33.1726C427.515 33.5355 428.689 34.3168 429.722 35.0023C431.199 35.9852 432.061 36.4842 433.866 35.2694C436.048 33.7976 433.195 28.0363 431.678 24.7095L437.339 22.3506C438.1 24.014 441.774 32.5728 439.35 37.457C438.533 39.1002 437.127 40.189 435.282 40.5973C431.27 41.4945 428.921 39.9319 427.207 38.7928C426.396 38.2534 425.685 37.83 424.914 37.6082C419.556 36.081 427.036 43.9643 423.533 47.5078C421.431 49.6299 416.294 50.1894 415.962 50.27C412.655 51.0664 410.982 55.991 410.982 55.991Z" fill="#F48FB1"/>
<path d="M401.558 37.5645C401.462 38.6734 401.416 39.3337 401.704 40.7753C403.09 41.7934 406.109 41.7934 406.109 41.7934C405.978 41.3852 405.862 41.0323 405.812 40.7803C405.802 40.745 405.797 40.7047 405.787 40.6694C402.717 39.1371 401.558 37.5645 401.558 37.5645Z" fill="#C92B27"/>
<path d="M395.228 42.5244L390.016 39.9689L392.611 36.2188L396.699 38.9255L395.228 42.5244Z" fill="#FFC107"/>
<path d="M387.592 35.4408C384.931 35.0829 382.219 32.8248 381.922 32.5677L384.538 29.498C385.329 30.1684 387.008 31.2925 388.132 31.4437L387.592 35.4408Z" fill="#FB8C00"/>
<path d="M392.253 28.7322L388.422 27.4771C388.86 26.1363 388.976 24.6897 388.75 23.2935L392.732 22.6533C393.059 24.6796 392.893 26.7815 392.253 28.7322Z" fill="#03A9F4"/>
<path d="M416.188 25.735L420.127 24.873L421.264 30.0728L417.325 30.9348L416.188 25.735Z" fill="#FB8C00"/>
<path d="M425.975 26.9611L423.203 24.0326C424.655 22.6565 424.987 20.8571 424.987 20.8369L428.969 21.4871C428.919 21.8047 428.41 24.6576 425.975 26.9611Z" fill="#FFC107"/>
<path d="M427.539 42.4944L431.061 41.3936L432.264 45.2425L428.742 46.3433L427.539 42.4944Z" fill="#FB8C00"/>
<path d="M428.52 74.9774L424.513 74.5036C424.684 73.0771 423.62 71.3281 423.328 70.94L426.554 68.5205C426.796 68.8381 428.898 71.7464 428.52 74.9774Z" fill="#F44336"/>
<path d="M440.013 69.8633C438.505 69.6364 436.963 69.5457 435.441 69.6012L435.305 65.5687C437.074 65.5083 438.863 65.6091 440.612 65.8762L440.013 69.8633Z" fill="#FB8C00"/>
<path d="M434.602 75.4174L437.434 72.5479L441.333 76.3978L438.5 79.2669L434.602 75.4174Z" fill="#F48FB1"/>
<path d="M426.277 49.9385L429.19 53.2698L425.859 56.1832L422.945 52.8519L426.277 49.9385Z" fill="#F44336"/>
<path d="M75.2726 45.3252C78.3726 44.4481 83.8667 44.5641 85.4747 44.68C88.2873 44.8816 91.0999 44.8211 91.5838 48.2336C91.9064 50.532 91.1352 52.6239 87.7278 52.9969C86.5281 53.1279 85.0613 53.1985 83.8516 53.39L82.904 54.4334C84.023 54.2822 86.5886 54.3326 87.3598 54.2368C90.616 53.8386 93.3681 55.1441 93.7814 58.2743C94.1443 61.0163 92.0777 63.1333 89.1442 62.972C88.1411 62.9166 85.3083 63.3047 82.4957 63.3803L82.279 63.9499L82.1782 64.1213C83.9625 64.1717 85.6712 64.2423 86.886 64.3027C90.1371 64.464 91.9114 66.2081 91.866 68.5267C91.8106 71.3443 89.1744 72.4029 87.2892 72.5591C85.8779 72.675 80.8273 72.5289 77.435 72.2516L76.9007 73.164C77.1427 73.169 83.6399 73.4815 83.8869 73.4966C86.8658 73.7184 88.1361 74.7971 88.0604 76.9242C87.9546 79.9082 84.769 80.6995 83.0451 80.9717C80.2476 81.4153 76.5177 81.2842 73.8008 81.3599C67.9236 81.5212 55.8969 81.7833 50.2818 76.8637C48.3664 75.1852 46.4358 72.9019 44.7926 72.2466C41.35 70.8756 41.0526 66.3895 41.2088 60.7189C41.2844 57.9769 40.3419 50.28 43.6686 48.415C48.3361 45.799 56.2497 43.8231 58.8809 41.7565C63.1956 38.3642 65.7158 32.8449 66.8651 29.6139C69.0526 23.4594 69.718 19.0137 73.5437 19.0137C80.2476 19.0137 80.0712 25.0018 80.1972 27.9959C80.4442 33.858 73.2111 44.7052 75.2726 45.3252Z" fill="#FAC036"/>
<path d="M69.5648 58.8111C69.6304 61.8304 71.9591 63.1258 72.0649 63.1812C70.7292 63.151 67.8359 64.5069 67.8359 67.385C67.8359 69.7591 69.1263 71.609 70.4217 72.239C69.5699 72.4205 67.962 73.5798 67.962 76.1102C67.962 79.82 70.7141 81.1759 72.7958 81.4329C74.8775 81.69 80.6641 81.3422 82.5744 81.0499C83.5976 80.8936 77.5037 80.823 73.0428 80.2383C71.7625 80.072 70.2352 78.8673 69.9882 77.2443C69.9882 77.2443 69.6253 75.1021 71.581 73.8671C71.581 73.8671 72.4077 73.1564 76.2435 73.1867L77.4028 73.2018C77.7658 73.227 82.398 73.3883 83.9404 73.4992C84.6209 73.5496 85.2056 73.6453 85.7096 73.7865C85.629 73.6705 85.5382 73.479 85.5685 73.2018C85.634 72.6171 86.0171 72.5919 86.1179 72.5919L85.2005 72.5415L81.9343 72.355C78.6781 72.1584 74.0912 71.8459 73.562 71.6342C73.562 71.6342 70.3663 70.8277 70.3663 67.5514C70.3663 67.5514 70.1999 64.7639 74.4642 64.6329C74.4642 64.6329 84.5402 64.0532 88.8045 64.6178C88.8045 64.6178 88.1946 63.4837 89.2027 62.9746C89.2027 62.9746 82.0099 63.151 77.5037 63.272C72.9974 63.3929 72.0347 60.9987 71.9188 59.6932C71.9036 59.4966 71.8633 59.1841 71.8633 58.8161C71.8633 56.2203 74.1416 55.8775 77.4028 55.4541C84.4394 54.5317 87.4184 54.2444 87.4184 54.2444C87.8065 54.199 88.1744 54.1738 88.5323 54.1789C88.3357 54.068 88.0686 53.8613 88.0333 53.5186C88.0131 53.2968 88.124 52.9591 88.124 52.9591C88.124 52.9591 85.0896 53.206 80.407 53.8311C75.7294 54.4561 71.9893 54.1688 71.6516 51.4318C71.4046 49.4257 71.7423 48.1504 72.6093 47.1574C73.6779 45.9326 75.3967 45.3227 75.3967 45.3227C75.3967 45.3227 75.2001 45.2823 75.0892 45.1362C74.9784 44.985 74.9733 44.748 74.9733 44.748C71.1576 45.2319 68.5467 47.6564 68.7634 50.7715C68.9146 52.9036 69.4792 54.325 70.8955 55.0156C70.9006 55.0105 69.4993 55.7969 69.5648 58.8111Z" fill="#E48C15"/>
<path d="M71.0844 52.041L69.411 52.5249C69.411 52.5249 71.8909 61.6533 62.7373 67.9439C62.7373 67.9439 61.5629 68.7302 62.1325 69.3199C62.1325 69.3199 62.5307 70.0054 64.2142 68.7201C64.2142 68.7151 73.146 62.8882 71.0844 52.041Z" fill="#E48C15"/>
<g clip-path="url(#clip2_1860_28015)">
<path d="M225.604 36.5621L218.477 31.9953C218.333 31.9073 218.211 31.7878 218.121 31.6459C218.03 31.504 217.972 31.3433 217.952 31.1759C217.932 31.0086 217.951 30.8389 218.006 30.6796C218.061 30.5204 218.151 30.3757 218.27 30.2564L220.947 27.5798C221.461 27.0657 222.328 27.1766 222.696 27.8067L227.152 35.0499C227.736 36.0479 226.592 37.1669 225.604 36.5621ZM219.374 58.5286L211.098 58.695C210.929 58.6986 210.764 58.7403 210.614 58.817C210.464 58.8937 210.334 59.0034 210.233 59.1377C210.131 59.2721 210.062 59.4277 210.029 59.5929C209.996 59.758 210.002 59.9284 210.044 60.0912L211.007 63.7506C211.193 64.4563 211.995 64.794 212.63 64.4412L219.944 60.6154C220.952 60.0458 220.534 58.5034 219.374 58.5286ZM238.599 72.5867L236.784 80.6464C236.618 81.3471 237.147 82.0225 237.868 82.0225H241.653C242.384 82.0225 242.913 81.332 242.732 80.6263L240.761 72.5665C240.469 71.4425 238.871 71.4576 238.599 72.5867ZM253.367 36.5621L260.495 31.9953C261.11 31.6173 261.211 30.7655 260.701 30.2564L258.025 27.5798C257.904 27.4597 257.758 27.3688 257.596 27.314C257.435 27.2593 257.264 27.2423 257.095 27.2641C256.926 27.286 256.764 27.3463 256.622 27.4404C256.48 27.5344 256.362 27.6597 256.276 27.8067L251.82 35.0499C251.235 36.0479 252.38 37.1669 253.367 36.5621ZM259.598 58.5286L267.874 58.695C268.042 58.6986 268.208 58.7403 268.358 58.817C268.507 58.8937 268.638 59.0034 268.739 59.1377C268.841 59.2721 268.91 59.4277 268.943 59.5929C268.976 59.758 268.97 59.9284 268.928 60.0912L267.965 63.7506C267.921 63.9151 267.841 64.0674 267.729 64.196C267.618 64.3246 267.479 64.4261 267.322 64.4927C267.166 64.5593 266.996 64.5893 266.826 64.5803C266.656 64.5714 266.491 64.5238 266.342 64.4412L259.028 60.6154C258.02 60.0458 258.438 58.5034 259.598 58.5286Z" fill="#FFC107"/>
<path d="M241.518 21.6564L248.303 37.1308C248.558 37.7132 248.965 38.2164 249.481 38.5879C249.997 38.9594 250.603 39.1855 251.236 39.2428L267.764 40.7247C269.634 40.9969 270.38 43.2903 269.024 44.611L256.574 55.07C255.566 55.9168 255.107 57.2475 255.385 58.5329L259.004 75.474C259.321 77.334 257.371 78.7554 255.697 77.8733L241.271 69.4254C240.727 69.1061 240.108 68.9377 239.477 68.9377C238.846 68.9377 238.226 69.1061 237.682 69.4254L223.256 77.8683C221.588 78.7453 219.632 77.329 219.95 75.469L223.569 58.5278C223.841 57.2425 223.387 55.9118 222.379 55.065L209.924 44.616C208.573 43.3004 209.319 41.0019 211.184 40.7298L227.712 39.2478C228.345 39.1906 228.952 38.9644 229.468 38.5929C229.984 38.2214 230.39 37.7182 230.646 37.1359L237.43 21.6615C238.272 19.9679 240.681 19.9679 241.518 21.6564Z" fill="#FDD835"/>
<path d="M241.063 38.0542L239.914 26.6526C239.869 26.0175 239.738 24.9287 240.756 24.9287C241.562 24.9287 242.001 26.6072 242.001 26.6072L245.448 35.7608C246.749 39.2438 246.215 40.4384 244.96 41.1441C243.518 41.9505 241.391 41.3205 241.063 38.0542Z" fill="#FFFF8D"/>
<path d="M255.271 54.0484L265.161 46.3313C265.65 45.923 266.532 45.2728 265.826 44.5319C265.266 43.9472 263.754 44.7889 263.754 44.7889L255.1 48.1711C252.519 49.0633 250.805 50.3839 250.654 52.0473C250.457 54.2651 252.448 55.9738 255.271 54.0484Z" fill="#F4B400"/>
</g>
<defs>
<filter id="filter0_d_1860_28015" x="0.826277" y="0.803711" width="567.762" height="129.037" filterUnits="userSpaceOnUse" color-interpolation-filters="sRGB">
<feFlood flood-opacity="0" result="BackgroundImageFix"/>
<feColorMatrix in="SourceAlpha" type="matrix" values="0 0 0 0 0 0 0 0 0 0 0 0 0 0 0 0 0 0 127 0" result="hardAlpha"/>
<feOffset dy="17.205"/>
<feGaussianBlur stdDeviation="8.60249"/>
<feComposite in2="hardAlpha" operator="out"/>
<feColorMatrix type="matrix" values="0 0 0 0 0 0 0 0 0 0 0 0 0 0 0 0 0 0 0.25 0"/>
<feBlend mode="normal" in2="BackgroundImageFix" result="effect1_dropShadow_1860_28015"/>
<feBlend mode="normal" in="SourceGraphic" in2="effect1_dropShadow_1860_28015" result="shape"/>
</filter>
<filter id="filter1_d_1860_28015" x="226.74" y="94.4551" width="116.355" height="70.5056" filterUnits="userSpaceOnUse" color-interpolation-filters="sRGB">
<feFlood flood-opacity="0" result="BackgroundImageFix"/>
<feColorMatrix in="SourceAlpha" type="matrix" values="0 0 0 0 0 0 0 0 0 0 0 0 0 0 0 0 0 0 127 0" result="hardAlpha"/>
<feOffset dy="17.205"/>
<feGaussianBlur stdDeviation="8.60249"/>
<feComposite in2="hardAlpha" operator="out"/>
<feColorMatrix type="matrix" values="0 0 0 0 0 0 0 0 0 0 0 0 0 0 0 0 0 0 0.25 0"/>
<feBlend mode="normal" in2="BackgroundImageFix" result="effect1_dropShadow_1860_28015"/>
<feBlend mode="normal" in="SourceGraphic" in2="effect1_dropShadow_1860_28015" result="shape"/>
</filter>
<linearGradient id="paint0_linear_1860_28015" x1="416.889" y1="49.1793" x2="401.885" y2="58.1816" gradientUnits="userSpaceOnUse">
<stop offset="0.024" stop-color="#8F4700"/>
<stop offset="1" stop-color="#703E2D"/>
</linearGradient>
<clipPath id="clip0_1860_28015">
<rect width="64.5186" height="64.5186" fill="white" transform="translate(293.312 18.0098)"/>
</clipPath>
<clipPath id="clip1_1860_28015">
<rect width="64.5186" height="64.5186" fill="white" transform="translate(121.219 18.0098)"/>
</clipPath>
<clipPath id="clip2_1860_28015">
<rect width="64.5186" height="64.5186" fill="white" transform="translate(207.273 18.0098)"/>
</clipPath>
</defs>
</svg>
