<svg width="46" height="46" viewBox="0 0 46 46" fill="none" xmlns="http://www.w3.org/2000/svg">
<path d="M32.2 0H13.8C6.1893 0 0 6.1893 0 13.8V43.7C0 44.31 0.242321 44.895 0.673654 45.3263C1.10499 45.7577 1.69 46 2.3 46H32.2C39.8107 46 46 39.8107 46 32.2V13.8C46 6.1893 39.8107 0 32.2 0ZM41.4 32.2C41.4 37.2738 37.2738 41.4 32.2 41.4H4.6V13.8C4.6 8.7262 8.7262 4.6 13.8 4.6H32.2C37.2738 4.6 41.4 8.7262 41.4 13.8V32.2Z" fill="#515151"/>
<path d="M25.3 11.5018H20.7V20.7018H11.5V25.3018H20.7V34.5018H25.3V25.3018H34.5V20.7018H25.3V11.5018Z" fill="#515151"/>
</svg>
