<svg width="30" height="31" viewBox="0 0 30 31" fill="none" xmlns="http://www.w3.org/2000/svg">
<path d="M15 0C6.71562 0 0 6.71923 0 15.0081C0 23.2969 6.71562 30.0161 15 30.0161C23.2844 30.0161 30 23.2969 30 15.0081C30 6.71923 23.2844 0 15 0ZM11.3281 21.2286H8.29062V11.4483H11.3281V21.2286ZM9.79062 10.2477C8.83125 10.2477 8.21094 9.56763 8.21094 8.72656C8.21094 7.86829 8.85 7.20856 9.82969 7.20856C10.8094 7.20856 11.4094 7.86829 11.4281 8.72656C11.4281 9.56763 10.8094 10.2477 9.79062 10.2477ZM22.4219 21.2286H19.3844V15.8085C19.3844 14.5469 18.9437 13.6902 17.8453 13.6902C17.0063 13.6902 16.5078 14.2702 16.2875 14.8283C16.2062 15.0268 16.1859 15.3082 16.1859 15.5881V21.227H13.1469V14.5672C13.1469 13.3462 13.1078 12.3254 13.0672 11.4468H15.7062L15.8453 12.8053H15.9062C16.3062 12.1675 17.2859 11.2263 18.925 11.2263C20.9234 11.2263 22.4219 12.5661 22.4219 15.4458V21.2286Z" fill="#515151"/>
</svg>
