<svg width="48" height="35" viewBox="0 0 48 35" fill="none" xmlns="http://www.w3.org/2000/svg">
<path d="M44.5332 0H3.42563C2.5171 0 1.64578 0.361103 1.00334 1.00387C0.360914 1.64664 0 2.51842 0 3.42743V30.8468C0 31.7559 0.360914 32.6276 1.00334 33.2704C1.64578 33.9132 2.5171 34.2743 3.42563 34.2743H44.5332C45.4418 34.2743 46.3131 33.9132 46.9555 33.2704C47.598 32.6276 47.9589 31.7559 47.9589 30.8468V3.42743C47.9589 2.51842 47.598 1.64664 46.9555 1.00387C46.3131 0.361103 45.4418 0 44.5332 0ZM40.765 3.42743L23.9794 15.0464L7.19383 3.42743H40.765ZM3.42563 30.8468V4.98691L23.0031 18.5424C23.2899 18.7414 23.6305 18.848 23.9794 18.848C24.3284 18.848 24.669 18.7414 24.9557 18.5424L44.5332 4.98691V30.8468H3.42563Z" fill="#515151"/>
</svg>
