<svg width="53" height="73" viewBox="0 0 53 73" fill="none" xmlns="http://www.w3.org/2000/svg">
<path d="M22.7225 71.3612C22.7225 71.7187 22.6016 72.0116 22.3486 72.2228C22.0865 72.4415 21.6342 72.6128 20.8984 72.6128C20.1633 72.6128 19.5168 72.4413 19.0675 72.184C18.6074 71.9206 18.4242 71.6153 18.4242 71.3612C18.4242 71.1072 18.6074 70.8019 19.0675 70.5385C19.5168 70.2812 20.1633 70.1097 20.8984 70.1097C21.6342 70.1097 22.0865 70.281 22.3486 70.4997C22.6016 70.7109 22.7225 71.0038 22.7225 71.3612Z" fill="#30DDD3" stroke="#30DDD3" stroke-width="0.774085"/>
<path d="M28.8263 71.3612C28.8263 71.7187 28.9472 72.0116 29.2003 72.2228C29.4624 72.4415 29.9146 72.6128 30.6505 72.6128C31.3856 72.6128 32.032 72.4413 32.4813 72.184C32.9414 71.9206 33.1247 71.6153 33.1247 71.3612C33.1247 71.1072 32.9414 70.8019 32.4813 70.5385C32.032 70.2812 31.3856 70.1097 30.6505 70.1097C29.9146 70.1097 29.4624 70.281 29.2003 70.4997C28.9472 70.7109 28.8263 71.0038 28.8263 71.3612Z" fill="#30DDD3" stroke="#30DDD3" stroke-width="0.774085"/>
<path d="M20.0999 43.1078C20.1326 42.5075 20.629 42.0374 21.2302 42.0374C21.8979 42.0374 22.4206 42.6124 22.3571 43.277L21.2174 55.2138C21.1402 56.0226 21.1401 56.8368 21.2171 57.6456L22.3575 69.6171C22.4208 70.2817 21.8982 70.8565 21.2305 70.8565C20.6291 70.8565 20.1327 70.3864 20.1001 69.7859L19.3739 56.4298L20.0999 43.1078Z" fill="#30DDD3" stroke="#30DDD3" stroke-width="0.774085"/>
<path d="M13.2531 39.5855C13.2901 39.2248 13.594 38.9505 13.9566 38.9505C14.3738 38.9505 14.7004 39.3099 14.6604 39.7253L13.989 46.714C13.9413 47.2112 13.9415 47.7118 13.9897 48.2089L14.6593 55.1166C14.6996 55.5321 14.373 55.8919 13.9556 55.8919C13.5933 55.8919 13.2896 55.618 13.2523 55.2576L12.5349 48.3255C12.4754 47.7508 12.4751 47.1715 12.5341 46.5967L13.2531 39.5855Z" fill="#30DDD3" stroke="#30DDD3" stroke-width="0.774085"/>
<path d="M38.1806 47.3779L38.1825 47.3514L38.1806 47.3248L37.6527 39.7063C37.6244 39.2976 37.9483 38.9505 38.358 38.9505C38.7291 38.9505 39.0371 39.2375 39.0632 39.6078L39.6088 47.3518L39.0621 55.2338C39.0364 55.6044 38.7283 55.8919 38.3568 55.8919C37.9474 55.8919 37.6235 55.5453 37.6514 55.1368L38.1806 47.3779Z" fill="#30DDD3" stroke="#30DDD3" stroke-width="0.774085"/>
<path d="M30.0911 56.2721L30.0929 56.2453L30.091 56.2184L29.177 43.2556C29.1305 42.5972 29.6522 42.0374 30.3123 42.0374C30.9254 42.0374 31.4284 42.5232 31.4497 43.136L31.9055 56.2458L31.4484 69.7561C31.4276 70.3698 30.9241 70.8565 30.3101 70.8565C29.6504 70.8565 29.1286 70.2978 29.1738 69.6396L30.0911 56.2721Z" fill="#30DDD3" stroke="#30DDD3" stroke-width="0.774085"/>
<path d="M39.9534 56.4672C39.9534 57.4177 39.3008 58.0864 38.6126 58.0864C37.9243 58.0864 37.2718 57.4177 37.2718 56.4672C37.2718 55.5166 37.9243 54.848 38.6126 54.848C39.3008 54.848 39.9534 55.5166 39.9534 56.4672Z" fill="#30DDD3" stroke="#30DDD3" stroke-width="0.774085"/>
<path d="M15.4104 56.2787C15.4104 57.2292 14.7579 57.8979 14.0696 57.8979C13.3814 57.8979 12.7288 57.2292 12.7288 56.2787C12.7288 55.3282 13.3814 54.6595 14.0696 54.6595C14.7579 54.6595 15.4104 55.3282 15.4104 56.2787Z" fill="#30DDD3" stroke="#30DDD3" stroke-width="0.774085"/>
<path d="M51.1247 11.3295C53.0178 32.3618 59.6975 49.2184 23.2489 49.2184C-3.53375 49.2184 -0.884138 31.9297 1.26925 11.3295C4.94588 -0.0829419 11.2458 0.0442954 25.489 0.0442954C39.7322 0.0442954 45.7562 -1.33716 51.1247 11.3295Z" fill="#30DDD3"/>
<path d="M32.2376 12.4602C33.1682 14.4476 36.3171 16.5235 39.4243 16.5207C42.5314 16.518 45.4297 14.1581 46.3571 12.4477C44.9621 10.6286 42.5242 8.40134 39.4171 8.4041C36.3099 8.40685 32.9789 10.4534 32.2376 12.4602Z" fill="white"/>
<path d="M15.1614 12.4773C16.0921 14.4647 19.2409 16.5406 22.3481 16.5378C25.4552 16.5351 28.3535 14.1752 29.2809 12.4648C27.886 10.6457 25.448 8.41843 22.3409 8.42119C19.2337 8.42394 15.9027 10.4705 15.1614 12.4773Z" fill="white"/>
<circle r="2.63428" transform="matrix(-0.986515 0.16367 0.16367 0.986515 38.7406 12.7994)" fill="black"/>
<circle r="2.63428" transform="matrix(-0.986515 0.16367 0.16367 0.986515 22.7582 12.8507)" fill="black"/>
<mask id="path-14-outside-1_86_9443" maskUnits="userSpaceOnUse" x="29.2505" y="19.4101" width="14.2944" height="5.89595" fill="black">
<rect fill="white" x="29.2505" y="19.4101" width="14.2944" height="5.89595"/>
<path d="M30.2223 21.4367C30.2769 22.2785 30.9655 23.0446 32.1366 23.5664C33.3077 24.0881 34.8654 24.3229 36.4669 24.219C38.0685 24.1151 39.5828 23.681 40.6766 23.0123C41.7705 22.3435 42.3543 21.4949 42.2997 20.6531L41.9971 20.6727C42.049 21.4724 41.4944 22.2785 40.4554 22.9137C39.4163 23.5489 37.9779 23.9612 36.4566 24.0599C34.9353 24.1587 33.4557 23.9357 32.3432 23.44C31.2308 22.9444 30.5767 22.2167 30.5248 21.4171L30.2223 21.4367Z"/>
</mask>
<path d="M30.2223 21.4367C30.2769 22.2785 30.9655 23.0446 32.1366 23.5664C33.3077 24.0881 34.8654 24.3229 36.4669 24.219C38.0685 24.1151 39.5828 23.681 40.6766 23.0123C41.7705 22.3435 42.3543 21.4949 42.2997 20.6531L41.9971 20.6727C42.049 21.4724 41.4944 22.2785 40.4554 22.9137C39.4163 23.5489 37.9779 23.9612 36.4566 24.0599C34.9353 24.1587 33.4557 23.9357 32.3432 23.44C31.2308 22.9444 30.5767 22.2167 30.5248 21.4171L30.2223 21.4367Z" fill="white"/>
<path d="M30.2223 21.4367C30.2769 22.2785 30.9655 23.0446 32.1366 23.5664C33.3077 24.0881 34.8654 24.3229 36.4669 24.219C38.0685 24.1151 39.5828 23.681 40.6766 23.0123C41.7705 22.3435 42.3543 21.4949 42.2997 20.6531L41.9971 20.6727C42.049 21.4724 41.4944 22.2785 40.4554 22.9137C39.4163 23.5489 37.9779 23.9612 36.4566 24.0599C34.9353 24.1587 33.4557 23.9357 32.3432 23.44C31.2308 22.9444 30.5767 22.2167 30.5248 21.4171L30.2223 21.4367Z" stroke="white" stroke-width="0.499308" mask="url(#path-14-outside-1_86_9443)"/>
</svg>
