<svg width="493" height="176" viewBox="0 0 493 176" fill="none" xmlns="http://www.w3.org/2000/svg">
<path d="M210.325 123.631C210.325 124.111 210.484 124.502 210.809 124.782C211.144 125.07 211.719 125.295 212.656 125.295C213.593 125.295 214.417 125.07 214.99 124.731C215.575 124.387 215.818 123.981 215.818 123.631C215.818 123.282 215.575 122.876 214.99 122.532C214.417 122.193 213.593 121.968 212.656 121.968C211.719 121.968 211.144 122.193 210.809 122.481C210.484 122.76 210.325 123.152 210.325 123.631Z" fill="#DE5F8D" stroke="#DE5F8D" stroke-width="0.989137"/>
<path d="M202.528 123.631C202.528 124.111 202.37 124.502 202.045 124.782C201.71 125.07 201.134 125.295 200.197 125.295C199.26 125.295 198.436 125.07 197.863 124.731C197.279 124.387 197.036 123.981 197.036 123.631C197.036 123.282 197.279 122.876 197.863 122.532C198.436 122.193 199.26 121.968 200.197 121.968C201.134 121.968 201.71 122.193 202.045 122.481C202.37 122.76 202.528 123.152 202.528 123.631Z" fill="#DE5F8D" stroke="#DE5F8D" stroke-width="0.989137"/>
<path d="M213.672 86.37C213.631 85.6011 212.996 84.9985 212.226 84.9985C211.374 84.9985 210.706 85.7312 210.784 86.58L212.25 102.406C212.347 103.444 212.347 104.488 212.251 105.526L210.784 121.398C210.705 122.247 211.373 122.979 212.226 122.979C212.996 122.979 213.631 122.377 213.672 121.608L214.602 103.966L213.672 86.37Z" fill="#DE5F8D" stroke="#DE5F8D" stroke-width="0.989137"/>
<path d="M218.075 84.942C217.808 84.5615 217.297 84.445 216.892 84.6725C216.428 84.9333 216.288 85.5366 216.591 85.9745L221.888 93.6388C222.252 94.1655 222.567 94.7251 222.826 95.3102L226.566 103.728C226.782 104.214 227.37 104.41 227.834 104.149C228.239 103.921 228.406 103.424 228.22 102.999L224.52 94.5279C224.224 93.8503 223.862 93.2039 223.437 92.5983L218.075 84.942Z" fill="#DE5F8D" stroke="#DE5F8D" stroke-width="0.989137"/>
<path d="M181.424 94.1516L181.446 94.1274L181.472 94.1065L189.273 87.6864C189.677 87.3542 189.715 86.7496 189.357 86.3691C189.031 86.0233 188.493 85.989 188.126 86.2904L180.196 92.8012L173.094 100.456C172.771 100.805 172.773 101.345 173.099 101.691C173.457 102.071 174.063 102.069 174.418 101.686L181.424 94.1516Z" fill="#DE5F8D" stroke="#DE5F8D" stroke-width="0.989137"/>
<path d="M200.92 103.757L200.918 103.723L200.92 103.69L202.093 86.5533C202.15 85.7123 201.483 84.9985 200.64 84.9985C199.856 84.9985 199.212 85.6206 199.186 86.4049L198.601 103.724L199.187 121.571C199.213 122.356 199.857 122.979 200.643 122.979C201.486 122.979 202.152 122.267 202.096 121.426L200.92 103.757Z" fill="#DE5F8D" stroke="#DE5F8D" stroke-width="0.989137"/>
<path d="M171.164 100.718C170.237 101.591 170.181 102.807 170.776 103.437C171.37 104.068 172.587 104.085 173.513 103.212C174.44 102.339 174.496 101.123 173.901 100.492C173.307 99.8613 172.09 99.845 171.164 100.718Z" fill="#DE5F8D" stroke="#DE5F8D" stroke-width="0.989137"/>
<path d="M226.465 105.486C227.089 106.596 228.255 106.944 229.011 106.519C229.766 106.095 230.076 104.917 229.453 103.808C228.829 102.698 227.663 102.35 226.907 102.775C226.152 103.199 225.842 104.376 226.465 105.486Z" fill="#DE5F8D" stroke="#DE5F8D" stroke-width="0.989137"/>
<path d="M176.641 63.8827C174.67 72.7989 179.753 107.339 209.013 103.117C227.345 103.117 237.698 81.8436 235.138 63.8826C232.962 48.6142 224.311 38.6328 206.111 38.6328C187.911 38.6328 179.911 49.0843 176.641 63.8827Z" fill="#DE5F8D"/>
<path d="M205.912 80.2724C207.101 82.8119 211.125 85.4644 215.095 85.4609C219.065 85.4574 222.769 82.4419 223.954 80.2564C222.171 77.9319 219.056 75.0859 215.086 75.0894C211.115 75.0929 206.859 77.7081 205.912 80.2724Z" fill="white"/>
<path d="M184.095 80.2924C185.284 82.8319 189.308 85.4845 193.279 85.4809C197.249 85.4774 200.952 82.4619 202.137 80.2764C200.355 77.9519 197.24 75.1059 193.269 75.1094C189.299 75.1129 185.043 77.7281 184.095 80.2924Z" fill="white"/>
<circle r="3.36612" transform="matrix(-0.986515 0.16367 0.16367 0.986515 214.273 79.3516)" fill="black"/>
<circle r="3.36612" transform="matrix(-0.986515 0.16367 0.16367 0.986515 192.287 79.4176)" fill="black"/>
<mask id="path-14-outside-1_174_8652" maskUnits="userSpaceOnUse" x="200.656" y="88.5718" width="10.238" height="4.63906" fill="black">
<rect fill="white" x="200.656" y="88.5718" width="10.238" height="4.63906"/>
<path d="M202.134 90.1185C202.168 90.6459 202.6 91.1259 203.333 91.4528C204.067 91.7798 205.043 91.9269 206.047 91.8618C207.05 91.7966 207.999 91.5247 208.684 91.1057C209.37 90.6867 209.736 90.1549 209.701 89.6275L209.512 89.6398C209.544 90.1408 209.197 90.6459 208.546 91.0439C207.895 91.4419 206.993 91.7003 206.04 91.7621C205.087 91.824 204.16 91.6842 203.463 91.3737C202.766 91.0631 202.356 90.6072 202.323 90.1062L202.134 90.1185Z"/>
</mask>
<path d="M202.134 90.1185C202.168 90.6459 202.6 91.1259 203.333 91.4528C204.067 91.7798 205.043 91.9269 206.047 91.8618C207.05 91.7966 207.999 91.5247 208.684 91.1057C209.37 90.6867 209.736 90.1549 209.701 89.6275L209.512 89.6398C209.544 90.1408 209.197 90.6459 208.546 91.0439C207.895 91.4419 206.993 91.7003 206.04 91.7621C205.087 91.824 204.16 91.6842 203.463 91.3737C202.766 91.0631 202.356 90.6072 202.323 90.1062L202.134 90.1185Z" fill="white"/>
<path d="M202.134 90.1185C202.168 90.6459 202.6 91.1259 203.333 91.4528C204.067 91.7798 205.043 91.9269 206.047 91.8618C207.05 91.7966 207.999 91.5247 208.684 91.1057C209.37 90.6867 209.736 90.1549 209.701 89.6275L209.512 89.6398C209.544 90.1408 209.197 90.6459 208.546 91.0439C207.895 91.4419 206.993 91.7003 206.04 91.7621C205.087 91.824 204.16 91.6842 203.463 91.3737C202.766 91.0631 202.356 90.6072 202.323 90.1062L202.134 90.1185Z" stroke="white" stroke-width="0.897164" mask="url(#path-14-outside-1_174_8652)"/>
<g filter="url(#filter0_d_174_8652)">
<ellipse rx="116.186" ry="4.52937" transform="matrix(-1 0 0 1 134.185 128.134)" fill="#C4C4C4" fill-opacity="0.1"/>
</g>
<path d="M167.925 123.631C167.925 124.111 168.083 124.502 168.408 124.782C168.743 125.07 169.319 125.295 170.256 125.295C171.193 125.295 172.017 125.07 172.59 124.731C173.174 124.387 173.418 123.981 173.418 123.631C173.418 123.282 173.174 122.876 172.59 122.532C172.017 122.193 171.193 121.968 170.256 121.968C169.319 121.968 168.743 122.193 168.408 122.481C168.083 122.76 167.925 123.152 167.925 123.631Z" fill="#9A8FC1" stroke="#9A8FC1" stroke-width="0.989137"/>
<path d="M160.128 123.631C160.128 124.111 159.97 124.502 159.644 124.782C159.31 125.07 158.734 125.295 157.797 125.295C156.86 125.295 156.036 125.07 155.463 124.731C154.879 124.387 154.635 123.981 154.635 123.631C154.635 123.282 154.879 122.876 155.463 122.532C156.036 122.193 156.86 121.968 157.797 121.968C158.734 121.968 159.31 122.193 159.644 122.481C159.97 122.76 160.128 123.152 160.128 123.631Z" fill="#9A8FC1" stroke="#9A8FC1" stroke-width="0.989137"/>
<path d="M171.272 86.369C171.231 85.6001 170.596 84.9975 169.826 84.9975C168.973 84.9975 168.305 85.7302 168.384 86.5791L169.85 102.405C169.946 103.443 169.946 104.487 169.85 105.525L168.383 121.397C168.305 122.246 168.973 122.979 169.825 122.979C170.595 122.979 171.231 122.376 171.271 121.607L172.202 103.965L171.272 86.369Z" fill="#9A8FC1" stroke="#9A8FC1" stroke-width="0.989137"/>
<path d="M180.024 81.7489C179.978 81.2866 179.589 80.9345 179.125 80.9345C178.593 80.9345 178.175 81.3922 178.225 81.9223L179.09 91.1991C179.149 91.8366 179.149 92.4782 179.089 93.1157L178.226 102.286C178.176 102.816 178.593 103.274 179.126 103.274C179.59 103.274 179.979 102.923 180.025 102.461L180.949 93.2633C181.023 92.5276 181.023 91.7863 180.95 91.0506L180.024 81.7489Z" fill="#9A8FC1" stroke="#9A8FC1" stroke-width="0.989137"/>
<path d="M148.174 92.0453L148.172 92.0124L148.174 91.9795L148.852 81.8986C148.887 81.377 148.473 80.9345 147.95 80.9345C147.475 80.9345 147.081 81.3024 147.049 81.7764L146.349 92.0129L147.05 102.431C147.082 102.906 147.476 103.274 147.952 103.274C148.474 103.274 148.888 102.832 148.853 102.311L148.174 92.0453Z" fill="#9A8FC1" stroke="#9A8FC1" stroke-width="0.989137"/>
<path d="M158.522 103.756L158.519 103.722L158.522 103.689L159.694 86.5523C159.752 85.7113 159.085 84.9975 158.242 84.9975C157.457 84.9975 156.814 85.6196 156.787 86.4039L156.203 103.723L156.789 121.57C156.815 122.355 157.459 122.979 158.245 122.979C159.087 122.979 159.754 122.266 159.698 121.425L158.522 103.756Z" fill="#9A8FC1" stroke="#9A8FC1" stroke-width="0.989137"/>
<path d="M145.917 104.018C145.917 105.291 146.763 106.166 147.63 106.166C148.497 106.166 149.343 105.291 149.343 104.018C149.343 102.746 148.497 101.871 147.63 101.871C146.763 101.871 145.917 102.746 145.917 104.018Z" fill="#9A8FC1" stroke="#9A8FC1" stroke-width="0.989137"/>
<path d="M177.276 103.767C177.276 105.04 178.123 105.915 178.989 105.915C179.856 105.915 180.703 105.04 180.703 103.767C180.703 102.495 179.856 101.62 178.989 101.62C178.123 101.62 177.276 102.495 177.276 103.767Z" fill="#9A8FC1" stroke="#9A8FC1" stroke-width="0.989137"/>
<path d="M134.241 63.8827C134.241 85.1165 133.998 98.6018 166.613 103.117C191.401 91.5786 192.738 82.0744 192.738 63.8826C188.04 48.8539 181.911 38.6328 163.711 38.6328C145.511 38.6328 141.101 47.2024 134.241 63.8827Z" fill="#9A8FC1"/>
<path d="M167.925 123.631C167.925 124.111 168.083 124.502 168.408 124.782C168.743 125.07 169.319 125.295 170.256 125.295C171.193 125.295 172.017 125.07 172.59 124.731C173.174 124.387 173.418 123.981 173.418 123.631C173.418 123.282 173.174 122.876 172.59 122.532C172.017 122.193 171.193 121.968 170.256 121.968C169.319 121.968 168.743 122.193 168.408 122.481C168.083 122.76 167.925 123.152 167.925 123.631Z" fill="#9A8FC1" stroke="#9A8FC1" stroke-width="0.989137"/>
<path d="M160.128 123.631C160.128 124.111 159.97 124.502 159.644 124.782C159.31 125.07 158.734 125.295 157.797 125.295C156.86 125.295 156.036 125.07 155.463 124.731C154.879 124.387 154.635 123.981 154.635 123.631C154.635 123.282 154.879 122.876 155.463 122.532C156.036 122.193 156.86 121.968 157.797 121.968C158.734 121.968 159.31 122.193 159.644 122.481C159.97 122.76 160.128 123.152 160.128 123.631Z" fill="#9A8FC1" stroke="#9A8FC1" stroke-width="0.989137"/>
<path d="M171.272 86.369C171.231 85.6001 170.596 84.9975 169.826 84.9975C168.973 84.9975 168.305 85.7302 168.384 86.5791L169.85 102.405C169.946 103.443 169.946 104.487 169.85 105.525L168.383 121.397C168.305 122.246 168.973 122.979 169.825 122.979C170.595 122.979 171.231 122.376 171.271 121.607L172.202 103.965L171.272 86.369Z" fill="#9A8FC1" stroke="#9A8FC1" stroke-width="0.989137"/>
<path d="M180.024 81.7489C179.978 81.2866 179.589 80.9345 179.125 80.9345C178.593 80.9345 178.175 81.3922 178.225 81.9223L179.09 91.1991C179.149 91.8366 179.149 92.4782 179.089 93.1157L178.226 102.286C178.176 102.816 178.593 103.274 179.126 103.274C179.59 103.274 179.979 102.923 180.025 102.461L180.949 93.2633C181.023 92.5276 181.023 91.7863 180.95 91.0506L180.024 81.7489Z" fill="#9A8FC1" stroke="#9A8FC1" stroke-width="0.989137"/>
<path d="M148.174 92.0453L148.172 92.0124L148.174 91.9795L148.852 81.8986C148.887 81.377 148.473 80.9345 147.95 80.9345C147.475 80.9345 147.081 81.3024 147.049 81.7764L146.349 92.0129L147.05 102.431C147.082 102.906 147.476 103.274 147.952 103.274C148.474 103.274 148.888 102.832 148.853 102.311L148.174 92.0453Z" fill="#9A8FC1" stroke="#9A8FC1" stroke-width="0.989137"/>
<path d="M158.522 103.756L158.519 103.722L158.522 103.689L159.694 86.5523C159.752 85.7113 159.085 84.9975 158.242 84.9975C157.457 84.9975 156.814 85.6196 156.787 86.4039L156.203 103.723L156.789 121.57C156.815 122.355 157.459 122.979 158.245 122.979C159.087 122.979 159.754 122.266 159.698 121.425L158.522 103.756Z" fill="#9A8FC1" stroke="#9A8FC1" stroke-width="0.989137"/>
<path d="M145.917 104.018C145.917 105.291 146.763 106.166 147.63 106.166C148.497 106.166 149.343 105.291 149.343 104.018C149.343 102.746 148.497 101.871 147.63 101.871C146.763 101.871 145.917 102.746 145.917 104.018Z" fill="#9A8FC1" stroke="#9A8FC1" stroke-width="0.989137"/>
<path d="M177.276 103.767C177.276 105.04 178.123 105.915 178.989 105.915C179.856 105.915 180.703 105.04 180.703 103.767C180.703 102.495 179.856 101.62 178.989 101.62C178.123 101.62 177.276 102.495 177.276 103.767Z" fill="#9A8FC1" stroke="#9A8FC1" stroke-width="0.989137"/>
<path d="M134.241 63.8827C134.241 85.1165 133.998 98.6018 166.613 103.117C191.401 91.5786 192.738 82.0744 192.738 63.8826C188.04 48.8539 181.911 38.6328 163.711 38.6328C145.511 38.6328 141.101 47.2024 134.241 63.8827Z" fill="#9A8FC1"/>
<path d="M163.511 80.2724C164.7 82.8119 168.724 85.4644 172.695 85.4609C176.665 85.4574 180.368 82.4419 181.553 80.2564C179.771 77.9319 176.656 75.0859 172.685 75.0894C168.715 75.0929 164.459 77.7081 163.511 80.2724Z" fill="white"/>
<path d="M141.695 80.2924C142.884 82.8319 146.908 85.4845 150.878 85.4809C154.848 85.4774 158.552 82.4619 159.737 80.2764C157.954 77.9519 154.839 75.1059 150.869 75.1094C146.899 75.1129 142.642 77.7281 141.695 80.2924Z" fill="white"/>
<circle r="3.36612" transform="matrix(-0.986515 0.16367 0.16367 0.986515 172.771 80.2491)" fill="black"/>
<circle r="3.36612" transform="matrix(-0.986515 0.16367 0.16367 0.986515 150.783 80.3145)" fill="black"/>
<mask id="path-38-outside-2_174_8652" maskUnits="userSpaceOnUse" x="155.207" y="84.1376" width="13.2965" height="5.8312" fill="black">
<rect fill="white" x="155.207" y="84.1376" width="13.2965" height="5.8312"/>
<path d="M156.123 85.8503C156.173 86.6253 156.807 87.3306 157.885 87.811C158.964 88.2914 160.398 88.5076 161.872 88.4119C163.347 88.3162 164.741 87.9166 165.748 87.3009C166.755 86.6852 167.293 85.9039 167.242 85.1289L166.964 85.1469C167.012 85.8831 166.501 86.6253 165.544 87.2101C164.588 87.795 163.263 88.1746 161.863 88.2655C160.462 88.3563 159.1 88.151 158.076 87.6947C157.051 87.2384 156.449 86.5684 156.401 85.8322L156.123 85.8503Z"/>
</mask>
<path d="M156.123 85.8503C156.173 86.6253 156.807 87.3306 157.885 87.811C158.964 88.2914 160.398 88.5076 161.872 88.4119C163.347 88.3162 164.741 87.9166 165.748 87.3009C166.755 86.6852 167.293 85.9039 167.242 85.1289L166.964 85.1469C167.012 85.8831 166.501 86.6253 165.544 87.2101C164.588 87.795 163.263 88.1746 161.863 88.2655C160.462 88.3563 159.1 88.151 158.076 87.6947C157.051 87.2384 156.449 86.5684 156.401 85.8322L156.123 85.8503Z" fill="white"/>
<path d="M156.123 85.8503C156.173 86.6253 156.807 87.3306 157.885 87.811C158.964 88.2914 160.398 88.5076 161.872 88.4119C163.347 88.3162 164.741 87.9166 165.748 87.3009C166.755 86.6852 167.293 85.9039 167.242 85.1289L166.964 85.1469C167.012 85.8831 166.501 86.6253 165.544 87.2101C164.588 87.795 163.263 88.1746 161.863 88.2655C160.462 88.3563 159.1 88.151 158.076 87.6947C157.051 87.2384 156.449 86.5684 156.401 85.8322L156.123 85.8503Z" stroke="white" stroke-width="0.646416" mask="url(#path-38-outside-2_174_8652)"/>
<path d="M55.2 123.758C55.2 124.215 55.0455 124.589 54.7221 124.859C54.3872 125.139 53.8093 125.358 52.869 125.358C51.9297 125.358 51.1036 125.139 50.5295 124.81C49.9416 124.473 49.7075 124.083 49.7075 123.758C49.7075 123.434 49.9416 123.044 50.5295 122.707C51.1036 122.378 51.9297 122.159 52.869 122.159C53.8093 122.159 54.3872 122.378 54.7221 122.658C55.0455 122.927 55.2 123.302 55.2 123.758Z" fill="#F1B47C" stroke="#F1B47C" stroke-width="0.989137"/>
<path d="M63.0012 123.758C63.0012 124.215 63.1557 124.589 63.4791 124.859C63.814 125.139 64.3918 125.358 65.3321 125.358C66.2715 125.358 67.0975 125.139 67.6716 124.81C68.2595 124.473 68.4937 124.083 68.4937 123.758C68.4937 123.434 68.2595 123.044 67.6716 122.707C67.0975 122.378 66.2715 122.159 65.3321 122.159C64.3918 122.159 63.814 122.378 63.4791 122.658C63.1557 122.927 63.0012 123.302 63.0012 123.758Z" fill="#F1B47C" stroke="#F1B47C" stroke-width="0.989137"/>
<path d="M51.8507 87.6524C51.8925 86.8852 52.5267 86.2846 53.295 86.2846C54.1482 86.2846 54.8161 87.0193 54.735 87.8686L53.2786 103.122C53.1799 104.155 53.1798 105.195 53.2783 106.229L54.7355 121.526C54.8164 122.376 54.1485 123.11 53.2954 123.11C52.5269 123.11 51.8926 122.509 51.8509 121.742L50.923 104.675L51.8507 87.6524Z" fill="#F1B47C" stroke="#F1B47C" stroke-width="0.989137"/>
<path d="M43.0992 83.1546C43.1465 82.6937 43.5347 82.3432 43.9981 82.3432C44.5312 82.3432 44.9485 82.8025 44.8975 83.3332L44.0395 92.2635C43.9785 92.8988 43.9788 93.5385 44.0404 94.1737L44.8961 103C44.9476 103.531 44.5302 103.991 43.9968 103.991C43.5338 103.991 43.1458 103.641 43.0981 103.181L42.1814 94.3226C42.1054 93.5883 42.1051 92.8481 42.1804 92.1136L43.0992 83.1546Z" fill="#F1B47C" stroke="#F1B47C" stroke-width="0.989137"/>
<path d="M74.9532 93.1118L74.9555 93.0779L74.9532 93.044L74.2786 83.309C74.2424 82.7868 74.6563 82.3432 75.1798 82.3432C75.654 82.3432 76.0475 82.71 76.0809 83.1831L76.7781 93.0784L76.0795 103.15C76.0467 103.624 75.6529 103.991 75.1783 103.991C74.6551 103.991 74.2413 103.548 74.2769 103.026L74.9532 93.1118Z" fill="#F1B47C" stroke="#F1B47C" stroke-width="0.989137"/>
<path d="M64.6093 104.474L64.6116 104.44L64.6092 104.405L63.4412 87.8412C63.3819 86.9998 64.0484 86.2846 64.8919 86.2846C65.6754 86.2846 66.3181 86.9053 66.3453 87.6884L66.9278 104.44L66.3436 121.704C66.3171 122.488 65.6737 123.11 64.8891 123.11C64.0461 123.11 63.3794 122.396 63.4372 121.555L64.6093 104.474Z" fill="#F1B47C" stroke="#F1B47C" stroke-width="0.989137"/>
<path d="M77.2121 104.724C77.2121 105.939 76.3783 106.793 75.4988 106.793C74.6194 106.793 73.7856 105.939 73.7856 104.724C73.7856 103.51 74.6194 102.655 75.4988 102.655C76.3783 102.655 77.2121 103.51 77.2121 104.724Z" fill="#F1B47C" stroke="#F1B47C" stroke-width="0.989137"/>
<path d="M45.8508 104.487C45.8508 105.702 45.017 106.556 44.1375 106.556C43.2581 106.556 42.4243 105.702 42.4243 104.487C42.4243 103.272 43.2581 102.418 44.1375 102.418C45.017 102.418 45.8508 103.272 45.8508 104.487Z" fill="#F1B47C" stroke="#F1B47C" stroke-width="0.989137"/>
<path d="M91.2594 57.906C91.2594 75.5583 88.1661 90.6277 55.5516 95.0088C30.7637 83.8128 28.0156 75.5583 28.0156 57.906C32.7137 43.323 40.2531 32.437 58.4532 32.437C76.6533 32.437 84.3995 41.7203 91.2594 57.906Z" fill="#F1B47C"/>
<path d="M57.7466 62.0429C56.5573 64.5824 52.5336 67.235 48.5633 67.2314C44.5929 67.2279 40.8894 64.2124 39.7044 62.0269C41.4869 59.7024 44.6021 56.8564 48.5725 56.8599C52.5428 56.8634 56.7992 59.4786 57.7466 62.0429Z" fill="white"/>
<path d="M79.563 62.0605C78.3737 64.6 74.35 67.2525 70.3797 67.249C66.4093 67.2455 62.7058 64.23 61.5208 62.0445C63.3033 59.72 66.4185 56.874 70.3889 56.8775C74.3592 56.881 78.6156 59.4961 79.563 62.0605Z" fill="white"/>
<circle cx="48.5061" cy="62.0196" r="3.36612" transform="rotate(9.41996 48.5061 62.0196)" fill="black"/>
<circle cx="70.4905" cy="62.085" r="3.36612" transform="rotate(9.41996 70.4905 62.085)" fill="black"/>
<mask id="path-52-outside-3_174_8652" maskUnits="userSpaceOnUse" x="49.5991" y="72.0637" width="17.3528" height="7.08809" fill="black">
<rect fill="white" x="49.5991" y="72.0637" width="17.3528" height="7.08809"/>
<path d="M66.3492 74.192C66.2794 75.2676 65.3995 76.2465 63.9031 76.9133C62.4066 77.58 60.4162 77.88 58.3697 77.7472C56.3232 77.6144 54.3883 77.0598 52.9905 76.2052C51.5928 75.3507 50.8467 74.2663 50.9165 73.1907L51.3031 73.2157C51.2368 74.2375 51.9455 75.2676 53.2732 76.0793C54.6009 76.891 56.4389 77.4179 58.3829 77.544C60.3269 77.6701 62.2175 77.3852 63.639 76.7518C65.0605 76.1185 65.8963 75.1887 65.9626 74.1669L66.3492 74.192Z"/>
</mask>
<path d="M66.3492 74.192C66.2794 75.2676 65.3995 76.2465 63.9031 76.9133C62.4066 77.58 60.4162 77.88 58.3697 77.7472C56.3232 77.6144 54.3883 77.0598 52.9905 76.2052C51.5928 75.3507 50.8467 74.2663 50.9165 73.1907L51.3031 73.2157C51.2368 74.2375 51.9455 75.2676 53.2732 76.0793C54.6009 76.891 56.4389 77.4179 58.3829 77.544C60.3269 77.6701 62.2175 77.3852 63.639 76.7518C65.0605 76.1185 65.8963 75.1887 65.9626 74.1669L66.3492 74.192Z" fill="white"/>
<path d="M66.3492 74.192C66.2794 75.2676 65.3995 76.2465 63.9031 76.9133C62.4066 77.58 60.4162 77.88 58.3697 77.7472C56.3232 77.6144 54.3883 77.0598 52.9905 76.2052C51.5928 75.3507 50.8467 74.2663 50.9165 73.1907L51.3031 73.2157C51.2368 74.2375 51.9455 75.2676 53.2732 76.0793C54.6009 76.891 56.4389 77.4179 58.3829 77.544C60.3269 77.6701 62.2175 77.3852 63.639 76.7518C65.0605 76.1185 65.8963 75.1887 65.9626 74.1669L66.3492 74.192Z" stroke="white" stroke-width="0.897164" mask="url(#path-52-outside-3_174_8652)"/>
<path d="M104.535 123.286C104.535 123.833 104.35 124.28 103.963 124.603C103.563 124.937 102.872 125.198 101.748 125.198C100.625 125.198 99.6374 124.936 98.951 124.543C98.2482 124.141 97.9682 123.675 97.9682 123.286C97.9682 122.898 98.2482 122.432 98.951 122.029C99.6374 121.636 100.625 121.374 101.748 121.374C102.872 121.374 103.563 121.636 103.963 121.97C104.35 122.293 104.535 122.74 104.535 123.286Z" fill="#FF896D" stroke="#FF896D" stroke-width="1.18254"/>
<path d="M113.858 123.286C113.858 123.833 114.043 124.28 114.429 124.603C114.83 124.937 115.52 125.198 116.645 125.198C117.768 125.198 118.755 124.936 119.442 124.543C120.144 124.141 120.424 123.675 120.424 123.286C120.424 122.898 120.144 122.432 119.442 122.029C118.755 121.636 117.768 121.374 116.645 121.374C115.52 121.374 114.83 121.636 114.429 121.97C114.043 122.293 113.858 122.74 113.858 123.286Z" fill="#FF896D" stroke="#FF896D" stroke-width="1.18254"/>
<path d="M100.533 80.1215C100.583 79.2044 101.341 78.4863 102.26 78.4863C103.28 78.4863 104.078 79.3646 103.981 80.38L102.24 98.6154C102.122 99.8509 102.122 101.095 102.24 102.33L103.982 120.619C104.079 121.634 103.28 122.512 102.26 122.512C101.342 122.512 100.583 121.794 100.533 120.877L99.4242 100.473L100.533 80.1215Z" fill="#FF896D" stroke="#FF896D" stroke-width="1.18254"/>
<path d="M90.0641 74.7454C90.1207 74.1944 90.5848 73.7754 91.1388 73.7754C91.7762 73.7754 92.275 74.3244 92.2141 74.9589L91.1883 85.6353C91.1154 86.3948 91.1157 87.1596 91.1893 87.9191L92.2124 98.4717C92.2739 99.1065 91.775 99.6561 91.1373 99.6561C90.5838 99.6561 90.1198 99.2377 90.0629 98.6871L88.9669 88.0971C88.8761 87.2192 88.8757 86.3342 88.9657 85.4562L90.0641 74.7454Z" fill="#FF896D" stroke="#FF896D" stroke-width="1.18254"/>
<path d="M128.147 86.6496L128.15 86.609L128.147 86.5684L127.341 74.93C127.297 74.3056 127.792 73.7754 128.418 73.7754C128.985 73.7754 129.455 74.2138 129.495 74.7794L130.329 86.6096L129.494 98.6508C129.454 99.2169 128.984 99.6561 128.416 99.6561C127.791 99.6561 127.296 99.1265 127.339 98.5025L128.147 86.6496Z" fill="#FF896D" stroke="#FF896D" stroke-width="1.18254"/>
<path d="M115.781 100.232L115.784 100.191L115.781 100.15L114.385 80.3472C114.314 79.3413 115.111 78.4863 116.119 78.4863C117.056 78.4863 117.824 79.2284 117.857 80.1645L118.553 100.192L117.855 120.831C117.823 121.769 117.054 122.512 116.116 122.512C115.108 122.512 114.311 121.659 114.38 120.653L115.781 100.232Z" fill="#FF896D" stroke="#FF896D" stroke-width="1.18254"/>
<path d="M130.848 100.533C130.848 101.985 129.851 103.006 128.8 103.006C127.748 103.006 126.751 101.985 126.751 100.533C126.751 99.0805 127.748 98.059 128.8 98.059C129.851 98.059 130.848 99.0805 130.848 100.533Z" fill="#FF896D" stroke="#FF896D" stroke-width="1.18254"/>
<path d="M93.3538 100.246C93.3538 101.698 92.3569 102.72 91.3055 102.72C90.2541 102.72 89.2573 101.698 89.2573 100.246C89.2573 98.7939 90.2541 97.7724 91.3055 97.7724C92.3569 97.7724 93.3538 98.7939 93.3538 100.246Z" fill="#FF896D" stroke="#FF896D" stroke-width="1.18254"/>
<path d="M149.971 30.4488C149.971 51.5527 142.988 85.5377 103.996 90.7754C74.3613 77.3902 74.3613 51.5527 74.3613 30.4488C74.3613 9.34496 88.9915 0 110.75 0C132.509 0 149.971 9.34496 149.971 30.4488Z" fill="#FF896D"/>
<path d="M108.09 25.4871C106.668 28.5231 101.858 31.6943 97.111 31.6901C92.3643 31.6859 87.9366 28.0808 86.5199 25.4679C88.651 22.6889 92.3753 19.2864 97.1219 19.2906C101.869 19.2948 106.957 22.4213 108.09 25.4871Z" fill="white"/>
<path d="M134.174 25.511C132.752 28.547 127.942 31.7182 123.195 31.714C118.448 31.7098 114.021 28.1047 112.604 25.4919C114.735 22.7128 118.459 19.3104 123.206 19.3146C127.953 19.3188 133.041 22.4453 134.174 25.511Z" fill="white"/>
<circle cx="97.0282" cy="25.2122" r="4.02429" transform="rotate(9.41996 97.0282 25.2122)" fill="black"/>
<circle cx="123.315" cy="25.2884" r="4.02429" transform="rotate(9.41996 123.315 25.2884)" fill="black"/>
<mask id="path-66-outside-4_174_8652" maskUnits="userSpaceOnUse" x="103.052" y="38.9021" width="17.3528" height="7.08809" fill="black">
<rect fill="white" x="103.052" y="38.9021" width="17.3528" height="7.08809"/>
<path d="M119.802 41.0303C119.733 42.106 118.853 43.0849 117.356 43.7516C115.86 44.4184 113.869 44.7184 111.823 44.5856C109.776 44.4528 107.841 43.8981 106.444 43.0436C105.046 42.1891 104.3 41.1047 104.37 40.029L104.756 40.0541C104.69 41.0759 105.399 42.106 106.726 42.9177C108.054 43.7294 109.892 44.2562 111.836 44.3824C113.78 44.5085 115.671 44.2235 117.092 43.5902C118.514 42.9569 119.349 42.027 119.416 41.0053L119.802 41.0303Z"/>
</mask>
<path d="M119.802 41.0303C119.733 42.106 118.853 43.0849 117.356 43.7516C115.86 44.4184 113.869 44.7184 111.823 44.5856C109.776 44.4528 107.841 43.8981 106.444 43.0436C105.046 42.1891 104.3 41.1047 104.37 40.029L104.756 40.0541C104.69 41.0759 105.399 42.106 106.726 42.9177C108.054 43.7294 109.892 44.2562 111.836 44.3824C113.78 44.5085 115.671 44.2235 117.092 43.5902C118.514 42.9569 119.349 42.027 119.416 41.0053L119.802 41.0303Z" fill="white"/>
<path d="M119.802 41.0303C119.733 42.106 118.853 43.0849 117.356 43.7516C115.86 44.4184 113.869 44.7184 111.823 44.5856C109.776 44.4528 107.841 43.8981 106.444 43.0436C105.046 42.1891 104.3 41.1047 104.37 40.029L104.756 40.0541C104.69 41.0759 105.399 42.106 106.726 42.9177C108.054 43.7294 109.892 44.2562 111.836 44.3824C113.78 44.5085 115.671 44.2235 117.092 43.5902C118.514 42.9569 119.349 42.027 119.416 41.0053L119.802 41.0303Z" stroke="white" stroke-width="0.897164" mask="url(#path-66-outside-4_174_8652)"/>
<path d="M266.353 149.42C266.353 149.877 266.198 150.251 265.875 150.521C265.54 150.8 264.962 151.019 264.022 151.019C263.083 151.019 262.257 150.8 261.683 150.471C261.096 150.135 260.862 149.745 260.862 149.42C260.862 149.096 261.096 148.706 261.683 148.369C262.257 148.041 263.083 147.822 264.022 147.822C264.962 147.822 265.54 148.04 265.875 148.32C266.198 148.59 266.353 148.964 266.353 149.42Z" fill="#5FB8DE" stroke="#5FB8DE" stroke-width="0.988867"/>
<path d="M274.147 149.42C274.147 149.877 274.302 150.251 274.625 150.521C274.96 150.8 275.538 151.019 276.478 151.019C277.417 151.019 278.243 150.8 278.817 150.471C279.404 150.135 279.638 149.745 279.638 149.42C279.638 149.096 279.404 148.706 278.817 148.369C278.243 148.041 277.417 147.822 276.478 147.822C275.538 147.822 274.96 148.04 274.625 148.32C274.302 148.59 274.147 148.964 274.147 149.42Z" fill="#5FB8DE" stroke="#5FB8DE" stroke-width="0.988867"/>
<path d="M262.999 113.327C263.041 112.56 263.675 111.96 264.443 111.96C265.296 111.96 265.963 112.694 265.882 113.543L264.426 128.792C264.328 129.825 264.328 130.865 264.426 131.899L265.883 147.192C265.964 148.041 265.296 148.775 264.443 148.775C263.675 148.775 263.041 148.175 262.999 147.407L262.071 130.345L262.999 113.327Z" fill="#5FB8DE" stroke="#5FB8DE" stroke-width="0.988867"/>
<path d="M248.038 109.172C248.382 109.118 248.654 108.852 248.715 108.508C248.813 107.952 248.33 107.466 247.773 107.562L240.373 108.836C238.792 109.108 237.166 108.835 235.76 108.062L228.618 104.134C228.123 103.862 227.507 104.157 227.408 104.714C227.346 105.065 227.517 105.417 227.832 105.586L234.477 109.133C236.511 110.219 238.844 110.613 241.122 110.256L248.038 109.172Z" fill="#5FB8DE" stroke="#5FB8DE" stroke-width="0.988867"/>
<path d="M286.992 116.286L286.982 116.254L286.967 116.223L282.789 107.407C282.565 106.934 282.789 106.371 283.276 106.18C283.718 106.007 284.218 106.205 284.421 106.633L288.679 115.59L291.701 125.22C291.843 125.673 291.611 126.158 291.169 126.331C290.682 126.522 290.135 126.261 289.978 125.762L286.992 116.286Z" fill="#5FB8DE" stroke="#5FB8DE" stroke-width="0.988867"/>
<path d="M275.759 130.144L275.762 130.11L275.759 130.075L274.591 113.516C274.532 112.675 275.198 111.96 276.042 111.96C276.825 111.96 277.468 112.58 277.495 113.363L278.077 130.11L277.493 147.369C277.467 148.153 276.823 148.775 276.039 148.775C275.196 148.775 274.53 148.061 274.587 147.221L275.759 130.144Z" fill="#5FB8DE" stroke="#5FB8DE" stroke-width="0.988867"/>
<path d="M293.125 127.623C293.099 128.837 292.248 129.673 291.369 129.655C290.49 129.636 289.675 128.765 289.7 127.551C289.726 126.337 290.577 125.5 291.456 125.519C292.335 125.537 293.151 126.409 293.125 127.623Z" fill="#5FB8DE" stroke="#5FB8DE" stroke-width="0.988867"/>
<path d="M228.463 102.47C227.815 101.443 226.654 101.166 225.91 101.635C225.167 102.104 224.918 103.271 225.566 104.298C226.214 105.325 227.375 105.603 228.118 105.133C228.862 104.664 229.111 103.497 228.463 102.47Z" fill="#5FB8DE" stroke="#5FB8DE" stroke-width="0.988867"/>
<path d="M302.402 83.589C302.402 101.236 299.31 116.302 266.704 120.682C241.923 109.489 239.176 101.236 239.176 83.589C243.873 69.0099 251.41 58.127 269.605 58.127C287.8 58.127 295.544 67.4077 302.402 83.589Z" fill="#5FB8DE"/>
<path d="M268.906 87.7222C267.717 90.2609 263.694 92.9128 259.725 92.9093C255.756 92.9057 252.053 89.8911 250.868 87.7062C252.65 85.3823 255.765 82.537 259.734 82.5406C263.703 82.5441 267.959 85.1585 268.906 87.7222Z" fill="white"/>
<path d="M290.722 87.7441C289.533 90.2829 285.511 92.9348 281.541 92.9312C277.572 92.9277 273.87 89.913 272.685 87.7281C274.467 85.4043 277.581 82.559 281.551 82.5625C285.52 82.5661 289.775 85.1805 290.722 87.7441Z" fill="white"/>
<circle cx="263.55" cy="87.2461" r="3.3652" transform="rotate(9.41996 263.55 87.2461)" fill="black"/>
<circle cx="285.531" cy="87.312" r="3.3652" transform="rotate(9.41996 285.531 87.312)" fill="black"/>
<mask id="path-80-outside-5_174_8652" maskUnits="userSpaceOnUse" x="260.761" y="97.7434" width="17.3528" height="7.08809" fill="black">
<rect fill="white" x="260.761" y="97.7434" width="17.3528" height="7.08809"/>
<path d="M277.507 99.8703C277.437 100.946 276.558 101.924 275.062 102.591C273.566 103.257 271.576 103.557 269.53 103.425C267.484 103.292 265.549 102.737 264.152 101.883C262.755 101.029 262.009 99.9446 262.079 98.8692L262.465 98.8943C262.399 99.9158 263.107 100.946 264.435 101.757C265.762 102.569 267.6 103.095 269.543 103.221C271.486 103.347 273.377 103.063 274.798 102.429C276.219 101.796 277.054 100.867 277.121 99.8452L277.507 99.8703Z"/>
</mask>
<path d="M277.507 99.8703C277.437 100.946 276.558 101.924 275.062 102.591C273.566 103.257 271.576 103.557 269.53 103.425C267.484 103.292 265.549 102.737 264.152 101.883C262.755 101.029 262.009 99.9446 262.079 98.8692L262.465 98.8943C262.399 99.9158 263.107 100.946 264.435 101.757C265.762 102.569 267.6 103.095 269.543 103.221C271.486 103.347 273.377 103.063 274.798 102.429C276.219 101.796 277.054 100.867 277.121 99.8452L277.507 99.8703Z" fill="white"/>
<path d="M277.507 99.8703C277.437 100.946 276.558 101.924 275.062 102.591C273.566 103.257 271.576 103.557 269.53 103.425C267.484 103.292 265.549 102.737 264.152 101.883C262.755 101.029 262.009 99.9446 262.079 98.8692L262.465 98.8943C262.399 99.9158 263.107 100.946 264.435 101.757C265.762 102.569 267.6 103.095 269.543 103.221C271.486 103.347 273.377 103.063 274.798 102.429C276.219 101.796 277.054 100.867 277.121 99.8452L277.507 99.8703Z" stroke="white" stroke-width="0.663828" mask="url(#path-80-outside-5_174_8652)"/>
<path d="M376.083 149.314C376.083 149.771 376.238 150.145 376.561 150.415C376.896 150.694 377.474 150.913 378.414 150.913C379.353 150.913 380.18 150.694 380.754 150.365C381.342 150.029 381.576 149.639 381.576 149.314C381.576 148.989 381.342 148.599 380.754 148.263C380.18 147.934 379.353 147.715 378.414 147.715C377.474 147.715 376.896 147.934 376.561 148.213C376.238 148.483 376.083 148.857 376.083 149.314Z" fill="#DDDF6C" stroke="#DDDF6C" stroke-width="0.989137"/>
<path d="M368.282 149.314C368.282 149.771 368.127 150.145 367.804 150.415C367.469 150.694 366.891 150.913 365.951 150.913C365.012 150.913 364.186 150.694 363.612 150.365C363.024 150.029 362.789 149.639 362.789 149.314C362.789 148.989 363.024 148.599 363.612 148.263C364.186 147.934 365.012 147.715 365.951 147.715C366.891 147.715 367.469 147.934 367.804 148.213C368.127 148.483 368.282 148.857 368.282 149.314Z" fill="#DDDF6C" stroke="#DDDF6C" stroke-width="0.989137"/>
<path d="M379.433 113.211C379.391 112.444 378.756 111.843 377.988 111.843C377.135 111.843 376.467 112.578 376.548 113.427L378.005 128.68C378.103 129.714 378.103 130.754 378.005 131.787L376.548 147.085C376.467 147.934 377.135 148.669 377.988 148.669C378.756 148.669 379.391 148.068 379.432 147.301L380.36 130.234L379.433 113.211Z" fill="#DDDF6C" stroke="#DDDF6C" stroke-width="0.989137"/>
<path d="M385.469 103.735C385.076 103.489 384.561 103.58 384.276 103.946C383.949 104.367 384.055 104.978 384.505 105.264L392.08 110.071C392.619 110.413 393.124 110.806 393.587 111.245L400.028 117.341C400.415 117.707 401.034 117.66 401.362 117.239C401.646 116.874 401.608 116.353 401.274 116.032L394.846 109.869C394.313 109.358 393.729 108.903 393.103 108.512L385.469 103.735Z" fill="#DDDF6C" stroke="#DDDF6C" stroke-width="0.989137"/>
<path d="M354.441 114.48L354.447 114.447L354.457 114.414L357.487 105.138C357.649 104.641 357.356 104.109 356.848 103.982C356.388 103.866 355.917 104.126 355.77 104.576L352.679 114.003L350.899 123.94C350.815 124.408 351.108 124.86 351.568 124.976C352.075 125.103 352.585 124.775 352.677 124.26L354.441 114.48Z" fill="#DDDF6C" stroke="#DDDF6C" stroke-width="0.989137"/>
<path d="M366.678 130.032L366.675 129.998L366.678 129.964L367.846 113.4C367.905 112.558 367.239 111.843 366.395 111.843C365.612 111.843 364.969 112.464 364.942 113.247L364.359 129.999L364.943 147.262C364.97 148.047 365.613 148.669 366.398 148.669C367.241 148.669 367.908 147.955 367.85 147.114L366.678 130.032Z" fill="#DDDF6C" stroke="#DDDF6C" stroke-width="0.989137"/>
<path d="M349.416 125.192C349.119 126.369 349.719 127.401 350.572 127.616C351.425 127.831 352.442 127.205 352.739 126.028C353.035 124.85 352.435 123.818 351.582 123.603C350.729 123.388 349.712 124.014 349.416 125.192Z" fill="#DDDF6C" stroke="#DDDF6C" stroke-width="0.989137"/>
<path d="M400.613 119.007C401.572 119.753 402.758 119.619 403.298 118.925C403.838 118.231 403.676 117.049 402.718 116.303C401.759 115.557 400.573 115.69 400.032 116.384C399.492 117.078 399.655 118.261 400.613 119.007Z" fill="#DDDF6C" stroke="#DDDF6C" stroke-width="0.989137"/>
<path d="M339.792 72.604C339.792 93.2081 342.837 116.374 375.451 120.755C400.239 109.559 403.498 90.2563 403.498 72.604C398.8 58.021 390.75 58.1836 372.55 58.1836C354.35 58.1836 346.652 56.4183 339.792 72.604Z" fill="#DDDF6C"/>
<path d="M380.24 80.29C381.429 82.8295 385.453 85.482 389.423 85.4785C393.393 85.475 397.097 82.4595 398.282 80.274C396.499 77.9495 393.384 75.1035 389.414 75.107C385.443 75.1105 381.187 77.7256 380.24 80.29Z" fill="white"/>
<path d="M358.423 80.31C359.613 82.8495 363.636 85.502 367.607 85.4985C371.577 85.495 375.28 82.4795 376.466 80.294C374.683 77.9695 371.568 75.1235 367.597 75.127C363.627 75.1305 359.371 77.7457 358.423 80.31Z" fill="white"/>
<circle r="3.36612" transform="matrix(-0.986515 0.16367 0.16367 0.986515 389.49 80.2667)" fill="black"/>
<circle r="3.36612" transform="matrix(-0.986515 0.16367 0.16367 0.986515 367.504 80.3321)" fill="black"/>
<mask id="path-94-outside-6_174_8652" maskUnits="userSpaceOnUse" x="375.631" y="91.3126" width="15.2275" height="4.96279" fill="black">
<rect fill="white" x="375.631" y="91.3126" width="15.2275" height="4.96279"/>
<path d="M376.202 93.4693C376.241 94.0569 376.987 94.5744 378.278 94.9078C379.569 95.2413 381.298 95.3635 383.085 95.2475C384.873 95.1316 386.572 94.787 387.809 94.2895C389.046 93.792 389.719 93.1824 389.681 92.5948L389.343 92.6168C389.379 93.1749 388.74 93.7539 387.565 94.2265C386.39 94.699 384.776 95.0264 383.078 95.1365C381.38 95.2467 379.738 95.1306 378.512 94.8139C377.286 94.4971 376.576 94.0056 376.54 93.4474L376.202 93.4693Z"/>
</mask>
<path d="M376.202 93.4693C376.241 94.0569 376.987 94.5744 378.278 94.9078C379.569 95.2413 381.298 95.3635 383.085 95.2475C384.873 95.1316 386.572 94.787 387.809 94.2895C389.046 93.792 389.719 93.1824 389.681 92.5948L389.343 92.6168C389.379 93.1749 388.74 93.7539 387.565 94.2265C386.39 94.699 384.776 95.0264 383.078 95.1365C381.38 95.2467 379.738 95.1306 378.512 94.8139C377.286 94.4971 376.576 94.0056 376.54 93.4474L376.202 93.4693Z" fill="white"/>
<path d="M376.202 93.4693C376.241 94.0569 376.987 94.5744 378.278 94.9078C379.569 95.2413 381.298 95.3635 383.085 95.2475C384.873 95.1316 386.572 94.787 387.809 94.2895C389.046 93.792 389.719 93.1824 389.681 92.5948L389.343 92.6168C389.379 93.1749 388.74 93.7539 387.565 94.2265C386.39 94.699 384.776 95.0264 383.078 95.1365C381.38 95.2467 379.738 95.1306 378.512 94.8139C377.286 94.4971 376.576 94.0056 376.54 93.4474L376.202 93.4693Z" stroke="white" stroke-width="0.897164" mask="url(#path-94-outside-6_174_8652)"/>
<g filter="url(#filter1_d_174_8652)">
<ellipse rx="136.394" ry="4.52937" transform="matrix(-1 0 0 1 338.789 153.637)" fill="#C4C4C4" fill-opacity="0.1"/>
</g>
<path d="M293.218 61.6184C289.718 83.2515 288.904 105.991 321.814 117.905C350.159 117.905 355.549 95.5272 357.5 78.8112C358.869 67.082 353.724 42.7087 334.808 38.6014C315.891 34.4941 297.039 37.9978 293.218 61.6184Z" fill="#833E78"/>
<path d="M325.308 73.0644C326.572 75.7654 330.852 78.5866 335.075 78.5829C339.298 78.5791 343.237 75.3719 344.497 73.0474C342.601 70.5751 339.288 67.5481 335.065 67.5518C330.842 67.5556 326.315 70.337 325.308 73.0644Z" fill="white"/>
<path d="M302.104 73.0834C303.369 75.7844 307.649 78.6057 311.872 78.6019C316.095 78.5982 320.034 75.3909 321.294 73.0664C319.398 70.5941 316.085 67.5671 311.862 67.5709C307.639 67.5746 303.112 70.356 302.104 73.0834Z" fill="white"/>
<circle r="3.58018" transform="matrix(-0.986515 0.16367 0.16367 0.986515 335.669 72.1555)" fill="black"/>
<circle r="3.58018" transform="matrix(-0.986515 0.16367 0.16367 0.986515 312.285 72.2248)" fill="black"/>
<mask id="path-101-outside-7_174_8652" maskUnits="userSpaceOnUse" x="317.464" y="82.8123" width="18.3507" height="7.15283" fill="black">
<rect fill="white" x="317.464" y="82.8123" width="18.3507" height="7.15283"/>
<path d="M318.1 85.2621C318.174 86.4062 319.11 87.4473 320.702 88.1564C322.294 88.8656 324.41 89.1846 326.587 89.0434C328.764 88.9022 330.822 88.3122 332.308 87.4034C333.795 86.4945 334.588 85.3412 334.514 84.1971L334.103 84.2238C334.174 85.3106 333.42 86.4061 332.008 87.2694C330.596 88.1327 328.641 88.6931 326.573 88.8273C324.506 88.9614 322.495 88.6584 320.983 87.9847C319.471 87.3111 318.582 86.3222 318.511 85.2354L318.1 85.2621Z"/>
</mask>
<path d="M318.1 85.2621C318.174 86.4062 319.11 87.4473 320.702 88.1564C322.294 88.8656 324.41 89.1846 326.587 89.0434C328.764 88.9022 330.822 88.3122 332.308 87.4034C333.795 86.4945 334.588 85.3412 334.514 84.1971L334.103 84.2238C334.174 85.3106 333.42 86.4061 332.008 87.2694C330.596 88.1327 328.641 88.6931 326.573 88.8273C324.506 88.9614 322.495 88.6584 320.983 87.9847C319.471 87.3111 318.582 86.3222 318.511 85.2354L318.1 85.2621Z" fill="white"/>
<path d="M318.1 85.2621C318.174 86.4062 319.11 87.4473 320.702 88.1564C322.294 88.8656 324.41 89.1846 326.587 89.0434C328.764 88.9022 330.822 88.3122 332.308 87.4034C333.795 86.4945 334.588 85.3412 334.514 84.1971L334.103 84.2238C334.174 85.3106 333.42 86.4061 332.008 87.2694C330.596 88.1327 328.641 88.6931 326.573 88.8273C324.506 88.9614 322.495 88.6584 320.983 87.9847C319.471 87.3111 318.582 86.3222 318.511 85.2354L318.1 85.2621Z" stroke="white" stroke-width="0.663828" mask="url(#path-101-outside-7_174_8652)"/>
<path d="M322.452 148.657C322.452 149.201 322.268 149.647 321.882 149.969C321.483 150.302 320.794 150.563 319.674 150.563C318.554 150.563 317.57 150.302 316.886 149.91C316.185 149.509 315.906 149.044 315.906 148.657C315.906 148.27 316.185 147.805 316.886 147.404C317.57 147.012 318.554 146.751 319.674 146.751C320.794 146.751 321.483 147.012 321.882 147.345C322.268 147.667 322.452 148.113 322.452 148.657Z" fill="#833E78" stroke="#833E78" stroke-width="1.17883"/>
<path d="M326.898 148.494C326.898 149.039 327.082 149.485 327.467 149.806C327.867 150.139 328.555 150.4 329.676 150.4C330.795 150.4 331.78 150.139 332.464 149.747C333.165 149.346 333.444 148.881 333.444 148.494C333.444 148.107 333.165 147.643 332.464 147.241C331.78 146.85 330.795 146.588 329.676 146.588C328.555 146.588 327.867 146.849 327.467 147.182C327.082 147.504 326.898 147.95 326.898 148.494Z" fill="#833E78" stroke="#833E78" stroke-width="1.17883"/>
<path d="M327.451 126.442L327.451 126.431L327.451 126.42L327.021 103.65C327.003 102.658 327.802 101.844 328.794 101.844C329.763 101.844 330.552 102.623 330.566 103.592L330.894 126.729L330.567 148.654C330.553 149.622 329.764 150.4 328.795 150.4C327.802 150.4 327.003 149.585 327.023 148.593L327.451 126.442Z" fill="#833E78" stroke="#833E78" stroke-width="1.17883"/>
<path d="M319.443 125.101L319.443 125.089L319.443 125.078L319.014 102.308C318.995 101.317 319.794 100.503 320.786 100.503C321.755 100.503 322.544 101.281 322.558 102.25L322.886 125.387L322.56 147.312C322.545 148.281 321.756 149.058 320.787 149.058C319.795 149.058 318.996 148.244 319.015 147.251L319.443 125.101Z" fill="#833E78" stroke="#833E78" stroke-width="1.17883"/>
<path d="M348.842 94.051C348.771 93.3579 348.187 92.831 347.49 92.831C346.689 92.831 346.061 93.5215 346.138 94.3195L347.428 107.746C347.52 108.702 347.519 109.663 347.427 110.619L346.14 123.89C346.063 124.688 346.69 125.379 347.492 125.379C348.188 125.379 348.772 124.853 348.844 124.161L350.222 110.842C350.336 109.738 350.337 108.625 350.223 107.521L348.842 94.051Z" fill="#833E78" stroke="#833E78" stroke-width="1.48719"/>
<path d="M303.817 107.68L303.813 107.629L303.817 107.578L304.831 92.9408C304.885 92.1556 304.263 91.4887 303.476 91.4887C302.763 91.4887 302.171 92.0401 302.121 92.7515L301.073 107.629L302.123 122.773C302.173 123.485 302.765 124.037 303.478 124.037C304.265 124.037 304.887 123.371 304.834 122.586L303.817 107.68Z" fill="#833E78" stroke="#833E78" stroke-width="1.48719"/>
<path d="M301.069 124.78C301.069 126.606 302.323 127.891 303.645 127.891C304.968 127.891 306.221 126.606 306.221 124.78C306.221 122.954 304.968 121.669 303.645 121.669C302.323 121.669 301.069 122.954 301.069 124.78Z" fill="#833E78" stroke="#833E78" stroke-width="1.48719"/>
<path d="M345.245 124.78C345.245 126.606 346.499 127.891 347.821 127.891C349.143 127.891 350.397 126.606 350.397 124.78C350.397 122.954 349.143 121.669 347.821 121.669C346.499 121.669 345.245 122.954 345.245 124.78Z" fill="#833E78" stroke="#833E78" stroke-width="1.48719"/>
<path d="M422.188 150.064C422.188 150.539 422.027 150.928 421.691 151.209C421.343 151.5 420.741 151.728 419.763 151.728C418.786 151.728 417.926 151.5 417.329 151.158C416.717 150.807 416.474 150.402 416.474 150.064C416.474 149.726 416.717 149.32 417.329 148.97C417.926 148.628 418.786 148.4 419.763 148.4C420.741 148.4 421.343 148.628 421.691 148.918C422.027 149.199 422.188 149.588 422.188 150.064Z" fill="#30DDD3" stroke="#30DDD3" stroke-width="1.02914"/>
<path d="M430.302 150.064C430.302 150.539 430.463 150.928 430.799 151.209C431.148 151.5 431.749 151.728 432.727 151.728C433.705 151.728 434.564 151.5 435.161 151.158C435.773 150.807 436.017 150.402 436.017 150.064C436.017 149.726 435.773 149.32 435.161 148.97C434.564 148.628 433.705 148.4 432.727 148.4C431.749 148.4 431.148 148.628 430.799 148.918C430.463 149.199 430.302 149.588 430.302 150.064Z" fill="#30DDD3" stroke="#30DDD3" stroke-width="1.02914"/>
<path d="M418.701 112.5C418.745 111.702 419.405 111.077 420.204 111.077C421.092 111.077 421.787 111.841 421.702 112.725L420.187 128.595C420.084 129.67 420.084 130.753 420.187 131.828L421.703 147.744C421.787 148.628 421.092 149.392 420.204 149.392C419.405 149.392 418.745 148.767 418.701 147.969L417.736 130.212L418.701 112.5Z" fill="#30DDD3" stroke="#30DDD3" stroke-width="1.02914"/>
<path d="M409.597 107.818C409.646 107.338 410.05 106.974 410.532 106.974C411.087 106.974 411.521 107.451 411.468 108.004L410.575 117.295C410.511 117.956 410.512 118.622 410.576 119.283L411.466 128.466C411.52 129.019 411.086 129.497 410.53 129.497C410.049 129.497 409.645 129.133 409.595 128.654L408.642 119.438C408.563 118.673 408.562 117.903 408.641 117.139L409.597 107.818Z" fill="#30DDD3" stroke="#30DDD3" stroke-width="1.02914"/>
<path d="M442.737 118.178L442.739 118.142L442.737 118.107L442.035 107.978C441.998 107.435 442.428 106.974 442.973 106.974C443.466 106.974 443.876 107.355 443.91 107.847L444.636 118.143L443.909 128.622C443.875 129.115 443.465 129.497 442.971 129.497C442.427 129.497 441.996 129.036 442.033 128.493L442.737 118.178Z" fill="#30DDD3" stroke="#30DDD3" stroke-width="1.02914"/>
<path d="M431.981 130.002L431.984 129.966L431.981 129.931L430.766 112.697C430.704 111.821 431.398 111.077 432.275 111.077C433.091 111.077 433.759 111.723 433.788 112.538L434.394 129.967L433.786 147.929C433.758 148.745 433.089 149.392 432.272 149.392C431.395 149.392 430.702 148.649 430.762 147.774L431.981 130.002Z" fill="#30DDD3" stroke="#30DDD3" stroke-width="1.02914"/>
<path d="M445.093 130.262C445.093 131.526 444.226 132.415 443.311 132.415C442.396 132.415 441.528 131.526 441.528 130.262C441.528 128.998 442.396 128.109 443.311 128.109C444.226 128.109 445.093 128.998 445.093 130.262Z" fill="#30DDD3" stroke="#30DDD3" stroke-width="1.02914"/>
<path d="M412.462 130.011C412.462 131.275 411.595 132.164 410.68 132.164C409.765 132.164 408.897 131.275 408.897 130.011C408.897 128.747 409.765 127.858 410.68 127.858C411.595 127.858 412.462 128.747 412.462 130.011Z" fill="#30DDD3" stroke="#30DDD3" stroke-width="1.02914"/>
<path d="M459.947 70.2515C462.464 98.2138 471.344 120.625 422.886 120.625C387.278 120.625 390.801 97.6395 393.664 70.2515C398.552 55.0787 406.928 55.2479 425.864 55.2479C444.8 55.2479 452.809 53.4112 459.947 70.2515Z" fill="#30DDD3"/>
<path d="M434.836 71.7543C436.074 74.3965 440.26 77.1564 444.391 77.1527C448.522 77.149 452.375 74.0116 453.608 71.7377C451.754 69.3191 448.512 66.358 444.382 66.3617C440.251 66.3653 435.822 69.0863 434.836 71.7543Z" fill="white"/>
<path d="M412.133 71.7768C413.371 74.419 417.557 77.1788 421.688 77.1752C425.819 77.1715 429.672 74.034 430.905 71.7601C429.051 69.3416 425.809 66.3805 421.678 66.3841C417.547 66.3878 413.119 69.1087 412.133 71.7768Z" fill="white"/>
<circle r="3.50227" transform="matrix(-0.986515 0.16367 0.16367 0.986515 443.481 72.205)" fill="black"/>
<circle r="3.50227" transform="matrix(-0.986515 0.16367 0.16367 0.986515 422.231 72.2739)" fill="black"/>
<mask id="path-123-outside-8_174_8652" maskUnits="userSpaceOnUse" x="431.169" y="81.3562" width="18.3507" height="7.15283" fill="black">
<rect fill="white" x="431.169" y="81.3562" width="18.3507" height="7.15283"/>
<path d="M432.156 83.689C432.229 84.8082 433.144 85.8267 434.701 86.5204C436.258 87.2141 438.329 87.5262 440.459 87.388C442.588 87.2499 444.601 86.6728 446.055 85.7837C447.51 84.8946 448.286 83.7664 448.213 82.6472L447.811 82.6733C447.88 83.7364 447.143 84.8081 445.761 85.6526C444.38 86.4972 442.467 87.0454 440.445 87.1766C438.422 87.3078 436.455 87.0113 434.976 86.3524C433.497 85.6935 432.628 84.726 432.559 83.6629L432.156 83.689Z"/>
</mask>
<path d="M432.156 83.689C432.229 84.8082 433.144 85.8267 434.701 86.5204C436.258 87.2141 438.329 87.5262 440.459 87.388C442.588 87.2499 444.601 86.6728 446.055 85.7837C447.51 84.8946 448.286 83.7664 448.213 82.6472L447.811 82.6733C447.88 83.7364 447.143 84.8081 445.761 85.6526C444.38 86.4972 442.467 87.0454 440.445 87.1766C438.422 87.3078 436.455 87.0113 434.976 86.3524C433.497 85.6935 432.628 84.726 432.559 83.6629L432.156 83.689Z" fill="white"/>
<path d="M432.156 83.689C432.229 84.8082 433.144 85.8267 434.701 86.5204C436.258 87.2141 438.329 87.5262 440.459 87.388C442.588 87.2499 444.601 86.6728 446.055 85.7837C447.51 84.8946 448.286 83.7664 448.213 82.6472L447.811 82.6733C447.88 83.7364 447.143 84.8081 445.761 85.6526C444.38 86.4972 442.467 87.0454 440.445 87.1766C438.422 87.3078 436.455 87.0113 434.976 86.3524C433.497 85.6935 432.628 84.726 432.559 83.6629L432.156 83.689Z" stroke="white" stroke-width="0.663828" mask="url(#path-123-outside-8_174_8652)"/>
<defs>
<filter id="filter0_d_174_8652" x="0.692997" y="106.297" width="266.985" height="43.6726" filterUnits="userSpaceOnUse" color-interpolation-filters="sRGB">
<feFlood flood-opacity="0" result="BackgroundImageFix"/>
<feColorMatrix in="SourceAlpha" type="matrix" values="0 0 0 0 0 0 0 0 0 0 0 0 0 0 0 0 0 0 127 0" result="hardAlpha"/>
<feOffset/>
<feGaussianBlur stdDeviation="8.6535"/>
<feColorMatrix type="matrix" values="0 0 0 0 0 0 0 0 0 0 0 0 0 0 0 0 0 0 0.3 0"/>
<feBlend mode="normal" in2="BackgroundImageFix" result="effect1_dropShadow_174_8652"/>
<feBlend mode="normal" in="SourceGraphic" in2="effect1_dropShadow_174_8652" result="shape"/>
</filter>
<filter id="filter1_d_174_8652" x="185.088" y="131.801" width="307.403" height="43.6726" filterUnits="userSpaceOnUse" color-interpolation-filters="sRGB">
<feFlood flood-opacity="0" result="BackgroundImageFix"/>
<feColorMatrix in="SourceAlpha" type="matrix" values="0 0 0 0 0 0 0 0 0 0 0 0 0 0 0 0 0 0 127 0" result="hardAlpha"/>
<feOffset/>
<feGaussianBlur stdDeviation="8.6535"/>
<feColorMatrix type="matrix" values="0 0 0 0 0 0 0 0 0 0 0 0 0 0 0 0 0 0 0.3 0"/>
<feBlend mode="normal" in2="BackgroundImageFix" result="effect1_dropShadow_174_8652"/>
<feBlend mode="normal" in="SourceGraphic" in2="effect1_dropShadow_174_8652" result="shape"/>
</filter>
</defs>
</svg>
