<svg width="55" height="79" viewBox="0 0 55 79" fill="none" xmlns="http://www.w3.org/2000/svg">
<path d="M24.4137 76.8611C24.4137 77.2461 24.2834 77.5615 24.0109 77.789C23.7286 78.0246 23.2415 78.209 22.4489 78.209C21.6572 78.209 20.9609 78.0244 20.477 77.7473C19.9814 77.4635 19.7841 77.1347 19.7841 76.8611C19.7841 76.5874 19.9814 76.2586 20.477 75.9749C20.9609 75.6977 21.6572 75.5131 22.4489 75.5131C23.2415 75.5131 23.7286 75.6975 24.0109 75.9332C24.2834 76.1606 24.4137 76.476 24.4137 76.8611Z" fill="#DDDF6C" stroke="#DDDF6C" stroke-width="0.833736"/>
<path d="M30.9867 76.8611C30.9867 77.2461 31.117 77.5615 31.3895 77.789C31.6718 78.0246 32.1589 78.209 32.9515 78.209C33.7432 78.209 34.4395 78.0244 34.9234 77.7473C35.4189 77.4635 35.6163 77.1347 35.6163 76.8611C35.6163 76.5874 35.4189 76.2586 34.9234 75.9749C34.4395 75.6977 33.7432 75.5131 32.9515 75.5131C32.1589 75.5131 31.6718 75.6975 31.3895 75.9332C31.117 76.1606 30.9867 76.476 30.9867 76.8611Z" fill="#DDDF6C" stroke="#DDDF6C" stroke-width="0.833736"/>
<path d="M21.59 46.4301C21.6252 45.7835 22.1599 45.2772 22.8074 45.2772C23.5266 45.2772 24.0895 45.8964 24.0212 46.6123L22.7936 59.469C22.7104 60.3401 22.7103 61.217 22.7933 62.0881L24.0216 74.9821C24.0898 75.698 23.5268 76.3171 22.8077 76.3171C22.16 76.3171 21.6254 75.8107 21.5902 75.164L20.8081 60.7786L21.59 46.4301Z" fill="#DDDF6C" stroke="#DDDF6C" stroke-width="0.833736"/>
<path d="M16.5008 38.4426C16.8319 38.2354 17.266 38.3123 17.5058 38.6205C17.7818 38.9752 17.6923 39.4905 17.3129 39.7313L10.9282 43.7833C10.474 44.0715 10.0486 44.4028 9.65788 44.7726L4.22913 49.911C3.90258 50.2201 3.38074 50.1805 3.10461 49.8256C2.86495 49.5176 2.89688 49.0783 3.17856 48.8082L8.59654 43.6131C9.04571 43.1824 9.53795 42.799 10.0655 42.469L16.5008 38.4426Z" fill="#DDDF6C" stroke="#DDDF6C" stroke-width="0.833736"/>
<path d="M42.6546 47.4994L42.6495 47.4712L42.6406 47.444L40.0871 39.6252C39.9501 39.2057 40.1972 38.758 40.6251 38.6504C41.0128 38.5528 41.4099 38.7717 41.5344 39.1516L44.1394 47.0968L45.6398 55.4734C45.7103 55.8672 45.464 56.2485 45.076 56.3461C44.6484 56.4537 44.219 56.1767 44.1408 55.7428L42.6546 47.4994Z" fill="#DDDF6C" stroke="#DDDF6C" stroke-width="0.833736"/>
<path d="M32.3369 60.6088L32.3389 60.5799L32.3368 60.551L31.3523 46.5893C31.3023 45.8801 31.8641 45.2772 32.5751 45.2772C33.2355 45.2772 33.7772 45.8004 33.8002 46.4604L34.2911 60.5805L33.7987 75.1319C33.7764 75.7929 33.2341 76.3171 32.5727 76.3171C31.8622 76.3171 31.3003 75.7153 31.3489 75.0064L32.3369 60.6088Z" fill="#DDDF6C" stroke="#DDDF6C" stroke-width="0.833736"/>
<path d="M46.8867 56.5284C47.1365 57.5212 46.6306 58.3911 45.9118 58.572C45.1929 58.7529 44.3356 58.2259 44.0858 57.2331C43.836 56.2402 44.3419 55.3703 45.0607 55.1895C45.7796 55.0086 46.6369 55.5355 46.8867 56.5284Z" fill="#DDDF6C" stroke="#DDDF6C" stroke-width="0.833736"/>
<path d="M3.73454 51.3153C2.92656 51.944 1.92658 51.8316 1.47133 51.2466C1.01609 50.6616 1.15284 49.6646 1.96082 49.0359C2.7688 48.4072 3.76879 48.5196 4.22403 49.1046C4.67927 49.6896 4.54252 50.6865 3.73454 51.3153Z" fill="#DDDF6C" stroke="#DDDF6C" stroke-width="0.833736"/>
<path d="M55 12.2026C55 29.5697 52.4336 49.0963 24.9431 52.789C4.04954 43.352 1.30273 27.0816 1.30273 12.2026C5.26269 -0.0893337 12.0481 0.0477088 27.3889 0.0477088C42.7296 0.0477088 49.2178 -1.4402 55 12.2026Z" fill="#DDDF6C"/>
<path d="M20.9088 18.6815C19.9064 20.822 16.5149 23.0578 13.1683 23.0549C9.82173 23.0519 6.70006 20.5101 5.70121 18.668C7.20368 16.7087 9.82947 14.3098 13.1761 14.3128C16.5226 14.3157 20.1103 16.52 20.9088 18.6815Z" fill="white"/>
<path d="M39.2975 18.6981C38.2951 20.8386 34.9036 23.0744 31.557 23.0715C28.2104 23.0685 25.0887 20.5267 24.0899 18.6846C25.5924 16.7253 28.2181 14.3264 31.5647 14.3294C34.9113 14.3323 38.499 16.5366 39.2975 18.6981Z" fill="white"/>
<circle cx="13.1139" cy="18.6618" r="2.83728" transform="rotate(9.41996 13.1139 18.6618)" fill="black"/>
<circle cx="31.6452" cy="18.717" r="2.83728" transform="rotate(9.41996 31.6452 18.717)" fill="black"/>
<mask id="path-14-outside-1_82_9245" maskUnits="userSpaceOnUse" x="11.7506" y="28.1182" width="13.2317" height="4.8333" fill="black">
<rect fill="white" x="11.7506" y="28.1182" width="13.2317" height="4.8333"/>
<path d="M24.3119 29.7896C24.2798 30.2848 23.6505 30.721 22.5625 31.0021C21.4745 31.2831 20.0169 31.3861 18.5104 31.2884C17.0038 31.1906 15.5718 30.9002 14.5292 30.4808C13.4866 30.0615 12.919 29.5477 12.9511 29.0524L13.2357 29.0709C13.2052 29.5414 13.7444 30.0294 14.7347 30.4277C15.7251 30.826 17.0854 31.102 18.5164 31.1948C19.9475 31.2877 21.3321 31.1898 22.3656 30.9228C23.399 30.6558 23.9968 30.2415 24.0273 29.7711L24.3119 29.7896Z"/>
</mask>
<path d="M24.3119 29.7896C24.2798 30.2848 23.6505 30.721 22.5625 31.0021C21.4745 31.2831 20.0169 31.3861 18.5104 31.2884C17.0038 31.1906 15.5718 30.9002 14.5292 30.4808C13.4866 30.0615 12.919 29.5477 12.9511 29.0524L13.2357 29.0709C13.2052 29.5414 13.7444 30.0294 14.7347 30.4277C15.7251 30.826 17.0854 31.102 18.5164 31.1948C19.9475 31.2877 21.3321 31.1898 22.3656 30.9228C23.399 30.6558 23.9968 30.2415 24.0273 29.7711L24.3119 29.7896Z" fill="white"/>
<path d="M24.3119 29.7896C24.2798 30.2848 23.6505 30.721 22.5625 31.0021C21.4745 31.2831 20.0169 31.3861 18.5104 31.2884C17.0038 31.1906 15.5718 30.9002 14.5292 30.4808C13.4866 30.0615 12.919 29.5477 12.9511 29.0524L13.2357 29.0709C13.2052 29.5414 13.7444 30.0294 14.7347 30.4277C15.7251 30.826 17.0854 31.102 18.5164 31.1948C19.9475 31.2877 21.3321 31.1898 22.3656 30.9228C23.399 30.6558 23.9968 30.2415 24.0273 29.7711L24.3119 29.7896Z" stroke="white" stroke-width="0.756213" mask="url(#path-14-outside-1_82_9245)"/>
</svg>
