<svg width="48" height="72" viewBox="0 0 48 72" fill="none" xmlns="http://www.w3.org/2000/svg">
<path d="M20.3524 69.7211C20.3524 70.1145 20.2227 70.4356 19.9558 70.6651C19.6813 70.9013 19.2091 71.0854 18.4404 71.0854C17.672 71.0854 16.9961 70.9008 16.526 70.6233C16.0468 70.3405 15.8471 70.0081 15.8471 69.7211C15.8471 69.4342 16.0468 69.1018 16.526 68.819C16.9961 68.5415 17.672 68.3568 18.4404 68.3568C19.2091 68.3568 19.6813 68.541 19.9558 68.7771C20.2227 69.0067 20.3524 69.3278 20.3524 69.7211Z" fill="#9A8FC1" stroke="#9A8FC1" stroke-width="0.811354"/>
<path d="M26.7491 69.7211C26.7491 70.1145 26.8789 70.4356 27.1457 70.6651C27.4203 70.9013 27.8925 71.0854 28.6612 71.0854C29.4296 71.0854 30.1055 70.9008 30.5756 70.6233C31.0548 70.3405 31.2545 70.0081 31.2545 69.7211C31.2545 69.4342 31.0548 69.1018 30.5756 68.819C30.1055 68.5415 29.4296 68.3568 28.6612 68.3568C27.8925 68.3568 27.4203 68.541 27.1457 68.7771C26.8789 69.0067 26.7491 69.3278 26.7491 69.7211Z" fill="#9A8FC1" stroke="#9A8FC1" stroke-width="0.811354"/>
<path d="M17.6089 39.1562C17.6423 38.5255 18.1634 38.0312 18.795 38.0312C19.4942 38.0312 20.0422 38.6322 19.9776 39.3285L18.7749 52.3103C18.696 53.1614 18.6959 54.018 18.7746 54.8692L19.978 67.8885C20.0424 68.5847 19.4944 69.1856 18.7953 69.1856C18.1636 69.1856 17.6424 68.6912 17.6091 68.0604L16.8457 53.5898L17.6089 39.1562Z" fill="#9A8FC1" stroke="#9A8FC1" stroke-width="0.811354"/>
<path d="M10.4288 35.3666C10.4666 34.9875 10.7856 34.6986 11.1666 34.6986C11.6032 34.6986 11.9453 35.0741 11.9048 35.5089L11.1954 43.1183C11.1467 43.6412 11.1469 44.1675 11.1961 44.6904L11.9037 52.2124C11.9446 52.6473 11.6025 53.0232 11.1656 53.0232C10.7849 53.0232 10.466 52.7347 10.428 52.3559L9.67039 44.8115C9.60979 44.208 9.60951 43.6 9.66957 42.9965L10.4288 35.3666Z" fill="#9A8FC1" stroke="#9A8FC1" stroke-width="0.811354"/>
<path d="M36.5548 43.8125L36.5566 43.7854L36.5548 43.7584L35.9988 35.4895C35.97 35.0616 36.3093 34.6986 36.7382 34.6986C37.1279 34.6986 37.451 35.0004 37.4776 35.3892L38.0517 43.7859L37.4765 52.3317C37.4503 52.7209 37.127 53.0232 36.737 53.0232C36.3084 53.0232 35.9691 52.6607 35.9974 52.233L36.5548 43.8125Z" fill="#9A8FC1" stroke="#9A8FC1" stroke-width="0.811354"/>
<path d="M28.0675 53.4179L28.0693 53.3905L28.0674 53.3632L27.1056 39.3065C27.0584 38.6167 27.6053 38.0312 28.2967 38.0312C28.9404 38.0312 29.4682 38.5415 29.4899 39.1848L29.9693 53.3911L29.4886 68.0301C29.4674 68.6744 28.9391 69.1856 28.2945 69.1856C27.6034 69.1856 27.0565 68.6011 27.1024 67.9115L28.0675 53.4179Z" fill="#9A8FC1" stroke="#9A8FC1" stroke-width="0.811354"/>
<path d="M38.4058 53.6334C38.4058 54.6774 37.7114 55.3948 37.0005 55.3948C36.2895 55.3948 35.5951 54.6774 35.5951 53.6334C35.5951 52.5893 36.2895 51.872 37.0005 51.872C37.7114 51.872 38.4058 52.5894 38.4058 53.6334Z" fill="#9A8FC1" stroke="#9A8FC1" stroke-width="0.811354"/>
<path d="M12.6831 53.4278C12.6831 54.4719 11.9888 55.1892 11.2778 55.1892C10.5668 55.1892 9.87247 54.4719 9.87247 53.4278C9.87247 52.3838 10.5668 51.6664 11.2778 51.6664C11.9888 51.6664 12.6831 52.3838 12.6831 53.4278Z" fill="#9A8FC1" stroke="#9A8FC1" stroke-width="0.811354"/>
<path d="M47.9831 20.7116C47.9831 38.1289 48.1822 49.1905 21.4297 52.8939C1.09701 43.4296 0 35.6336 0 20.7115C3.85364 8.38401 8.88084 0 23.8098 0C38.7387 0 42.3562 7.02935 47.9831 20.7116Z" fill="#9A8FC1"/>
<path d="M23.9753 34.1553C22.9998 36.2384 19.6993 38.4142 16.4426 38.4113C13.1858 38.4084 10.148 35.9349 9.17592 34.1422C10.6381 32.2355 13.1934 29.901 16.4501 29.9039C19.7068 29.9068 23.1982 32.0519 23.9753 34.1553Z" fill="white"/>
<path d="M41.8698 34.1719C40.8943 36.255 37.5938 38.4308 34.3371 38.4279C31.0803 38.425 28.0425 35.9515 27.0705 34.1588C28.5326 32.2521 31.0879 29.9176 34.3446 29.9205C37.6014 29.9234 41.0927 32.0685 41.8698 34.1719Z" fill="white"/>
<circle cx="16.3794" cy="34.1362" r="2.76111" transform="rotate(9.41996 16.3794 34.1362)" fill="black"/>
<circle cx="34.4145" cy="34.1899" r="2.76111" transform="rotate(9.41996 34.4145 34.1899)" fill="black"/>
<mask id="path-14-outside-1_117_8851" maskUnits="userSpaceOnUse" x="19.682" y="37.6732" width="11.2359" height="4.70381" fill="black">
<rect fill="white" x="19.682" y="37.6732" width="11.2359" height="4.70381"/>
<path d="M30.0337 38.731C29.9924 39.3668 29.4724 39.9453 28.588 40.3393C27.7036 40.7334 26.5272 40.9107 25.3177 40.8322C24.1082 40.7537 22.9647 40.4259 22.1386 39.9209C21.3125 39.4159 20.8716 38.775 20.9128 38.1393L21.1413 38.1541C21.1021 38.758 21.521 39.3667 22.3057 39.8465C23.0903 40.3262 24.1766 40.6376 25.3255 40.7121C26.4744 40.7867 27.5918 40.6182 28.4319 40.2439C29.272 39.8696 29.766 39.3201 29.8052 38.7162L30.0337 38.731Z"/>
</mask>
<path d="M30.0337 38.731C29.9924 39.3668 29.4724 39.9453 28.588 40.3393C27.7036 40.7334 26.5272 40.9107 25.3177 40.8322C24.1082 40.7537 22.9647 40.4259 22.1386 39.9209C21.3125 39.4159 20.8716 38.775 20.9128 38.1393L21.1413 38.1541C21.1021 38.758 21.521 39.3667 22.3057 39.8465C23.0903 40.3262 24.1766 40.6376 25.3255 40.7121C26.4744 40.7867 27.5918 40.6182 28.4319 40.2439C29.272 39.8696 29.766 39.3201 29.8052 38.7162L30.0337 38.731Z" fill="white"/>
<path d="M30.0337 38.731C29.9924 39.3668 29.4724 39.9453 28.588 40.3393C27.7036 40.7334 26.5272 40.9107 25.3177 40.8322C24.1082 40.7537 22.9647 40.4259 22.1386 39.9209C21.3125 39.4159 20.8716 38.775 20.9128 38.1393L21.1413 38.1541C21.1021 38.758 21.521 39.3667 22.3057 39.8465C23.0903 40.3262 24.1766 40.6376 25.3255 40.7121C26.4744 40.7867 27.5918 40.6182 28.4319 40.2439C29.272 39.8696 29.766 39.3201 29.8052 38.7162L30.0337 38.731Z" stroke="white" stroke-width="0.530232" mask="url(#path-14-outside-1_117_8851)"/>
</svg>
