<svg width="190" height="229" viewBox="0 0 190 229" fill="none" xmlns="http://www.w3.org/2000/svg">
<path opacity="0.2" d="M111.866 229C68.7706 229 33.8345 225.865 33.8345 221.999C33.8345 218.132 68.7706 214.997 111.866 214.997C154.962 214.997 189.898 218.132 189.898 221.999C189.898 225.865 154.962 229 111.866 229Z" fill="#C6C6C6"/>
<path d="M40.9429 163.144L42.7676 161.786L1.51549 113.775L0.76416 114.454C-0.130291 115.204 -0.273411 116.562 0.513706 117.491L37.9375 162.929C38.6531 163.787 40.0127 163.894 40.9429 163.144Z" fill="#BDBEBF"/>
<path d="M43.3061 137.995C45.1307 137.174 47.3848 138.209 48.3508 140.353C48.7801 141.282 49.3168 142.675 49.4599 143.889C49.6388 145.247 49.3168 146.104 48.4939 146.461C48.2077 146.604 47.8499 146.676 47.4205 146.676C47.2059 146.676 47.027 146.675 46.8123 146.64C46.1683 146.568 45.4885 146.318 44.8087 145.997C43.3776 145.318 42.1969 144.282 41.7676 143.318C40.8016 141.174 41.4814 138.817 43.3061 137.995Z" fill="#FF896D"/>
<path d="M45.2388 143.996C45.3461 143.389 45.7039 142.817 46.2406 142.46C46.7773 142.103 47.4213 141.996 48.0295 142.139L63.915 145.854L79.872 147.318C80.516 147.39 81.0884 147.711 81.482 148.212C81.8756 148.712 82.0187 149.355 81.9471 149.998C81.7682 151.105 80.8022 151.927 79.6931 151.927C79.6215 151.927 79.55 151.927 79.4784 151.927L63.1994 150.426L47.0277 146.604C45.8113 146.318 45.0599 145.175 45.2388 143.996Z" fill="#FF896D"/>
<path d="M41.2289 161.644C41.8014 161.644 42.3738 161.429 42.8032 161.072L54.8246 150.82C55.075 150.605 55.1108 150.248 54.8962 149.998L20.2272 108.882C19.9767 108.596 19.6548 108.453 19.297 108.453C19.1539 108.453 19.0465 108.489 18.9034 108.524L2.15927 114.026C1.83727 114.133 1.62262 114.347 1.55106 114.669C1.4795 114.99 1.51528 115.312 1.72995 115.562L39.3685 160.822C39.8336 161.322 40.5134 161.644 41.2289 161.644Z" fill="white"/>
<path d="M19.3 108.953C19.2284 108.953 19.1569 108.953 19.0853 108.989L2.34115 114.454C2.16226 114.526 2.09071 114.669 2.05493 114.74C2.01915 114.812 2.01916 114.99 2.12649 115.133L39.765 160.393C40.1228 160.822 40.6595 161.072 41.2319 161.072C41.697 161.072 42.1264 160.929 42.4484 160.608L54.4698 150.355C54.5056 150.32 54.5056 150.284 54.4698 150.284L19.8009 109.167C19.6935 109.06 19.4789 108.953 19.3 108.953ZM19.3 107.881C19.8009 107.881 20.3017 108.096 20.6595 108.489L55.3285 149.605C55.722 150.07 55.6863 150.784 55.1854 151.213L43.1639 161.465C42.5915 161.929 41.9117 162.179 41.2319 162.179C40.3732 162.179 39.5504 161.822 38.9421 161.108L1.3036 115.847C0.623817 115.026 0.981586 113.811 1.98337 113.454L18.7275 107.989C18.9064 107.917 19.0853 107.881 19.3 107.881Z" fill="#BDBEBF"/>
<path d="M39.192 147.176C39.4425 147.533 39.9791 147.605 40.3369 147.355C40.6947 147.069 40.7662 146.569 40.5158 146.212C40.2653 145.855 39.7287 145.783 39.3709 146.033C39.0131 146.283 38.9058 146.819 39.192 147.176Z" fill="white" stroke="#30DDD3" stroke-width="0.0892592"/>
<path d="M13.6477 112.132L10.8212 113.204C10.6423 113.275 10.5707 113.454 10.6065 113.632C10.6781 113.811 10.857 113.883 11.0359 113.847L13.8623 112.775C14.0412 112.704 14.1128 112.525 14.077 112.346C14.0054 112.132 13.8265 112.061 13.6477 112.132Z" fill="#BDBEBF"/>
<path d="M15.471 111.346C15.3279 111.454 15.2563 111.632 15.3636 111.811L15.5068 112.025C15.6141 112.168 15.793 112.24 15.9719 112.132C16.115 112.025 16.1865 111.847 16.0792 111.668L15.9361 111.454C15.8287 111.275 15.6141 111.239 15.471 111.346Z" fill="#BDBEBF"/>
<path d="M45.2741 151.749C45.8465 151.284 46.6337 151.141 47.4208 151.32C48.1363 151.499 48.7803 151.927 49.2812 152.534C49.7821 153.142 50.0684 153.892 50.0684 154.606C50.0684 155.428 49.7464 156.142 49.1739 156.607C48.7446 156.928 48.2437 157.107 47.707 157.107C47.4923 157.107 47.2419 157.071 47.0272 157.035C46.3117 156.857 45.6677 156.428 45.1668 155.821C44.6659 155.214 44.3796 154.463 44.3796 153.749C44.3796 152.963 44.7016 152.213 45.2741 151.749Z" stroke="#BDBEBF" stroke-width="0.357037" stroke-miterlimit="10"/>
<path d="M26.7047 125.278C26.5974 125.35 26.49 125.421 26.4543 125.528C26.3827 125.636 26.3469 125.743 26.3469 125.85C26.3469 125.993 26.3827 126.1 26.4543 126.243L26.9552 127.1L27.2056 126.957L26.7405 126.136C26.6689 125.993 26.6331 125.85 26.6689 125.743C26.7047 125.636 26.7763 125.528 26.8836 125.457C27.0267 125.386 27.134 125.386 27.2771 125.421C27.3845 125.457 27.4918 125.564 27.5992 125.707L28.0643 126.529L28.3147 126.386L27.8496 125.564C27.7781 125.421 27.7423 125.278 27.7781 125.171C27.8138 125.064 27.8854 124.957 27.9927 124.885C28.1358 124.814 28.2432 124.814 28.3863 124.85C28.4936 124.885 28.6009 124.993 28.7083 125.135L29.1734 125.957L29.4238 125.814L28.6009 124.314L28.3505 124.457L28.4578 124.671C28.3505 124.635 28.2789 124.6 28.1716 124.6C28.0643 124.6 27.9569 124.635 27.8496 124.707C27.7423 124.778 27.6349 124.85 27.5634 124.993C27.4918 125.1 27.4561 125.207 27.4918 125.35C27.3845 125.278 27.2772 125.243 27.1341 125.207C26.9552 125.171 26.8478 125.207 26.7047 125.278ZM25.4525 125.707C25.4883 125.671 25.524 125.636 25.5598 125.6C25.5598 125.564 25.5598 125.493 25.524 125.457C25.4883 125.421 25.4525 125.386 25.4167 125.35C25.3809 125.35 25.3094 125.35 25.2736 125.386C25.2378 125.421 25.202 125.457 25.202 125.493C25.202 125.528 25.202 125.6 25.2378 125.636C25.2736 125.671 25.3094 125.707 25.3452 125.743C25.3452 125.743 25.3809 125.743 25.4525 125.707ZM25.4525 126.029L26.2754 127.529L26.5258 127.386L25.7029 125.886L25.4525 126.029ZM24.2718 126.672C24.0929 126.779 23.9856 126.922 23.914 127.065C23.8783 127.243 23.8783 127.422 24.0214 127.636L24.5222 128.493L24.7727 128.35L24.3076 127.529C24.236 127.386 24.2002 127.243 24.236 127.136C24.2718 127.029 24.3434 126.922 24.4865 126.85C24.6296 126.779 24.7369 126.743 24.88 126.814C24.9874 126.85 25.0947 126.957 25.202 127.1L25.6671 127.922L25.9176 127.779L25.0947 126.279L24.8443 126.421L24.9516 126.636C24.8442 126.6 24.7727 126.564 24.6654 126.564C24.4865 126.564 24.3791 126.6 24.2718 126.672ZM19.9427 129.065C19.8353 129.136 19.728 129.208 19.6922 129.315C19.6207 129.422 19.5849 129.529 19.5849 129.636C19.5849 129.744 19.6207 129.886 19.6922 130.029L20.1931 130.887L20.4436 130.744L19.9785 129.922C19.9069 129.779 19.8711 129.636 19.9069 129.529C19.9427 129.422 20.0142 129.315 20.1216 129.243C20.2647 129.172 20.372 129.172 20.5151 129.208C20.6225 129.244 20.7298 129.351 20.8371 129.494L21.3022 130.315L21.5527 130.172L21.0876 129.351C21.016 129.208 20.9802 129.065 21.016 128.958C21.0518 128.851 21.1234 128.743 21.2307 128.672C21.3738 128.601 21.4811 128.601 21.6242 128.636C21.7316 128.672 21.8389 128.779 21.9462 128.922L22.4114 129.744L22.6618 129.601L21.8389 128.1L21.5885 128.243L21.6958 128.458C21.5885 128.422 21.5169 128.386 21.4096 128.386C21.3022 128.386 21.1949 128.422 21.0876 128.493C20.9802 128.565 20.8729 128.636 20.8013 128.779C20.7298 128.886 20.694 128.993 20.7298 129.136C20.6225 129.065 20.5151 129.029 20.372 128.993C20.1931 128.993 20.05 128.993 19.9427 129.065ZM17.9391 131.137C17.9749 131.172 18.0107 131.244 18.0464 131.28L19.2271 130.601C19.2987 130.744 19.2987 130.887 19.2629 131.03C19.2271 131.172 19.1198 131.28 19.0124 131.351C18.9051 131.423 18.7978 131.423 18.6904 131.423C18.5831 131.423 18.5115 131.387 18.44 131.315L18.1896 131.458C18.2969 131.565 18.44 131.637 18.6189 131.673C18.7978 131.708 18.9767 131.673 19.1555 131.565C19.2987 131.494 19.406 131.387 19.4776 131.244C19.5491 131.137 19.5849 130.994 19.5849 130.815C19.5849 130.672 19.5491 130.494 19.4418 130.351C19.3702 130.208 19.2629 130.065 19.1198 129.994C18.9767 129.922 18.8693 129.886 18.7262 129.886C18.5831 129.886 18.44 129.922 18.2969 129.994C18.1538 130.065 18.0464 130.172 17.9749 130.279C17.9033 130.387 17.8675 130.529 17.8675 130.672C17.8318 130.851 17.8676 130.994 17.9391 131.137ZM18.1896 130.922C18.1538 130.815 18.118 130.744 18.118 130.637C18.118 130.53 18.1538 130.458 18.1896 130.387C18.2253 130.315 18.2969 130.244 18.4042 130.208C18.5115 130.137 18.6547 130.101 18.7978 130.137C18.9409 130.172 19.0482 130.244 19.1198 130.387L18.1896 130.922Z" fill="#5FB8DE"/>
<path d="M23.7723 128.887L23.8081 128.923C23.8081 128.923 23.8438 128.923 23.8796 128.887C23.9154 128.887 23.9512 128.851 23.9512 128.815C23.9512 128.779 23.9512 128.779 23.9512 128.779L23.9154 128.743C23.8796 128.743 23.8438 128.743 23.8438 128.779C23.8081 128.779 23.8081 128.815 23.8081 128.815C23.7365 128.851 23.7365 128.851 23.7723 128.887Z" fill="#FF896D" stroke="#FF896D" stroke-width="0.263636"/>
<path d="M23.4863 129.029V129.065L23.4505 129.101C23.4148 129.101 23.379 129.137 23.379 129.137C23.3433 129.137 23.3432 129.137 23.3432 129.101V129.065C23.3432 129.029 23.379 129.029 23.4148 128.993C23.4506 128.993 23.4863 128.958 23.4863 128.958C23.4863 128.993 23.4863 128.994 23.4863 129.029Z" fill="#FF896D" stroke="#FF896D" stroke-width="0.263636"/>
<path d="M23.8418 128.744L23.5556 128.172L23.1978 127.636C23.1978 127.601 23.162 127.601 23.1262 127.601C23.0905 127.601 23.0904 127.636 23.0904 127.672L23.4125 128.136C23.4482 128.172 23.4482 128.208 23.484 128.244L23.7345 128.779C23.7345 128.815 23.7702 128.815 23.806 128.815C23.8418 128.815 23.8418 128.78 23.8418 128.744Z" fill="#FF896D" stroke="#FF896D" stroke-width="0.263636"/>
<path d="M23.7715 127.993L23.6284 127.672C23.6284 127.636 23.5926 127.636 23.5926 127.6L23.4137 127.314C23.4137 127.314 23.378 127.278 23.378 127.314C23.378 127.314 23.3422 127.35 23.378 127.35L23.5568 127.636C23.5568 127.672 23.5926 127.672 23.5926 127.707L23.7357 128.029C23.7357 128.065 23.7715 128.065 23.7715 128.029V127.993Z" fill="#FF896D" stroke="#FF896D" stroke-width="0.263636"/>
<path d="M22.5175 128.244L22.3744 127.922C22.3744 127.886 22.3386 127.886 22.3386 127.922C22.3386 127.922 22.3029 127.958 22.3386 127.958L22.4817 128.279L22.6964 128.601C22.6964 128.601 22.7321 128.637 22.7321 128.601C22.7321 128.601 22.7679 128.565 22.7321 128.565L22.5175 128.244Z" fill="#FF896D" stroke="#FF896D" stroke-width="0.263636"/>
<path d="M23.0934 128.422L22.843 127.85C22.843 127.814 22.8072 127.814 22.7714 127.814C22.7356 127.814 22.7356 127.85 22.7356 127.886L23.0219 128.457L23.3438 129.029C23.3438 129.065 23.3796 129.065 23.4154 129.065C23.4512 129.065 23.4512 129.029 23.4512 128.993L23.0934 128.422Z" fill="#FF896D" stroke="#FF896D" stroke-width="0.263636"/>
<path d="M22.6596 128.672C22.6954 128.708 22.7312 128.708 22.767 128.708C22.8027 128.708 22.8027 128.636 22.8027 128.601C22.767 128.565 22.7312 128.565 22.6954 128.565C22.6596 128.565 22.6596 128.636 22.6596 128.672Z" fill="#FF896D" stroke="#FF896D" stroke-width="0.263636"/>
<path d="M23.6987 128.065C23.7345 128.101 23.7702 128.101 23.806 128.101C23.8418 128.101 23.8418 128.029 23.8418 127.993C23.806 127.958 23.7703 127.958 23.7345 127.958C23.6987 127.993 23.6987 128.029 23.6987 128.065Z" fill="#FF896D" stroke="#FF896D" stroke-width="0.263636"/>
<path d="M21.0514 127.029C21.3734 127.6 22.0889 128.422 23.2696 127.958C23.8778 127.136 23.4843 126.421 23.1623 125.85C22.8403 125.278 22.3036 125.243 21.6954 125.564C21.0871 125.921 20.7294 126.457 21.0514 127.029Z" fill="#FF896D"/>
<path d="M22.1633 126.243C22.2348 126.314 22.4495 126.314 22.5568 126.243C22.6999 126.171 22.7715 125.993 22.7715 125.921C22.6642 125.886 22.521 125.85 22.3779 125.921C22.2348 125.993 22.1275 126.136 22.1633 126.243Z" fill="white"/>
<path d="M21.4133 126.636C21.4848 126.707 21.6995 126.707 21.8068 126.636C21.9499 126.564 22.0215 126.386 22.0215 126.314C21.9142 126.278 21.7711 126.243 21.6279 126.314C21.5206 126.386 21.4133 126.564 21.4133 126.636Z" fill="white"/>
<path d="M22.2395 126.13C22.19 126.069 22.1999 125.978 22.2616 125.929C22.3233 125.88 22.4134 125.89 22.463 125.951C22.5126 126.013 22.5027 126.103 22.441 126.152C22.3793 126.202 22.2891 126.192 22.2395 126.13Z" fill="#6D6D6D"/>
<path d="M21.5345 126.54C21.4849 126.479 21.4947 126.389 21.5564 126.339C21.6181 126.29 21.7084 126.3 21.7579 126.361C21.8075 126.423 21.7976 126.513 21.7359 126.562C21.6742 126.612 21.584 126.602 21.5345 126.54Z" fill="#6D6D6D"/>
<path d="M22.125 126.886C22.1608 126.922 22.1966 126.957 22.2681 126.957C22.3397 126.957 22.4112 126.922 22.5186 126.886C22.5901 126.85 22.6617 126.779 22.6975 126.707C22.7332 126.636 22.7332 126.6 22.7332 126.564C22.769 126.6 22.7332 126.671 22.6975 126.707C22.6617 126.779 22.5901 126.814 22.5186 126.85C22.447 126.886 22.3755 126.921 22.3039 126.921C22.1966 126.921 22.1608 126.886 22.125 126.886Z" fill="white"/>
<path d="M46.168 146.354L46.0249 146.461L46.0607 146.497L46.2754 146.354L45.9534 145.926L45.8818 145.961L46.168 146.354ZM45.846 146.676C45.8818 146.64 45.9176 146.64 45.9176 146.604C45.9176 146.569 45.9534 146.533 45.9176 146.497C45.9176 146.462 45.8818 146.426 45.8818 146.39C45.846 146.354 45.8103 146.319 45.8103 146.319C45.7745 146.319 45.7387 146.283 45.7029 146.319C45.6672 146.319 45.6314 146.354 45.5956 146.354C45.5598 146.39 45.524 146.39 45.524 146.426C45.524 146.462 45.4883 146.497 45.524 146.533C45.524 146.569 45.5598 146.604 45.5598 146.64C45.5956 146.676 45.6314 146.712 45.6672 146.712C45.7029 146.712 45.7387 146.747 45.7745 146.712C45.7745 146.712 45.8103 146.676 45.846 146.676ZM45.8103 146.604C45.7745 146.604 45.7745 146.64 45.7387 146.64C45.7029 146.64 45.7029 146.64 45.6672 146.64C45.6314 146.64 45.6314 146.604 45.5956 146.569C45.5598 146.533 45.5598 146.533 45.5598 146.497C45.5598 146.462 45.5598 146.462 45.5598 146.426C45.5598 146.39 45.5956 146.39 45.5956 146.354C45.6314 146.354 45.6314 146.319 45.6672 146.319C45.7029 146.319 45.7029 146.319 45.7387 146.319C45.7745 146.319 45.7745 146.354 45.8103 146.39C45.846 146.426 45.846 146.461 45.846 146.461C45.846 146.497 45.846 146.497 45.846 146.533C45.846 146.569 45.846 146.604 45.8103 146.604ZM45.3451 146.604C45.3094 146.604 45.3094 146.604 45.2736 146.604C45.2378 146.604 45.2378 146.604 45.202 146.64L45.2378 146.712C45.3094 146.676 45.3452 146.676 45.4167 146.747L45.5598 146.926L45.6314 146.89L45.3809 146.569L45.3094 146.604H45.3451ZM44.9158 147.069C44.9158 147.069 44.9516 147.105 44.9158 147.069L45.202 146.89C45.2378 146.926 45.2378 146.962 45.2378 146.997C45.2378 147.033 45.202 147.069 45.1663 147.069C45.1305 147.105 45.1305 147.105 45.0947 147.105C45.0589 147.105 45.0589 147.105 45.0232 147.069L44.9516 147.105C44.9874 147.14 45.0232 147.14 45.0589 147.14C45.0947 147.14 45.1305 147.14 45.1663 147.105C45.202 147.069 45.2378 147.069 45.2378 147.033C45.2378 146.997 45.2736 146.962 45.2378 146.926C45.2378 146.89 45.202 146.854 45.202 146.819C45.1663 146.783 45.1305 146.747 45.1305 146.747C45.0947 146.747 45.0589 146.712 45.0232 146.747C44.9874 146.747 44.9516 146.783 44.9158 146.783C44.88 146.819 44.8443 146.819 44.8443 146.854C44.8443 146.89 44.8085 146.926 44.8443 146.962C44.88 146.997 44.9158 147.033 44.9158 147.069ZM44.9874 147.033C44.9874 146.997 44.9516 146.997 44.9516 146.962C44.9516 146.926 44.9516 146.926 44.9516 146.89C44.9516 146.855 44.9874 146.854 44.9874 146.854C45.0231 146.819 45.0589 146.819 45.0947 146.819C45.1305 146.819 45.1663 146.854 45.1663 146.854L44.9874 147.033ZM44.3076 147.283C44.2718 147.319 44.2718 147.319 44.236 147.355C44.236 147.39 44.236 147.426 44.236 147.426C44.236 147.462 44.2718 147.497 44.2718 147.533L44.4149 147.748L44.4865 147.712L44.3434 147.533C44.3076 147.497 44.3076 147.462 44.3076 147.426C44.3076 147.39 44.3434 147.355 44.3434 147.355C44.3791 147.319 44.4149 147.319 44.4507 147.319C44.4865 147.319 44.5223 147.355 44.5223 147.39L44.6654 147.569L44.7369 147.533L44.5938 147.355C44.558 147.319 44.558 147.283 44.558 147.247C44.558 147.212 44.5938 147.176 44.5938 147.176C44.6296 147.14 44.6654 147.14 44.7011 147.14C44.7369 147.14 44.7727 147.176 44.7727 147.212L44.9158 147.39L44.9874 147.355L44.7369 147.033L44.6654 147.069L44.7011 147.105C44.6654 147.105 44.6654 147.105 44.6296 147.105C44.5938 147.105 44.5938 147.105 44.558 147.14C44.5222 147.176 44.5223 147.176 44.4865 147.212C44.4865 147.247 44.4865 147.283 44.4865 147.319C44.4507 147.319 44.4149 147.283 44.4149 147.283C44.3792 147.247 44.3434 147.247 44.3076 147.283ZM43.8425 147.533C43.8782 147.533 43.8782 147.533 43.8425 147.533C43.8782 147.497 43.8425 147.462 43.8425 147.462C43.8425 147.462 43.8067 147.462 43.8067 147.426H43.7709C43.7709 147.426 43.7709 147.426 43.7709 147.462V147.497C43.8067 147.533 43.8067 147.533 43.8425 147.533ZM43.8783 147.605L44.1287 147.926L44.2002 147.89L43.9498 147.569L43.8783 147.605ZM43.7709 147.783C43.7351 147.783 43.7351 147.783 43.6994 147.783C43.6636 147.783 43.6278 147.783 43.592 147.819C43.5563 147.855 43.5563 147.855 43.5205 147.89C43.5205 147.926 43.5205 147.962 43.5205 147.998C43.5205 148.033 43.5562 148.069 43.5562 148.105C43.592 148.14 43.6278 148.176 43.6278 148.176C43.6636 148.176 43.6994 148.212 43.7351 148.212C43.7709 148.212 43.8067 148.212 43.8425 148.176C43.8782 148.14 43.8782 148.14 43.914 148.105C43.914 148.069 43.914 148.033 43.914 148.033L44.0929 148.248L44.1645 148.212L43.8067 147.712L43.7351 147.748L43.7709 147.783ZM43.592 148.069C43.5563 148.033 43.5562 148.033 43.5562 147.998C43.5562 147.962 43.5562 147.962 43.5562 147.926C43.5562 147.89 43.592 147.89 43.592 147.855C43.6278 147.855 43.6278 147.819 43.6636 147.819C43.6994 147.819 43.6994 147.819 43.7351 147.819C43.7709 147.819 43.7709 147.855 43.8067 147.89C43.8425 147.926 43.8425 147.926 43.8425 147.962C43.8425 147.998 43.8425 147.998 43.8425 148.033C43.8425 148.069 43.8067 148.069 43.8067 148.105C43.7709 148.105 43.7709 148.141 43.7351 148.141C43.6994 148.141 43.6994 148.141 43.6636 148.141C43.6636 148.105 43.6278 148.105 43.592 148.069ZM43.4847 148.426C43.5205 148.39 43.5205 148.391 43.5562 148.355C43.5562 148.319 43.592 148.319 43.592 148.283C43.592 148.248 43.592 148.248 43.5562 148.212L43.4847 148.248C43.4847 148.283 43.4847 148.283 43.4847 148.319C43.4847 148.355 43.4489 148.355 43.4489 148.391C43.4131 148.391 43.4131 148.426 43.3774 148.426C43.3416 148.426 43.3416 148.426 43.3416 148.391V148.355C43.3416 148.355 43.3774 148.319 43.3774 148.283C43.4131 148.248 43.4131 148.248 43.4131 148.212C43.4131 148.176 43.4131 148.176 43.4489 148.141C43.4489 148.105 43.4489 148.105 43.4131 148.069L43.3774 148.033C43.3416 148.033 43.3416 148.033 43.3058 148.033C43.27 148.033 43.27 148.033 43.2343 148.069C43.1985 148.105 43.1627 148.14 43.1627 148.176C43.1627 148.212 43.1627 148.248 43.1985 148.283L43.27 148.248C43.27 148.212 43.27 148.212 43.27 148.176C43.27 148.14 43.27 148.14 43.3058 148.105C43.3416 148.105 43.3416 148.069 43.3774 148.069C43.4131 148.069 43.4131 148.069 43.4131 148.105V148.141V148.176L43.3774 148.212C43.3416 148.248 43.3416 148.248 43.3416 148.283C43.3416 148.283 43.3416 148.319 43.3058 148.355C43.3058 148.391 43.3058 148.39 43.3416 148.426C43.3416 148.462 43.3774 148.462 43.3774 148.462C43.4131 148.462 43.4131 148.462 43.4489 148.462C43.4489 148.462 43.4489 148.462 43.4847 148.426ZM42.7334 148.462L42.9838 148.783L43.0554 148.748L43.0196 148.712C43.0554 148.712 43.0554 148.712 43.0911 148.712C43.1269 148.712 43.1269 148.712 43.1627 148.676C43.1985 148.641 43.1985 148.641 43.2343 148.605C43.27 148.569 43.2343 148.533 43.2343 148.533C43.2343 148.498 43.1985 148.462 43.1985 148.426L43.0554 148.248L42.9838 148.283L43.1269 148.462C43.1627 148.498 43.1627 148.533 43.1627 148.569C43.1627 148.605 43.1269 148.641 43.1269 148.641C43.0911 148.676 43.0554 148.676 43.0196 148.676C42.9838 148.676 42.948 148.641 42.948 148.605L42.8049 148.426L42.7334 148.462ZM42.2325 148.819C42.1967 148.855 42.1967 148.855 42.1609 148.891C42.1609 148.926 42.1609 148.962 42.1609 148.962C42.1609 148.998 42.1967 149.034 42.1967 149.069L42.3398 149.284L42.4113 149.248L42.2682 149.069C42.2325 149.034 42.2325 148.998 42.2325 148.962C42.2325 148.926 42.2682 148.891 42.2682 148.891C42.304 148.855 42.3398 148.855 42.3756 148.855C42.4114 148.855 42.4471 148.891 42.4471 148.926L42.5902 149.105L42.6618 149.069L42.5187 148.891C42.4829 148.855 42.4829 148.819 42.4829 148.783C42.4829 148.748 42.5187 148.712 42.5187 148.712C42.5545 148.676 42.5902 148.676 42.626 148.676C42.6618 148.676 42.6976 148.712 42.6976 148.748L42.8407 148.926L42.9122 148.891L42.6618 148.569L42.5902 148.605L42.626 148.641C42.5902 148.641 42.5902 148.641 42.5545 148.641C42.5187 148.641 42.5187 148.641 42.4829 148.676C42.4471 148.712 42.4471 148.712 42.4113 148.748C42.4113 148.783 42.4113 148.819 42.4113 148.855C42.3756 148.855 42.3398 148.819 42.3398 148.819C42.2682 148.783 42.2325 148.819 42.2325 148.819ZM41.982 149.284C41.9462 149.248 41.9105 149.212 41.9105 149.212C41.8747 149.212 41.8389 149.176 41.8031 149.176C41.7674 149.176 41.7316 149.176 41.6958 149.212C41.66 149.248 41.66 149.248 41.6242 149.284C41.6242 149.319 41.5885 149.355 41.6242 149.355L41.4811 149.176L41.4096 149.212L41.7316 149.677L41.8031 149.641L41.7673 149.569C41.8031 149.569 41.8389 149.569 41.8389 149.569C41.8747 149.569 41.9105 149.569 41.9462 149.534C41.982 149.498 41.982 149.498 42.0178 149.462C42.0178 149.426 42.0178 149.391 42.0178 149.355C42.0178 149.355 41.982 149.319 41.982 149.284ZM41.6958 149.498C41.66 149.462 41.66 149.462 41.66 149.426C41.66 149.391 41.66 149.391 41.66 149.355C41.66 149.319 41.6958 149.319 41.6958 149.284C41.7316 149.284 41.7316 149.248 41.7673 149.248C41.8031 149.248 41.8031 149.248 41.8389 149.248C41.8747 149.248 41.8747 149.284 41.9105 149.319C41.9462 149.355 41.9462 149.355 41.9462 149.391C41.9462 149.427 41.9462 149.426 41.9462 149.462C41.9462 149.498 41.9105 149.498 41.9105 149.534C41.8747 149.534 41.8747 149.569 41.8389 149.569C41.8031 149.569 41.8031 149.569 41.7673 149.569C41.7316 149.534 41.6958 149.534 41.6958 149.498ZM41.5169 149.891C41.5527 149.855 41.5885 149.855 41.5885 149.819C41.5885 149.784 41.6242 149.748 41.5885 149.712C41.5885 149.677 41.5527 149.641 41.5527 149.605C41.5169 149.569 41.4811 149.534 41.4811 149.534C41.4453 149.534 41.4096 149.498 41.3738 149.534C41.338 149.534 41.3022 149.569 41.2665 149.569C41.2307 149.605 41.1949 149.605 41.1949 149.641C41.1949 149.677 41.1591 149.712 41.1949 149.748C41.1949 149.784 41.2307 149.819 41.2307 149.855C41.2665 149.891 41.3022 149.927 41.338 149.927C41.3738 149.927 41.4096 149.962 41.4454 149.927C41.4454 149.927 41.4811 149.927 41.5169 149.891ZM41.4811 149.855C41.4453 149.855 41.4453 149.891 41.4096 149.891C41.3738 149.891 41.3738 149.891 41.338 149.891C41.3022 149.891 41.3022 149.855 41.2665 149.819C41.2307 149.784 41.2307 149.784 41.2307 149.748C41.2307 149.712 41.2307 149.712 41.2307 149.677C41.2307 149.641 41.2665 149.641 41.2665 149.605C41.3022 149.605 41.3022 149.569 41.338 149.569C41.3738 149.569 41.3738 149.569 41.4096 149.569C41.4453 149.569 41.4453 149.605 41.4811 149.641C41.5169 149.677 41.5169 149.712 41.5169 149.712C41.5169 149.748 41.5169 149.748 41.5169 149.784C41.5169 149.819 41.4811 149.819 41.4811 149.855ZM40.8729 149.677L41.1949 150.141L41.2665 150.105L40.9445 149.641L40.8729 149.677ZM40.9445 150.32C40.9802 150.284 41.016 150.284 41.016 150.248C41.016 150.212 41.0518 150.177 41.016 150.141C41.016 150.105 40.9802 150.069 40.9802 150.034C40.9444 149.998 40.9087 149.962 40.9087 149.962C40.8729 149.962 40.8371 149.927 40.8013 149.962C40.7656 149.962 40.7298 149.998 40.694 149.998C40.6582 150.034 40.6224 150.034 40.6224 150.069C40.6224 150.105 40.5867 150.141 40.6224 150.177C40.6224 150.212 40.6582 150.248 40.6582 150.284C40.694 150.32 40.7298 150.355 40.7656 150.355C40.8013 150.355 40.8371 150.391 40.8729 150.355C40.9087 150.355 40.9087 150.32 40.9445 150.32ZM40.9087 150.248C40.8729 150.248 40.8729 150.284 40.8371 150.284C40.8013 150.284 40.8013 150.284 40.7656 150.284C40.7298 150.284 40.7298 150.248 40.694 150.212C40.6582 150.177 40.6582 150.141 40.6582 150.141C40.6582 150.105 40.6582 150.105 40.6582 150.069C40.6582 150.034 40.694 150.034 40.694 149.998C40.7298 149.998 40.7298 149.962 40.7656 149.962C40.8013 149.962 40.8013 149.962 40.8371 149.962C40.8729 149.962 40.8729 149.998 40.9087 150.034C40.9445 150.069 40.9445 150.105 40.9445 150.105C40.9445 150.141 40.9445 150.141 40.9445 150.177C40.9445 150.212 40.9445 150.248 40.9087 150.248ZM40.4436 150.248C40.4078 150.248 40.4078 150.248 40.372 150.248C40.3362 150.248 40.3362 150.248 40.3005 150.284L40.3362 150.355C40.4078 150.32 40.4436 150.32 40.5151 150.391L40.6582 150.57L40.7298 150.534L40.4793 150.212L40.4078 150.248H40.4436ZM40.1931 150.891C40.2289 150.855 40.2289 150.855 40.2647 150.82C40.2647 150.784 40.3005 150.784 40.3005 150.748C40.3005 150.712 40.3004 150.712 40.2647 150.677L40.1931 150.712C40.1931 150.748 40.1931 150.748 40.1931 150.784C40.1931 150.82 40.1573 150.82 40.1573 150.855C40.1216 150.855 40.1215 150.891 40.0858 150.891C40.05 150.891 40.05 150.891 40.05 150.855V150.82C40.05 150.82 40.0858 150.784 40.0858 150.748C40.1215 150.712 40.1216 150.712 40.1216 150.677C40.1216 150.641 40.1216 150.641 40.1573 150.605C40.1573 150.57 40.1573 150.57 40.1216 150.534L40.0858 150.498C40.05 150.498 40.05 150.498 40.0142 150.498C39.9785 150.498 39.9785 150.498 39.9427 150.534C39.9069 150.57 39.8711 150.605 39.8711 150.641C39.8711 150.677 39.8711 150.712 39.9069 150.748L39.9784 150.712C39.9784 150.677 39.9784 150.677 39.9784 150.641C39.9784 150.605 40.0142 150.605 40.0142 150.57C40.05 150.57 40.05 150.534 40.0858 150.534C40.1215 150.534 40.1216 150.534 40.1216 150.57V150.605V150.641L40.0858 150.677C40.05 150.712 40.05 150.712 40.05 150.748C40.05 150.748 40.05 150.784 40.05 150.82C40.05 150.855 40.05 150.855 40.0858 150.891C40.0858 150.927 40.1216 150.927 40.1216 150.927C40.1573 150.927 40.1573 150.927 40.1931 150.927C40.1216 150.927 40.1573 150.891 40.1931 150.891ZM39.6565 150.677C39.6565 150.641 39.6565 150.641 39.6565 150.677C39.6922 150.641 39.6565 150.605 39.6565 150.605C39.6565 150.605 39.6207 150.605 39.6207 150.57H39.5849V150.605V150.641C39.5849 150.677 39.6207 150.677 39.6565 150.677C39.6207 150.677 39.6565 150.677 39.6565 150.677ZM39.6565 150.748L39.9069 151.07L39.9784 151.034L39.728 150.712L39.6565 150.748ZM39.5491 150.891L39.6922 151.105V151.141C39.6922 151.141 39.6922 151.177 39.6565 151.177L39.6207 151.213L39.6565 151.248L39.6922 151.213C39.728 151.177 39.728 151.177 39.728 151.141C39.728 151.105 39.728 151.07 39.6922 151.07L39.5491 150.855L39.5849 150.82L39.5491 150.784L39.5133 150.82L39.4418 150.748L39.3702 150.784L39.4418 150.855L39.3702 150.927L39.406 150.963L39.5491 150.891ZM39.3344 151.248C39.2987 151.213 39.2629 151.177 39.2629 151.177C39.2271 151.177 39.1913 151.141 39.1556 151.141C39.1198 151.141 39.084 151.141 39.0482 151.177C39.0124 151.213 39.0124 151.213 38.9767 151.248C38.9767 151.284 38.9767 151.32 38.9767 151.32L38.9409 151.248L38.8693 151.284L39.1198 151.606L39.1913 151.57L39.1556 151.498C39.1913 151.498 39.2271 151.498 39.2271 151.498C39.2629 151.498 39.2987 151.498 39.3344 151.463C39.3702 151.427 39.3702 151.427 39.406 151.391C39.406 151.355 39.406 151.32 39.406 151.284C39.3702 151.32 39.3344 151.284 39.3344 151.248ZM39.0482 151.463C39.0124 151.427 39.0124 151.427 39.0124 151.391C39.0124 151.355 39.0124 151.355 39.0124 151.32C39.0124 151.284 39.0482 151.284 39.0482 151.248C39.0482 151.213 39.084 151.213 39.1198 151.213C39.1556 151.213 39.1555 151.213 39.1913 151.213C39.2271 151.213 39.2271 151.248 39.2629 151.284C39.2987 151.32 39.2987 151.32 39.2987 151.356C39.2987 151.391 39.2987 151.391 39.2987 151.427C39.2987 151.463 39.2629 151.463 39.2629 151.498C39.2271 151.498 39.2271 151.534 39.1913 151.534C39.1555 151.534 39.1556 151.534 39.1198 151.534C39.084 151.498 39.0482 151.498 39.0482 151.463ZM38.3327 151.713C38.2969 151.748 38.2969 151.748 38.2611 151.784C38.2611 151.82 38.2611 151.856 38.2611 151.856C38.2611 151.891 38.2969 151.927 38.2969 151.963L38.44 152.177L38.5116 152.141L38.3684 151.963C38.3327 151.927 38.3327 151.891 38.3327 151.856C38.3327 151.82 38.3684 151.784 38.3684 151.784C38.4042 151.748 38.44 151.748 38.4758 151.748C38.5115 151.748 38.5473 151.784 38.5473 151.82L38.6904 151.998L38.762 151.963L38.6189 151.784C38.5831 151.748 38.5831 151.713 38.5831 151.677C38.5831 151.641 38.6189 151.606 38.6189 151.606C38.6547 151.57 38.6904 151.57 38.7262 151.57C38.762 151.57 38.7978 151.606 38.7978 151.641L38.9409 151.82L39.0124 151.784L38.762 151.463L38.6904 151.498L38.7262 151.534C38.6904 151.534 38.6904 151.534 38.6547 151.534C38.6189 151.534 38.6189 151.534 38.5831 151.57C38.5473 151.606 38.5473 151.606 38.5116 151.641C38.5116 151.677 38.5116 151.713 38.5116 151.748C38.4758 151.748 38.44 151.713 38.44 151.713C38.4042 151.677 38.3684 151.677 38.3327 151.713ZM37.9391 152.284L38.2253 152.106C38.2611 152.141 38.2611 152.177 38.2611 152.213C38.2611 152.249 38.2253 152.284 38.1895 152.284C38.1538 152.32 38.1538 152.32 38.118 152.32C38.0822 152.32 38.0822 152.32 38.0464 152.284L37.9749 152.32C38.0107 152.356 38.0464 152.356 38.0822 152.356C38.118 152.356 38.1538 152.356 38.1895 152.32C38.2253 152.284 38.2611 152.284 38.2611 152.249C38.2611 152.213 38.2969 152.177 38.2611 152.141C38.2611 152.106 38.2253 152.07 38.2253 152.034C38.1896 151.998 38.1538 151.963 38.1538 151.963C38.118 151.963 38.0822 151.927 38.0464 151.963C38.0107 151.963 37.9749 151.998 37.9391 151.998C37.9033 152.034 37.8676 152.034 37.8676 152.07C37.8676 152.106 37.8318 152.141 37.8676 152.177C37.9033 152.213 37.9033 152.249 37.9391 152.284ZM37.9749 152.213C37.9749 152.177 37.9391 152.177 37.9391 152.141C37.9391 152.106 37.9391 152.106 37.9391 152.07C37.9391 152.034 37.9749 152.034 37.9749 152.034C38.0107 151.998 38.0464 151.998 38.0822 151.998C38.118 151.998 38.1538 152.034 38.1538 152.034L37.9749 152.213ZM37.6887 152.284L37.8318 152.499V152.534C37.8318 152.534 37.8318 152.57 37.796 152.57L37.7602 152.606L37.796 152.641L37.8318 152.606C37.8675 152.57 37.8676 152.57 37.8676 152.534C37.8676 152.499 37.8675 152.463 37.8318 152.463L37.6887 152.249L37.7244 152.213L37.6887 152.177L37.6529 152.213L37.5813 152.141L37.5098 152.177L37.5813 152.249L37.5098 152.32L37.5455 152.356L37.6887 152.284ZM37.7244 152.713C37.7602 152.677 37.7602 152.677 37.7244 152.713C37.7602 152.677 37.7244 152.641 37.7244 152.641C37.7244 152.641 37.6887 152.642 37.6887 152.606H37.6529C37.6529 152.606 37.6529 152.606 37.6529 152.641V152.677C37.6886 152.713 37.6887 152.713 37.7244 152.713Z" fill="#898989"/>
<path d="M42.6283 142.604L35.258 148.07C34.5425 148.605 34.3994 149.606 34.9361 150.32C35.4727 151.035 36.4745 151.177 37.1901 150.642L44.5603 145.176C45.2759 144.64 45.419 143.64 44.8823 142.925C44.3457 142.211 43.3439 142.068 42.6283 142.604Z" stroke="#D9D9D9" stroke-width="0.357037"/>
<path d="M43.0905 144.283C43.3409 144.64 43.8776 144.711 44.2353 144.461C44.5931 144.175 44.6647 143.675 44.4142 143.318C44.1638 142.961 43.6271 142.89 43.2693 143.14C42.8758 143.425 42.8042 143.925 43.0905 144.283Z" fill="white" stroke="#DE5F8D" stroke-width="0.0892592"/>
<path d="M43.4157 143.854C43.3799 143.675 43.5946 143.604 43.6661 143.675C43.6304 143.568 43.7735 143.389 43.9166 143.497C44.0955 143.604 43.9166 143.961 43.9166 143.997C43.845 143.997 43.4515 144.068 43.4157 143.854Z" fill="#DE5F8D"/>
<path d="M41.1237 145.711C41.3741 146.069 41.9108 146.14 42.2685 145.89C42.6263 145.604 42.6979 145.104 42.4474 144.747C42.197 144.39 41.6603 144.318 41.3025 144.568C40.9448 144.854 40.8732 145.354 41.1237 145.711Z" fill="white" stroke="#DDDF6C" stroke-width="0.0892592"/>
<path d="M41.4811 145.319L41.7316 145.14L41.4453 145.033L41.6242 144.89L42.0535 145.069L41.9462 145.14L41.8747 145.211C41.8747 145.211 41.9104 145.211 41.9462 145.247L42.2324 145.354H41.7673C41.7315 145.354 41.6958 145.354 41.6958 145.354C41.6958 145.354 41.66 145.354 41.6242 145.354L41.4811 145.319Z" fill="#DDDF6C"/>
<path d="M39.6212 146.64C39.657 146.604 39.657 146.604 39.6927 146.604H39.7285C39.6927 146.604 39.6928 146.604 39.657 146.604C39.6212 146.604 39.6212 146.604 39.6212 146.64C39.5854 146.604 39.5854 146.64 39.6212 146.64C39.5854 146.64 39.5854 146.64 39.6212 146.64C39.5854 146.64 39.5854 146.64 39.6212 146.64Z" fill="#30DDD3"/>
<path d="M40.0151 146.355C39.9794 146.355 39.9793 146.39 39.9793 146.426C39.9436 146.355 39.8362 146.355 39.8005 146.39L39.7647 146.426C39.7289 146.39 39.6574 146.39 39.6216 146.426C39.55 146.462 39.55 146.569 39.5858 146.605C39.5143 146.676 39.5142 146.748 39.55 146.819C39.6216 146.891 39.7289 146.927 39.8005 146.855C39.8362 146.819 39.8362 146.819 39.872 146.784C39.9078 146.784 39.9794 146.784 40.0151 146.748C40.0151 146.748 40.0509 146.748 40.0509 146.712C40.1225 146.676 40.1225 146.605 40.1225 146.533C40.1582 146.533 40.194 146.533 40.2298 146.498C40.3013 146.462 40.3013 146.355 40.2656 146.283C40.194 146.319 40.0867 146.319 40.0151 146.355Z" fill="#30DDD3"/>
<path d="M40.0139 146.354C39.9781 146.354 39.9781 146.39 39.9423 146.426C39.9065 146.354 39.7992 146.354 39.7276 146.39L39.6919 146.426C39.6561 146.39 39.5845 146.39 39.513 146.426C39.4414 146.462 39.4414 146.569 39.4772 146.64C39.4056 146.712 39.4056 146.819 39.4414 146.891C39.513 146.962 39.6203 146.998 39.6919 146.926C39.7276 146.891 39.7276 146.891 39.7634 146.855C39.7992 146.855 39.8707 146.855 39.9065 146.819C39.9065 146.819 39.9423 146.819 39.9423 146.783C40.0139 146.748 40.0139 146.676 40.0496 146.605C40.0854 146.605 40.1212 146.605 40.157 146.569C40.2285 146.533 40.2285 146.426 40.1927 146.354C40.1927 146.319 40.0854 146.319 40.0139 146.354C40.0496 146.354 40.0854 146.319 40.1212 146.354C40.157 146.354 40.1927 146.39 40.1927 146.39C40.1927 146.39 40.2285 146.462 40.2285 146.497C40.2285 146.533 40.1927 146.569 40.1927 146.569C40.157 146.605 40.1212 146.605 40.0854 146.605C40.0854 146.676 40.0496 146.712 40.0139 146.748C40.0139 146.748 39.9781 146.748 39.9781 146.783C39.9423 146.819 39.9065 146.819 39.835 146.819C39.835 146.855 39.7992 146.855 39.7992 146.891C39.7634 146.926 39.7276 146.926 39.6919 146.926C39.6561 146.926 39.6203 146.891 39.5845 146.855C39.5487 146.783 39.5487 146.712 39.5845 146.64C39.5487 146.569 39.5487 146.497 39.6203 146.462C39.6561 146.426 39.7276 146.426 39.7634 146.462L39.7992 146.426C39.8707 146.39 39.9423 146.39 39.9781 146.462V146.426C40.0138 146.426 40.0139 146.39 40.0139 146.354Z" fill="#30DDD3"/>
<path d="M39.7285 146.997C39.7285 147.033 39.7285 147.069 39.7285 147.069C39.6926 147.069 39.6568 147.069 39.6568 147.069C39.6568 147.033 39.6568 146.997 39.6568 146.997C39.6927 146.997 39.7285 146.997 39.7285 146.997Z" fill="#30DDD3"/>
<path d="M39.7318 146.997C39.7318 147.033 39.7318 147.033 39.696 147.069C39.6603 147.069 39.6603 147.069 39.6245 147.069C39.6245 147.033 39.6245 147.033 39.6245 146.997C39.696 146.997 39.7318 146.997 39.7318 146.997C39.7318 146.962 39.696 146.962 39.6603 146.962C39.6245 146.997 39.6245 147.033 39.6603 147.069C39.696 147.105 39.7318 147.105 39.7676 147.069C39.7676 147.069 39.7676 147.033 39.7318 146.997Z" fill="#30DDD3"/>
<path d="M39.6934 147.176C39.6934 147.213 39.6934 147.213 39.6575 147.213C39.6575 147.213 39.6575 147.176 39.6934 147.176C39.6575 147.176 39.6575 147.14 39.6934 147.176Z" fill="#30DDD3"/>
<path d="M39.6216 147.176L39.6575 147.14L39.6934 147.176L39.6575 147.212L39.6216 147.176Z" fill="white"/>
<path d="M39.6567 147.176C39.6567 147.176 39.6926 147.176 39.6567 147.176C39.6567 147.211 39.6567 147.211 39.6567 147.176C39.6567 147.14 39.6567 147.14 39.6567 147.176C39.6208 147.176 39.6208 147.176 39.6208 147.176V147.211H39.6567C39.6926 147.176 39.6926 147.176 39.6567 147.176C39.6926 147.176 39.6926 147.14 39.6567 147.176Z" fill="#30DDD3"/>
<path d="M39.6212 146.604C39.6212 146.64 39.5854 146.64 39.6212 146.604C39.5854 146.64 39.5854 146.64 39.5854 146.64C39.6212 146.64 39.6212 146.64 39.6212 146.604C39.657 146.604 39.657 146.604 39.6927 146.604H39.7285C39.6927 146.604 39.6928 146.604 39.657 146.604H39.6212Z" fill="white"/>
<path d="M37.2584 148.605C37.5089 148.962 38.0455 149.034 38.4033 148.784C38.7611 148.498 38.8326 147.998 38.5822 147.641C38.3318 147.283 37.7951 147.212 37.4373 147.462C37.0438 147.748 36.9722 148.248 37.2584 148.605Z" fill="white" stroke="#5FB8DE" stroke-width="0.0892592"/>
<path d="M37.513 148.141L37.8707 147.855L37.9423 147.783L37.9781 147.748H38.0138L38.2285 148.069V148.105L37.7276 148.498H37.6918L37.4772 148.177C37.5129 148.177 37.513 148.177 37.513 148.141Z" fill="#5FB8DE"/>
<path d="M37.513 148.141L37.8707 147.855L37.9423 147.783L37.9781 147.748H38.0138L38.2285 148.069V148.105L37.7276 148.498H37.6918L37.4772 148.177C37.5129 148.177 37.513 148.177 37.513 148.141Z" stroke="#5FB8DE" stroke-width="0.0850819"/>
<path d="M37.7951 148.212C37.8308 148.284 37.9382 148.284 37.9739 148.248C38.0455 148.212 38.0455 148.105 38.0097 148.069C37.9739 147.998 37.8666 147.998 37.8308 148.033C37.7593 148.069 37.7593 148.176 37.7951 148.212Z" stroke="white" stroke-width="0.0178518"/>
<path d="M37.5789 148.177C37.5789 148.177 37.6152 148.177 37.5789 148.177C37.6152 148.177 37.6152 148.177 37.6152 148.14C37.6152 148.14 37.6152 148.14 37.5789 148.177C37.5789 148.14 37.5789 148.177 37.5789 148.177Z" fill="#5FB8DE"/>
<path d="M37.5789 148.177C37.5789 148.177 37.6152 148.177 37.5789 148.177C37.6152 148.177 37.6152 148.177 37.6152 148.14C37.6152 148.14 37.6152 148.14 37.5789 148.177ZM37.5789 148.177C37.5789 148.14 37.5789 148.177 37.5789 148.177Z" stroke="white" stroke-width="0.0850819"/>
<path d="M37.9746 147.783L37.8673 147.854" stroke="white" stroke-width="0.0850819"/>
<path d="M37.8325 148.141C37.8325 148.141 37.8325 148.177 37.8325 148.141C37.8325 148.177 37.8325 148.177 37.8325 148.141ZM37.8325 148.069C37.8325 148.069 37.8325 148.105 37.8325 148.069V148.069ZM37.8325 148.105C37.8325 148.105 37.8683 148.105 37.8325 148.105C37.8683 148.105 37.8683 148.105 37.8325 148.105ZM37.8325 148.177C37.7968 148.141 37.8325 148.105 37.8325 148.105C37.8325 148.105 37.8325 148.141 37.8325 148.177ZM37.8325 148.141V148.105V148.141Z" fill="white"/>
<path d="M37.9746 147.783L37.9028 147.855L37.9746 147.783Z" fill="#5FB8DE"/>
<path d="M35.2936 150.069C35.544 150.427 36.0807 150.498 36.4385 150.248C36.7962 149.962 36.8678 149.462 36.6174 149.105C36.3669 148.748 35.8302 148.676 35.4725 148.926C35.1147 149.176 35.0431 149.712 35.2936 150.069Z" fill="white" stroke="#F1B47C" stroke-width="0.0892592"/>
<path d="M36.1493 149.856L35.9347 149.391L36.1493 149.605H36.1851C36.1851 149.605 36.1851 149.605 36.1851 149.57V149.498L36.2567 149.534C36.2567 149.534 36.2567 149.534 36.2924 149.534L36.4355 149.427V149.391C36.4355 149.391 36.3998 149.355 36.3998 149.391L36.2924 149.498L36.2209 149.462C36.2209 149.462 36.2209 149.462 36.1851 149.462C36.1851 149.462 36.1851 149.462 36.1851 149.498V149.534L35.8989 149.284H35.8631V149.319L36.1136 149.784L35.8989 149.605H35.8631C35.8631 149.605 35.8631 149.605 35.8631 149.641L35.9347 149.82L35.7916 149.927V149.963C35.7916 149.963 35.8273 149.999 35.8273 149.963L35.9704 149.856C35.9704 149.856 35.9704 149.856 35.9704 149.82L35.9347 149.677L36.1493 149.856C36.1135 149.856 36.1135 149.856 36.1493 149.856Z" fill="#F1B47C"/>
<path d="M48.7134 156.714C48.8208 156.107 49.1785 155.535 49.7152 155.178C50.2519 154.821 50.8959 154.714 51.5041 154.857L67.3896 158.572L83.3466 160.072C83.9906 160.144 84.5631 160.465 84.9566 160.965C85.3502 161.465 85.4933 162.108 85.4217 162.751C85.2428 163.859 84.2768 164.68 83.1677 164.68C83.0962 164.68 83.0246 164.68 82.9531 164.68L66.674 163.18L50.5023 159.358C49.2859 159.036 48.5345 157.893 48.7134 156.714Z" fill="#FF896D"/>
<path d="M44.9566 152.857C45.2429 151.856 45.9226 151.07 46.7813 150.677C47.64 150.284 48.6775 150.32 49.6078 150.749C50.5738 151.177 51.3251 151.999 51.7902 153.035C52.2196 153.964 52.7562 155.357 52.8993 156.572C53.0782 157.929 52.7562 158.786 51.9333 159.144C51.6471 159.287 51.2893 159.358 50.86 159.358C50.6453 159.358 50.4664 159.358 50.2518 159.322C49.6078 159.215 48.928 159.001 48.2482 158.679C46.8171 158.001 45.6364 156.965 45.2071 156C44.742 155 44.6704 153.857 44.9566 152.857Z" fill="#FF896D"/>
<path d="M147.922 112.704C147.922 135.066 140.516 171.11 99.1206 176.647C67.6717 162.466 67.6717 135.066 67.6717 112.704C67.6717 90.342 83.1993 80.4113 106.312 80.4113C129.425 80.4113 147.922 90.342 147.922 112.704Z" fill="#FF896D"/>
<path d="M104.881 125.671C104.881 127.243 103.7 128.743 101.554 129.886C99.4426 130.994 96.5446 131.637 93.5392 131.637C90.5339 131.637 87.6716 130.994 85.5249 129.886C83.414 128.779 82.1976 127.279 82.1976 125.671H82.77C82.77 127.172 83.9149 128.6 85.9185 129.672C87.9221 130.744 90.677 131.315 93.5034 131.315C96.3657 131.315 99.0848 130.708 101.088 129.672C103.092 128.6 104.237 127.172 104.237 125.671H104.881Z" fill="white"/>
<path d="M109.499 216.549C110.5 215.977 111.86 215.656 113.291 215.656C114.687 215.656 115.76 215.942 116.475 216.549C117.119 217.085 117.441 217.835 117.441 218.728C117.441 219.621 117.119 220.371 116.475 220.907C115.76 221.514 114.687 221.8 113.291 221.8C111.86 221.8 110.536 221.478 109.499 220.907C108.139 220.121 107.924 219.228 107.924 218.728C107.96 218.228 108.139 217.335 109.499 216.549Z" fill="#FF896D"/>
<path d="M107.889 162.608C107.889 161.822 108.175 161.072 108.711 160.536C109.248 159.964 109.999 159.679 110.787 159.679C112.361 159.679 113.649 160.965 113.685 162.536L114.078 190.864L113.685 217.728C113.649 219.299 112.361 220.585 110.787 220.585C109.999 220.585 109.284 220.264 108.711 219.728C108.175 219.156 107.853 218.442 107.889 217.656L108.425 190.507L107.889 162.608Z" fill="#FF896D"/>
<path d="M95.7955 213.727C96.7973 213.155 98.1569 212.834 99.588 212.834C100.983 212.834 102.057 213.12 102.772 213.727C103.416 214.263 103.738 215.013 103.738 215.906C103.738 216.799 103.416 217.549 102.772 218.085C102.057 218.692 100.983 218.978 99.588 218.978C98.1569 218.978 96.8331 218.657 95.7955 218.085C94.436 217.299 94.2213 216.406 94.2213 215.906C94.2213 215.406 94.436 214.477 95.7955 213.727Z" fill="#FF896D"/>
<path d="M98.0487 159.108C98.0487 158.322 98.3349 157.571 98.8716 157.036C99.4082 156.464 100.16 156.178 100.947 156.178C102.521 156.178 103.809 157.464 103.845 159.036L104.238 187.364L103.845 214.227C103.809 215.799 102.521 217.085 100.947 217.085C100.16 217.085 99.444 216.764 98.8716 216.228C98.3349 215.656 98.0129 214.942 98.0487 214.156L98.5853 187.007L98.0487 159.108Z" fill="#FF896D"/>
<path d="M41.3756 111.703L62.0195 71.1942" stroke="#60B8DF" stroke-width="1.78518" stroke-miterlimit="10" stroke-linecap="round" stroke-linejoin="round"/>
<path d="M34.002 113.347L29.959 63.3715" stroke="#60B8DF" stroke-width="1.78518" stroke-miterlimit="10" stroke-linecap="round" stroke-linejoin="round"/>
<path d="M29.9604 108.881L33.9676 114.276L37.2949 108.703" stroke="#60B8DF" stroke-width="1.78518" stroke-miterlimit="10" stroke-linecap="round" stroke-linejoin="round"/>
<path d="M35.6856 98.0935L38.2616 104.309L42.877 99.7368" stroke="#60B8DF" stroke-width="1.78518" stroke-miterlimit="10" stroke-linecap="round" stroke-linejoin="round"/>
<path d="M39.3342 106.881L40.6223 113.454L46.0605 109.953" stroke="#60B8DF" stroke-width="1.78518" stroke-miterlimit="10" stroke-linecap="round" stroke-linejoin="round"/>
<path d="M59.5516 28.0415C62.4497 20.3255 71.9309 23.7549 72.7895 27.6486C73.9702 23.5763 83.2009 20.5041 86.0274 28.0415C89.1759 36.4362 73.8629 43.9737 72.7895 45.224C71.7162 44.2237 56.4032 36.2934 59.5516 28.0415Z" fill="#DE5F8D"/>
<path d="M25.2388 22.1473H38.1547L31.5715 11.3235H41.1243L51.3926 28.2202C51.3926 28.2202 51.3926 28.2559 51.3568 28.2559H45.6681H41.7325C41.6967 28.2559 42.4481 29.5777 43.4141 31.1852L50.355 42.6521L34.8989 30.4707C33.3604 29.2561 32.0724 28.2559 32.1082 28.2559C32.144 28.2559 30.9275 27.1842 29.4606 25.8982L25.2388 22.1473Z" fill="#DDDF6C"/>
<path d="M58.1901 56.727H58.1543C57.7966 56.727 57.5461 56.4055 57.4746 56.0483L55.5783 48.4395L54.5408 51.5473C54.4334 51.8688 54.183 52.1189 53.8968 52.1189H48.8878C48.6732 52.1189 48.4585 51.9759 48.3512 51.7973C48.2438 51.6187 48.1723 51.3686 48.1723 51.0829C48.1723 50.8328 48.2438 50.5828 48.3512 50.3684C48.4585 50.1898 48.6732 50.047 48.8878 50.047H53.4317L55.0417 45.2959C55.149 44.9744 55.3994 44.6887 55.7572 44.7244C56.0792 44.7601 56.2939 45.0459 56.4012 45.4031L58.047 52.0474L60.1579 39.1517C60.1937 38.9374 60.2653 38.7588 60.4084 38.6159C60.5157 38.473 60.6946 38.3658 60.8735 38.3658C61.0524 38.3658 61.2313 38.473 61.3386 38.6159C61.4459 38.7588 61.5533 38.9374 61.589 39.1517L63.0917 48.4037L63.3064 47.9394C63.4137 47.6893 63.6284 47.4749 63.9146 47.4392C64.1651 47.4392 64.3797 47.6178 64.5229 47.8679L65.5604 50.0112H69.4602C69.6749 50.0112 69.8896 50.1541 69.9969 50.3328C70.1042 50.5114 70.1758 50.7614 70.1758 51.0472C70.1758 51.2973 70.1042 51.5473 69.9969 51.7616C69.8896 51.9402 69.6749 52.0831 69.4602 52.0831H65.1669C64.9164 52.0831 64.7017 51.9045 64.5586 51.6545L63.9504 50.3684L63.4137 51.6187C63.2706 51.9402 62.9844 52.1903 62.6624 52.0831C62.3404 52.0117 62.1615 51.6545 62.0899 51.2972L60.8735 43.9028L58.9057 55.9054C58.8699 56.1197 58.7983 56.2983 58.691 56.4412C58.5121 56.5841 58.369 56.6913 58.1901 56.727Z" fill="#F1B47C"/>
<path d="M38.6182 102.559L47.8848 56.9771" stroke="#60B8DF" stroke-width="1.78518" stroke-miterlimit="10" stroke-linecap="round" stroke-linejoin="round"/>
<path d="M50.1427 1.036L69.427 1.21461V0.678777C69.427 0.285831 69.749 0 70.1068 0L74.4359 0.0357573C74.8295 0.0357573 75.1157 0.357259 75.1157 0.750205V1.28604L77.334 1.3218C78.2284 1.3218 78.9082 2.03625 78.9082 2.9293L78.7651 19.5045C78.7651 20.3618 78.0495 21.0762 77.1551 21.0762L49.9638 20.8262C49.1051 20.8262 48.3895 20.1117 48.4253 19.2187L48.5684 2.64351C48.5684 1.71473 49.284 1.00028 50.1427 1.036Z" fill="#5FB8DE"/>
<path d="M63.5603 18.2899C67.4959 18.3256 70.7159 15.1463 70.7517 11.1811C70.7874 7.21596 67.6032 3.96522 63.6676 3.9295C59.732 3.89378 56.512 7.0731 56.4762 11.0383C56.4762 15.0034 59.6247 18.2542 63.5603 18.2899ZM63.7034 4.42966C67.3527 4.46538 70.2866 7.46606 70.2508 11.1454C70.215 14.8248 67.2096 17.7898 63.5603 17.7541C59.9109 17.7183 56.9771 14.7177 57.0129 11.0383C57.0487 7.35888 60.054 4.39394 63.7034 4.42966Z" fill="white"/>
<path d="M52.5036 5.35813C53.1834 5.35813 53.7559 4.78657 53.7559 4.10785C53.7559 3.3934 53.2192 2.85762 52.5394 2.8219C51.8596 2.8219 51.2872 3.35773 51.2872 4.07218C51.2514 4.7509 51.8238 5.32241 52.5036 5.35813ZM52.5036 3.35773C52.8972 3.35773 53.2192 3.67918 53.2192 4.10785C53.2192 4.50079 52.8972 4.85805 52.5036 4.85805C52.1101 4.85805 51.7881 4.53652 51.7881 4.10785C51.7881 3.67918 52.1101 3.32201 52.5036 3.35773Z" fill="white"/>
<path d="M60.5194 9.35975C60.5194 9.50264 60.4121 9.60979 60.269 9.60979C60.1259 9.60979 60.0185 9.46692 60.0185 9.35975H60.5194ZM62.523 6.96623C62.6661 6.96623 62.7734 7.10919 62.7734 7.21636C62.7734 7.35925 62.6303 7.4664 62.523 7.4664V6.96623ZM61.4496 9.39542C61.4496 9.53831 61.3065 9.64546 61.1992 9.64546C61.0561 9.64546 60.9488 9.53831 60.9488 9.39542H61.4496ZM62.4872 7.85931C62.6303 7.85931 62.7377 8.00227 62.7377 8.10944C62.7377 8.25233 62.5946 8.35948 62.4872 8.35948V7.85931ZM60.0185 9.32399C60.0901 7.96651 61.1992 6.93051 62.523 6.96623V7.50208C61.4496 7.46635 60.591 8.28805 60.5552 9.35975L60.0185 9.32399ZM60.913 9.35975C60.9487 8.50239 61.6285 7.82358 62.4872 7.85931V8.39515C61.9148 8.35943 61.4496 8.82385 61.4496 9.39542L60.913 9.35975Z" fill="white"/>
<path d="M63.5593 17.2176C66.9225 17.2533 69.6416 14.5384 69.6774 11.1448C69.7132 7.78688 66.994 5.03619 63.6667 5.00047C60.3393 4.96475 57.5844 7.6797 57.5844 11.0376C57.5486 14.4312 60.232 17.1819 63.5593 17.2176ZM63.6667 5.50064C66.7436 5.53636 69.1765 8.03694 69.1765 11.1448C69.1407 14.2526 66.6362 16.7174 63.5951 16.7174C60.554 16.6817 58.0853 14.1454 58.1211 11.0733C58.1211 7.96542 60.6255 5.50064 63.6667 5.50064Z" fill="white"/>
<path d="M22.9173 37.9372C23.3467 35.4366 25.5291 33.579 28.1409 33.6148C30.0372 33.6505 31.6472 34.6864 32.5416 36.1868C33.0425 36.0439 33.5434 35.9367 34.1159 35.9725C36.6919 36.0082 38.8028 37.9014 39.1963 40.3662C39.8403 40.0805 40.5559 39.9019 41.3073 39.9376C44.2411 39.9733 46.5666 42.4025 46.5308 45.3317C46.4951 48.2609 44.0622 50.5828 41.1284 50.5471C39.9477 50.5114 38.8743 50.0828 37.9799 49.4398C36.5846 50.9401 34.581 51.9046 32.3627 51.8689C31.8618 51.8689 31.3609 51.7975 30.9316 51.6903C29.25 51.5117 27.7831 50.69 26.674 49.5112C25.8153 49.9399 24.8493 50.1899 23.8118 50.1899C20.4128 50.1184 17.6937 47.3322 17.7653 43.9028C17.8011 40.8664 20.0551 38.4016 22.9173 37.9372Z" fill="#30DDD3"/>
<path d="M25.4902 38.3298C24.882 38.3298 24.4884 38.4013 24.4527 38.4013C24.2022 38.437 24.0591 38.6514 24.0949 38.9014C24.1307 39.1158 24.3095 39.2587 24.4884 39.2587C24.5242 39.2587 24.56 39.2587 24.56 39.2587C24.6315 39.2587 24.9535 39.1872 25.4186 39.2229C25.848 39.2229 26.4204 39.2944 26.9213 39.5087C27.458 39.6873 27.9231 40.0446 28.2809 40.6161C28.3524 40.7233 28.4956 40.7948 28.6029 40.7948C28.6744 40.7948 28.7818 40.759 28.8533 40.7232C29.0322 40.5804 29.1038 40.3303 28.9964 40.1517C28.5313 39.4016 27.8873 38.9729 27.2433 38.7228C26.6709 38.4013 26.0269 38.3298 25.4902 38.3298Z" fill="white"/>
<path d="M93.5742 109.954C92.0715 113.169 86.9553 116.527 81.9106 116.527C76.8659 116.527 72.1789 112.704 70.6763 109.918C72.9303 106.989 76.9016 103.381 81.9463 103.381C86.9911 103.381 92.3935 106.703 93.5742 109.954Z" fill="white"/>
<path d="M74.9665 116.411C72.6468 116.027 71.0784 113.838 71.4633 111.522C71.8483 109.206 74.0408 107.64 76.3604 108.024C78.6801 108.409 80.2485 110.598 79.8636 112.914C79.4786 115.23 77.2861 116.796 74.9665 116.411Z" fill="black"/>
<path d="M121.268 109.954C119.765 113.169 114.649 116.527 109.604 116.527C104.559 116.527 99.8723 112.704 98.3696 109.918C100.624 106.989 104.595 103.381 109.64 103.381C114.684 103.416 120.087 106.703 121.268 109.954Z" fill="white"/>
<path d="M103.59 115.912C101.27 115.528 99.7015 113.339 100.086 111.023C100.471 108.707 102.664 107.141 104.983 107.525C107.303 107.91 108.872 110.099 108.487 112.415C108.102 114.731 105.909 116.297 103.59 115.912Z" fill="black"/>
</svg>
