<svg width="37" height="51" viewBox="0 0 37 51" fill="none" xmlns="http://www.w3.org/2000/svg">
<path d="M16.622 44.8492C16.4784 44.768 16.3078 44.7049 16.1282 44.6598C16.1282 44.6328 16.1372 44.5967 16.1372 44.5697L16.3976 36.952L16.1372 29.5687C16.1193 29.136 15.7602 28.7754 15.3293 28.7754C15.1048 28.7754 14.8894 28.8746 14.7278 29.0368C14.5752 29.1991 14.4944 29.4245 14.5123 29.6498L15.024 36.961L14.5033 44.4886C14.4944 44.6148 14.5213 44.741 14.5662 44.8582C14.3866 45.0114 14.2969 45.2188 14.2969 45.4712C14.2969 45.7236 14.3956 45.94 14.5752 46.0932C14.7816 46.2735 15.0958 46.3547 15.4998 46.3547C15.9128 46.3547 16.3168 46.2555 16.613 46.0932C16.9003 45.931 17.0619 45.7056 17.0619 45.4712C17.0709 45.327 17.008 45.0655 16.622 44.8492Z" fill="#FF896D"/>
<path d="M11.0378 44.4608L10.4005 37.7175C10.3645 37.2758 10.3645 36.825 10.4005 36.3833L11.0378 29.6581C11.0558 29.4327 10.984 29.2074 10.8314 29.0361C10.6787 28.8648 10.4633 28.7656 10.2389 28.7656C9.80795 28.7656 9.44885 29.0992 9.4309 29.5319L9.02692 37.0594L9.4309 44.578C9.4309 44.605 9.43987 44.623 9.43987 44.6411C9.25135 44.6861 9.08078 44.7492 8.93715 44.8394C8.55112 45.0648 8.48828 45.3172 8.48828 45.4524C8.48828 45.6868 8.64987 45.9122 8.93715 46.0745C9.24238 46.2457 9.63738 46.3359 10.0503 46.3359C10.4543 46.3359 10.7685 46.2457 10.975 46.0745C11.1545 45.9212 11.2533 45.7139 11.2533 45.4524C11.2533 45.2 11.1635 44.9927 10.984 44.8394C11.0289 44.7222 11.0558 44.596 11.0378 44.4608Z" fill="#FF896D"/>
<path d="M22.2792 36.437C23.2757 34.8143 24.2273 32.9933 23.7874 31.028C23.3655 29.1529 22.1805 27.3679 20.8877 25.9796C20.394 25.4477 19.604 26.25 20.0977 26.7729C21.2468 27.999 22.2613 29.5405 22.6832 31.1903C23.1231 32.9031 22.1446 34.5348 21.2738 35.9502C21.0673 36.0133 20.9057 36.1666 20.8069 36.3469C20.798 36.3559 20.798 36.3649 20.789 36.3739C20.6364 36.6444 20.6364 36.9959 20.798 37.2664C20.9865 37.5729 21.3905 37.7352 21.7316 37.618C21.8034 37.5999 21.8842 37.5729 21.9471 37.5368C22.2702 37.3565 22.4318 36.9779 22.351 36.6173C22.3331 36.5452 22.3061 36.4911 22.2792 36.437Z" fill="#FF896D"/>
<path d="M5.18588 25.9614C3.73156 26.9711 2.17847 28.3053 1.94506 30.1714C1.71165 32.0646 2.69916 33.8856 3.40837 35.5804C3.41735 35.6075 3.4353 35.6436 3.45326 35.6706C3.37246 35.941 3.38144 36.2476 3.53405 36.5C3.76746 36.8876 4.27917 37.086 4.69213 36.8425C5.0602 36.6262 5.14099 36.1484 5.02428 35.7607C4.92553 35.4452 4.7011 35.2018 4.41382 35.0576C3.80337 33.6422 2.99541 32.1097 3.04928 30.5501C3.10314 28.9454 4.5395 27.7734 5.76042 26.926C6.35292 26.5294 5.78736 25.5467 5.18588 25.9614ZM3.92007 36.0943C3.92007 36.0943 3.92905 36.0943 3.92007 36.0943C3.92905 36.0943 3.92905 36.0943 3.92007 36.0943Z" fill="#FF896D"/>
<path d="M27.7668 11.2327C27.7668 19.0127 25.1993 31.5435 10.8805 33.4728C-4.10948e-06 28.5325 0 19.0127 0 11.2327C0 3.45275 5.37741 0 13.3672 0C21.348 0 27.7668 3.45275 27.7668 11.2327Z" fill="#FF896D"/>
<path d="M29.0706 38.3309C29.0706 39.5841 28.5336 40.7861 27.5777 41.6722C26.6219 42.5584 25.3255 43.0563 23.9738 43.0563C22.622 43.0563 21.3256 42.5584 20.3698 41.6722C19.4139 40.7861 18.877 39.5841 18.877 38.3309C18.877 37.0776 19.4139 35.8757 20.3698 34.9895C21.3256 34.1033 22.622 33.6055 23.9738 33.6055C25.3255 33.6055 26.6219 34.1033 27.5777 34.9895C28.5336 35.8757 29.0706 37.0776 29.0706 38.3309ZM24.5401 36.2307C24.5401 36.0914 24.4804 35.9579 24.3742 35.8594C24.268 35.761 24.1239 35.7057 23.9738 35.7057C23.8236 35.7057 23.6795 35.761 23.5733 35.8594C23.4671 35.9579 23.4074 36.0914 23.4074 36.2307V37.8058H21.7085C21.5583 37.8058 21.4143 37.8612 21.3081 37.9596C21.2019 38.0581 21.1422 38.1916 21.1422 38.3309C21.1422 38.4701 21.2019 38.6037 21.3081 38.7021C21.4143 38.8006 21.5583 38.8559 21.7085 38.8559H23.4074V40.4311C23.4074 40.5703 23.4671 40.7039 23.5733 40.8023C23.6795 40.9008 23.8236 40.9561 23.9738 40.9561C24.1239 40.9561 24.268 40.9008 24.3742 40.8023C24.4804 40.7039 24.5401 40.5703 24.5401 40.4311V38.8559H26.239C26.3892 38.8559 26.5332 38.8006 26.6394 38.7021C26.7456 38.6037 26.8053 38.4701 26.8053 38.3309C26.8053 38.1916 26.7456 38.0581 26.6394 37.9596C26.5332 37.8612 26.3892 37.8058 26.239 37.8058H24.5401V36.2307Z" fill="#FF896D"/>
<path d="M33.6014 36.7552H29.9691C29.8583 36.3924 29.7092 36.0407 29.524 35.7051H33.6014C34.4681 35.705 35.3021 36.012 35.9327 36.5633C36.5632 37.1146 36.9428 37.8684 36.9936 38.6705L36.9993 38.8554V43.4537C36.9992 43.9468 36.8119 44.4241 36.4704 44.802L36.3356 44.9385L31.1017 49.791C30.7257 50.1397 30.2293 50.3545 29.6995 50.398L29.5002 50.4064H24.5404C23.6737 50.4064 22.8398 50.0994 22.2092 49.5481C21.5786 48.9969 21.1991 48.2431 21.1482 47.4409L21.1426 47.2561V43.4758C21.5016 43.6459 21.8799 43.7845 22.2752 43.8884V47.2561C22.275 47.7859 22.4909 48.2963 22.8795 48.6848C23.268 49.0733 23.8007 49.3113 24.3706 49.351L24.5404 49.3563H29.0709V46.206C29.0709 45.4025 29.402 44.6293 29.9966 44.0446C30.5912 43.46 31.4043 43.1081 32.2695 43.061L32.4688 43.0557H35.8667V38.8554C35.8668 38.3255 35.651 37.8152 35.2624 37.4267C34.8738 37.0381 34.3412 36.8002 33.7713 36.7604L33.6014 36.7552ZM35.6209 44.1069L32.4688 44.1058C31.8973 44.1056 31.3469 44.3058 30.9278 44.666C30.5088 45.0263 30.2521 45.5201 30.2092 46.0485L30.2036 46.206V49.1263L30.301 49.0486L35.5348 44.1961C35.5654 44.1678 35.5937 44.1384 35.6198 44.1069H35.6209Z" fill="#FF896D"/>
<path d="M11.5293 11.3504C11.0086 12.4682 9.2401 13.6402 7.49851 13.6402C5.75691 13.6312 4.13201 12.306 3.61133 11.3414C4.39235 10.3227 5.75691 9.06055 7.50748 9.06055C9.2401 9.06956 11.1074 10.2235 11.5293 11.3504Z" fill="white"/>
<path d="M8.92867 10.7989C9.06259 9.98848 8.51692 9.22249 7.70989 9.088C6.90286 8.95352 6.14007 9.50148 6.00615 10.3119C5.87223 11.1223 6.4179 11.8883 7.22493 12.0228C8.03196 12.1573 8.79475 11.6093 8.92867 10.7989Z" fill="black"/>
<path d="M21.0969 11.3582C20.5762 12.476 18.8077 13.648 17.0661 13.648C15.3155 13.639 13.6996 12.3138 13.1699 11.3492C13.9509 10.3305 15.3245 9.06836 17.0661 9.06836C18.8166 9.07737 20.6839 10.2313 21.0969 11.3582Z" fill="white"/>
<path d="M18.5732 10.8262C18.7071 10.0158 18.1615 9.24983 17.3544 9.11535C16.5474 8.98087 15.7846 9.52882 15.6507 10.3392C15.5168 11.1497 16.0624 11.9157 16.8695 12.0501C17.6765 12.1846 18.4393 11.6367 18.5732 10.8262Z" fill="black"/>
<path d="M15.4134 17.5078C15.4134 18.0487 15.0004 18.5806 14.2643 18.9682C13.5281 19.3559 12.5316 19.5723 11.4903 19.5723C10.4579 19.5723 9.4614 19.3559 8.72526 18.9682C7.98912 18.5806 7.57617 18.0487 7.57617 17.5078H7.77367C7.77367 18.0307 8.16867 18.5265 8.85992 18.8961C9.56015 19.2657 10.5028 19.4731 11.4903 19.4731C12.4778 19.4731 13.4204 19.2657 14.1206 18.8961C14.8209 18.5265 15.2069 18.0307 15.2069 17.5078H15.4134Z" fill="white"/>
</svg>
