<svg width="124" height="106" viewBox="0 0 124 106" fill="none" xmlns="http://www.w3.org/2000/svg">
<path d="M26.262 83.2068C26.036 83.0749 25.7676 82.9724 25.4851 82.8991C25.4851 82.8551 25.4992 82.7965 25.4992 82.7525L25.9089 70.3682L25.4992 58.3649C25.471 57.6614 24.906 57.0752 24.2279 57.0752C23.8748 57.0752 23.5358 57.2364 23.2815 57.5002C23.0414 57.764 22.9143 58.1304 22.9425 58.4968L23.7477 70.3828L22.9284 82.6206C22.9143 82.8258 22.9567 83.031 23.0273 83.2215C22.7448 83.4707 22.6035 83.8077 22.6035 84.2181C22.6035 84.6285 22.7589 84.9802 23.0414 85.2294C23.3663 85.5225 23.8607 85.6544 24.4963 85.6544C25.1461 85.6544 25.7817 85.4932 26.2479 85.2294C26.6999 84.9656 26.9542 84.5992 26.9542 84.2181C26.9683 83.9836 26.8694 83.5586 26.262 83.2068Z" fill="#FF896D"/>
<path d="M17.4726 82.5764L16.4697 71.6137C16.4132 70.8956 16.4132 70.1628 16.4697 69.4446L17.4726 58.5112C17.5008 58.1448 17.3878 57.7784 17.1477 57.5C16.9076 57.2215 16.5685 57.0603 16.2154 57.0603C15.5374 57.0603 14.9724 57.6026 14.9441 58.3061L14.3085 70.5438L14.9441 82.7669C14.9441 82.8109 14.9582 82.8402 14.9582 82.8695C14.6616 82.9428 14.3932 83.0454 14.1672 83.192C13.5598 83.5584 13.4609 83.9687 13.4609 84.1886C13.4609 84.5696 13.7152 84.936 14.1672 85.1998C14.6475 85.4783 15.269 85.6249 15.9188 85.6249C16.5544 85.6249 17.0488 85.4783 17.3737 85.1998C17.6562 84.9507 17.8116 84.6136 17.8116 84.1886C17.8116 83.7782 17.6703 83.4411 17.3878 83.192C17.4585 83.0014 17.5008 82.7962 17.4726 82.5764Z" fill="#FF896D"/>
<path d="M35.1589 69.5316C36.7269 66.8936 38.2242 63.9331 37.532 60.738C36.8681 57.6896 35.0035 54.7877 32.9695 52.5307C32.1926 51.666 30.9495 52.9704 31.7264 53.8204C33.5345 55.8136 35.1307 58.3198 35.7946 61.0019C36.4867 63.7865 34.947 66.4392 33.5769 68.7402C33.252 68.8428 32.9977 69.092 32.8424 69.3851C32.8282 69.3997 32.8282 69.4144 32.8141 69.4291C32.574 69.8687 32.574 70.4403 32.8282 70.88C33.1249 71.3783 33.7605 71.6421 34.2973 71.4516C34.4103 71.4223 34.5374 71.3783 34.6363 71.3197C35.1448 71.0266 35.3991 70.411 35.2719 69.8248C35.2437 69.7075 35.2013 69.6196 35.1589 69.5316Z" fill="#FF896D"/>
<path d="M8.26557 52.5004C5.97724 54.1418 3.53352 56.3109 3.16625 59.3447C2.79899 62.4225 4.3528 65.383 5.46872 68.1383C5.48284 68.1823 5.51109 68.2409 5.53935 68.2849C5.41222 68.7246 5.42634 69.2229 5.66648 69.6332C6.03374 70.2635 6.8389 70.5859 7.48867 70.1902C8.06782 69.8384 8.19494 69.0617 8.01131 68.4315C7.85593 67.9185 7.50278 67.5228 7.05077 67.2883C6.09023 64.9873 4.81894 62.4958 4.9037 59.9603C4.98845 57.3515 7.24852 55.4462 9.16959 54.0686C10.1019 53.4237 9.21198 51.8262 8.26557 52.5004ZM6.27386 68.9737C6.27386 68.9737 6.28799 68.9737 6.27386 68.9737C6.28799 68.9737 6.28799 68.9737 6.27386 68.9737Z" fill="#FF896D"/>
<path d="M43.7918 28.5522C43.7918 41.2003 39.7518 61.5721 17.2217 64.7085C0.101556 56.677 0.101562 41.2003 0.101562 28.5522C0.101562 15.904 8.56274 10.2908 21.1344 10.2908C33.692 10.2908 43.7918 15.904 43.7918 28.5522Z" fill="#FF896D"/>
<path d="M18.2497 28.7458C17.4304 30.5632 14.6477 32.4685 11.9074 32.4685C9.16702 32.4538 6.6103 30.2994 5.79102 28.7312C7.01993 27.075 9.16702 25.0232 11.9215 25.0232C14.6477 25.0378 17.5858 26.9138 18.2497 28.7458Z" fill="white"/>
<path d="M14.1578 27.8466C14.3685 26.529 13.5099 25.2837 12.2401 25.0651C10.9702 24.8465 9.76999 25.7373 9.55927 27.0548C9.34855 28.3724 10.2071 29.6177 11.477 29.8363C12.7468 30.0549 13.947 29.1641 14.1578 27.8466Z" fill="black"/>
<path d="M33.3029 28.7619C32.4836 30.5793 29.7009 32.4846 26.9606 32.4846C24.2061 32.4699 21.6635 30.3155 20.8301 28.7473C22.059 27.0911 24.2202 25.0393 26.9606 25.0393C29.715 25.054 32.6531 26.9299 33.3029 28.7619Z" fill="white"/>
<path d="M29.3335 27.8954C29.5443 26.5779 28.6857 25.3326 27.4158 25.1139C26.146 24.8953 24.9458 25.7861 24.7351 27.1037C24.5243 28.4212 25.3829 29.6665 26.6528 29.8851C27.9226 30.1038 29.1228 29.2129 29.3335 27.8954Z" fill="black"/>
<path d="M24.3589 38.7532C24.3589 39.6325 23.7091 40.4972 22.5508 41.1274C21.3926 41.7577 19.8246 42.1094 18.1861 42.1094C16.5616 42.1094 14.9937 41.7577 13.8354 41.1274C12.6771 40.4972 12.0273 39.6325 12.0273 38.7532H12.3381C12.3381 39.6032 12.9596 40.4093 14.0473 41.0102C15.1491 41.6111 16.6323 41.9482 18.1861 41.9482C19.7399 41.9482 21.2231 41.6111 22.3248 41.0102C23.4266 40.4093 24.034 39.6032 24.034 38.7532H24.3589Z" fill="white"/>
<path d="M59.5276 72.9634C59.3016 72.8315 59.0332 72.7289 58.7507 72.6557C58.7507 72.6117 58.7649 72.5531 58.7649 72.5091L59.1745 60.1248L58.7649 48.1215C58.7366 47.418 58.1716 46.8318 57.4936 46.8318C57.1404 46.8318 56.8014 46.993 56.5472 47.2568C56.307 47.5206 56.1799 47.887 56.2081 48.2534L57.0133 60.1394L56.194 72.3772C56.1799 72.5824 56.2223 72.7876 56.2929 72.9781C56.0104 73.2273 55.8691 73.5643 55.8691 73.9747C55.8691 74.3851 56.0245 74.7368 56.307 74.986C56.6319 75.2791 57.1263 75.411 57.7619 75.411C58.4117 75.411 59.0474 75.2498 59.5135 74.986C59.9655 74.7222 60.2198 74.3558 60.2198 73.9747C60.2339 73.7402 60.135 73.3152 59.5276 72.9634Z" fill="#FF896D"/>
<path d="M50.7382 72.333L49.7353 61.3703C49.6788 60.6522 49.6788 59.9194 49.7353 59.2012L50.7382 48.2678C50.7665 47.9014 50.6535 47.535 50.4133 47.2566C50.1732 46.9781 49.8342 46.8169 49.481 46.8169C48.803 46.8169 48.238 47.3592 48.2097 48.0627L47.5741 60.3004L48.2097 72.5235C48.2097 72.5675 48.2239 72.5968 48.2239 72.6261C47.9272 72.6994 47.6588 72.802 47.4328 72.9486C46.8254 73.315 46.7266 73.7253 46.7266 73.9452C46.7266 74.3262 46.9808 74.6926 47.4328 74.9564C47.9131 75.2349 48.5346 75.3814 49.1844 75.3814C49.8201 75.3814 50.3145 75.2349 50.6393 74.9564C50.9218 74.7073 51.0772 74.3702 51.0772 73.9452C51.0772 73.5348 50.936 73.1977 50.6535 72.9486C50.7241 72.758 50.7665 72.5528 50.7382 72.333Z" fill="#FF896D"/>
<path d="M68.4246 59.2882C69.9925 56.6502 71.4898 53.6896 70.7976 50.4946C70.1337 47.4462 68.2692 44.5443 66.2351 42.2873C65.4582 41.4226 64.2152 42.727 64.9921 43.577C66.8001 45.5702 68.3963 48.0764 69.0602 50.7584C69.7523 53.5431 68.2127 56.1958 66.8425 58.4968C66.5176 58.5994 66.2634 58.8486 66.108 59.1417C66.0939 59.1563 66.0938 59.171 66.0797 59.1856C65.8396 59.6253 65.8396 60.1969 66.0938 60.6366C66.3905 61.1349 67.0261 61.3987 67.5629 61.2082C67.6759 61.1789 67.803 61.1349 67.9019 61.0763C68.4104 60.7832 68.6647 60.1676 68.5376 59.5814C68.5093 59.4641 68.4669 59.3762 68.4246 59.2882Z" fill="#FF896D"/>
<path d="M41.5312 42.257C39.2429 43.8984 36.7991 46.0675 36.4319 49.1013C36.0646 52.1791 37.6184 55.1396 38.7343 57.8949C38.7485 57.9389 38.7767 57.9975 38.805 58.0415C38.6778 58.4812 38.692 58.9795 38.9321 59.3898C39.2994 60.02 40.1045 60.3425 40.7543 59.9468C41.3334 59.595 41.4606 58.8183 41.2769 58.188C41.1216 57.6751 40.7684 57.2794 40.3164 57.0449C39.3559 54.7439 38.0846 52.2524 38.1693 49.7169C38.2541 47.1081 40.5141 45.2028 42.4352 43.8252C43.3675 43.1803 42.4776 41.5828 41.5312 42.257ZM39.5395 58.7303C39.5395 58.7303 39.5536 58.7303 39.5395 58.7303C39.5536 58.7303 39.5536 58.7303 39.5395 58.7303Z" fill="#FF896D"/>
<path d="M77.0574 18.3114C77.0574 30.9596 73.0175 51.3314 50.4873 54.4678C33.3672 46.4363 33.3672 30.9596 33.3672 18.3114C33.3672 5.6633 41.8284 0.0500488 54.4001 0.0500488C66.9576 0.0500488 77.0574 5.6633 77.0574 18.3114Z" fill="#FF896D"/>
<path d="M51.5095 18.5009C50.6902 20.3183 47.9075 22.2236 45.1671 22.2236C42.4268 22.2089 39.8701 20.0545 39.0508 18.4863C40.2797 16.8302 42.4268 14.7783 45.1813 14.7783C47.9075 14.793 50.8456 16.6689 51.5095 18.5009Z" fill="white"/>
<path d="M47.4175 17.6017C47.6282 16.2842 46.7697 15.0389 45.4998 14.8202C44.23 14.6016 43.0298 15.4924 42.819 16.81C42.6083 18.1275 43.4669 19.3728 44.7367 19.5914C46.0066 19.8101 47.2068 18.9192 47.4175 17.6017Z" fill="black"/>
<path d="M66.5685 18.5178C65.7493 20.3351 62.9665 22.2404 60.2262 22.2404C57.4717 22.2258 54.9291 20.0713 54.0957 18.5031C55.3246 16.847 57.4858 14.7952 60.2262 14.7952C62.9806 14.8098 65.9188 16.6858 66.5685 18.5178Z" fill="white"/>
<path d="M62.5992 17.6513C62.8099 16.3337 61.9513 15.0884 60.6815 14.8698C59.4116 14.6512 58.2114 15.542 58.0007 16.8595C57.79 18.1771 58.6485 19.4224 59.9184 19.641C61.1882 19.8596 62.3884 18.9688 62.5992 17.6513Z" fill="black"/>
<path d="M57.6245 28.51C57.6245 29.3894 56.9748 30.2541 55.8165 30.8843C54.6582 31.5145 53.0902 31.8662 51.4517 31.8662C49.8273 31.8662 48.2593 31.5145 47.101 30.8843C45.9427 30.2541 45.293 29.3894 45.293 28.51H45.6037C45.6037 29.3601 46.2252 30.1661 47.3129 30.767C48.4147 31.3679 49.8979 31.705 51.4517 31.705C53.0055 31.705 54.4887 31.3679 55.5905 30.767C56.6923 30.1661 57.2996 29.3601 57.2996 28.51H57.6245Z" fill="white"/>
<path d="M90.4163 96.868C90.1903 96.7361 89.9219 96.6335 89.6394 96.5602C89.6394 96.5162 89.6535 96.4576 89.6535 96.4136L90.0632 84.0293L89.6535 72.0261C89.6253 71.3226 89.0603 70.7363 88.3822 70.7363C88.0291 70.7363 87.6901 70.8975 87.4358 71.1614C87.1957 71.4252 87.0686 71.7916 87.0968 72.158L87.902 84.044L87.0827 96.2817C87.0686 96.4869 87.111 96.6921 87.1816 96.8826C86.8991 97.1318 86.7578 97.4689 86.7578 97.8792C86.7578 98.2896 86.9132 98.6414 87.1957 98.8905C87.5206 99.1836 88.015 99.3155 88.6506 99.3155C89.3004 99.3155 89.936 99.1543 90.4022 98.8905C90.8542 98.6267 91.1085 98.2603 91.1085 97.8792C91.1226 97.6448 91.0237 97.2197 90.4163 96.868Z" fill="#FF896D"/>
<path d="M81.6269 96.2375L80.624 85.2748C80.5675 84.5567 80.5675 83.8239 80.624 83.1058L81.6269 72.1724C81.6551 71.806 81.5421 71.4396 81.302 71.1611C81.0619 70.8827 80.7228 70.7214 80.3697 70.7214C79.6917 70.7214 79.1267 71.2637 79.0984 71.9672L78.4628 84.205L79.0984 96.4281C79.0984 96.472 79.1125 96.5013 79.1125 96.5307C78.8159 96.6039 78.5475 96.7065 78.3215 96.8531C77.7141 97.2195 77.6152 97.6299 77.6152 97.8497C77.6152 98.2308 77.8695 98.5972 78.3215 98.861C78.8018 99.1394 79.4233 99.286 80.0731 99.286C80.7087 99.286 81.2031 99.1394 81.528 98.861C81.8105 98.6118 81.9659 98.2747 81.9659 97.8497C81.9659 97.4393 81.8246 97.1022 81.5421 96.8531C81.6128 96.6626 81.6551 96.4574 81.6269 96.2375Z" fill="#FF896D"/>
<path d="M99.3132 83.1928C100.881 80.5547 102.378 77.5942 101.686 74.3992C101.022 71.3507 99.1578 68.4488 97.1238 66.1918C96.3469 65.3271 95.1038 66.6315 95.8807 67.4815C97.6888 69.4748 99.285 71.9809 99.9489 74.663C100.641 77.4476 99.1013 80.1004 97.7312 82.4014C97.4063 82.504 97.152 82.7531 96.9967 83.0462C96.9825 83.0609 96.9825 83.0755 96.9684 83.0902C96.7283 83.5299 96.7283 84.1015 96.9825 84.5411C97.2791 85.0394 97.9148 85.3033 98.4516 85.1127C98.5646 85.0834 98.6917 85.0394 98.7906 84.9808C99.2991 84.6877 99.5534 84.0721 99.4262 83.4859C99.398 83.3687 99.3556 83.2807 99.3132 83.1928Z" fill="#FF896D"/>
<path d="M72.4199 66.1615C70.1315 67.803 67.6878 69.9721 67.3206 73.0059C66.9533 76.0836 68.5071 79.0441 69.623 81.7995C69.6371 81.8434 69.6654 81.9021 69.6936 81.946C69.5665 82.3857 69.5806 82.884 69.8208 83.2944C70.188 83.9246 70.9932 84.247 71.643 83.8513C72.2221 83.4996 72.3492 82.7228 72.1656 82.0926C72.0102 81.5796 71.6571 81.1839 71.2051 80.9494C70.2445 78.6484 68.9732 76.1569 69.058 73.6214C69.1427 71.0126 71.4028 69.1074 73.3239 67.7297C74.2562 67.0848 73.3663 65.4873 72.4199 66.1615ZM70.4282 82.6349C70.4282 82.6349 70.4423 82.6349 70.4282 82.6349C70.4423 82.6349 70.4423 82.6349 70.4282 82.6349Z" fill="#FF896D"/>
<path d="M107.946 42.2182C107.946 54.8663 103.906 75.2381 81.376 78.3745C64.2559 70.343 64.2559 54.8663 64.2559 42.2182C64.2559 29.57 72.717 23.9568 85.2887 23.9568C97.8463 23.9568 107.946 29.57 107.946 42.2182Z" fill="#FF896D"/>
<path d="M82.3982 42.4026C81.5789 44.2199 78.7962 46.1252 76.0558 46.1252C73.3155 46.1105 70.7587 43.9561 69.9395 42.3879C71.1684 40.7318 73.3155 38.6799 76.0699 38.6799C78.7961 38.6946 81.7343 40.5706 82.3982 42.4026Z" fill="white"/>
<path d="M78.3062 41.5033C78.5169 40.1858 77.6583 38.9405 76.3885 38.7218C75.1187 38.5032 73.9184 39.394 73.7077 40.7116C73.497 42.0291 74.3556 43.2744 75.6254 43.493C76.8953 43.7117 78.0955 42.8208 78.3062 41.5033Z" fill="black"/>
<path d="M97.4572 42.4192C96.6379 44.2365 93.8552 46.1418 91.1148 46.1418C88.3604 46.1271 85.8178 43.9727 84.9844 42.4045C86.2133 40.7484 88.3745 38.6965 91.1148 38.6965C93.8693 38.7112 96.8074 40.5872 97.4572 42.4192Z" fill="white"/>
<path d="M93.4878 41.5526C93.6986 40.2351 92.84 38.9898 91.5701 38.7712C90.3003 38.5525 89.1001 39.4434 88.8893 40.7609C88.6786 42.0784 89.5372 43.3237 90.8071 43.5424C92.0769 43.761 93.2771 42.8701 93.4878 41.5526Z" fill="black"/>
<path d="M88.5132 52.4136C88.5132 53.2929 87.8634 54.1576 86.7051 54.7878C85.5468 55.4181 83.9789 55.7698 82.3404 55.7698C80.7159 55.7698 79.148 55.4181 77.9897 54.7878C76.8314 54.1576 76.1816 53.2929 76.1816 52.4136H76.4924C76.4924 53.2636 77.1139 54.0697 78.2016 54.6706C79.3034 55.2715 80.7866 55.6086 82.3404 55.6086C83.8942 55.6086 85.3773 55.2715 86.4791 54.6706C87.5809 54.0697 88.1883 53.2636 88.1883 52.4136H88.5132Z" fill="white"/>
<path d="M111.192 86.2633C111.192 88.3008 110.347 90.2548 108.843 91.6955C107.339 93.1362 105.299 93.9456 103.172 93.9456C101.045 93.9456 99.0052 93.1362 97.5012 91.6955C95.9973 90.2548 95.1523 88.3008 95.1523 86.2633C95.1523 84.2258 95.9973 82.2718 97.5012 80.8311C99.0052 79.3904 101.045 78.5811 103.172 78.5811C105.299 78.5811 107.339 79.3904 108.843 80.8311C110.347 82.2718 111.192 84.2258 111.192 86.2633V86.2633ZM104.063 82.849C104.063 82.6226 103.969 82.4055 103.802 82.2454C103.635 82.0853 103.408 81.9954 103.172 81.9954C102.936 81.9954 102.709 82.0853 102.542 82.2454C102.375 82.4055 102.281 82.6226 102.281 82.849V85.4097H99.6077C99.3714 85.4097 99.1447 85.4997 98.9776 85.6597C98.8105 85.8198 98.7166 86.0369 98.7166 86.2633C98.7166 86.4897 98.8105 86.7068 98.9776 86.8669C99.1447 87.027 99.3714 87.1169 99.6077 87.1169H102.281V89.6776C102.281 89.904 102.375 90.1211 102.542 90.2812C102.709 90.4413 102.936 90.5312 103.172 90.5312C103.408 90.5312 103.635 90.4413 103.802 90.2812C103.969 90.1211 104.063 89.904 104.063 89.6776V87.1169H106.736C106.973 87.1169 107.199 87.027 107.366 86.8669C107.533 86.7068 107.627 86.4897 107.627 86.2633C107.627 86.0369 107.533 85.8198 107.366 85.6597C107.199 85.4997 106.973 85.4097 106.736 85.4097H104.063V82.849Z" fill="#FF896D"/>
<path d="M118.32 83.704H112.605C112.431 83.1143 112.196 82.5425 111.905 81.9968H118.32C119.684 81.9968 120.996 82.4959 121.989 83.3921C122.981 84.2883 123.578 85.5138 123.658 86.8179L123.667 87.1183V94.594C123.667 95.3956 123.372 96.1716 122.835 96.786L122.622 97.008L114.387 104.897C113.795 105.464 113.014 105.813 112.181 105.884L111.867 105.897H104.063C102.7 105.897 101.387 105.398 100.395 104.502C99.4029 103.606 98.8057 102.38 98.7257 101.076L98.7168 100.776V94.6299C99.2817 94.9064 99.877 95.1318 100.499 95.3008V100.776C100.499 101.637 100.838 102.467 101.45 103.098C102.061 103.73 102.899 104.117 103.796 104.181L104.063 104.19H111.192V99.0685C111.192 97.7622 111.713 96.5052 112.648 95.5547C113.584 94.6042 114.863 94.0322 116.225 93.9555L116.538 93.947H121.885V87.1183C121.885 86.2569 121.545 85.4273 120.934 84.7956C120.322 84.164 119.484 83.7771 118.588 83.7125L118.32 83.704ZM121.498 95.6559L116.538 95.6542C115.639 95.6539 114.773 95.9792 114.114 96.5649C113.454 97.1506 113.05 97.9535 112.983 98.8124L112.974 99.0685V103.816L113.127 103.69L121.363 95.801C121.411 95.7549 121.455 95.7071 121.496 95.6559H121.498Z" fill="#FF896D"/>
</svg>
