<svg width="122" height="110" viewBox="0 0 122 110" fill="none" xmlns="http://www.w3.org/2000/svg">
<path d="M38.5715 92.2945C38.3813 92.1786 38.1554 92.0885 37.9176 92.0241C37.9176 91.9854 37.9295 91.9339 37.9295 91.8953L38.2743 81.0142L37.9295 70.4679C37.9057 69.8498 37.4301 69.3347 36.8595 69.3347C36.5622 69.3347 36.2769 69.4764 36.0629 69.7082C35.8607 69.9399 35.7537 70.2619 35.7775 70.5838L36.4552 81.0271L35.7656 91.7794C35.7537 91.9597 35.7894 92.14 35.8489 92.3074C35.6111 92.5263 35.4922 92.8225 35.4922 93.183C35.4922 93.5436 35.623 93.8526 35.8608 94.0715C36.1342 94.3291 36.5503 94.445 37.0853 94.445C37.6322 94.445 38.1673 94.3033 38.5596 94.0715C38.9401 93.8397 39.1541 93.5178 39.1541 93.183C39.166 92.977 39.0827 92.6035 38.5715 92.2945Z" fill="#FF896D"/>
<path d="M31.1754 91.7405L30.3312 82.1084C30.2837 81.4775 30.2837 80.8336 30.3312 80.2026L31.1754 70.5964C31.1992 70.2744 31.104 69.9525 30.9019 69.7078C30.6998 69.4632 30.4145 69.3215 30.1172 69.3215C29.5465 69.3215 29.071 69.798 29.0472 70.4161L28.5122 81.1684L29.0472 91.9079C29.0472 91.9465 29.0591 91.9723 29.0591 91.998C28.8094 92.0624 28.5835 92.1525 28.3933 92.2813C27.8821 92.6032 27.7988 92.9638 27.7988 93.1569C27.7988 93.4918 28.0128 93.8137 28.3933 94.0455C28.7975 94.2901 29.3207 94.4189 29.8676 94.4189C30.4026 94.4189 30.8187 94.2901 31.0922 94.0455C31.3299 93.8266 31.4607 93.5304 31.4607 93.1569C31.4607 92.7964 31.3418 92.5002 31.104 92.2813C31.1635 92.1139 31.1992 91.9336 31.1754 91.7405Z" fill="#FF896D"/>
<path d="M46.061 80.2797C47.3807 77.9619 48.6409 75.3607 48.0583 72.5535C47.4996 69.8751 45.9302 67.3254 44.2181 65.3424C43.5642 64.5826 42.518 65.7287 43.1719 66.4755C44.6937 68.2268 46.0372 70.4288 46.596 72.7853C47.1785 75.2319 45.8826 77.5627 44.7294 79.5844C44.4559 79.6745 44.2419 79.8934 44.1111 80.151C44.0992 80.1638 44.0992 80.1767 44.0873 80.1896C43.8852 80.5759 43.8852 81.0781 44.0992 81.4644C44.3489 81.9022 44.8839 82.134 45.3357 81.9666C45.4308 81.9409 45.5378 81.9022 45.6211 81.8507C46.0491 81.5932 46.2631 81.0524 46.1561 80.5373C46.1323 80.4343 46.0966 80.357 46.061 80.2797Z" fill="#FF896D"/>
<path d="M23.4242 65.3163C21.4981 66.7585 19.4413 68.6643 19.1322 71.3299C18.823 74.0341 20.1309 76.6352 21.0701 79.0561C21.082 79.0948 21.1058 79.1463 21.1296 79.1849C21.0226 79.5712 21.0345 80.009 21.2366 80.3696C21.5457 80.9233 22.2234 81.2066 22.7703 80.8589C23.2577 80.5499 23.3647 79.8674 23.2102 79.3137C23.0794 78.863 22.7822 78.5153 22.4017 78.3093C21.5932 76.2876 20.5232 74.0985 20.5946 71.8707C20.6659 69.5786 22.5682 67.9046 24.1851 66.6942C24.9698 66.1276 24.2208 64.724 23.4242 65.3163ZM21.7478 79.7901C21.7478 79.7901 21.7597 79.7901 21.7478 79.7901C21.7597 79.7901 21.7597 79.7901 21.7478 79.7901Z" fill="#FF896D"/>
<path d="M53.3262 44.2753C53.3262 55.3882 49.9258 73.2873 30.9625 76.043C16.5527 68.9863 16.5527 55.3882 16.5527 44.2753C16.5527 33.1624 23.6744 28.2305 34.2558 28.2305C44.8254 28.2305 53.3262 33.1624 53.3262 44.2753Z" fill="#FF896D"/>
<path d="M31.8203 44.4422C31.1307 46.0389 28.7885 47.7129 26.482 47.7129C24.1755 47.7001 22.0236 45.8071 21.334 44.4293C22.3683 42.9742 24.1755 41.1714 26.4939 41.1714C28.7885 41.1843 31.2615 42.8325 31.8203 44.4422Z" fill="white"/>
<path d="M28.3752 43.654C28.5526 42.4964 27.8299 41.4023 26.7611 41.2102C25.6923 41.0181 24.6821 41.8008 24.5047 42.9584C24.3274 44.116 25.05 45.2102 26.1188 45.4023C27.1876 45.5944 28.1979 44.8117 28.3752 43.654Z" fill="black"/>
<path d="M44.4943 44.4558C43.8047 46.0526 41.4625 47.7266 39.156 47.7266C36.8376 47.7137 34.6976 45.8208 33.9961 44.443C35.0305 42.9878 36.8495 41.1851 39.156 41.1851C41.4744 41.1979 43.9474 42.8462 44.4943 44.4558Z" fill="white"/>
<path d="M41.1506 43.6948C41.328 42.5372 40.6053 41.4431 39.5365 41.251C38.4677 41.0589 37.4575 41.8416 37.2801 42.9992C37.1028 44.1568 37.8254 45.2509 38.8942 45.443C39.963 45.6351 40.9732 44.8524 41.1506 43.6948Z" fill="black"/>
<path d="M36.9672 53.2375C36.9672 54.0102 36.4203 54.7699 35.4454 55.3236C34.4705 55.8773 33.1508 56.1864 31.7716 56.1864C30.4043 56.1864 29.0846 55.8773 28.1097 55.3236C27.1348 54.7699 26.5879 54.0102 26.5879 53.2375H26.8494C26.8494 53.9844 27.3726 54.6927 28.288 55.2206C29.2154 55.7486 30.4638 56.0447 31.7716 56.0447C33.0794 56.0447 34.3278 55.7486 35.2552 55.2206C36.1825 54.6927 36.6937 53.9844 36.6937 53.2375H36.9672Z" fill="white"/>
<path d="M66.5715 83.2945C66.3813 83.1786 66.1554 83.0885 65.9176 83.0241C65.9176 82.9854 65.9295 82.9339 65.9295 82.8953L66.2743 72.0142L65.9295 61.4679C65.9057 60.8498 65.4301 60.3347 64.8595 60.3347C64.5622 60.3347 64.2769 60.4764 64.0629 60.7082C63.8607 60.9399 63.7537 61.2619 63.7775 61.5838L64.4552 72.0271L63.7656 82.7794C63.7537 82.9597 63.7894 83.14 63.8489 83.3074C63.6111 83.5263 63.4922 83.8225 63.4922 84.183C63.4922 84.5436 63.623 84.8526 63.8608 85.0715C64.1342 85.3291 64.5503 85.445 65.0853 85.445C65.6322 85.445 66.1673 85.3033 66.5596 85.0715C66.9401 84.8397 67.1541 84.5178 67.1541 84.183C67.166 83.977 67.0827 83.6035 66.5715 83.2945Z" fill="#FF896D"/>
<path d="M59.1754 82.7405L58.3312 73.1084C58.2837 72.4775 58.2837 71.8336 58.3312 71.2026L59.1754 61.5964C59.1992 61.2744 59.104 60.9525 58.9019 60.7078C58.6998 60.4632 58.4145 60.3215 58.1172 60.3215C57.5465 60.3215 57.071 60.798 57.0472 61.4161L56.5122 72.1684L57.0472 82.9079C57.0472 82.9465 57.0591 82.9723 57.0591 82.998C56.8094 83.0624 56.5835 83.1525 56.3933 83.2813C55.8821 83.6032 55.7988 83.9638 55.7988 84.1569C55.7988 84.4918 56.0128 84.8137 56.3933 85.0455C56.7975 85.2901 57.3207 85.4189 57.8676 85.4189C58.4026 85.4189 58.8187 85.2901 59.0922 85.0455C59.3299 84.8266 59.4607 84.5304 59.4607 84.1569C59.4607 83.7964 59.3418 83.5002 59.104 83.2813C59.1635 83.1139 59.1992 82.9336 59.1754 82.7405Z" fill="#FF896D"/>
<path d="M74.061 71.2797C75.3807 68.9619 76.6409 66.3607 76.0583 63.5535C75.4996 60.8751 73.9302 58.3254 72.2181 56.3424C71.5642 55.5826 70.518 56.7287 71.1719 57.4755C72.6937 59.2268 74.0372 61.4288 74.596 63.7853C75.1785 66.2319 73.8826 68.5627 72.7294 70.5844C72.4559 70.6745 72.2419 70.8934 72.1111 71.151C72.0992 71.1638 72.0992 71.1767 72.0873 71.1896C71.8852 71.5759 71.8852 72.0781 72.0992 72.4644C72.3489 72.9022 72.8839 73.134 73.3357 72.9666C73.4308 72.9409 73.5378 72.9022 73.6211 72.8507C74.0491 72.5932 74.2631 72.0524 74.1561 71.5373C74.1323 71.4343 74.0966 71.357 74.061 71.2797Z" fill="#FF896D"/>
<path d="M51.4242 56.3163C49.4981 57.7585 47.4413 59.6643 47.1322 62.3299C46.823 65.0341 48.1309 67.6352 49.0701 70.0561C49.082 70.0948 49.1058 70.1463 49.1296 70.1849C49.0226 70.5712 49.0345 71.009 49.2366 71.3696C49.5457 71.9233 50.2234 72.2066 50.7703 71.8589C51.2577 71.5499 51.3647 70.8674 51.2102 70.3137C51.0794 69.863 50.7822 69.5153 50.4017 69.3093C49.5932 67.2876 48.5232 65.0985 48.5946 62.8707C48.6659 60.5786 50.5682 58.9046 52.1851 57.6942C52.9698 57.1276 52.2208 55.724 51.4242 56.3163ZM49.7478 70.7901C49.7478 70.7901 49.7597 70.7901 49.7478 70.7901C49.7597 70.7901 49.7597 70.7901 49.7478 70.7901Z" fill="#FF896D"/>
<path d="M81.3262 35.2753C81.3262 46.3882 77.9258 64.2873 58.9625 67.043C44.5527 59.9863 44.5527 46.3882 44.5527 35.2753C44.5527 24.1624 51.6744 19.2305 62.2558 19.2305C72.8254 19.2305 81.3262 24.1624 81.3262 35.2753Z" fill="#FF896D"/>
<path d="M59.8203 35.4422C59.1307 37.0389 56.7885 38.7129 54.482 38.7129C52.1755 38.7001 50.0236 36.8071 49.334 35.4293C50.3683 33.9742 52.1755 32.1714 54.4939 32.1714C56.7885 32.1843 59.2615 33.8325 59.8203 35.4422Z" fill="white"/>
<path d="M56.3752 34.654C56.5526 33.4964 55.8299 32.4023 54.7611 32.2102C53.6923 32.0181 52.6821 32.8008 52.5047 33.9584C52.3274 35.116 53.05 36.2102 54.1188 36.4023C55.1876 36.5944 56.1979 35.8117 56.3752 34.654Z" fill="black"/>
<path d="M72.4943 35.4558C71.8047 37.0526 69.4625 38.7266 67.156 38.7266C64.8376 38.7137 62.6976 36.8208 61.9961 35.443C63.0305 33.9878 64.8495 32.1851 67.156 32.1851C69.4744 32.1979 71.9474 33.8462 72.4943 35.4558Z" fill="white"/>
<path d="M69.1506 34.6948C69.328 33.5372 68.6053 32.4431 67.5365 32.251C66.4677 32.0589 65.4575 32.8416 65.2801 33.9992C65.1028 35.1568 65.8254 36.2509 66.8942 36.443C67.963 36.6351 68.9732 35.8524 69.1506 34.6948Z" fill="black"/>
<path d="M64.9672 44.2375C64.9672 45.0102 64.4203 45.7699 63.4454 46.3236C62.4705 46.8773 61.1508 47.1864 59.7716 47.1864C58.4043 47.1864 57.0846 46.8773 56.1097 46.3236C55.1348 45.7699 54.5879 45.0102 54.5879 44.2375H54.8494C54.8494 44.9844 55.3726 45.6927 56.288 46.2206C57.2154 46.7486 58.4638 47.0447 59.7716 47.0447C61.0794 47.0447 62.3278 46.7486 63.2552 46.2206C64.1825 45.6927 64.6937 44.9844 64.6937 44.2375H64.9672Z" fill="white"/>
<path d="M92.5715 104.294C92.3813 104.179 92.1554 104.088 91.9176 104.024C91.9176 103.985 91.9295 103.934 91.9295 103.895L92.2743 93.0142L91.9295 82.4679C91.9057 81.8498 91.4301 81.3347 90.8595 81.3347C90.5622 81.3347 90.2769 81.4764 90.0629 81.7082C89.8607 81.9399 89.7537 82.2619 89.7775 82.5838L90.4552 93.0271L89.7656 103.779C89.7537 103.96 89.7894 104.14 89.8489 104.307C89.6111 104.526 89.4922 104.822 89.4922 105.183C89.4922 105.544 89.623 105.853 89.8608 106.072C90.1342 106.329 90.5503 106.445 91.0853 106.445C91.6322 106.445 92.1673 106.303 92.5596 106.072C92.9401 105.84 93.1541 105.518 93.1541 105.183C93.166 104.977 93.0827 104.604 92.5715 104.294Z" fill="#FF896D"/>
<path d="M85.1754 103.74L84.3312 94.1084C84.2837 93.4775 84.2837 92.8336 84.3312 92.2026L85.1754 82.5964C85.1992 82.2744 85.104 81.9525 84.9019 81.7078C84.6998 81.4632 84.4145 81.3215 84.1172 81.3215C83.5465 81.3215 83.071 81.798 83.0472 82.4161L82.5122 93.1684L83.0472 103.908C83.0472 103.947 83.0591 103.972 83.0591 103.998C82.8094 104.062 82.5835 104.153 82.3933 104.281C81.8821 104.603 81.7988 104.964 81.7988 105.157C81.7988 105.492 82.0128 105.814 82.3933 106.045C82.7975 106.29 83.3207 106.419 83.8676 106.419C84.4026 106.419 84.8187 106.29 85.0922 106.045C85.3299 105.827 85.4607 105.53 85.4607 105.157C85.4607 104.796 85.3418 104.5 85.104 104.281C85.1635 104.114 85.1992 103.934 85.1754 103.74Z" fill="#FF896D"/>
<path d="M100.061 92.2797C101.381 89.9619 102.641 87.3607 102.058 84.5535C101.5 81.8751 99.9302 79.3254 98.2181 77.3424C97.5642 76.5826 96.518 77.7287 97.1719 78.4755C98.6937 80.2268 100.037 82.4288 100.596 84.7853C101.179 87.2319 99.8826 89.5627 98.7294 91.5844C98.4559 91.6745 98.2419 91.8934 98.1111 92.151C98.0992 92.1638 98.0992 92.1767 98.0873 92.1896C97.8852 92.5759 97.8852 93.0781 98.0992 93.4644C98.3489 93.9022 98.8839 94.134 99.3357 93.9666C99.4308 93.9409 99.5378 93.9022 99.6211 93.8507C100.049 93.5932 100.263 93.0524 100.156 92.5373C100.132 92.4343 100.097 92.357 100.061 92.2797Z" fill="#FF896D"/>
<path d="M77.4242 77.3163C75.4981 78.7585 73.4413 80.6643 73.1322 83.3299C72.823 86.0341 74.1309 88.6352 75.0701 91.0561C75.082 91.0948 75.1058 91.1463 75.1296 91.1849C75.0226 91.5712 75.0345 92.009 75.2366 92.3696C75.5457 92.9233 76.2234 93.2066 76.7703 92.8589C77.2577 92.5499 77.3647 91.8674 77.2102 91.3137C77.0794 90.863 76.7822 90.5153 76.4017 90.3093C75.5932 88.2876 74.5232 86.0985 74.5946 83.8707C74.6659 81.5786 76.5682 79.9046 78.1851 78.6942C78.9698 78.1276 78.2208 76.724 77.4242 77.3163ZM75.7478 91.7901C75.7478 91.7901 75.7597 91.7901 75.7478 91.7901C75.7597 91.7901 75.7597 91.7901 75.7478 91.7901Z" fill="#FF896D"/>
<path d="M107.326 56.2753C107.326 67.3882 103.926 85.2873 84.9625 88.043C70.5527 80.9863 70.5527 67.3882 70.5527 56.2753C70.5527 45.1624 77.6744 40.2305 88.2558 40.2305C98.8254 40.2305 107.326 45.1624 107.326 56.2753Z" fill="#FF896D"/>
<path d="M85.8203 56.4422C85.1307 58.0389 82.7885 59.7129 80.482 59.7129C78.1755 59.7001 76.0236 57.8071 75.334 56.4293C76.3683 54.9742 78.1755 53.1714 80.4939 53.1714C82.7885 53.1843 85.2615 54.8325 85.8203 56.4422Z" fill="white"/>
<path d="M82.3752 55.654C82.5526 54.4964 81.8299 53.4023 80.7611 53.2102C79.6923 53.0181 78.6821 53.8008 78.5047 54.9584C78.3274 56.116 79.05 57.2102 80.1188 57.4023C81.1876 57.5944 82.1979 56.8117 82.3752 55.654Z" fill="black"/>
<path d="M98.4943 56.4558C97.8047 58.0526 95.4625 59.7266 93.156 59.7266C90.8376 59.7137 88.6976 57.8208 87.9961 56.443C89.0305 54.9878 90.8495 53.1851 93.156 53.1851C95.4744 53.1979 97.9474 54.8462 98.4943 56.4558Z" fill="white"/>
<path d="M95.1506 55.6948C95.328 54.5372 94.6053 53.4431 93.5365 53.251C92.4677 53.0589 91.4575 53.8416 91.2801 54.9992C91.1028 56.1568 91.8254 57.2509 92.8942 57.443C93.963 57.6351 94.9732 56.8524 95.1506 55.6948Z" fill="black"/>
<path d="M90.9672 65.2375C90.9672 66.0102 90.4203 66.7699 89.4454 67.3236C88.4705 67.8773 87.1508 68.1864 85.7716 68.1864C84.4043 68.1864 83.0846 67.8773 82.1097 67.3236C81.1348 66.7699 80.5879 66.0102 80.5879 65.2375H80.8494C80.8494 65.9844 81.3726 66.6927 82.288 67.2206C83.2154 67.7486 84.4638 68.0447 85.7716 68.0447C87.0794 68.0447 88.3278 67.7486 89.2552 67.2206C90.1825 66.6927 90.6937 65.9844 90.6937 65.2375H90.9672Z" fill="white"/>
<path d="M14.0528 82.9802C14.0528 84.7704 13.3416 86.4872 12.0758 87.7531C10.8099 89.0189 9.09299 89.73 7.30277 89.73C5.51255 89.73 3.79565 89.0189 2.52977 87.7531C1.2639 86.4872 0.552734 84.7704 0.552734 82.9802C0.552734 81.1901 1.2639 79.4733 2.52977 78.2074C3.79565 76.9416 5.51255 76.2305 7.30277 76.2305C9.09299 76.2305 10.8099 76.9416 12.0758 78.2074C13.3416 79.4733 14.0528 81.1901 14.0528 82.9802ZM8.05277 79.9803C8.05277 79.7814 7.97375 79.5907 7.8331 79.45C7.69245 79.3094 7.50168 79.2304 7.30277 79.2304C7.10385 79.2304 6.91309 79.3094 6.77243 79.45C6.63178 79.5907 6.55276 79.7814 6.55276 79.9803V82.2303H4.30275C4.10384 82.2303 3.91307 82.3093 3.77242 82.4499C3.63177 82.5906 3.55275 82.7813 3.55275 82.9802C3.55275 83.1792 3.63177 83.3699 3.77242 83.5106C3.91307 83.6512 4.10384 83.7302 4.30275 83.7302H6.55276V85.9801C6.55276 86.1791 6.63178 86.3698 6.77243 86.5105C6.91309 86.6511 7.10385 86.7301 7.30277 86.7301C7.50168 86.7301 7.69245 86.6511 7.8331 86.5105C7.97375 86.3698 8.05277 86.1791 8.05277 85.9801V83.7302H10.3028C10.5017 83.7302 10.6925 83.6512 10.8331 83.5106C10.9738 83.3699 11.0528 83.1792 11.0528 82.9802C11.0528 82.7813 10.9738 82.5906 10.8331 82.4499C10.6925 82.3093 10.5017 82.2303 10.3028 82.2303H8.05277V79.9803Z" fill="#FF896D"/>
<path d="M20.0528 80.7314H15.2423C15.0955 80.2133 14.8981 79.7109 14.6528 79.2314H20.0528C21.2006 79.2314 22.3051 79.6699 23.1402 80.4573C23.9753 81.2447 24.478 82.3215 24.5453 83.4673L24.5528 83.7313V90.2996C24.5527 91.0039 24.3047 91.6857 23.8523 92.2255L23.6738 92.4205L16.7423 99.3518C16.2443 99.8498 15.5869 100.157 14.8853 100.219L14.6213 100.231H8.05276C6.90493 100.231 5.80047 99.7923 4.96535 99.0049C4.13023 98.2175 3.62757 97.1407 3.56023 95.9949L3.55273 95.7309V90.3311C4.02824 90.5741 4.52924 90.7721 5.05274 90.9206V95.7309C5.0525 96.4877 5.33835 97.2167 5.85299 97.7717C6.36763 98.3266 7.07302 98.6665 7.82775 98.7233L8.05276 98.7308H14.0528V94.231C14.0527 93.0832 14.4913 91.9788 15.2787 91.1437C16.0662 90.3086 17.143 89.8059 18.2888 89.7386L18.5528 89.7311H23.0528V83.7313C23.0531 82.9745 22.7672 82.2455 22.2526 81.6905C21.7379 81.1356 21.0325 80.7957 20.2778 80.7389L20.0528 80.7314ZM22.7273 91.2325L18.5528 91.231C17.7959 91.2308 17.0669 91.5166 16.512 92.0313C15.957 92.5459 15.6171 93.2513 15.5603 94.006L15.5528 94.231V98.4023L15.6818 98.2913L22.6133 91.36C22.6538 91.3195 22.6913 91.2775 22.7258 91.2325H22.7273Z" fill="#FF896D"/>
<path d="M38.0528 6.98025C38.0528 8.7704 37.3416 10.4872 36.0758 11.7531C34.8099 13.0189 33.093 13.73 31.3028 13.73C29.5125 13.73 27.7956 13.0189 26.5298 11.7531C25.2639 10.4872 24.5527 8.7704 24.5527 6.98025C24.5527 5.19009 25.2639 3.47326 26.5298 2.20743C27.7956 0.941604 29.5125 0.230469 31.3028 0.230469C33.093 0.230469 34.8099 0.941604 36.0758 2.20743C37.3416 3.47326 38.0528 5.19009 38.0528 6.98025ZM32.0528 3.98035C32.0528 3.78144 31.9738 3.59068 31.8331 3.45003C31.6924 3.30939 31.5017 3.23037 31.3028 3.23037C31.1039 3.23037 30.9131 3.30939 30.7724 3.45003C30.6318 3.59068 30.5528 3.78144 30.5528 3.98035V6.23027H28.3028C28.1038 6.23027 27.9131 6.30929 27.7724 6.44993C27.6318 6.59058 27.5527 6.78134 27.5527 6.98025C27.5527 7.17915 27.6318 7.36991 27.7724 7.51056C27.9131 7.65121 28.1038 7.73022 28.3028 7.73022H30.5528V9.98015C30.5528 10.1791 30.6318 10.3698 30.7724 10.5105C30.9131 10.6511 31.1039 10.7301 31.3028 10.7301C31.5017 10.7301 31.6924 10.6511 31.8331 10.5105C31.9738 10.3698 32.0528 10.1791 32.0528 9.98015V7.73022H34.3028C34.5017 7.73022 34.6925 7.65121 34.8331 7.51056C34.9738 7.36991 35.0528 7.17915 35.0528 6.98025C35.0528 6.78134 34.9738 6.59058 34.8331 6.44993C34.6925 6.30929 34.5017 6.23027 34.3028 6.23027H32.0528V3.98035Z" fill="#FF896D"/>
<path d="M44.0528 4.7314H39.2423C39.0955 4.21327 38.8981 3.71086 38.6528 3.23145H44.0528C45.2006 3.23138 46.3051 3.66992 47.1402 4.45733C47.9753 5.24474 48.478 6.3215 48.5453 7.46731L48.5528 7.7313V14.2996C48.5527 15.0039 48.3047 15.6857 47.8523 16.2255L47.6738 16.4205L40.7423 23.3518C40.2443 23.8498 39.5869 24.1567 38.8853 24.2188L38.6213 24.2308H32.0528C30.9049 24.2308 29.8005 23.7923 28.9653 23.0049C28.1302 22.2175 27.6276 21.1407 27.5602 19.9949L27.5527 19.7309V14.3311C28.0282 14.5741 28.5292 14.7721 29.0527 14.9206V19.7309C29.0525 20.4877 29.3384 21.2167 29.853 21.7717C30.3676 22.3266 31.073 22.6665 31.8278 22.7233L32.0528 22.7308H38.0528V18.231C38.0527 17.0832 38.4913 15.9788 39.2787 15.1437C40.0662 14.3086 41.143 13.8059 42.2888 13.7386L42.5528 13.7311H47.0528V7.7313C47.0531 6.97446 46.7672 6.2455 46.2526 5.69054C45.7379 5.13559 45.0325 4.79566 44.2778 4.7389L44.0528 4.7314ZM46.7273 15.2325L42.5528 15.231C41.7959 15.2308 41.0669 15.5166 40.512 16.0313C39.957 16.5459 39.6171 17.2513 39.5603 18.006L39.5528 18.231V22.4023L39.6818 22.2913L46.6133 15.36C46.6538 15.3195 46.6913 15.2775 46.7258 15.2325H46.7273Z" fill="#FF896D"/>
<path d="M111.053 91.9802C111.053 93.7704 110.342 95.4872 109.076 96.7531C107.81 98.0189 106.093 98.73 104.303 98.73C102.513 98.73 100.796 98.0189 99.5298 96.7531C98.2639 95.4872 97.5527 93.7704 97.5527 91.9802C97.5527 90.1901 98.2639 88.4733 99.5298 87.2074C100.796 85.9416 102.513 85.2305 104.303 85.2305C106.093 85.2305 107.81 85.9416 109.076 87.2074C110.342 88.4733 111.053 90.1901 111.053 91.9802ZM105.053 88.9803C105.053 88.7814 104.974 88.5907 104.833 88.45C104.692 88.3094 104.502 88.2304 104.303 88.2304C104.104 88.2304 103.913 88.3094 103.772 88.45C103.632 88.5907 103.553 88.7814 103.553 88.9803V91.2303H101.303C101.104 91.2303 100.913 91.3093 100.772 91.4499C100.632 91.5906 100.553 91.7813 100.553 91.9802C100.553 92.1792 100.632 92.3699 100.772 92.5106C100.913 92.6512 101.104 92.7302 101.303 92.7302H103.553V94.9801C103.553 95.1791 103.632 95.3698 103.772 95.5105C103.913 95.6511 104.104 95.7301 104.303 95.7301C104.502 95.7301 104.692 95.6511 104.833 95.5105C104.974 95.3698 105.053 95.1791 105.053 94.9801V92.7302H107.303C107.502 92.7302 107.692 92.6512 107.833 92.5106C107.974 92.3699 108.053 92.1792 108.053 91.9802C108.053 91.7813 107.974 91.5906 107.833 91.4499C107.692 91.3093 107.502 91.2303 107.303 91.2303H105.053V88.9803Z" fill="#FF896D"/>
<path d="M117.053 89.7314H112.242C112.096 89.2133 111.898 88.7109 111.653 88.2314H117.053C118.201 88.2314 119.305 88.6699 120.14 89.4573C120.975 90.2447 121.478 91.3215 121.545 92.4673L121.553 92.7313V99.2996C121.553 100.004 121.305 100.686 120.852 101.226L120.674 101.421L113.742 108.352C113.244 108.85 112.587 109.157 111.885 109.219L111.621 109.231H105.053C103.905 109.231 102.8 108.792 101.965 108.005C101.13 107.217 100.628 106.141 100.56 104.995L100.553 104.731V99.3311C101.028 99.5741 101.529 99.7721 102.053 99.9206V104.731C102.053 105.488 102.338 106.217 102.853 106.772C103.368 107.327 104.073 107.667 104.828 107.723L105.053 107.731H111.053V103.231C111.053 102.083 111.491 100.979 112.279 100.144C113.066 99.3086 114.143 98.8059 115.289 98.7386L115.553 98.7311H120.053V92.7313C120.053 91.9745 119.767 91.2455 119.253 90.6905C118.738 90.1356 118.033 89.7957 117.278 89.7389L117.053 89.7314ZM119.727 100.233L115.553 100.231C114.796 100.231 114.067 100.517 113.512 101.031C112.957 101.546 112.617 102.251 112.56 103.006L112.553 103.231V107.402L112.682 107.291L119.613 100.36C119.654 100.32 119.691 100.278 119.726 100.233H119.727Z" fill="#FF896D"/>
</svg>
