<svg width="40" height="47" viewBox="0 0 40 47" fill="none" xmlns="http://www.w3.org/2000/svg">
<path d="M29.3289 12.5457V9.99401C29.3289 9.76011 29.1376 9.56874 28.9038 9.56874H8.50112C8.26734 9.56874 8.07606 9.76011 8.07606 9.99401V12.5457C8.07606 12.7796 8.26734 12.971 8.50112 12.971H28.9038C29.1376 12.971 29.3289 12.7796 29.3289 12.5457ZM8.50112 17.2237C8.26734 17.2237 8.07606 17.4151 8.07606 17.649V20.2007C8.07606 20.4346 8.26734 20.6259 8.50112 20.6259H18.2774C18.5112 20.6259 18.7025 20.4346 18.7025 20.2007V17.649C18.7025 17.4151 18.5112 17.2237 18.2774 17.2237H8.50112ZM28.4787 23.3902C22.1401 23.3902 17.0022 28.5308 17.0022 34.8727C17.0022 41.2147 22.1401 46.3552 28.4787 46.3552C34.8174 46.3552 39.9553 41.2147 39.9553 34.8727C39.9553 28.5308 34.8174 23.3902 28.4787 23.3902ZM34.1904 40.5874C32.6655 42.1131 30.6359 42.953 28.4787 42.953C26.3216 42.953 24.2919 42.1131 22.7671 40.5874C21.2422 39.0617 20.4027 37.031 20.4027 34.8727C20.4027 32.7144 21.2422 30.6837 22.7671 29.1581C24.2919 27.6324 26.3216 26.7925 28.4787 26.7925C30.6359 26.7925 32.6655 27.6324 34.1904 29.1581C35.7153 30.6837 36.5548 32.7144 36.5548 34.8727C36.5548 37.031 35.7153 39.0617 34.1904 40.5874ZM33.2075 30.8326H30.8537C30.7156 30.8326 30.5881 30.8964 30.5084 31.008L27.1345 35.6754L25.9072 33.9796C25.8678 33.9249 25.816 33.8803 25.7558 33.8498C25.6957 33.8193 25.6292 33.8036 25.5618 33.8042H23.2187C22.8733 33.8042 22.6714 34.1976 22.8733 34.4793L26.7945 39.9069C26.9645 40.1408 27.3098 40.1408 27.4799 39.9069L33.5475 31.5077C33.7548 31.226 33.5528 30.8326 33.2075 30.8326ZM16.1521 41.2519H3.8255V3.82749H33.5794V22.1144C33.5794 22.3483 33.7707 22.5397 34.0045 22.5397H36.9799C37.2136 22.5397 37.4049 22.3483 37.4049 22.1144V1.70111C37.4049 0.760183 36.6451 0 35.7047 0H1.70022C0.759787 0 0 0.760183 0 1.70111V43.3783C0 44.3192 0.759787 45.0794 1.70022 45.0794H16.1521C16.3859 45.0794 16.5772 44.888 16.5772 44.6541V41.6772C16.5772 41.4433 16.3859 41.2519 16.1521 41.2519Z" fill="#515151"/>
</svg>
