<svg width="1440" height="1750" viewBox="0 0 1440 1750" fill="none" xmlns="http://www.w3.org/2000/svg">
<path d="M1084.25 1211.31C1186.28 1255.94 1321.96 1275.31 1441 1242.75C1441 1159.11 1441 656.993 1441 496.451C1322.33 474.278 1262.24 535.745 1168.52 577.564C1119.39 599.176 1060.28 614.387 1004.72 627.578C945.39 641.892 878.658 668.22 820.08 682.534C686.675 715.653 664 793.96 664 879.283C664 1088.1 986.364 1168.37 1084.25 1211.31Z" fill="#D8EFF4"/>
<path d="M328.747 663.057C234.72 704.18 109.698 722.026 2.47955e-05 692.024C2.47955e-05 614.952 2.47955e-05 152.255 2.47955e-05 4.31682C109.35 -16.1153 164.722 40.5256 251.088 79.0621C296.36 98.9769 350.833 112.993 402.026 125.149C456.701 138.34 518.194 162.601 572.173 175.791C695.105 206.31 716 278.469 716 357.093C716 549.517 418.944 623.486 328.747 663.057Z" fill="#D8EFF4"/>
<path d="M517.852 1724.96C415.157 1761.54 112.81 1754.21 -7 1727.53C-7 1658.97 -7 1247.43 -7 1115.84C112.43 1097.67 172.906 1148.05 267.232 1182.32C316.678 1200.04 376.173 1212.5 432.084 1223.32C491.799 1235.05 558.961 1256.63 617.915 1268.36C752.179 1295.5 775 1359.69 775 1429.62C775 1600.77 616.363 1689.76 517.852 1724.96Z" fill="#D8EFF4"/>
</svg>
