<svg width="2940" height="2857" viewBox="0 0 2940 2857" fill="none" xmlns="http://www.w3.org/2000/svg">
<path opacity="0.2" d="M1553.2 2856.73C1834.23 2856.73 2062.06 2833.49 2062.06 2804.83C2062.06 2776.16 1834.23 2752.92 1553.2 2752.92C1272.16 2752.92 1044.34 2776.16 1044.34 2804.83C1044.34 2833.49 1272.16 2856.73 1553.2 2856.73Z" fill="#C6C6C6"/>
<path d="M2939.33 0C2888.08 74.2428 2787.23 122.205 2701.16 149.471C2480.73 218.458 2243.22 162.94 2013.26 140.93C1783.31 118.92 1519.19 145.858 1375.63 326.866C1263.94 467.467 1256.71 660.958 1203.16 832.111C1167.36 946.103 1108.55 1054.51 1022.15 1137.3C951.525 1204.64 802.054 1335.06 722.227 1390.9C554.688 1508.51 288.268 1553.84 179.531 1766.06C86.2351 1948.38 179.531 2273.6 448.58 2333.06C704.816 2389.57 1146.66 2332.08 1395.34 2415.19C1546.78 2465.78 1663.73 2587 1808.6 2654.02C2018.52 2751.26 2273.11 2722.35 2475.8 2610.98C2678.49 2499.62 2832.56 2313.35 2939.33 2108.36V0Z" fill="#EFFCFF"/>
<path d="M2934.57 653.1C2862.3 794.03 2558.43 968.797 2558.43 968.797C2558.43 968.797 2246.68 1102.17 2084.06 864.988C1880.39 567.36 1626.12 554.219 1472.71 558.819C1205.96 566.703 1016.74 858.089 910.633 1018.07C734.553 1158.02 668.851 1072.28 500.327 1192.84C266.429 1360.05 245.076 1686.59 378.122 1883.36C468.461 2017.07 664.581 2062.73 778.244 2066.67C912.604 2071.27 1033.5 2046.96 1138.62 1988.81C1306.49 1895.85 1490.12 1691.51 1905.68 1985.2C2586.35 2465.81 2934.57 2243.08 2934.57 2243.08" stroke="#353535" stroke-width="2.46381" stroke-miterlimit="10" stroke-dasharray="13.14 13.14"/>
<path d="M2138.92 1017.75C2239.61 1017.75 2321.24 936.119 2321.24 835.425C2321.24 734.731 2239.61 653.103 2138.92 653.103C2038.22 653.103 1956.6 734.731 1956.6 835.425C1956.6 936.119 2038.22 1017.75 2138.92 1017.75Z" fill="white"/>
<path d="M2111.33 1018.07C2007.19 1018.07 1922.11 933.319 1922.11 828.853C1922.11 724.716 2006.86 639.632 2111.33 639.632C2215.46 639.632 2300.55 724.387 2300.55 828.853C2300.55 933.319 2215.46 1018.07 2111.33 1018.07ZM2111.33 666.242C2021.64 666.242 1948.72 739.17 1948.72 828.853C1948.72 918.536 2021.64 991.465 2111.33 991.465C2201.01 991.465 2273.94 918.536 2273.94 828.853C2273.94 739.17 2201.01 666.242 2111.33 666.242Z" fill="#DE5F8D"/>
<path d="M2177.35 797.317C2162.9 758.553 2115.59 775.964 2111.32 795.346C2105.41 774.979 2059.42 759.867 2045.29 797.317C2029.53 839.366 2105.74 877.145 2111.32 883.058C2116.58 878.13 2192.79 838.709 2177.35 797.317Z" fill="#DE5F8D"/>
<path d="M864.635 1197.77C965.51 1197.77 1047.29 1115.99 1047.29 1015.12C1047.29 914.244 965.51 832.469 864.635 832.469C763.76 832.469 681.984 914.244 681.984 1015.12C681.984 1115.99 763.76 1197.77 864.635 1197.77Z" fill="white"/>
<path d="M852.156 1181.01C744.077 1181.01 656.037 1092.97 656.037 984.895C656.037 876.815 744.077 788.775 852.156 788.775C960.235 788.775 1048.28 876.815 1048.28 984.895C1048.6 1092.97 960.564 1181.01 852.156 1181.01ZM852.156 816.042C759.188 816.042 683.303 891.927 683.303 984.895C683.303 1077.86 759.188 1153.75 852.156 1153.75C945.124 1153.75 1021.01 1077.86 1021.01 984.895C1021.01 891.598 945.453 816.042 852.156 816.042Z" fill="#DDDF6C"/>
<path d="M921.468 959.273H853.138L887.96 902.112H837.37L783.166 991.466V991.795H813.06H833.756C834.085 991.795 830.143 998.694 824.887 1007.23L788.094 1068.01L869.892 1003.62C878.105 997.051 884.675 991.795 884.675 991.795C884.675 991.795 890.917 986.21 898.801 979.312L921.468 959.273Z" fill="#DDDF6C" stroke="#DDDF6C" stroke-width="1.06667" stroke-linejoin="bevel"/>
<path d="M725.684 2259.83C826.559 2259.83 908.334 2178.06 908.334 2077.18C908.334 1976.31 826.559 1894.53 725.684 1894.53C624.809 1894.53 543.033 1976.31 543.033 2077.18C543.033 2178.06 624.809 2259.83 725.684 2259.83Z" fill="white"/>
<path d="M740.47 2243.08C632.391 2243.08 544.351 2155.04 544.351 2046.96C544.351 1938.88 632.391 1850.84 740.47 1850.84C848.549 1850.84 936.589 1938.88 936.589 2046.96C936.589 2155.04 848.549 2243.08 740.47 2243.08ZM740.47 1877.78C647.502 1877.78 571.617 1953.66 571.617 2046.63C571.617 2139.6 647.502 2215.48 740.47 2215.48C833.438 2215.48 909.323 2139.6 909.323 2046.63C909.323 1953.66 833.438 1877.78 740.47 1877.78Z" fill="#5FB8DE"/>
<path d="M811.426 1999H710.574V1996.37C710.574 1994.4 708.932 1992.76 706.961 1992.76H684.294C682.323 1992.76 680.68 1994.4 680.68 1996.37V1999H669.182C664.583 1999 660.97 2002.61 660.97 2007.21V2093.94C660.97 2098.54 664.583 2102.15 669.182 2102.15H811.098C815.697 2102.15 819.31 2098.54 819.31 2093.94V2007.21C819.639 2002.61 816.025 1999 811.426 1999Z" fill="#5FB8DE"/>
<path d="M740.467 2082.77C723.056 2082.77 708.931 2068.31 708.931 2050.9C708.931 2033.16 723.056 2019.04 740.467 2019.04C757.878 2019.04 772.004 2033.49 772.004 2050.9C772.004 2068.31 757.878 2082.77 740.467 2082.77ZM740.467 2021.66C724.37 2021.66 711.559 2034.8 711.559 2050.9C711.559 2067 724.699 2080.14 740.467 2080.14C756.236 2080.14 769.376 2067 769.376 2050.9C769.376 2034.8 756.236 2021.66 740.467 2021.66Z" fill="white"/>
<path d="M740.468 2088.35C720.1 2088.35 703.347 2071.6 703.347 2050.9C703.347 2030.21 720.1 2013.45 740.468 2013.45C760.835 2013.45 777.589 2030.21 777.589 2050.9C777.589 2071.6 761.164 2088.35 740.468 2088.35ZM740.468 2016.08C721.414 2016.08 705.975 2031.85 705.975 2050.9C705.975 2070.28 721.414 2085.72 740.468 2085.72C759.521 2085.72 774.961 2069.96 774.961 2050.9C774.961 2031.85 759.521 2016.08 740.468 2016.08Z" fill="white"/>
<path d="M798.94 2021.34C795.327 2021.34 792.37 2018.38 792.37 2014.77C792.37 2011.15 795.327 2008.2 798.94 2008.2C802.554 2008.2 805.51 2011.15 805.51 2014.77C805.51 2018.38 802.554 2021.34 798.94 2021.34ZM798.94 2010.82C796.969 2010.82 795.327 2012.47 795.327 2014.77C795.327 2016.74 796.969 2018.71 798.94 2018.71C800.911 2018.71 802.554 2017.07 802.554 2014.77C802.554 2012.47 800.911 2010.82 798.94 2010.82Z" fill="white"/>
<path d="M756.893 2041.7C756.893 2042.36 757.55 2043.02 758.207 2043.02C758.864 2043.02 759.522 2042.36 759.522 2041.7H756.893ZM746.71 2029.22C746.053 2029.22 745.396 2029.88 745.396 2030.53C745.396 2031.19 746.053 2031.85 746.71 2031.85V2029.22ZM751.966 2042.03C751.966 2042.69 752.623 2043.35 753.28 2043.35C753.937 2043.35 754.594 2042.69 754.594 2042.03H751.966ZM746.71 2034.15C746.053 2034.15 745.396 2034.81 745.396 2035.46C745.396 2036.12 746.053 2036.78 746.71 2036.78V2034.15ZM759.522 2041.7C759.193 2034.81 753.608 2029.22 746.71 2029.22V2031.85C752.294 2031.85 756.893 2036.12 756.893 2041.7H759.522ZM754.594 2042.03C754.594 2037.76 750.98 2033.82 746.381 2034.15V2036.78C749.338 2036.78 751.966 2039.08 751.966 2042.03H754.594Z" fill="white"/>
<path d="M1430 768.734C1530.88 768.734 1612.65 686.959 1612.65 586.084C1612.65 485.209 1530.88 403.433 1430 403.433C1329.12 403.433 1247.35 485.209 1247.35 586.084C1247.35 686.959 1329.12 768.734 1430 768.734Z" fill="white"/>
<path d="M1417.85 757.566C1310.43 757.566 1223.04 670.183 1223.04 562.761C1223.04 455.339 1310.43 367.956 1417.85 367.956C1525.27 367.956 1612.65 455.339 1612.65 562.761C1612.65 670.183 1525.27 757.566 1417.85 757.566ZM1417.85 392.265C1323.9 392.265 1247.68 468.808 1247.68 562.432C1247.68 656.386 1323.9 732.6 1417.85 732.6C1511.8 732.6 1588.02 656.057 1588.02 562.432C1588.02 468.808 1511.8 392.265 1417.85 392.265Z" fill="#F1B47C"/>
<path d="M1504.25 582.143H1466.8L1453.66 543.051C1452.34 539.437 1449.72 537.138 1446.43 537.138C1443.47 537.466 1440.52 540.094 1439.86 543.708L1427.38 593.641L1410.62 491.146C1409.97 486.547 1407.01 483.262 1403.4 483.262C1399.78 483.262 1396.83 486.547 1396.17 491.146L1384.01 564.732C1382.7 561.776 1380.4 560.133 1377.77 560.133C1375.14 560.133 1372.84 561.776 1371.53 564.404L1363.32 581.815H1331.12C1326.85 581.815 1323.9 586.085 1323.9 591.67C1323.9 597.583 1327.18 601.854 1331.12 601.854H1367.26C1369.89 601.854 1372.19 600.211 1373.5 597.255L1377.44 589.042L1380.73 596.926C1382.37 600.54 1385.33 602.511 1388.61 601.525C1391.57 600.54 1393.54 597.583 1394.2 593.969L1403.07 539.437L1418.18 633.062C1418.84 637.332 1421.46 640.289 1424.75 640.618H1425.41C1428.69 640.618 1431.65 637.99 1432.63 634.047L1447.42 573.93L1454.64 595.94C1455.96 599.554 1458.26 601.854 1461.21 601.854H1503.59C1507.86 601.854 1511.15 597.255 1511.15 591.67C1511.8 586.414 1508.52 582.143 1504.25 582.143Z" fill="#F1B47C"/>
<path opacity="0.8" d="M460.075 2187.21C472.558 2311.06 723.21 2361.65 543.845 2474.65C378.277 2579.12 159.162 2529.51 54.696 2363.62C-49.7696 2198.05 -0.164728 1978.93 165.732 1874.47C331.628 1770.33 434.78 1932.29 460.075 2187.21Z" fill="#5FB8DE"/>
<path d="M1688.55 2770.99C1683.29 2768.04 1677.05 2765.74 1670.48 2764.09C1670.48 2763.11 1670.81 2761.79 1670.81 2760.81L1680.33 2483.22L1670.81 2214.17C1670.15 2198.4 1657.01 2185.26 1641.24 2185.26C1633.03 2185.26 1625.15 2188.88 1619.23 2194.79C1613.65 2200.7 1610.69 2208.92 1611.35 2217.13L1630.07 2483.55L1611.02 2757.85C1610.69 2762.45 1611.68 2767.05 1613.32 2771.32C1606.75 2776.91 1603.46 2784.46 1603.46 2793.66C1603.46 2802.86 1607.08 2810.74 1613.65 2816.33C1621.2 2822.9 1632.7 2825.85 1647.48 2825.85C1662.6 2825.85 1677.38 2822.24 1688.22 2816.33C1698.73 2810.41 1704.64 2802.2 1704.64 2793.66C1704.97 2788.4 1702.67 2778.88 1688.55 2770.99Z" fill="#FF896D"/>
<path d="M1484.22 2756.87L1460.89 2511.14C1459.58 2495.05 1459.58 2478.62 1460.89 2462.52L1484.22 2217.46C1484.87 2209.25 1482.25 2201.03 1476.66 2194.79C1471.08 2188.55 1463.19 2184.94 1454.98 2184.94C1439.21 2184.94 1426.07 2197.09 1425.41 2212.86L1410.63 2487.16L1425.41 2761.14C1425.41 2762.12 1425.74 2762.78 1425.74 2763.44C1418.84 2765.08 1412.6 2767.38 1407.35 2770.67C1393.22 2778.88 1390.92 2788.08 1390.92 2793C1390.92 2801.55 1396.83 2809.76 1407.35 2815.67C1418.51 2821.91 1432.97 2825.2 1448.08 2825.2C1462.86 2825.2 1474.36 2821.91 1481.92 2815.67C1488.49 2810.09 1492.1 2802.53 1492.1 2793C1492.1 2783.81 1488.82 2776.25 1482.25 2770.67C1483.89 2766.39 1484.87 2761.8 1484.22 2756.87Z" fill="#FF896D"/>
<path d="M1895.51 2464.5C1931.97 2405.36 1966.79 2339.01 1950.7 2267.39C1935.26 2199.06 1891.89 2134.02 1844.59 2083.43C1826.52 2064.04 1797.61 2093.28 1815.68 2112.33C1857.73 2157.01 1894.85 2213.19 1910.29 2273.3C1926.39 2335.72 1890.58 2395.18 1858.71 2446.76C1851.16 2449.06 1845.25 2454.64 1841.63 2461.21C1841.3 2461.54 1841.3 2461.87 1840.97 2462.2C1835.39 2472.05 1835.39 2484.86 1841.3 2494.72C1848.2 2505.89 1862.98 2511.8 1875.47 2507.53C1878.1 2506.87 1881.05 2505.89 1883.35 2504.57C1895.18 2498 1901.09 2484.21 1898.13 2471.07C1897.48 2468.44 1896.49 2466.47 1895.51 2464.5Z" fill="#FF896D"/>
<path d="M1270.03 2082.77C1216.81 2119.56 1159.98 2168.18 1151.44 2236.18C1142.9 2305.17 1179.03 2371.53 1204.98 2433.29C1205.31 2434.27 1205.97 2435.59 1206.63 2436.57C1203.67 2446.43 1204 2457.6 1209.58 2466.8C1218.12 2480.92 1236.85 2488.15 1251.96 2479.28C1265.43 2471.39 1268.39 2453.98 1264.12 2439.86C1260.5 2428.36 1252.29 2419.49 1241.78 2414.23C1219.44 2362.66 1189.87 2306.81 1191.84 2249.98C1193.82 2191.51 1246.38 2148.8 1291.05 2117.92C1312.74 2103.47 1292.04 2067.66 1270.03 2082.77ZM1223.71 2452.01C1223.71 2452.01 1224.04 2452.01 1223.71 2452.01C1224.04 2452.01 1224.04 2452.01 1223.71 2452.01Z" fill="#FF896D"/>
<path d="M2096.22 1545.99C2096.22 1829.49 2002.27 2286.12 1478.3 2356.42C1080.14 2176.4 1080.14 1829.49 1080.14 1545.99C1080.14 1262.49 1276.92 1136.67 1569.29 1136.67C1861.34 1136.67 2096.22 1262.49 2096.22 1545.99Z" fill="#FF896D"/>
<path d="M1501.95 1550.26C1482.89 1590.99 1418.18 1633.7 1354.45 1633.7C1290.72 1633.37 1231.26 1585.08 1212.2 1549.93C1240.78 1512.81 1290.72 1466.81 1354.77 1466.81C1418.18 1467.14 1486.51 1509.19 1501.95 1550.26Z" fill="white"/>
<path d="M1406.73 1530.15C1411.63 1500.61 1391.67 1472.7 1362.14 1467.8C1332.6 1462.9 1304.69 1482.87 1299.79 1512.4C1294.89 1541.93 1314.86 1569.85 1344.39 1574.75C1373.92 1579.65 1401.83 1559.68 1406.73 1530.15Z" fill="black"/>
<path d="M1852.14 1550.58C1833.08 1591.32 1768.37 1634.02 1704.64 1634.02C1640.58 1633.7 1581.45 1585.41 1562.07 1550.25C1590.65 1513.13 1640.91 1467.14 1704.64 1467.14C1768.7 1467.47 1837.03 1509.52 1852.14 1550.58Z" fill="white"/>
<path d="M1759.76 1531.17C1764.67 1501.64 1744.7 1473.73 1715.17 1468.82C1685.63 1463.92 1657.72 1483.89 1652.82 1513.42C1647.92 1542.96 1667.89 1570.87 1697.42 1575.77C1726.95 1580.67 1754.86 1560.7 1759.76 1531.17Z" fill="black"/>
<path d="M1644.19 1774.63C1644.19 1794.34 1629.08 1813.72 1602.14 1827.85C1575.21 1841.97 1538.74 1849.86 1500.63 1849.86C1462.86 1849.86 1426.39 1841.97 1399.45 1827.85C1372.52 1813.72 1357.4 1794.34 1357.4 1774.63H1364.63C1364.63 1793.68 1379.09 1811.75 1404.38 1825.22C1430 1838.69 1464.5 1846.24 1500.63 1846.24C1536.77 1846.24 1571.26 1838.69 1596.89 1825.22C1622.51 1811.75 1636.64 1793.68 1636.64 1774.63H1644.19Z" fill="white"/>
<path d="M304.204 1630.08C405.079 1630.08 486.854 1548.31 486.854 1447.43C486.854 1346.56 405.079 1264.78 304.204 1264.78C203.329 1264.78 121.553 1346.56 121.553 1447.43C121.553 1548.31 203.329 1630.08 304.204 1630.08Z" fill="white"/>
<path d="M337.386 1664.91C229.307 1664.91 141.267 1576.87 141.267 1468.79C141.267 1360.71 229.307 1272.67 337.386 1272.67C445.465 1272.67 533.505 1360.71 533.505 1468.79C533.505 1576.87 445.465 1664.91 337.386 1664.91ZM337.386 1299.94C244.418 1299.94 168.533 1375.82 168.533 1468.79C168.533 1561.76 244.418 1637.64 337.386 1637.64C430.354 1637.64 506.239 1561.76 506.239 1468.79C506.239 1375.49 430.354 1299.94 337.386 1299.94Z" fill="#30DDD3"/>
<path d="M386.658 1423.13C384.03 1406.37 369.576 1393.56 352.165 1393.56C339.353 1393.56 328.512 1400.13 322.271 1410.31C318.986 1409.33 315.372 1408.67 311.758 1408.67C294.676 1408.67 280.221 1421.15 277.265 1437.58C272.994 1435.61 268.395 1434.29 263.139 1434.29C243.429 1434.29 227.66 1450.06 227.66 1469.77C227.66 1489.48 243.429 1505.25 263.139 1505.25C271.023 1505.25 278.25 1502.62 284.163 1498.02C293.362 1508.21 306.502 1514.78 321.285 1514.78C324.57 1514.78 327.855 1514.45 330.812 1513.79C341.981 1512.81 352.165 1507.55 359.392 1499.67C364.976 1502.62 371.547 1504.6 378.445 1504.6C401.113 1504.6 419.509 1486.2 419.509 1463.2C420.495 1443.16 405.712 1426.74 386.658 1423.13Z" fill="#30DDD3"/>
<path d="M399.8 1514.12C399.8 1520.69 405.056 1525.95 411.626 1525.95C418.196 1525.95 423.452 1520.69 423.452 1514.12C423.452 1507.55 418.196 1502.3 411.626 1502.3C405.056 1502.3 399.8 1507.88 399.8 1514.12Z" fill="#30DDD3"/>
<path d="M401.116 1513.79H403.744C403.744 1518.72 407.686 1522.66 412.942 1522.66C418.198 1522.66 422.14 1518.72 422.14 1513.79C422.14 1508.87 418.198 1504.6 412.942 1504.6C407.686 1504.6 403.744 1508.54 403.744 1513.79H401.116H398.159C398.159 1505.58 404.729 1499.01 412.942 1499.01C421.155 1499.01 427.725 1505.58 427.725 1513.79C427.725 1522.01 421.155 1528.58 412.942 1528.58C404.729 1528.58 398.159 1522.01 398.159 1513.79H401.116Z" fill="#30DDD3"/>
<path d="M442.18 1527.59C440.866 1526.93 439.223 1526.6 437.909 1526.6C434.952 1526.6 431.995 1527.92 430.353 1530.87C429.696 1532.19 429.368 1533.83 429.368 1535.14C429.368 1538.1 431.01 1541.06 433.638 1542.37C434.952 1543.03 436.595 1543.36 437.909 1543.36C440.865 1543.36 443.822 1542.04 445.136 1539.09C445.793 1537.77 446.122 1536.13 446.122 1534.82C446.45 1532.19 445.136 1529.23 442.18 1527.59Z" fill="#30DDD3"/>
<path d="M369.254 1425.42C373.196 1425.42 375.824 1426.08 376.152 1426.08C377.795 1426.41 378.78 1428.05 378.452 1429.37C378.123 1430.68 377.138 1431.67 375.824 1431.67C375.495 1431.67 375.495 1431.67 375.167 1431.67C374.838 1431.67 372.539 1431.34 369.582 1431.34C366.625 1431.34 363.012 1431.67 359.727 1432.98C356.113 1434.29 352.828 1436.27 350.529 1440.21C349.872 1440.86 349.214 1441.52 348.229 1441.52C347.572 1441.52 347.243 1441.19 346.586 1441.19C345.272 1440.21 344.944 1438.56 345.93 1437.25C349.215 1432.32 353.485 1429.7 357.756 1428.05C361.698 1425.75 365.968 1425.42 369.254 1425.42Z" fill="white"/>
</svg>
