<svg width="560" height="149" viewBox="0 0 560 149" fill="none" xmlns="http://www.w3.org/2000/svg">
<mask id="mask0" mask-type="alpha" maskUnits="userSpaceOnUse" x="0" y="0" width="560" height="149">
<rect x="0.681641" y="0.711914" width="559.057" height="147.7" rx="10" fill="#D8EFF4"/>
</mask>
<g mask="url(#mask0)">
<rect x="0.680176" y="0.711914" width="559.06" height="147.7" fill="#D8EFF4"/>
<path d="M212.851 -18.2352C210.631 -20.1565 208.054 -21.6216 205.268 -22.5468C202.481 -23.4719 199.54 -23.8391 196.611 -23.6272C193.683 -23.4153 190.825 -22.6286 188.201 -21.312C185.576 -19.9954 183.237 -18.1746 181.317 -15.9537L84.3119 96.0625L32.7859 52.4759C28.6537 48.9759 23.3005 47.2607 17.9037 47.7076C12.507 48.1546 7.50881 50.7271 4.00878 54.8592C0.508757 58.9914 -1.20644 64.3446 -0.75947 69.7414C-0.312504 75.1381 2.26001 80.1363 6.39214 83.6363L75.4603 142.058C77.5876 143.857 80.0632 145.197 82.7321 145.994C85.401 146.792 88.2058 147.031 90.9711 146.695C93.9049 146.489 96.7692 145.705 99.3997 144.39C102.03 143.074 104.375 141.253 106.3 139.029L215.134 13.3165C219.014 8.82688 220.953 2.98059 220.524 -2.93766C220.096 -8.85591 217.335 -14.3619 212.849 -18.2457" fill="white"/>
</g>
</svg>
