<svg width="31" height="31" viewBox="0 0 31 31" fill="none" xmlns="http://www.w3.org/2000/svg">
<circle cx="15.8827" cy="15.1101" r="15" fill="white"/>
<path d="M21.8827 9.86011H9.88269C9.55117 9.86011 9.23323 9.9918 8.99881 10.2262C8.76439 10.4606 8.63269 10.7786 8.63269 11.1101V19.1101C8.63269 19.4416 8.76439 19.7596 8.99881 19.994C9.23323 20.2284 9.55117 20.3601 9.88269 20.3601H21.8827C22.2142 20.3601 22.5322 20.2284 22.7666 19.994C23.001 19.7596 23.1327 19.4416 23.1327 19.1101V11.1101C23.1327 10.7786 23.001 10.4606 22.7666 10.2262C22.5322 9.9918 22.2142 9.86011 21.8827 9.86011ZM15.8827 14.1961L11.7835 11.3601H19.9819L15.8827 14.1961ZM10.1327 18.8601V12.0421L15.4552 15.7255C15.4552 15.7256 15.4553 15.7256 15.4554 15.7256C15.5809 15.8127 15.73 15.8593 15.8827 15.8593C16.0354 15.8593 16.1845 15.8127 16.31 15.7256C16.3101 15.7256 16.3101 15.7256 16.3102 15.7255L21.6327 12.0421V18.8601H10.1327Z" fill="#5fb8de" stroke="#5fb8de" stroke-width="0.5"/>
</svg>
