<svg width="41" height="41" viewBox="0 0 41 41" fill="none" xmlns="http://www.w3.org/2000/svg">
<circle cx="20.8008" cy="20.8818" r="20" fill="white" fill-opacity="0.6"/>
<path fill-rule="evenodd" clip-rule="evenodd" d="M10 14.2097C10 13.6237 10.2328 13.0616 10.6472 12.6472C11.0616 12.2328 11.6237 12 12.2097 12H29.8875C30.4735 12 31.0356 12.2328 31.45 12.6472C31.8644 13.0616 32.0972 13.6237 32.0972 14.2097C32.0972 14.7958 31.8644 15.3578 31.45 15.7722C31.0356 16.1866 30.4735 16.4194 29.8875 16.4194H12.2097C11.6237 16.4194 11.0616 16.1866 10.6472 15.7722C10.2328 15.3578 10 14.7958 10 14.2097ZM10 20.8389C10 20.2528 10.2328 19.6908 10.6472 19.2764C11.0616 18.862 11.6237 18.6292 12.2097 18.6292H29.8875C30.4735 18.6292 31.0356 18.862 31.45 19.2764C31.8644 19.6908 32.0972 20.2528 32.0972 20.8389C32.0972 21.4249 31.8644 21.987 31.45 22.4014C31.0356 22.8158 30.4735 23.0486 29.8875 23.0486H12.2097C11.6237 23.0486 11.0616 22.8158 10.6472 22.4014C10.2328 21.987 10 21.4249 10 20.8389ZM10 27.468C10 26.882 10.2328 26.3199 10.6472 25.9055C11.0616 25.4911 11.6237 25.2583 12.2097 25.2583H29.8875C30.4735 25.2583 31.0356 25.4911 31.45 25.9055C31.8644 26.3199 32.0972 26.882 32.0972 27.468C32.0972 28.0541 31.8644 28.6161 31.45 29.0305C31.0356 29.4449 30.4735 29.6777 29.8875 29.6777H12.2097C11.6237 29.6777 11.0616 29.4449 10.6472 29.0305C10.2328 28.6161 10 28.0541 10 27.468Z" fill="#5FB8DE"/>
</svg>
