<svg width="360" height="931" viewBox="0 0 360 931" fill="none" xmlns="http://www.w3.org/2000/svg">
<g clip-path="url(#clip0_2416:10122)">
<path opacity="0.5" fill-rule="evenodd" clip-rule="evenodd" d="M108.522 768.829C128.972 757.513 156.36 761.299 177.99 768.184C221.869 782.357 257.906 819.234 293.653 855.814C303.165 865.548 312.657 875.261 322.27 884.52C368.012 928.574 427.336 965.096 481.204 940.1C510.262 926.649 532.001 897.998 553.799 869.269C563.418 856.592 573.048 843.9 583.324 832.491C605.708 807.699 632.227 788.223 661.247 780.229C684.928 773.784 733.47 763.406 757.6 761.584C774.331 760.287 792.315 762.898 810.72 765.569C848.085 770.993 887.185 776.668 921.062 750.418C964.477 716.735 987.029 613.599 937.893 552.97C916.887 527.076 885 501.173 852.454 474.735C812.467 442.253 771.485 408.963 748.465 373.885C734.16 352.095 725.066 326.091 715.948 300.019C708.855 279.735 701.747 259.411 692.16 240.997C660.432 179.987 602.865 145.575 545.551 141.995C488.477 138.43 431.94 162.88 382.874 200.175C362.425 211.491 335.036 207.705 313.406 200.82C269.527 186.647 233.49 149.77 197.743 113.19C188.231 103.456 178.739 93.7425 169.126 84.4838C123.384 40.4304 64.0601 3.90812 10.1922 28.9043C-18.8662 42.355 -40.6049 71.0058 -62.4026 99.7345C-72.0215 112.412 -81.6519 125.104 -91.9279 136.513C-114.312 161.305 -140.83 180.781 -169.851 188.774C-193.531 195.22 -242.074 205.598 -266.204 207.42C-282.935 208.717 -300.919 206.106 -319.324 203.435C-356.688 198.011 -395.789 192.336 -429.666 218.586C-473.081 252.269 -495.633 355.405 -446.496 416.034C-425.491 441.928 -393.604 467.831 -361.058 494.269C-321.071 526.751 -280.089 560.041 -257.068 595.119C-242.764 616.909 -233.67 642.913 -224.552 668.985C-217.459 689.269 -210.351 709.593 -200.764 728.006C-169.036 789.017 -111.469 823.429 -54.1549 827.009C2.91901 830.574 59.4567 806.124 108.522 768.829Z" fill="white"/>
</g>
<defs>
<clipPath id="clip0_2416:10122">
<rect width="360" height="931" fill="white"/>
</clipPath>
</defs>
</svg>
