<svg width="1206" height="900" viewBox="0 0 1206 900" fill="none" xmlns="http://www.w3.org/2000/svg">
<g clip-path="url(#clip0_2416:10129)">
<path opacity="0.5" fill-rule="evenodd" clip-rule="evenodd" d="M283.386 700.975C303.835 690.989 331.222 694.331 352.85 700.407C396.73 712.918 432.766 745.469 468.513 777.759C478.025 786.351 487.517 794.925 497.13 803.098C542.872 841.984 602.196 874.222 656.064 852.158C685.123 840.285 706.861 814.995 728.659 789.636C738.278 778.445 747.908 767.242 758.184 757.172C780.568 735.287 807.087 718.096 836.107 711.04C859.788 705.35 908.33 696.189 932.46 694.582C949.191 693.437 967.175 695.741 985.58 698.099C1022.94 702.887 1062.05 707.896 1095.92 684.725C1139.34 654.993 1161.89 563.955 1112.75 510.437C1091.75 487.58 1059.86 464.716 1027.31 441.379C987.327 412.707 946.345 383.321 923.325 352.358C909.021 333.124 899.926 310.169 890.808 287.156C883.715 269.251 876.607 251.311 867.021 235.058C835.292 181.203 777.725 150.828 720.411 147.668C663.336 144.521 606.798 166.104 557.732 199.025C537.283 209.011 509.896 205.669 488.267 199.593C444.388 187.082 408.352 154.531 372.605 122.241C363.092 113.649 353.601 105.075 343.987 96.9023C298.246 58.0162 238.921 25.7778 185.054 47.8421C155.995 59.7151 134.256 85.0053 112.459 110.364C102.84 121.554 93.2094 132.758 82.9335 142.828C60.5494 164.713 34.031 181.904 5.01074 188.96C-18.67 194.65 -67.2122 203.811 -91.3427 205.418C-108.074 206.563 -126.058 204.259 -144.463 201.901C-181.827 197.113 -220.927 192.104 -254.804 215.275C-298.22 245.007 -320.772 336.045 -271.635 389.563C-250.63 412.42 -218.743 435.284 -186.196 458.621C-146.21 487.293 -105.227 516.679 -82.2071 547.642C-67.9028 566.876 -58.8087 589.83 -49.6909 612.844C-42.5974 630.749 -35.4896 648.689 -25.9029 664.942C5.82559 718.797 63.3926 749.172 120.706 752.332C177.781 755.479 234.32 733.897 283.386 700.975Z" fill="white"/>
</g>
<defs>
<clipPath id="clip0_2416:10129">
<rect width="1206" height="900" fill="white"/>
</clipPath>
</defs>
</svg>
