<svg width="70" height="71" viewBox="0 0 70 71" fill="none" xmlns="http://www.w3.org/2000/svg">
<path d="M47.7874 21.2145V17.727C47.7874 17.4073 47.5258 17.1458 47.2061 17.1458H19.3066C18.9869 17.1458 18.7253 17.4073 18.7253 17.727V21.2145C18.7253 21.5341 18.9869 21.7957 19.3066 21.7957H47.2061C47.5258 21.7957 47.7874 21.5341 47.7874 21.2145ZM19.3066 27.6081C18.9869 27.6081 18.7253 27.8697 18.7253 28.1894V31.6768C18.7253 31.9965 18.9869 32.258 19.3066 32.258H32.6751C32.9948 32.258 33.2563 31.9965 33.2563 31.6768V28.1894C33.2563 27.8697 32.9948 27.6081 32.6751 27.6081H19.3066ZM46.6249 36.0361C37.9571 36.0361 30.9314 43.0618 30.9314 51.7296C30.9314 60.3973 37.9571 67.4231 46.6249 67.4231C55.2926 67.4231 62.3184 60.3973 62.3184 51.7296C62.3184 43.0618 55.2926 36.0361 46.6249 36.0361ZM54.4353 59.54C52.3501 61.6252 49.5747 62.7732 46.6249 62.7732C43.6751 62.7732 40.8997 61.6252 38.8145 59.54C36.7293 57.4548 35.5813 54.6794 35.5813 51.7296C35.5813 48.7798 36.7293 46.0044 38.8145 43.9192C40.8997 41.834 43.6751 40.686 46.6249 40.686C49.5747 40.686 52.3501 41.834 54.4353 43.9192C56.5205 46.0044 57.6684 48.7798 57.6684 51.7296C57.6684 54.6794 56.5205 57.4548 54.4353 59.54ZM53.0912 46.2078H49.8726C49.6837 46.2078 49.5093 46.295 49.4003 46.4476L44.7867 52.8267L43.1084 50.509C43.0546 50.4341 42.9837 50.3733 42.9015 50.3315C42.8193 50.2898 42.7283 50.2685 42.6361 50.2692H39.432C38.9598 50.2692 38.6837 50.8069 38.9598 51.1919L44.3217 58.61C44.5542 58.9297 45.0265 58.9297 45.259 58.61L53.5562 47.1305C53.8395 46.7455 53.5634 46.2078 53.0912 46.2078ZM29.7689 60.4482H12.9129V9.29904H53.5998V34.2924C53.5998 34.6121 53.8613 34.8736 54.181 34.8736H58.2497C58.5694 34.8736 58.8309 34.6121 58.8309 34.2924V6.39283C58.8309 5.10684 57.792 4.06787 56.506 4.06787H10.0067C8.72073 4.06787 7.68176 5.10684 7.68176 6.39283V63.3544C7.68176 64.6404 8.72073 65.6794 10.0067 65.6794H29.7689C30.0886 65.6794 30.3501 65.4178 30.3501 65.0981V61.0294C30.3501 60.7098 30.0886 60.4482 29.7689 60.4482Z" fill="#5FB8DE"/>
</svg>
