<svg width="71" height="71" viewBox="0 0 71 71" fill="none" xmlns="http://www.w3.org/2000/svg">
<path d="M8.0061 13.5754L14.3403 19.9096L27.0087 7.24121" stroke="#5FB8DE" stroke-width="6.33419" stroke-linecap="round" stroke-linejoin="round"/>
<path d="M39.6784 8.82397H58.6809C59.9409 8.82397 61.1492 9.32449 62.0401 10.2154C62.9311 11.1063 63.4316 12.3147 63.4316 13.5746C63.4316 14.8346 62.9311 16.0429 62.0401 16.9338C61.1492 17.8247 59.9409 18.3253 58.6809 18.3253H39.6784C38.4184 18.3253 37.2101 17.8247 36.3192 16.9338C35.4282 16.0429 34.9277 14.8346 34.9277 13.5746C34.9277 12.3147 35.4282 11.1063 36.3192 10.2154C37.2101 9.32449 38.4184 8.82397 39.6784 8.82397Z" stroke="#5FB8DE" stroke-width="3.16709" stroke-linecap="round"/>
<path d="M8.00574 35.7451L14.3399 42.0793L27.0083 29.4109" stroke="#5FB8DE" stroke-width="6.33419" stroke-linecap="round" stroke-linejoin="round"/>
<path d="M58.6809 30.9937H39.6784C37.0547 30.9937 34.9277 33.1206 34.9277 35.7443C34.9277 38.368 37.0547 40.4949 39.6784 40.4949H58.6809C61.3046 40.4949 63.4316 38.368 63.4316 35.7443C63.4316 33.1206 61.3046 30.9937 58.6809 30.9937Z" stroke="#5FB8DE" stroke-width="3.16709" stroke-linecap="round"/>
<path d="M8.00574 57.915L14.3399 64.2492L27.0083 51.5808" stroke="#5FB8DE" stroke-width="6.33419" stroke-linecap="round" stroke-linejoin="round"/>
<path d="M58.6809 53.1636H39.6784C37.0547 53.1636 34.9277 55.2905 34.9277 57.9142C34.9277 60.5379 37.0547 62.6649 39.6784 62.6649H58.6809C61.3046 62.6649 63.4316 60.5379 63.4316 57.9142C63.4316 55.2905 61.3046 53.1636 58.6809 53.1636Z" stroke="#5FB8DE" stroke-width="3.16709" stroke-linecap="round"/>
</svg>
