<svg width="71" height="71" viewBox="0 0 71 71" fill="none" xmlns="http://www.w3.org/2000/svg">
<path d="M58.1583 67.4227H13.4649C13.023 67.4254 12.5849 67.3409 12.1757 67.1742C11.7664 67.0075 11.394 66.7618 11.0797 66.4512C10.7654 66.1406 10.5154 65.7711 10.3439 65.3638C10.1724 64.9566 10.0828 64.5196 10.0802 64.0777V13.3671C10.0919 12.8774 10.2074 12.3959 10.4189 11.9541C10.6305 11.5124 10.9333 11.1205 11.3074 10.8044C11.6815 10.4883 12.1184 10.2551 12.5892 10.1202C13.0601 9.98538 13.5541 9.95189 14.0389 10.022H17.9975V13.9807H14.0389V63.4641H57.5843V13.9807H53.6256V10.022H58.0791C58.5276 10.0088 58.9742 10.0854 59.3926 10.2474C59.811 10.4093 60.1928 10.6533 60.5156 10.965C60.8383 11.2766 61.0955 11.6497 61.2719 12.0622C61.4483 12.4748 61.5405 12.9184 61.5429 13.3671V64.0777C61.5403 64.5196 61.4507 64.9566 61.2792 65.3638C61.1077 65.7711 60.8577 66.1406 60.5434 66.4512C60.2291 66.7618 59.8567 67.0075 59.4475 67.1742C59.0382 67.3409 58.6002 67.4254 58.1583 67.4227Z" fill="#5FB8DE"/>
<path d="M33.1568 51.1101L22.5476 40.5008C22.2258 40.1199 22.0597 39.6316 22.0824 39.1335C22.1051 38.6353 22.3149 38.1641 22.67 37.8141C23.0251 37.464 23.4992 37.2608 23.9976 37.2452C24.496 37.2296 24.9819 37.4026 25.3582 37.7298L33.1568 45.5283L50.2583 28.4269C50.6369 28.1026 51.124 27.9332 51.6222 27.9524C52.1203 27.9716 52.5929 28.1782 52.9454 28.5307C53.2979 28.8832 53.5044 29.3557 53.5236 29.8539C53.5429 30.352 53.3734 30.8391 53.0492 31.2177L33.1568 51.1101Z" fill="#5FB8DE"/>
<path d="M51.6485 21.8969H19.9791V14.6328C19.9843 13.4112 20.4719 12.2412 21.3357 11.3775C22.1994 10.5137 23.3694 10.0261 24.591 10.0209H28.134C28.57 8.31787 29.5605 6.80838 30.9492 5.73043C32.3379 4.65248 34.0459 4.06738 35.8039 4.06738C37.5619 4.06738 39.2699 4.65248 40.6586 5.73043C42.0473 6.80838 43.0378 8.31787 43.4738 10.0209H47.0169C48.2418 10.0209 49.4169 10.5062 50.2849 11.3705C51.153 12.2348 51.6433 13.4078 51.6485 14.6328V21.8969ZM23.9378 17.9383H47.6898V14.6328C47.6898 14.4595 47.621 14.2934 47.4985 14.1709C47.376 14.0484 47.2099 13.9796 47.0366 13.9796H39.7725V12.0003C39.7725 10.9503 39.3554 9.94344 38.613 9.20105C37.8706 8.45865 36.8637 8.04158 35.8138 8.04158C34.7639 8.04158 33.757 8.45865 33.0146 9.20105C32.2722 9.94344 31.8551 10.9503 31.8551 12.0003V13.9796H24.591C24.5052 13.9796 24.4203 13.9965 24.341 14.0293C24.2618 14.0621 24.1898 14.1102 24.1291 14.1709C24.0685 14.2316 24.0203 14.3036 23.9875 14.3828C23.9547 14.4621 23.9378 14.547 23.9378 14.6328V17.9383Z" fill="#5FB8DE"/>
</svg>
