<svg width="71" height="71" viewBox="0 0 71 71" fill="none" xmlns="http://www.w3.org/2000/svg">
<path d="M53.2179 23.0744H40.0146L42.5678 7.75831C42.6438 7.30421 42.6199 6.83901 42.4977 6.3951C42.3755 5.95119 42.1581 5.53924 41.8605 5.18795C41.5628 4.83666 41.1922 4.55447 40.7744 4.36103C40.3566 4.16759 39.9017 4.06755 39.4413 4.06787H23.121C22.3716 4.06809 21.6466 4.33396 21.0747 4.81824C20.5028 5.30253 20.1212 5.97386 19.9975 6.71295L14.7169 38.3906C14.641 38.8444 14.6648 39.3093 14.7868 39.753C14.9088 40.1967 15.126 40.6085 15.4232 40.9597C15.7205 41.3109 16.0907 41.5932 16.5081 41.7868C16.9256 41.9805 17.3801 42.0809 17.8403 42.081H30.5113V67.4231L55.8851 27.956C56.1931 27.4772 56.3663 26.9244 56.3867 26.3555C56.407 25.7866 56.2737 25.2228 56.0008 24.7233C55.7279 24.2238 55.3254 23.807 54.8357 23.5169C54.3459 23.2267 53.7871 23.0739 53.2179 23.0744Z" fill="#5FB8DE"/>
</svg>
