<svg width="71" height="71" viewBox="0 0 71 71" fill="none" xmlns="http://www.w3.org/2000/svg">
<path d="M47.5044 8.02639C48.5546 8.02639 49.5617 8.44358 50.3043 9.18618C51.0469 9.92877 51.4641 10.9359 51.4641 11.9861V59.5031C51.4641 60.5532 51.0469 61.5604 50.3043 62.303C49.5617 63.0456 48.5546 63.4628 47.5044 63.4628H23.7459C22.6957 63.4628 21.6885 63.0456 20.9459 62.303C20.2033 61.5604 19.7862 60.5532 19.7862 59.5031V11.9861C19.7862 10.9359 20.2033 9.92877 20.9459 9.18618C21.6885 8.44358 22.6957 8.02639 23.7459 8.02639H47.5044ZM23.7459 4.06665C21.6455 4.06665 19.6312 4.90102 18.146 6.38621C16.6608 7.87141 15.8264 9.88576 15.8264 11.9861V59.5031C15.8264 61.6034 16.6608 63.6178 18.146 65.103C19.6312 66.5882 21.6455 67.4225 23.7459 67.4225H47.5044C49.6047 67.4225 51.6191 66.5882 53.1043 65.103C54.5895 63.6178 55.4239 61.6034 55.4239 59.5031V11.9861C55.4239 9.88576 54.5895 7.87141 53.1043 6.38621C51.6191 4.90102 49.6047 4.06665 47.5044 4.06665H23.7459Z" fill="#5FB8DE"/>
<path d="M35.6227 59.5035C36.6729 59.5035 37.6801 59.0863 38.4227 58.3437C39.1653 57.6011 39.5825 56.5939 39.5825 55.5437C39.5825 54.4935 39.1653 53.4864 38.4227 52.7438C37.6801 52.0012 36.6729 51.584 35.6227 51.584C34.5725 51.584 33.5653 52.0012 32.8227 52.7438C32.0802 53.4864 31.663 54.4935 31.663 55.5437C31.663 56.5939 32.0802 57.6011 32.8227 58.3437C33.5653 59.0863 34.5725 59.5035 35.6227 59.5035Z" fill="#5FB8DE"/>
</svg>
