<svg width="71" height="71" viewBox="0 0 71 71" fill="none" xmlns="http://www.w3.org/2000/svg">
<path d="M64.013 12.3232H7.80058C6.5582 12.3232 5.36672 12.8168 4.48823 13.6953C3.60974 14.5737 3.11621 15.7652 3.11621 17.0076V54.4825C3.11621 55.7249 3.60974 56.9164 4.48823 57.7949C5.36672 58.6734 6.5582 59.1669 7.80058 59.1669H64.013C65.2553 59.1669 66.4468 58.6734 67.3253 57.7949C68.2038 56.9164 68.6973 55.7249 68.6973 54.4825V17.0076C68.6973 15.7652 68.2038 14.5737 67.3253 13.6953C66.4468 12.8168 65.2553 12.3232 64.013 12.3232ZM58.8601 17.0076L35.9068 32.8876L12.9534 17.0076H58.8601ZM7.80058 54.4825V19.139L34.5717 37.6657C34.9638 37.9376 35.4296 38.0834 35.9068 38.0834C36.3839 38.0834 36.8497 37.9376 37.2418 37.6657L64.013 19.139V54.4825H7.80058Z" fill="#5FB8DE"/>
</svg>
