<svg width="1608" height="1216" viewBox="0 0 1608 1216" fill="none" xmlns="http://www.w3.org/2000/svg">
<path d="M1.1495 0.182408C1.1495 0.182408 7.2947 78.7524 145.605 102.748C283.916 126.744 436.256 22.3727 593.088 56.1536C749.921 89.9344 760.34 199.945 690.163 255.311C577.218 344.321 203.383 252.871 149.407 435.759C95.4304 618.646 369.967 768.627 704.628 712.408C1039.29 656.188 1186.03 550.548 1335.32 572.919C1484.61 595.29 1546.24 681.89 1546.24 681.89C1546.24 681.89 1687.66 853.55 1536.9 1045.29C1386.06 1237.11 1063.45 1006.71 672.77 1154.46C282.09 1302.2 5.24778 1132.67 5.24778 1132.67" stroke="#353535" stroke-width="1.36832" stroke-miterlimit="10" stroke-dasharray="3.33 3.33"/>
</svg>
