<svg width="1300" height="906" viewBox="0 0 1300 906" fill="none" xmlns="http://www.w3.org/2000/svg">
<path d="M6.65807 13.2509C6.65807 13.2509 11.2804 69.4258 115.576 86.5622C219.872 103.699 334.767 29.0538 453.028 53.1837C571.29 77.3137 579.131 155.967 526.202 195.563C441.018 259.219 159.124 193.888 118.393 324.657C77.6626 455.425 284.667 562.618 537.042 522.375C789.417 482.131 900.092 406.579 1012.67 422.552C1125.24 438.526 1171.71 500.434 1171.71 500.434C1171.71 500.434 1278.32 623.147 1164.6 760.258C1050.83 897.43 807.585 732.743 512.953 838.433C218.32 944.124 9.57949 822.953 9.57949 822.953" stroke="#353535" stroke-miterlimit="10" stroke-dasharray="2.44 2.44"/>
</svg>
