<svg width="280" height="99" viewBox="0 0 280 99" fill="none" xmlns="http://www.w3.org/2000/svg">
<path d="M63.9787 41.8441C66.379 41.8441 68.5167 42.3504 70.392 43.363C72.2672 44.3381 73.7486 45.8196 74.8362 47.8073C75.9239 49.795 76.4677 52.2141 76.4677 55.0644V73.2354H71.4046V55.7958C71.4046 52.7204 70.6357 50.3764 69.0981 48.7637C67.5979 47.1135 65.5539 46.2884 62.9661 46.2884C60.3033 46.2884 58.1842 47.151 56.6091 48.8762C55.0339 50.5639 54.2463 53.0204 54.2463 56.2458V73.2354H49.1832V55.7958C49.1832 52.7204 48.4143 50.3764 46.8766 48.7637C45.3765 47.1135 43.3325 46.2884 40.7447 46.2884C38.0818 46.2884 35.9628 47.151 34.3876 48.8762C32.8125 50.5639 32.0249 53.0204 32.0249 56.2458V73.2354H26.9055V42.4067H32.0249V46.8509C33.0375 45.2382 34.3876 44.0006 36.0753 43.138C37.8006 42.2754 39.6945 41.8441 41.7573 41.8441C44.3451 41.8441 46.6329 42.4254 48.6206 43.5881C50.6083 44.7507 52.0898 46.4571 53.0649 48.7074C53.9275 46.5322 55.3527 44.8445 57.3404 43.6443C59.3281 42.4442 61.5409 41.8441 63.9787 41.8441ZM88.072 37.3998C87.0968 37.3998 86.2717 37.0623 85.5967 36.3872C84.9216 35.7121 84.584 34.887 84.584 33.9119C84.584 32.9368 84.9216 32.1117 85.5967 31.4366C86.2717 30.7615 87.0968 30.424 88.072 30.424C89.0096 30.424 89.7972 30.7615 90.4347 31.4366C91.1098 32.1117 91.4474 32.9368 91.4474 33.9119C91.4474 34.887 91.1098 35.7121 90.4347 36.3872C89.7972 37.0623 89.0096 37.3998 88.072 37.3998ZM90.5473 42.4067V73.2354H85.4279V42.4067H90.5473ZM114.855 41.8441C118.606 41.8441 121.644 42.988 123.969 45.2758C126.294 47.526 127.457 50.7889 127.457 55.0644V73.2354H122.394V55.7958C122.394 52.7204 121.625 50.3764 120.087 48.7637C118.55 47.1135 116.449 46.2884 113.787 46.2884C111.086 46.2884 108.93 47.1322 107.317 48.8199C105.742 50.5076 104.954 52.9642 104.954 56.1896V73.2354H99.8349V42.4067H104.954V46.7947C105.967 45.2195 107.336 44.0006 109.061 43.138C110.824 42.2754 112.755 41.8441 114.855 41.8441ZM204.577 41.8441C206.977 41.8441 209.115 42.3504 210.99 43.363C212.865 44.3381 214.346 45.8196 215.434 47.8073C216.522 49.795 217.066 52.2141 217.066 55.0644V73.2354H212.002V55.7958C212.002 52.7204 211.234 50.3764 209.696 48.7637C208.196 47.1135 206.152 46.2884 203.564 46.2884C200.901 46.2884 198.782 47.151 197.207 48.8762C195.632 50.5639 194.844 53.0204 194.844 56.2458V73.2354H189.781V55.7958C189.781 52.7204 189.012 50.3764 187.475 48.7637C185.974 47.1135 183.93 46.2884 181.343 46.2884C178.68 46.2884 176.561 47.151 174.986 48.8762C173.41 50.5639 172.623 53.0204 172.623 56.2458V73.2354H167.503V42.4067H172.623V46.8509C173.635 45.2382 174.986 44.0006 176.673 43.138C178.398 42.2754 180.292 41.8441 182.355 41.8441C184.943 41.8441 187.231 42.4254 189.218 43.5881C191.206 44.7507 192.688 46.4571 193.663 48.7074C194.525 46.5322 195.951 44.8445 197.938 43.6443C199.926 42.4442 202.139 41.8441 204.577 41.8441ZM254.154 56.6396C254.154 57.6147 254.098 58.6461 253.985 59.7337H229.345C229.532 62.7716 230.564 65.1531 232.439 66.8783C234.352 68.566 236.658 69.4099 239.359 69.4099C241.571 69.4099 243.409 68.9036 244.872 67.891C246.372 66.8408 247.422 65.4532 248.022 63.728H253.535C252.71 66.6908 251.06 69.1099 248.585 70.9851C246.109 72.8228 243.034 73.7417 239.359 73.7417C236.433 73.7417 233.808 73.0853 231.483 71.7727C229.195 70.46 227.395 68.6035 226.082 66.2033C224.769 63.7655 224.113 60.9526 224.113 57.7647C224.113 54.5769 224.751 51.7828 226.026 49.3825C227.301 46.9822 229.082 45.1445 231.37 43.8693C233.695 42.5567 236.358 41.9003 239.359 41.9003C242.284 41.9003 244.872 42.5379 247.122 43.8131C249.372 45.0882 251.098 46.8509 252.298 49.1012C253.535 51.314 254.154 53.8268 254.154 56.6396ZM248.866 55.5707C248.866 53.6205 248.435 51.9516 247.572 50.5639C246.709 49.1387 245.528 48.0698 244.028 47.3573C242.565 46.6072 240.934 46.2321 239.134 46.2321C236.546 46.2321 234.333 47.0572 232.495 48.7074C230.695 50.3576 229.664 52.6454 229.401 55.5707H248.866Z" fill="#5FB8DE"/>
<path d="M143.738 72.4787C143.738 72.7957 143.631 73.0553 143.406 73.2426C143.174 73.4365 142.773 73.5884 142.121 73.5884C141.469 73.5884 140.896 73.4364 140.497 73.2083C140.089 72.9746 139.927 72.704 139.927 72.4787C139.927 72.2535 140.089 71.9828 140.497 71.7492C140.896 71.5211 141.469 71.369 142.121 71.369C142.773 71.369 143.174 71.5209 143.406 71.7149C143.631 71.9021 143.738 72.1618 143.738 72.4787Z" fill="#FF896D" stroke="#FF896D" stroke-width="0.68634"/>
<path d="M149.151 72.4787C149.151 72.7957 149.258 73.0553 149.483 73.2426C149.715 73.4365 150.116 73.5884 150.768 73.5884C151.42 73.5884 151.993 73.4364 152.392 73.2083C152.8 72.9746 152.962 72.704 152.962 72.4787C152.962 72.2535 152.8 71.9828 152.392 71.7492C151.993 71.5211 151.42 71.369 150.768 71.369C150.116 71.369 149.715 71.5209 149.483 71.7149C149.258 71.9021 149.151 72.1618 149.151 72.4787Z" fill="#FF896D" stroke="#FF896D" stroke-width="0.68634"/>
<path d="M141.415 47.4275C141.444 46.8952 141.884 46.4784 142.417 46.4784C143.009 46.4784 143.473 46.9882 143.417 47.5775L142.406 58.1612C142.338 58.8783 142.337 59.6002 142.406 60.3173L143.417 70.9318C143.473 71.5211 143.01 72.0308 142.418 72.0308C141.884 72.0308 141.444 71.6139 141.415 71.0815L140.772 59.2393L141.415 47.4275Z" fill="#FF896D" stroke="#FF896D" stroke-width="0.68634"/>
<path d="M135.342 44.3066C135.375 43.9867 135.645 43.7436 135.966 43.7436C136.336 43.7436 136.626 44.0622 136.59 44.4305L135.995 50.627C135.953 51.0678 135.953 51.5117 135.996 51.9525L136.589 58.0772C136.625 58.4456 136.335 58.7646 135.965 58.7646C135.644 58.7646 135.375 58.5218 135.342 58.2022L134.706 52.0558C134.653 51.5463 134.653 51.0326 134.705 50.523L135.342 44.3066Z" fill="#FF896D" stroke="#FF896D" stroke-width="0.68634"/>
<path d="M157.446 51.2157L157.448 51.1921L157.446 51.1686L156.978 44.4137C156.953 44.0513 157.24 43.7436 157.603 43.7436C157.933 43.7436 158.206 43.998 158.229 44.3263L158.713 51.1925L158.228 58.1811C158.205 58.5097 157.932 58.7646 157.602 58.7646C157.239 58.7646 156.952 58.4572 156.977 58.0951L157.446 51.2157Z" fill="#FF896D" stroke="#FF896D" stroke-width="0.68634"/>
<path d="M150.267 59.0996L150.268 59.0757L150.267 59.0519L149.456 47.5585C149.415 46.9747 149.877 46.4784 150.463 46.4784C151.006 46.4784 151.452 46.9091 151.471 47.4525L151.875 59.0762L151.47 71.0551C151.452 71.5992 151.005 72.0308 150.461 72.0308C149.876 72.0308 149.413 71.5353 149.453 70.9518L150.267 59.0996Z" fill="#FF896D" stroke="#FF896D" stroke-width="0.68634"/>
<path d="M159.012 59.272C159.012 60.1148 158.434 60.7076 157.823 60.7076C157.213 60.7076 156.635 60.1148 156.635 59.272C156.635 58.4292 157.213 57.8363 157.823 57.8363C158.434 57.8363 159.012 58.4292 159.012 59.272Z" fill="#FF896D" stroke="#FF896D" stroke-width="0.68634"/>
<path d="M137.252 59.106C137.252 59.9488 136.673 60.5416 136.063 60.5416C135.453 60.5416 134.874 59.9488 134.874 59.106C134.874 58.2632 135.453 57.6703 136.063 57.6703C136.673 57.6703 137.252 58.2632 137.252 59.106Z" fill="#FF896D" stroke="#FF896D" stroke-width="0.68634"/>
<path d="M170.11 18.5971C170.11 30.8457 166.057 50.5704 143.426 53.6103C126.227 45.8416 126.227 30.8457 126.227 18.5971C126.227 6.34857 134.718 0.924805 147.347 0.924805C159.975 0.924805 170.11 6.34857 170.11 18.5971Z" fill="#FF896D"/>
<path d="M145.802 15.719C144.977 17.4811 142.185 19.3217 139.43 19.3192C136.675 19.3168 134.105 17.2244 133.283 15.7079C134.52 14.095 136.681 12.1202 139.436 12.1226C142.191 12.1251 145.145 13.9397 145.802 15.719Z" fill="white"/>
<path d="M160.94 15.7317C160.114 17.4938 157.322 19.3343 154.568 19.3319C151.813 19.3295 149.243 17.2371 148.421 15.7206C149.657 14.1077 151.819 12.1329 154.574 12.1353C157.329 12.1378 160.282 13.9524 160.94 15.7317Z" fill="white"/>
<circle cx="139.383" cy="14.457" r="2.33568" transform="rotate(9.41996 139.383 14.457)" fill="black"/>
<circle cx="154.639" cy="14.5014" r="2.33568" transform="rotate(9.41996 154.639 14.5014)" fill="black"/>
<mask id="path-15-outside-1" maskUnits="userSpaceOnUse" x="138.584" y="24.1528" width="15" height="6" fill="black">
<rect fill="white" x="138.584" y="24.1528" width="15" height="6"/>
<path d="M151.797 25.4033C151.882 25.4033 151.952 25.4728 151.945 25.558C151.872 26.3638 151.231 27.1287 150.14 27.7017C148.981 28.3113 147.408 28.6538 145.768 28.6538C144.128 28.6538 142.555 28.3113 141.395 27.7017C140.305 27.1287 139.664 26.3638 139.591 25.558C139.583 25.4728 139.653 25.4033 139.739 25.4033C139.824 25.4033 139.893 25.4728 139.901 25.558C139.974 26.3206 140.582 27.0441 141.614 27.5866C142.716 28.1656 144.21 28.4909 145.768 28.4909C147.326 28.4909 148.82 28.1656 149.921 27.5866C150.953 27.0441 151.562 26.3206 151.634 25.558C151.643 25.4728 151.711 25.4033 151.797 25.4033Z"/>
</mask>
<path d="M151.797 25.4033C151.882 25.4033 151.952 25.4728 151.945 25.558C151.872 26.3638 151.231 27.1287 150.14 27.7017C148.981 28.3113 147.408 28.6538 145.768 28.6538C144.128 28.6538 142.555 28.3113 141.395 27.7017C140.305 27.1287 139.664 26.3638 139.591 25.558C139.583 25.4728 139.653 25.4033 139.739 25.4033C139.824 25.4033 139.893 25.4728 139.901 25.558C139.974 26.3206 140.582 27.0441 141.614 27.5866C142.716 28.1656 144.21 28.4909 145.768 28.4909C147.326 28.4909 148.82 28.1656 149.921 27.5866C150.953 27.0441 151.562 26.3206 151.634 25.558C151.643 25.4728 151.711 25.4033 151.797 25.4033Z" fill="white"/>
<path d="M151.797 25.4033C151.882 25.4033 151.952 25.4728 151.945 25.558C151.872 26.3638 151.231 27.1287 150.14 27.7017C148.981 28.3113 147.408 28.6538 145.768 28.6538C144.128 28.6538 142.555 28.3113 141.395 27.7017C140.305 27.1287 139.664 26.3638 139.591 25.558C139.583 25.4728 139.653 25.4033 139.739 25.4033C139.824 25.4033 139.893 25.4728 139.901 25.558C139.974 26.3206 140.582 27.0441 141.614 27.5866C142.716 28.1656 144.21 28.4909 145.768 28.4909C147.326 28.4909 148.82 28.1656 149.921 27.5866C150.953 27.0441 151.562 26.3206 151.634 25.558C151.643 25.4728 151.711 25.4033 151.797 25.4033Z" stroke="white" stroke-width="1.68194" mask="url(#path-15-outside-1)"/>
</svg>
