<svg width="378" height="1035" viewBox="0 0 378 1035" fill="none" xmlns="http://www.w3.org/2000/svg">
<g clip-path="url(#clip0)">
<path d="M106.59 1033.93C86.281 955.788 -6.58126 950.704 -25.3079 859.854C-44.0345 769.005 25.2597 726.099 79.773 742.637C167.444 769.288 204.929 989.58 338.693 954.299C472.457 919.017 499.14 728.903 375.199 578.938C251.257 428.973 143.9 390.924 119.669 307.793C95.4389 224.662 136.074 163.872 136.074 163.872C136.074 163.872 211.611 33.646 376.371 44.2676C541.208 54.902 474.4 296.834 672.836 443.808C871.273 590.782 832.393 788.75 832.393 788.75" stroke="#353535" stroke-width="2" stroke-miterlimit="10" stroke-dasharray="2.87 2.87"/>
</g>
<defs>
<clipPath id="clip0">
<rect width="378" height="1035" fill="white"/>
</clipPath>
</defs>
</svg>
