<svg width="1503" height="1822" viewBox="0 0 1503 1822" fill="none" xmlns="http://www.w3.org/2000/svg">
<path d="M653.989 1770.82C654.43 1780.8 651.499 1789.09 644.987 1795.21C638.287 1801.51 626.515 1806.71 607.015 1807.57C587.522 1808.43 570.169 1804.51 557.933 1798C545.459 1791.36 540.022 1783.15 539.7 1775.87C539.379 1768.59 544.071 1759.94 555.911 1752.22C567.525 1744.66 584.464 1739.22 603.957 1738.36C623.457 1737.49 635.641 1741.64 642.871 1747.32C649.897 1752.84 653.549 1760.84 653.989 1770.82Z" fill="#DE5F8D" stroke="#DE5F8D" stroke-width="20.6021"/>
<path d="M1004.18 1761.81C1004.62 1771.79 1001.69 1780.08 995.178 1786.2C988.478 1792.5 976.706 1797.7 957.206 1798.56C937.713 1799.42 920.36 1795.5 908.124 1788.99C895.651 1782.35 890.213 1774.14 889.891 1766.86C889.57 1759.58 894.262 1750.93 906.102 1743.21C917.716 1735.65 934.655 1730.21 954.149 1729.35C973.648 1728.48 985.832 1732.63 993.062 1738.31C1000.09 1743.83 1003.74 1751.83 1004.18 1761.81Z" fill="#DE5F8D" stroke="#DE5F8D" stroke-width="20.6021"/>
<path d="M1350.89 1340.88L1273.83 1164.44C1267.67 1150.33 1260.12 1136.86 1251.28 1124.25L1139.58 964.782C1134.03 956.857 1123.38 954.43 1114.94 959.169C1105.27 964.599 1102.37 977.166 1108.67 986.286L1219.02 1145.92C1226.6 1156.89 1233.14 1168.55 1238.55 1180.73L1316.44 1356.06C1320.94 1366.19 1333.19 1370.26 1342.86 1364.83C1351.29 1360.09 1354.76 1349.74 1350.89 1340.88Z" fill="#DE5F8D" stroke="#DE5F8D" stroke-width="20.6021"/>
<path d="M303.559 1014.81L304.177 1015.11L304.83 1015.32L504.629 1081.4C514.968 1084.82 520.256 1096.27 516.151 1106.36C512.421 1115.53 502.23 1120.24 492.832 1117.14L289.856 1050.27L94.3713 954.94C85.4695 950.599 81.4551 940.102 85.1885 930.929C89.2912 920.848 101.064 916.338 110.851 921.098L303.559 1014.81Z" fill="#DE5F8D" stroke="#DE5F8D" stroke-width="20.6021"/>
<path d="M741.304 1034.6L588.658 1287.92C538.023 1371.96 523.088 1472.75 547.179 1567.85L600.72 1779.22C603.24 1789.16 611.309 1796.74 621.395 1798.63C640.649 1802.25 656.966 1784.32 651.567 1765.49L580.624 1518.03C564.335 1461.21 573.252 1400.14 605.105 1350.35L788.4 1063.85C798.99 1047.29 789.472 1025.28 770.159 1021.66C758.783 1019.53 747.278 1024.68 741.304 1034.6Z" fill="#DE5F8D" stroke="#DE5F8D" stroke-width="20.6021"/>
<path d="M1091.5 1025.59L938.849 1278.91C888.214 1362.95 873.279 1463.74 897.37 1558.84L950.911 1770.21C953.431 1780.15 961.5 1787.73 971.586 1789.62C990.84 1793.23 1007.16 1775.31 1001.76 1756.48L930.815 1509.02C914.526 1452.2 923.443 1391.13 955.296 1341.34L1138.59 1054.83C1149.18 1038.28 1139.66 1016.27 1120.35 1012.65C1108.97 1010.52 1097.47 1015.67 1091.5 1025.59Z" fill="#DE5F8D" stroke="#DE5F8D" stroke-width="20.6021"/>
<path d="M54.851 964.392C30.2962 954.398 20.0708 931.202 26.8764 914.48C33.682 897.758 57.1999 888.295 81.7548 898.288C106.31 908.282 116.535 931.479 109.729 948.201C102.924 964.922 79.4059 974.386 54.851 964.392Z" fill="#DE5F8D" stroke="#DE5F8D" stroke-width="20.6021"/>
<path d="M1314.31 1392.69C1327.3 1415.8 1351.59 1423.05 1367.33 1414.2C1383.07 1405.36 1389.52 1380.84 1376.53 1357.73C1363.55 1334.62 1339.26 1327.37 1323.52 1336.21C1307.78 1345.06 1301.33 1369.57 1314.31 1392.69Z" fill="#DE5F8D" stroke="#DE5F8D" stroke-width="20.6021"/>
<path d="M276.556 526.141C235.518 711.85 341.38 1431.27 950.807 1343.32C1332.64 1343.32 1548.28 900.236 1494.96 526.138C1449.63 208.123 1269.45 0.227173 890.372 0.227173C511.293 0.227173 344.667 217.914 276.556 526.141Z" fill="#DE5F8D"/>
<path d="M886.203 867.523C910.973 920.416 994.78 975.665 1077.48 975.591C1160.17 975.518 1237.31 912.71 1261.99 867.19C1224.87 818.774 1159.98 759.496 1077.28 759.569C994.588 759.643 905.934 814.112 886.203 867.523Z" fill="white"/>
<path d="M431.824 867.946C456.594 920.84 540.4 976.088 623.096 976.015C705.792 975.941 782.93 913.133 807.612 867.613C770.485 819.197 705.601 759.919 622.905 759.993C540.209 760.066 451.555 814.535 431.824 867.946Z" fill="white"/>
<circle r="70.1108" transform="matrix(-0.986515 0.16367 0.16367 0.986515 1060.42 848.353)" fill="black"/>
<circle r="70.1108" transform="matrix(-0.986515 0.16367 0.16367 0.986515 602.441 849.723)" fill="black"/>
<mask id="path-14-outside-1" maskUnits="userSpaceOnUse" x="796.886" y="1052.22" width="181.576" height="72.3968" fill="black">
<rect fill="white" x="796.886" y="1052.22" width="181.576" height="72.3968"/>
<path d="M807.533 1072.58C808.246 1083.57 817.233 1093.57 832.516 1100.37C847.8 1107.18 868.128 1110.25 889.029 1108.89C909.93 1107.54 929.692 1101.87 943.968 1093.14C958.243 1084.42 965.862 1073.34 965.15 1062.36L961.201 1062.61C961.878 1073.05 954.641 1083.57 941.08 1091.86C927.52 1100.15 908.748 1105.53 888.894 1106.82C869.04 1108.1 849.731 1105.19 835.213 1098.73C820.695 1092.26 812.159 1082.76 811.482 1072.33L807.533 1072.58Z"/>
</mask>
<path d="M807.533 1072.58C808.246 1083.57 817.233 1093.57 832.516 1100.37C847.8 1107.18 868.128 1110.25 889.029 1108.89C909.93 1107.54 929.692 1101.87 943.968 1093.14C958.243 1084.42 965.862 1073.34 965.15 1062.36L961.201 1062.61C961.878 1073.05 954.641 1083.57 941.08 1091.86C927.52 1100.15 908.748 1105.53 888.894 1106.82C869.04 1108.1 849.731 1105.19 835.213 1098.73C820.695 1092.26 812.159 1082.76 811.482 1072.33L807.533 1072.58Z" fill="white"/>
<path d="M807.533 1072.58C808.246 1083.57 817.233 1093.57 832.516 1100.37C847.8 1107.18 868.128 1110.25 889.029 1108.89C909.93 1107.54 929.692 1101.87 943.968 1093.14C958.243 1084.42 965.862 1073.34 965.15 1062.36L961.201 1062.61C961.878 1073.05 954.641 1083.57 941.08 1091.86C927.52 1100.15 908.748 1105.53 888.894 1106.82C869.04 1108.1 849.731 1105.19 835.213 1098.73C820.695 1092.26 812.159 1082.76 811.482 1072.33L807.533 1072.58Z" stroke="white" stroke-width="18.6865" mask="url(#path-14-outside-1)"/>
</svg>
