<svg width="3657" height="3124" viewBox="0 0 3657 3124" fill="none" xmlns="http://www.w3.org/2000/svg">
<path d="M3656.05 2021.84C3525.05 2122.94 3444.4 2133.56 3294.13 2303.9C3120.25 2501.38 3118.67 2833.01 2729.61 2947.1C2390.11 3047.02 2167.06 2806.26 1901.13 2530.49C1638.34 2257.87 910.569 2462.83 766.194 2314.13C597.823 2140.64 785.864 1926.64 584.054 1778.33C-28.8495 1327.11 -127.984 349.533 1456.2 464.797C1957.38 501.382 1978.23 394.773 2433.78 184.702C2682.8 69.832 3163.91 -76.116 3254 264.561C3310.65 479.352 3369.26 720.108 3656.05 670.934V2021.84Z" fill="#D8EFF4"/>
<path d="M2805.94 1010.43C2630.48 1010.43 2488.08 1152.84 2488.08 1328.29C2488.08 1503.74 2630.48 1646.15 2805.94 1646.15C2981.39 1646.15 3123.8 1503.74 3123.8 1328.29C3123.8 1152.84 2981.39 1010.43 2805.94 1010.43ZM2805.94 1593.04C2659.59 1593.04 2541.18 1474.63 2541.18 1328.29C2541.18 1181.95 2659.59 1063.54 2805.94 1063.54C2952.28 1063.54 3070.69 1181.95 3070.69 1328.29C3071.08 1474.63 2952.28 1593.04 2805.94 1593.04Z" fill="white"/>
<path d="M2559.67 1323.57V1332.62H2581.3C2581.3 1331.04 2581.3 1329.47 2581.3 1327.9C2581.3 1326.32 2581.3 1324.75 2581.3 1323.18H2559.67V1323.57Z" fill="white"/>
<path d="M2628.52 1157.17L2643.86 1172.51C2645.83 1170.15 2648.19 1168.18 2650.55 1165.82L2635.21 1150.48L2628.52 1157.17Z" fill="white"/>
<path d="M2810.66 1103.67V1082.03H2801.61V1103.67C2803.19 1103.67 2804.76 1103.67 2806.33 1103.67C2807.51 1103.27 2809.09 1103.27 2810.66 1103.67Z" fill="white"/>
<path d="M2983.75 1157.17L2977.06 1150.48L2961.72 1165.82C2964.08 1167.79 2966.05 1170.15 2968.41 1172.51L2983.75 1157.17Z" fill="white"/>
<path d="M2961.72 1490.37L2977.06 1505.71L2983.75 1499.02L2968.41 1483.68C2966.05 1486.04 2964.08 1488.4 2961.72 1490.37Z" fill="white"/>
<path d="M3030.96 1323.57C3030.96 1325.14 3030.96 1326.72 3030.96 1328.29C3030.96 1329.87 3030.96 1331.44 3030.96 1333.01H3052.6V1323.96H3030.96V1323.57Z" fill="white"/>
<path d="M2801.61 1552.92V1574.56H2810.66V1552.92C2809.09 1552.92 2807.51 1552.92 2805.94 1552.92C2804.37 1553.31 2803.19 1552.92 2801.61 1552.92Z" fill="white"/>
<path d="M2628.52 1499.42L2635.21 1506.1L2650.55 1490.76C2648.19 1488.79 2646.23 1486.43 2643.86 1484.07L2628.52 1499.42Z" fill="white"/>
<path d="M2971.17 1319.25H2847.25C2843.71 1305.08 2831.91 1294.07 2817.75 1291.31V1129.63C2817.75 1122.55 2812.63 1117.04 2806.34 1117.04C2800.04 1117.04 2794.93 1122.55 2794.93 1129.63V1294.46C2782.34 1300.36 2773.69 1313.34 2773.69 1328.29C2773.69 1349.14 2790.6 1366.06 2811.45 1366.06C2827.19 1366.06 2840.96 1356.22 2846.46 1342.46H2971.96C2979.04 1342.46 2984.94 1337.34 2984.94 1331.05C2984.15 1324.36 2978.25 1319.25 2971.17 1319.25Z" fill="white"/>
<path d="M3282.89 1008.86C3389.11 1071.41 3530.34 1098.55 3654.25 1052.92C3654.25 935.689 3654.25 231.912 3654.25 6.89171C3530.73 -24.1862 3468.18 61.9666 3370.62 120.582C3319.48 150.873 3267.55 182.738 3209.72 201.227C3147.96 221.29 3068.89 247.647 3007.91 267.71C2869.05 314.13 2845.44 423.887 2845.44 543.477C2845.44 836.161 3181.01 948.67 3282.89 1008.86Z" fill="#30DDD3"/>
<path opacity="0.2" d="M510.488 3123.73C767.294 3123.73 975.477 3095.55 975.477 3060.78C975.477 3026.02 767.294 2997.84 510.488 2997.84C253.682 2997.84 45.5 3026.02 45.5 3060.78C45.5 3095.55 253.682 3123.73 510.488 3123.73Z" fill="#C6C6C6"/>
<path opacity="0.2" d="M1945.19 3123.73C2310.2 3123.73 2606.09 3089.21 2606.09 3046.63C2606.09 3004.05 2310.2 2969.52 1945.19 2969.52C1580.19 2969.52 1284.3 3004.05 1284.3 3046.63C1284.3 3089.21 1580.19 3123.73 1945.19 3123.73Z" fill="#C6C6C6"/>
<path d="M1110.41 2371.17C1108.83 2364.88 1104.9 2359.37 1099.39 2355.83C1093.89 2352.68 1086.8 2351.9 1080.9 2353.47L920.4 2401.07L757.536 2425.86C751.241 2426.64 745.34 2430.58 741.8 2435.69C738.259 2441.2 736.686 2447.89 738.259 2454.18C740.62 2465.19 750.455 2472.67 761.47 2472.67C762.65 2472.67 763.83 2472.67 765.01 2472.28L930.235 2447.49H930.628L1094.28 2398.71C1105.69 2395.17 1113.16 2382.98 1110.41 2371.17Z" fill="#FF896D"/>
<path d="M1126.53 2308.23C1107.26 2300.76 1084.84 2312.95 1076.18 2335.38C1072.25 2345.21 1067.53 2359.77 1066.74 2372.35C1065.95 2386.12 1069.49 2395.17 1078.15 2398.32C1080.51 2399.11 1083.66 2399.89 1087.2 2399.89C1089.95 2399.89 1092.7 2399.5 1095.85 2399.11C1102.14 2397.93 1109.23 2395.17 1115.91 2391.63C1130.47 2383.76 1141.48 2372.75 1145.42 2362.52C1154.47 2339.7 1145.81 2315.31 1126.53 2308.23Z" fill="#FF896D"/>
<path d="M1067.93 2221.29C1066.35 2215 1062.42 2209.49 1056.91 2205.95C1051.4 2202.8 1044.32 2202.02 1038.42 2203.59L877.919 2251.19L715.055 2275.97C708.761 2276.76 702.86 2280.69 699.32 2285.81C695.779 2291.31 694.205 2298 695.779 2304.3C698.139 2315.31 707.974 2322.79 718.989 2322.79C720.169 2322.79 721.35 2322.79 722.53 2322.39L887.754 2297.61H888.147L1051.8 2248.83C1063.6 2245.29 1070.68 2233.09 1067.93 2221.29Z" fill="#FF896D"/>
<path d="M1104.12 2179.59C1100.58 2169.76 1093.1 2161.89 1084.05 2158.35C1075.01 2154.81 1064.39 2155.59 1054.94 2160.71C1045.5 2165.82 1038.03 2174.48 1033.7 2185.49C1029.77 2195.33 1025.05 2209.88 1024.26 2222.47C1023.47 2236.24 1027.01 2245.29 1035.67 2248.43C1038.03 2249.22 1041.18 2250.01 1044.72 2250.01C1047.47 2250.01 1050.22 2249.61 1053.37 2249.22C1059.66 2248.04 1066.75 2245.29 1073.43 2241.75C1087.99 2233.88 1099 2222.86 1102.94 2212.24C1107.66 2201.23 1108.05 2189.43 1104.12 2179.59Z" fill="#FF896D"/>
<path d="M65.5566 1976.21C65.5566 2206.34 141.875 2577.31 567.13 2634.35C890.498 2488.4 890.498 2206.34 890.498 1976.21C890.498 1746.07 730.781 1644.19 493.567 1644.19C256.352 1644.19 65.5566 1746.07 65.5566 1976.21Z" fill="#FF896D"/>
<path d="M602.939 1946.7C618.282 1979.75 670.996 2014.37 722.53 2014.37C774.458 2014.37 822.452 1975.03 838.188 1946.31C814.978 1916.02 774.458 1879.04 722.53 1879.04C670.603 1879.43 615.135 1913.26 602.939 1946.7Z" fill="white"/>
<path d="M318.123 1947.1C333.465 1980.14 386.18 2014.76 437.714 2014.76C489.642 2014.76 537.636 1975.42 553.371 1946.7C530.161 1916.41 489.642 1879.43 437.714 1879.43C386.18 1879.43 330.712 1913.66 318.123 1947.1Z" fill="white"/>
<path d="M791.651 1993.47C815.656 1989.48 831.887 1966.79 827.904 1942.79C823.92 1918.78 801.231 1902.55 777.226 1906.54C753.221 1910.52 736.99 1933.21 740.973 1957.21C744.957 1981.22 767.646 1997.45 791.651 1993.47Z" fill="black"/>
<path d="M504.868 1994.27C528.873 1990.28 545.104 1967.59 541.12 1943.59C537.137 1919.58 514.448 1903.35 490.443 1907.34C466.438 1911.32 450.207 1934.01 454.19 1958.01C458.174 1982.02 480.863 1998.25 504.868 1994.27Z" fill="black"/>
<path d="M514.427 2104.85C514.427 2120.98 526.622 2136.71 548.652 2148.12C570.289 2159.53 600.186 2165.82 630.87 2165.82C661.555 2165.82 691.453 2159.53 713.089 2148.12C734.726 2136.71 747.315 2120.98 747.315 2104.85H741.414C741.414 2120.19 729.612 2135.14 709.155 2145.76C688.306 2156.78 660.375 2162.68 631.264 2162.68C602.153 2162.68 573.829 2156.38 553.373 2145.76C532.523 2134.75 521.115 2120.19 521.115 2104.85H514.427Z" fill="white"/>
<path d="M498.305 3043.48C488.077 3037.58 474.308 3034.43 459.359 3034.43C445.197 3034.43 434.182 3037.58 426.708 3043.48C420.414 3048.99 416.873 3056.46 416.873 3065.9C416.873 3074.95 420.414 3082.82 426.708 3088.33C434.182 3094.62 445.197 3097.37 459.359 3097.37C473.914 3097.37 487.683 3094.23 498.305 3088.33C512.467 3080.46 514.434 3071.02 514.434 3065.9C514.434 3060.79 512.467 3051.35 498.305 3043.48Z" fill="#FF896D"/>
<path d="M471.943 2773.22L477.45 2486.44C477.45 2478.57 474.696 2470.71 468.795 2465.2C463.288 2459.3 455.42 2456.15 447.552 2456.15C431.423 2456.15 418.048 2469.13 417.654 2485.65L413.327 2777.16L417.261 3053.71C417.654 3069.84 431.03 3083.21 447.159 3083.21C455.027 3083.21 462.894 3080.07 468.402 3074.17C473.909 3068.27 477.056 3060.79 477.056 3052.92L471.943 2773.22Z" fill="#FF896D"/>
<path d="M601.361 3012.01C591.132 3006.1 577.364 3002.96 562.415 3002.96C548.253 3002.96 537.238 3006.1 529.763 3012.01C523.469 3017.51 519.929 3024.99 519.929 3034.43C519.929 3043.48 523.469 3051.34 529.763 3056.85C537.238 3063.15 547.86 3065.9 562.415 3065.9C576.971 3065.9 590.739 3062.75 601.361 3056.85C615.523 3048.98 617.49 3039.54 617.49 3034.43C617.49 3029.31 615.129 3019.87 601.361 3012.01Z" fill="#FF896D"/>
<path d="M578.155 2450.24C578.155 2442.37 575.401 2434.51 569.5 2429C563.993 2423.1 556.125 2419.95 548.257 2419.95C532.128 2419.95 518.753 2432.93 518.359 2449.46L514.032 2740.96L517.966 3017.51C518.36 3033.64 531.735 3047.02 547.864 3047.02C556.125 3047.02 563.6 3043.87 569.107 3037.97C574.614 3032.07 577.761 3024.59 577.761 3016.73L572.254 2737.42L578.155 2450.24Z" fill="#FF896D"/>
<path d="M439.678 1574.16C434.17 1574.16 429.843 1569.84 429.843 1564.33V1323.97C429.843 1318.46 434.17 1314.13 439.678 1314.13C445.185 1314.13 449.512 1318.46 449.512 1323.97V1564.33C449.512 1569.84 445.185 1574.16 439.678 1574.16Z" fill="#60B8DF"/>
<path d="M517.97 1062.76L333.469 1015.16L334.649 1010.04C335.436 1006.5 333.469 1002.57 329.928 1001.78L288.622 991.161C285.082 990.374 281.541 992.342 280.361 996.275L279.181 1001.39L257.938 995.882C249.283 993.522 241.022 998.636 239.055 1007.29L198.142 1166.22C196.175 1174.48 200.896 1183.14 209.551 1185.1L469.582 1252.37C477.843 1254.34 486.105 1249.62 488.465 1240.96L529.378 1082.03C531.345 1073.38 526.231 1064.73 517.97 1062.76Z" fill="#5FB8DE"/>
<path d="M346.056 1193.37C308.29 1183.53 285.867 1144.98 295.701 1106.82C305.536 1069.05 344.089 1045.84 381.461 1055.68C419.226 1065.51 441.649 1104.07 431.815 1142.22C421.98 1179.99 383.428 1203.2 346.056 1193.37ZM380.28 1060.79C345.269 1051.75 309.47 1072.99 300.422 1108.39C291.374 1143.41 312.224 1179.6 347.235 1188.65C382.247 1197.69 418.046 1176.45 427.094 1141.04C436.142 1105.64 415.292 1069.84 380.28 1060.79Z" fill="white"/>
<path d="M484.528 1097.77C477.84 1096.2 473.907 1089.12 475.874 1082.83C477.447 1076.14 484.135 1072.2 490.822 1073.78C497.51 1075.35 501.444 1082.04 499.477 1088.73C497.904 1095.41 491.216 1099.74 484.528 1097.77ZM489.642 1078.89C485.708 1077.71 481.774 1080.07 480.987 1084.01C479.807 1087.94 482.168 1091.87 486.102 1093.05C490.036 1093.84 493.969 1091.48 494.756 1087.55C495.543 1083.61 493.576 1079.68 489.642 1078.89Z" fill="white"/>
<path d="M397.592 1115.48C397.199 1117.05 397.985 1118.23 399.559 1118.62C400.739 1119.02 402.312 1117.84 402.706 1116.66L397.592 1115.48ZM385.003 1087.94C383.43 1087.54 382.25 1088.72 381.856 1089.9C381.463 1091.48 382.643 1092.66 383.823 1093.05L385.003 1087.94ZM388.937 1113.9C388.544 1115.08 389.724 1116.66 390.904 1116.66C392.478 1117.05 393.658 1116.26 394.051 1114.69L388.937 1113.9ZM382.643 1096.59C381.069 1096.2 379.89 1097.38 379.496 1098.56C379.103 1100.13 380.283 1101.31 381.463 1101.71L382.643 1096.59ZM402.706 1117.05C405.46 1104.07 397.592 1091.09 385.003 1087.94L383.823 1093.05C394.051 1095.41 400.346 1105.64 397.985 1115.87L402.706 1117.05ZM394.051 1114.69C396.018 1106.43 390.904 1098.17 383.036 1096.2L381.856 1101.31C387.364 1102.49 390.904 1108 389.331 1113.51L394.051 1114.69Z" fill="white"/>
<path d="M348.807 1183.14C316.942 1174.88 297.666 1141.83 305.927 1109.57C314.188 1077.32 346.84 1058.04 379.098 1066.3C410.963 1074.56 430.239 1107.61 421.978 1139.47C413.323 1171.73 380.672 1191.4 348.807 1183.14ZM377.525 1071.02C348.414 1063.55 318.123 1081.25 310.648 1110.75C303.174 1140.26 320.483 1170.55 349.987 1178.02C379.098 1185.5 408.996 1167.8 416.864 1137.9C424.338 1108.79 406.636 1078.5 377.525 1071.02Z" fill="white"/>
<path d="M306.324 1041.51L305.93 1041.91C302.783 1045.45 296.489 1045.05 290.195 1041.91L67.5354 918.382L178.472 1039.55C182.799 1044.27 184.373 1049.77 182.799 1053.71C181.226 1057.64 176.505 1059.22 170.604 1057.64L138.346 1048.99L153.688 1080.07C155.655 1084.39 155.655 1088.33 153.688 1091.08L102.547 1155.99C99.0068 1160.71 89.9588 1159.92 82.8778 1154.02C75.7968 1148.52 72.6495 1139.86 76.5834 1135.14L124.577 1074.16L103.334 1030.89C101.367 1026.56 101.367 1022.63 103.727 1019.88C106.088 1017.12 110.022 1016.34 114.742 1017.52L134.805 1022.63L4.98613 881.009C-0.127955 875.502 -1.30799 868.814 1.44575 865.274C4.59288 861.34 11.2804 861.34 17.5747 864.88L251.643 994.7L160.769 877.862C156.835 872.748 156.048 867.241 158.409 864.094C160.769 860.553 165.883 859.766 171.784 861.733L265.018 895.171L320.88 824.361C324.42 819.64 333.468 820.427 340.549 826.328C347.63 831.835 350.777 840.49 346.843 845.211L287.048 921.136C284.688 924.283 279.573 925.069 274.066 923.102L204.436 897.925L304.357 1026.56C308.291 1032.46 309.077 1037.97 306.324 1041.51Z" fill="#F1B47C"/>
<path d="M469.193 666.613C396.416 595.803 309.083 683.529 319.704 731.129C285.086 691.79 166.282 705.952 174.149 804.693C183.197 914.843 392.482 919.17 411.365 927.432C418.446 910.516 547.478 742.538 469.193 666.613Z" fill="#DE5F8D"/>
<path d="M780.757 842.85H569.506L676.902 665.824H520.725L353.141 941.985C353.141 942.378 353.141 942.378 353.534 942.378H510.497C511.284 942.378 498.695 964.015 482.96 989.979L369.27 1177.63L621.827 978.57C647.397 958.507 667.854 941.985 667.46 941.985C667.067 941.985 686.737 924.676 710.733 903.826L780.757 842.85Z" fill="#DDDF6C"/>
<path d="M720.179 932.545C726.08 901.074 708.77 869.21 678.086 858.195C655.662 849.933 632.059 855.047 614.75 868.816C609.636 864.882 603.735 861.342 597.441 858.981C566.756 847.966 533.711 860.948 517.976 888.092C511.288 881.798 503.813 876.684 495.159 873.536C460.54 860.948 421.988 879.044 409.4 913.663C396.811 948.281 414.907 986.833 449.526 999.422C463.688 1004.54 478.243 1004.14 491.619 1000.21C501.453 1024.21 520.73 1044.27 546.693 1053.71C552.594 1055.68 558.495 1057.25 564.396 1058.43C584.852 1063.94 606.095 1060.79 624.191 1051.74C632.453 1060.79 642.681 1067.87 654.876 1072.59C695.002 1087.15 739.848 1066.3 754.404 1025.78C767.386 989.981 752.044 951.035 720.179 932.545Z" fill="#30DDD3"/>
<path d="M687.927 925.466C695.008 927.826 699.335 930.58 699.728 930.973C702.482 932.547 702.876 935.693 701.695 938.447C700.122 940.808 697.762 941.595 695.401 940.808C695.008 940.808 694.615 940.414 694.615 940.414H694.221C693.435 940.021 689.894 938.054 684.387 936.087C679.272 934.12 672.585 932.546 665.504 932.546C658.423 932.546 651.341 934.12 644.26 939.234C642.687 940.414 640.72 940.414 639.54 940.021C638.36 939.627 637.573 938.841 637.18 938.054C635.606 935.694 635.999 932.546 638.359 930.579C647.014 923.892 656.849 921.925 665.504 921.532C674.158 921.138 682.026 923.499 687.927 925.466Z" fill="white"/>
<path d="M1918.45 2347.57L1759.12 2296.43H1758.73L1590.36 2267.32C1578.16 2265.35 1566.36 2272.82 1563.61 2285.02C1562.03 2291.31 1563.21 2298 1566.75 2303.51C1570.3 2309.02 1576.2 2312.56 1582.49 2313.74L1747.71 2342.45L1904.28 2392.41C1906.64 2393.2 1909 2393.6 1911.37 2393.6C1915.3 2393.6 1919.23 2392.41 1922.77 2390.45C1928.28 2387.3 1932.61 2381.79 1934.18 2375.5C1937.33 2363.7 1930.25 2351.5 1918.45 2347.57Z" fill="#833E78"/>
<path d="M1312.23 1805.87C1306.73 1816.88 1306.73 1831.83 1306.73 1860.94V2386.51C1306.73 2415.62 1306.73 2430.57 1312.23 2441.59C1317.35 2451.42 1325.22 2459.29 1335.05 2464.4C1346.07 2469.91 1361.01 2469.91 1390.13 2469.91H1458.58L1461.72 2469.12H1462.12H1493.19H1493.59L1496.73 2469.91H1565.18C1594.3 2469.91 1609.24 2469.91 1620.26 2464.4C1630.09 2459.29 1637.96 2451.42 1643.08 2441.59C1648.58 2430.57 1648.58 2415.62 1648.58 2386.51V1860.94C1648.58 1831.83 1648.58 1816.88 1643.08 1805.87C1637.96 1796.03 1630.09 1788.16 1620.26 1783.05C1609.24 1777.54 1594.3 1777.54 1565.18 1777.54H1390.91C1361.8 1777.54 1346.85 1777.54 1335.84 1783.05C1325.22 1788.16 1317.35 1796.03 1312.23 1805.87Z" fill="#BCBEC0"/>
<path d="M1357.87 1781.48H1596.66C1623.01 1781.48 1644.26 1802.72 1644.26 1829.08V2418.77C1644.26 2445.13 1623.01 2466.38 1596.66 2466.38H1357.87C1331.51 2466.38 1310.27 2445.13 1310.27 2418.77V1829.08C1310.66 1802.72 1331.9 1781.48 1357.87 1781.48Z" fill="#BCBEC0"/>
<path d="M1310.27 1843.24H1306.33V1848.75H1310.27V1843.24Z" fill="#BCBEC0"/>
<g opacity="0.05">
<path opacity="0.05" d="M1310.27 2398.71H1306.33V2404.22H1310.27V2398.71Z" fill="black"/>
</g>
<g opacity="0.05">
<path opacity="0.05" d="M1377.93 2465.98H1372.42V2469.91H1377.93V2465.98Z" fill="black"/>
</g>
<g opacity="0.05">
<path opacity="0.05" d="M1647.79 2398.71H1643.85V2404.22H1647.79V2398.71Z" fill="black"/>
</g>
<g opacity="0.05">
<path opacity="0.05" d="M1647.79 1843.24H1643.85V1848.75H1647.79V1843.24Z" fill="black"/>
</g>
<g opacity="0.05">
<path opacity="0.05" d="M1582.89 1777.54H1577.38V1781.48H1582.89V1777.54Z" fill="black"/>
</g>
<path d="M1647.01 1938.05C1647.01 1937.26 1647.8 1936.87 1648.19 1937.26L1649.37 1937.65C1649.76 1938.05 1650.16 1938.44 1650.16 1939.23V2015.15C1650.16 2015.94 1649.76 2016.33 1649.37 2016.72L1648.19 2017.12C1647.8 2017.51 1647.01 2017.12 1647.01 2016.33V1938.05Z" fill="#BCBEC0"/>
<path d="M1303.97 1984.86C1303.97 1984.07 1304.36 1983.68 1304.76 1983.29L1305.94 1982.89C1306.33 1982.5 1307.12 1982.89 1307.12 1983.68V2033.25C1307.12 2034.03 1306.33 2034.43 1305.94 2034.03L1304.76 2033.64C1304.36 2033.25 1303.97 2032.85 1303.97 2032.07V1984.86Z" fill="#BCBEC0"/>
<path d="M1303.97 1922.31C1303.97 1921.52 1304.36 1921.13 1304.76 1920.74L1305.94 1920.34C1306.33 1919.95 1307.12 1920.34 1307.12 1921.13V1970.7C1307.12 1971.48 1306.33 1971.48 1305.94 1971.48L1304.76 1971.09C1304.36 1970.7 1303.97 1970.3 1303.97 1969.52V1922.31Z" fill="#BCBEC0"/>
<path d="M1303.97 1873.14C1303.97 1872.35 1304.76 1871.56 1305.54 1871.56H1306.33C1306.72 1871.56 1307.12 1871.96 1307.12 1872.35V1896.35C1307.12 1896.74 1306.72 1897.13 1306.33 1897.13H1305.54C1304.76 1897.13 1303.97 1896.35 1303.97 1895.56V1873.14Z" fill="#BCBEC0"/>
<g opacity="0.08">
<g opacity="0.08">
<path opacity="0.08" d="M1517.97 1805.48C1517.97 1807.84 1516.01 1809.41 1514.04 1809.41C1511.68 1809.41 1510.11 1807.44 1510.11 1805.48C1510.11 1803.12 1512.07 1801.54 1514.04 1801.54C1516.01 1801.54 1517.97 1803.51 1517.97 1805.48ZM1458.97 1802.33C1457 1802.33 1455.82 1803.9 1455.82 1805.48C1455.82 1807.44 1457.39 1808.62 1458.97 1808.62H1495.16C1497.13 1808.62 1498.31 1807.05 1498.31 1805.48C1498.31 1803.51 1496.73 1802.33 1495.16 1802.33H1458.97Z" fill="black"/>
</g>
</g>
<path d="M1329.94 1814.92C1326.4 1821.6 1326.4 1830.65 1326.4 1848.75V2398.32C1326.4 2416.41 1326.4 2425.46 1329.94 2432.15C1333.09 2438.05 1337.81 2443.16 1344.1 2446.31C1350.79 2449.85 1359.84 2449.85 1377.93 2449.85H1576.6C1594.69 2449.85 1603.74 2449.85 1610.43 2446.31C1616.33 2443.16 1621.44 2438.44 1624.59 2432.15C1628.13 2425.46 1628.13 2416.41 1628.13 2398.32V1848.75C1628.13 1830.65 1628.13 1821.6 1624.59 1814.92C1621.44 1809.02 1616.72 1803.9 1610.43 1800.75C1603.74 1797.21 1594.69 1797.21 1576.6 1797.21H1377.93C1359.84 1797.21 1350.79 1797.21 1344.1 1800.75C1338.2 1804.29 1333.09 1809.02 1329.94 1814.92ZM1561.25 1802.33V1797.61H1565.97C1563.22 1797.61 1561.25 1799.57 1561.25 1802.33ZM1393.28 1797.61H1561.25V1803.9C1561.25 1813.74 1553.39 1821.6 1543.55 1821.6H1410.98C1401.14 1821.6 1393.28 1813.74 1393.28 1803.9V1797.61ZM1393.28 1802.33V1797.61H1388.56C1390.92 1797.61 1393.28 1799.57 1393.28 1802.33Z" fill="white"/>
<mask id="mask0" mask-type="alpha" maskUnits="userSpaceOnUse" x="1326" y="1797" width="303" height="653">
<path d="M1329.94 1814.92C1326.4 1821.6 1326.4 1830.65 1326.4 1848.75V2398.32C1326.4 2416.41 1326.4 2425.46 1329.94 2432.15C1333.09 2438.05 1337.81 2443.16 1344.1 2446.31C1350.79 2449.85 1359.84 2449.85 1377.93 2449.85H1576.6C1594.69 2449.85 1603.74 2449.85 1610.43 2446.31C1616.33 2443.16 1621.44 2438.44 1624.59 2432.15C1628.13 2425.46 1628.13 2416.41 1628.13 2398.32V1848.75C1628.13 1830.65 1628.13 1821.6 1624.59 1814.92C1621.44 1809.02 1616.72 1803.9 1610.43 1800.75C1603.74 1797.21 1594.69 1797.21 1576.6 1797.21H1377.93C1359.84 1797.21 1350.79 1797.21 1344.1 1800.75C1338.2 1804.29 1333.09 1809.02 1329.94 1814.92ZM1561.25 1802.33V1797.61H1565.97C1563.22 1797.61 1561.25 1799.57 1561.25 1802.33ZM1393.28 1797.61H1561.25V1803.9C1561.25 1813.74 1553.39 1821.6 1543.55 1821.6H1410.98C1401.14 1821.6 1393.28 1813.74 1393.28 1803.9V1797.61ZM1393.28 1802.33V1797.61H1388.56C1390.92 1797.61 1393.28 1799.57 1393.28 1802.33Z" fill="white"/>
</mask>
<g mask="url(#mask0)">
<path d="M1358.26 1797.21H1595.47C1613.17 1797.21 1627.73 1811.77 1627.73 1829.47V2417.59C1627.73 2435.29 1613.17 2449.85 1595.47 2449.85H1358.26C1340.55 2449.85 1326 2435.29 1326 2417.59V1829.47C1326 1811.77 1340.55 1797.21 1358.26 1797.21Z" fill="white"/>
<path d="M1399.18 2412.48H1401.93V2413.27H1398V2405.4H1399.18V2412.48ZM1405.47 2413.27C1405.08 2413.27 1404.29 2413.27 1403.9 2412.87C1403.5 2412.48 1403.11 2412.08 1402.72 2411.69C1402.32 2411.3 1402.32 2410.51 1402.32 2410.12C1402.32 2409.33 1402.32 2408.94 1402.72 2408.54C1403.11 2408.15 1403.5 2407.76 1403.9 2407.36C1404.29 2406.97 1405.08 2406.97 1405.47 2406.97C1405.86 2406.97 1406.65 2406.97 1407.04 2407.36C1407.44 2407.76 1407.83 2408.15 1408.22 2408.54C1408.62 2408.94 1408.62 2409.73 1408.62 2410.12C1408.62 2410.91 1408.62 2411.3 1408.22 2411.69C1407.83 2412.08 1407.44 2412.48 1407.04 2412.87C1406.65 2413.27 1406.26 2413.27 1405.47 2413.27ZM1405.47 2412.48C1405.86 2412.48 1406.26 2412.48 1406.65 2412.09C1407.04 2412.09 1407.04 2411.69 1407.44 2411.3C1407.83 2410.91 1407.83 2410.51 1407.83 2410.12C1407.83 2409.73 1407.83 2409.33 1407.44 2408.94C1407.44 2408.54 1407.04 2408.15 1406.65 2408.15C1406.26 2408.15 1405.86 2407.76 1405.47 2407.76C1405.08 2407.76 1404.68 2407.76 1404.29 2408.15C1403.9 2408.15 1403.9 2408.54 1403.5 2408.94C1403.5 2409.33 1403.11 2409.73 1403.11 2410.12C1403.11 2410.51 1403.11 2410.91 1403.5 2411.3C1403.5 2411.69 1403.9 2412.09 1404.29 2412.09C1405.08 2412.48 1405.47 2412.48 1405.47 2412.48ZM1411.37 2408.15C1411.37 2407.76 1411.76 2407.36 1412.16 2407.36C1412.55 2406.97 1412.94 2406.97 1413.34 2406.97V2408.15H1412.94C1411.76 2408.15 1411.37 2408.94 1411.37 2410.12V2413.66H1410.19V2407.36H1411.37V2408.15ZM1420.03 2410.12C1420.03 2410.51 1420.03 2410.51 1420.03 2410.9H1414.91C1414.91 2411.69 1415.3 2412.08 1415.7 2412.48C1416.09 2412.87 1416.48 2412.87 1417.27 2412.87C1417.66 2412.87 1418.06 2412.87 1418.45 2412.48C1418.85 2412.08 1418.84 2412.08 1419.24 2411.69H1420.42C1420.42 2412.48 1420.03 2412.87 1419.24 2413.27C1418.84 2413.66 1418.06 2413.66 1417.27 2413.66C1416.88 2413.66 1416.09 2413.66 1415.7 2413.27C1415.3 2412.87 1414.91 2412.48 1414.52 2412.09C1414.12 2411.69 1414.12 2410.9 1414.12 2410.51C1414.12 2409.72 1414.12 2409.33 1414.52 2408.94C1414.91 2408.54 1415.3 2408.15 1415.7 2407.76C1416.09 2407.36 1416.88 2407.36 1417.27 2407.36C1417.66 2407.36 1418.45 2407.36 1418.85 2407.76C1419.24 2408.15 1419.63 2408.54 1420.03 2408.94C1420.03 2408.94 1420.03 2409.33 1420.03 2410.12ZM1419.24 2409.72C1419.24 2409.33 1419.24 2408.94 1418.85 2408.54C1418.85 2408.15 1418.45 2408.15 1418.06 2407.76C1417.67 2407.76 1417.27 2407.36 1417.27 2407.36C1416.88 2407.36 1416.48 2407.36 1416.09 2407.76C1415.7 2408.15 1415.7 2408.54 1415.3 2408.94H1419.24V2409.72ZM1429.07 2406.97C1429.47 2406.97 1429.86 2406.97 1430.25 2407.36C1430.65 2407.76 1431.04 2407.76 1431.04 2408.15C1431.43 2408.54 1431.43 2408.94 1431.43 2409.72V2413.27H1430.25V2409.72C1430.25 2408.94 1430.25 2408.54 1429.86 2408.15C1429.47 2407.76 1429.07 2407.76 1428.68 2407.76C1428.29 2407.76 1427.89 2407.76 1427.5 2408.15C1427.11 2408.54 1427.11 2408.94 1427.11 2409.72V2413.27H1425.93V2409.72C1425.93 2408.94 1425.93 2408.54 1425.53 2408.15C1425.14 2407.76 1424.75 2407.76 1424.35 2407.76C1423.96 2407.76 1423.57 2407.76 1423.17 2408.15C1422.78 2408.54 1422.78 2408.94 1422.78 2409.72V2413.27H1421.6V2406.97H1422.78V2407.76C1423.17 2407.36 1423.17 2407.36 1423.57 2406.97C1423.96 2406.97 1424.35 2406.58 1424.75 2406.58C1425.14 2406.58 1425.53 2406.58 1425.93 2406.97C1426.32 2407.36 1426.71 2407.36 1426.71 2408.15C1426.71 2407.76 1427.11 2407.36 1427.5 2406.97C1428.29 2406.97 1428.68 2406.97 1429.07 2406.97ZM1436.94 2406.18C1436.55 2406.18 1436.55 2406.18 1436.55 2405.79L1436.15 2405.4C1436.15 2405.4 1436.15 2405 1436.55 2405L1436.94 2404.61C1436.94 2404.61 1437.33 2404.61 1437.33 2405L1437.73 2405.4C1437.73 2405.79 1437.73 2405.79 1437.33 2405.79C1437.33 2406.18 1437.33 2406.18 1436.94 2406.18ZM1437.33 2406.97V2413.27H1436.15V2406.97H1437.33ZM1440.48 2408.15C1440.87 2407.76 1440.87 2407.36 1441.27 2407.36C1441.66 2406.97 1442.06 2406.97 1442.84 2406.97C1443.24 2406.97 1444.02 2406.97 1444.42 2407.36C1444.81 2407.76 1445.2 2408.15 1445.6 2408.54C1445.99 2408.94 1445.99 2409.73 1445.99 2410.12C1445.99 2410.91 1445.99 2411.3 1445.6 2411.69C1445.2 2412.08 1444.81 2412.48 1444.42 2412.87C1444.02 2413.27 1443.63 2413.27 1442.84 2413.27C1442.45 2413.27 1441.66 2413.27 1441.27 2412.87C1440.87 2412.48 1440.48 2412.48 1440.48 2412.09V2416.02H1439.3V2406.97H1440.48V2408.15ZM1444.42 2410.12C1444.42 2409.73 1444.42 2409.33 1444.02 2408.94C1444.02 2408.54 1443.63 2408.15 1443.24 2408.15C1442.84 2408.15 1442.45 2407.76 1442.06 2407.76C1441.66 2407.76 1441.27 2407.76 1440.87 2408.15C1440.48 2408.15 1440.48 2408.54 1440.09 2408.94C1439.69 2409.33 1439.69 2409.73 1439.69 2410.12C1439.69 2410.51 1439.69 2410.91 1440.09 2411.3C1440.09 2411.69 1440.48 2412.09 1440.87 2412.09C1441.27 2412.09 1441.66 2412.48 1442.06 2412.48C1442.45 2412.48 1442.84 2412.48 1443.24 2412.09C1443.63 2412.09 1443.63 2411.69 1444.02 2411.3C1444.42 2410.91 1444.42 2410.51 1444.42 2410.12ZM1449.14 2413.27C1448.74 2413.27 1448.35 2413.27 1447.96 2412.87C1447.56 2412.87 1447.17 2412.48 1447.17 2412.09C1446.78 2411.69 1446.78 2411.3 1446.78 2410.9H1447.96C1447.96 2411.3 1447.96 2411.3 1448.35 2411.69C1448.74 2412.08 1449.14 2412.09 1449.53 2412.09C1449.92 2412.09 1450.32 2412.08 1450.32 2411.69C1450.71 2411.69 1450.71 2411.3 1450.71 2410.9C1450.71 2410.51 1450.71 2410.51 1450.32 2410.12C1449.92 2410.12 1449.53 2409.72 1449.14 2409.72C1448.74 2409.72 1448.35 2409.33 1447.96 2409.33C1447.56 2409.33 1447.56 2408.94 1447.17 2408.94C1446.78 2408.54 1446.78 2408.54 1446.78 2408.15C1446.78 2407.76 1446.78 2407.36 1447.17 2407.36C1447.17 2406.97 1447.56 2406.97 1447.96 2406.58C1448.35 2406.58 1448.74 2406.18 1449.14 2406.18C1449.92 2406.18 1450.32 2406.18 1450.71 2406.58C1451.1 2406.97 1451.5 2407.36 1451.5 2408.15H1450.32C1450.32 2407.76 1450.32 2407.76 1449.92 2407.36C1449.53 2407.36 1449.53 2406.97 1449.14 2406.97C1448.74 2406.97 1448.35 2406.97 1448.35 2407.36C1447.96 2407.36 1447.96 2407.76 1447.96 2408.15C1447.96 2408.54 1447.96 2408.54 1447.96 2408.54L1448.35 2408.94C1448.74 2408.94 1448.74 2408.94 1449.14 2409.33C1449.53 2409.33 1449.92 2409.72 1450.32 2409.72C1450.71 2409.72 1450.71 2410.12 1451.1 2410.12C1451.5 2410.51 1451.5 2410.51 1451.5 2410.9C1451.5 2411.3 1451.5 2411.69 1451.1 2411.69C1451.1 2412.08 1450.71 2412.08 1450.32 2412.48C1449.92 2413.26 1449.53 2413.27 1449.14 2413.27ZM1458.58 2406.97V2413.27H1457.4V2412.48C1457.4 2412.87 1457 2412.87 1456.61 2413.27C1456.22 2413.27 1455.82 2413.66 1455.43 2413.66C1455.04 2413.66 1454.64 2413.66 1454.25 2413.27C1453.86 2412.87 1453.46 2412.87 1453.46 2412.48C1453.07 2412.08 1453.07 2411.69 1453.07 2410.9V2407.36H1454.25V2410.9C1454.25 2411.69 1454.25 2412.08 1454.64 2412.48C1455.04 2412.87 1455.43 2412.87 1455.82 2412.87C1456.22 2412.87 1456.61 2412.87 1457 2412.48C1457.4 2412.08 1457.4 2411.69 1457.4 2410.9V2407.36H1458.58V2406.97ZM1467.63 2406.97C1468.02 2406.97 1468.41 2406.97 1468.81 2407.36C1469.2 2407.76 1469.59 2407.76 1469.59 2408.15C1469.99 2408.54 1469.99 2408.94 1469.99 2409.72V2413.27H1468.81V2409.72C1468.81 2408.94 1468.81 2408.54 1468.41 2408.15C1468.02 2407.76 1467.63 2407.76 1467.23 2407.76C1466.84 2407.76 1466.45 2407.76 1466.05 2408.15C1465.66 2408.54 1465.66 2408.94 1465.66 2409.72V2413.27H1464.48V2409.72C1464.48 2408.94 1464.48 2408.54 1464.09 2408.15C1463.69 2407.76 1463.3 2407.76 1462.9 2407.76C1462.51 2407.76 1462.12 2407.76 1461.72 2408.15C1461.33 2408.54 1461.33 2408.94 1461.33 2409.72V2413.27H1460.15V2406.97H1461.33V2407.76C1461.72 2407.36 1461.72 2407.36 1462.12 2406.97C1462.51 2406.97 1462.91 2406.58 1463.3 2406.58C1463.69 2406.58 1464.08 2406.58 1464.48 2406.97C1464.87 2407.36 1465.27 2407.36 1465.27 2408.15C1465.27 2407.76 1465.66 2407.36 1466.05 2406.97C1466.84 2406.97 1467.23 2406.97 1467.63 2406.97ZM1474.71 2410.12C1474.71 2409.33 1474.71 2408.94 1475.1 2408.54C1475.49 2408.15 1475.89 2407.76 1476.28 2407.36C1476.67 2406.97 1477.07 2406.97 1477.85 2406.97C1478.25 2406.97 1478.64 2406.97 1479.03 2407.36C1479.43 2407.76 1479.82 2407.76 1479.82 2408.15V2405H1481V2413.27H1479.82V2412.09C1479.43 2412.48 1479.43 2412.87 1479.03 2412.87C1478.64 2413.27 1478.25 2413.27 1477.46 2413.27C1477.07 2413.27 1476.28 2413.27 1475.89 2412.87C1475.49 2412.48 1475.1 2412.08 1474.71 2411.69C1475.1 2411.3 1474.71 2410.91 1474.71 2410.12ZM1479.82 2410.12C1479.82 2409.73 1479.82 2409.33 1479.43 2408.94C1479.43 2408.54 1479.03 2408.15 1478.64 2408.15C1478.25 2408.15 1477.85 2407.76 1477.46 2407.76C1477.07 2407.76 1476.67 2407.76 1476.28 2408.15C1475.89 2408.15 1475.89 2408.54 1475.49 2408.94C1475.49 2409.33 1475.1 2409.73 1475.1 2410.12C1475.1 2410.51 1475.1 2410.91 1475.49 2411.3C1475.49 2411.69 1475.89 2412.09 1476.28 2412.09C1476.67 2412.09 1477.07 2412.48 1477.46 2412.48C1477.85 2412.48 1478.25 2412.48 1478.64 2412.09C1479.03 2412.09 1479.03 2411.69 1479.43 2411.3C1479.82 2410.91 1479.82 2410.51 1479.82 2410.12ZM1485.72 2413.27C1485.33 2413.27 1484.54 2413.27 1484.15 2412.87C1483.75 2412.48 1483.36 2412.08 1482.97 2411.69C1482.57 2411.3 1482.57 2410.51 1482.57 2410.12C1482.57 2409.33 1482.57 2408.94 1482.97 2408.54C1483.36 2408.15 1483.75 2407.76 1484.15 2407.36C1484.54 2406.97 1485.33 2406.97 1485.72 2406.97C1486.11 2406.97 1486.9 2406.97 1487.3 2407.36C1487.69 2407.76 1488.08 2408.15 1488.48 2408.54C1488.87 2408.94 1488.87 2409.73 1488.87 2410.12C1488.87 2410.91 1488.87 2411.3 1488.48 2411.69C1488.08 2412.08 1487.69 2412.48 1487.3 2412.87C1486.51 2413.27 1486.11 2413.27 1485.72 2413.27ZM1485.72 2412.48C1486.11 2412.48 1486.51 2412.48 1486.9 2412.09C1487.3 2412.09 1487.3 2411.69 1487.69 2411.3C1488.08 2410.91 1488.08 2410.51 1488.08 2410.12C1488.08 2409.73 1488.08 2409.33 1487.69 2408.94C1487.3 2408.54 1487.3 2408.15 1486.9 2408.15C1486.51 2408.15 1486.11 2407.76 1485.72 2407.76C1485.33 2407.76 1484.93 2407.76 1484.54 2408.15C1484.15 2408.15 1484.15 2408.54 1483.75 2408.94C1483.75 2409.33 1483.36 2409.73 1483.36 2410.12C1483.36 2410.51 1483.36 2410.91 1483.75 2411.3C1483.75 2411.69 1484.15 2412.09 1484.54 2412.09C1484.93 2412.48 1485.33 2412.48 1485.72 2412.48ZM1491.23 2405V2413.27H1490.05V2405H1491.23ZM1495.95 2413.27C1495.56 2413.27 1494.77 2413.27 1494.38 2412.87C1493.98 2412.48 1493.59 2412.08 1493.2 2411.69C1492.8 2411.3 1492.8 2410.51 1492.8 2410.12C1492.8 2409.33 1492.8 2408.94 1493.2 2408.54C1493.59 2408.15 1493.98 2407.76 1494.38 2407.36C1494.77 2406.97 1495.56 2406.97 1495.95 2406.97C1496.74 2406.97 1497.13 2406.97 1497.52 2407.36C1497.92 2407.76 1498.31 2408.15 1498.7 2408.54C1499.1 2408.94 1499.1 2409.73 1499.1 2410.12C1499.1 2410.91 1499.1 2411.3 1498.7 2411.69C1498.31 2412.08 1497.92 2412.48 1497.52 2412.87C1496.74 2413.27 1496.34 2413.27 1495.95 2413.27ZM1495.95 2412.48C1496.34 2412.48 1496.74 2412.48 1497.13 2412.09C1497.52 2412.09 1497.52 2411.69 1497.92 2411.3C1498.31 2410.91 1498.31 2410.51 1498.31 2410.12C1498.31 2409.73 1498.31 2409.33 1497.92 2408.94C1497.52 2408.54 1497.52 2408.15 1497.13 2408.15C1496.74 2408.15 1496.34 2407.76 1495.95 2407.76C1495.56 2407.76 1495.16 2407.76 1494.77 2408.15C1494.38 2408.15 1494.38 2408.54 1493.98 2408.94C1493.98 2409.33 1493.59 2409.73 1493.59 2410.12C1493.59 2410.51 1493.59 2410.91 1493.98 2411.3C1493.98 2411.69 1494.38 2412.09 1494.77 2412.09C1495.16 2412.48 1495.56 2412.48 1495.95 2412.48ZM1501.46 2408.15C1501.46 2407.76 1501.85 2407.36 1502.24 2407.36C1502.64 2406.97 1503.03 2406.97 1503.42 2406.97V2408.15H1503.03C1501.85 2408.15 1501.46 2408.94 1501.46 2410.12V2413.66H1500.28V2407.36H1501.46V2408.15ZM1510.11 2413.27C1509.72 2413.27 1509.33 2413.27 1508.93 2412.87C1508.54 2412.87 1508.14 2412.48 1508.14 2412.09C1507.75 2411.69 1507.75 2411.3 1507.75 2410.9H1508.93C1508.93 2411.3 1508.93 2411.3 1509.33 2411.69C1509.72 2412.08 1510.11 2412.09 1510.51 2412.09C1510.9 2412.09 1511.29 2412.08 1511.29 2411.69C1511.69 2411.69 1511.69 2411.3 1511.69 2410.9C1511.69 2410.51 1511.69 2410.51 1511.29 2410.12C1510.9 2410.12 1510.51 2409.72 1510.11 2409.72C1509.72 2409.72 1509.33 2409.33 1508.93 2409.33C1508.54 2409.33 1508.54 2408.94 1508.14 2408.94C1507.75 2408.54 1507.75 2408.54 1507.75 2408.15C1507.75 2407.76 1507.75 2407.36 1508.14 2407.36C1508.14 2406.97 1508.54 2406.97 1508.93 2406.58C1509.33 2406.58 1509.72 2406.18 1510.11 2406.18C1510.9 2406.18 1511.29 2406.18 1511.69 2406.58C1512.08 2406.97 1512.47 2407.36 1512.47 2408.15H1511.29C1511.29 2407.76 1511.29 2407.76 1510.9 2407.36C1510.51 2407.36 1510.51 2406.97 1510.11 2406.97C1509.72 2406.97 1509.33 2406.97 1509.33 2407.36C1509.33 2407.76 1508.93 2407.76 1508.93 2408.15C1508.93 2408.54 1508.93 2408.54 1508.93 2408.54L1509.33 2408.94C1509.72 2408.94 1509.72 2408.94 1510.11 2409.33C1510.51 2409.33 1510.9 2409.72 1511.29 2409.72C1511.69 2409.72 1511.69 2410.12 1512.08 2410.12C1512.47 2410.51 1512.47 2410.51 1512.47 2410.9C1512.47 2411.3 1512.47 2411.69 1512.08 2411.69C1512.08 2412.08 1511.69 2412.08 1511.29 2412.48C1510.9 2413.26 1510.51 2413.27 1510.11 2413.27ZM1514.44 2406.18C1514.44 2406.18 1514.05 2406.18 1514.05 2405.79L1513.65 2405.4C1513.65 2405.4 1513.65 2405 1514.05 2405L1514.44 2404.61C1514.44 2404.61 1514.83 2404.61 1514.83 2405L1515.23 2405.4C1515.23 2405.79 1515.23 2405.79 1514.83 2405.79C1514.83 2406.18 1514.44 2406.18 1514.44 2406.18ZM1514.83 2406.97V2413.27H1513.65V2406.97H1514.83ZM1517.98 2407.76V2411.3C1517.98 2411.69 1517.98 2411.69 1517.98 2412.09C1517.98 2412.09 1518.37 2412.09 1518.77 2412.09H1519.55V2412.87H1518.77C1518.37 2412.87 1517.59 2412.87 1517.59 2412.48C1517.19 2412.08 1517.19 2411.69 1517.19 2411.3V2407.76H1516.41V2406.97H1517.19V2405.4H1518.37V2406.97H1519.95V2407.76H1517.98ZM1523.49 2410.12C1523.49 2409.33 1523.49 2408.94 1523.88 2408.54C1524.27 2408.15 1524.67 2407.76 1525.06 2407.36C1525.45 2406.97 1525.85 2406.97 1526.63 2406.97C1527.03 2406.97 1527.81 2406.97 1528.21 2407.36C1528.6 2407.76 1528.99 2407.76 1528.99 2408.15V2406.97H1530.17V2413.27H1528.99V2412.09C1528.6 2412.48 1528.6 2412.87 1528.21 2412.87C1527.81 2413.27 1527.42 2413.27 1526.63 2413.27C1526.24 2413.27 1525.45 2413.27 1525.06 2412.87C1524.67 2412.48 1524.27 2412.08 1523.88 2411.69C1523.88 2411.3 1523.49 2410.91 1523.49 2410.12ZM1528.99 2410.12C1528.99 2409.73 1528.99 2409.33 1528.6 2408.94C1528.6 2408.54 1528.21 2408.15 1527.81 2408.15C1527.42 2408.15 1527.03 2407.76 1526.63 2407.76C1526.24 2407.76 1525.85 2407.76 1525.45 2408.15C1525.06 2408.15 1525.06 2408.54 1524.67 2408.94C1524.67 2409.33 1524.27 2409.73 1524.27 2410.12C1524.27 2410.51 1524.27 2410.91 1524.67 2411.3C1524.67 2411.69 1525.06 2412.09 1525.45 2412.09C1525.85 2412.09 1526.24 2412.48 1526.63 2412.48C1527.03 2412.48 1527.42 2412.48 1527.81 2412.09C1528.21 2412.09 1528.21 2411.69 1528.6 2411.3C1528.6 2410.91 1528.99 2410.51 1528.99 2410.12ZM1539.22 2406.97C1539.62 2406.97 1540.01 2406.97 1540.4 2407.36C1540.8 2407.76 1541.19 2407.76 1541.19 2408.15C1541.58 2408.54 1541.58 2408.94 1541.58 2409.72V2413.27H1540.4V2409.72C1540.4 2408.94 1540.4 2408.54 1540.01 2408.15C1539.62 2407.76 1539.22 2407.76 1538.83 2407.76C1538.44 2407.76 1538.04 2407.76 1537.65 2408.15C1537.26 2408.54 1537.26 2408.94 1537.26 2409.72V2413.27H1536.08V2409.72C1536.08 2408.94 1536.08 2408.54 1535.68 2408.15C1535.29 2407.76 1534.9 2407.76 1534.5 2407.76C1534.11 2407.76 1533.72 2407.76 1533.32 2408.15C1532.93 2408.54 1532.93 2408.94 1532.93 2409.72V2413.27H1531.75V2406.97H1532.93V2407.76C1533.32 2407.36 1533.32 2407.36 1533.72 2406.97C1534.11 2406.97 1534.5 2406.58 1534.9 2406.58C1535.29 2406.58 1535.68 2406.58 1536.08 2406.97C1536.47 2407.36 1536.86 2407.36 1536.86 2408.15C1536.86 2407.76 1537.26 2407.36 1537.65 2406.97C1538.04 2406.97 1538.83 2406.97 1539.22 2406.97ZM1549.06 2410.12C1549.06 2410.51 1549.06 2410.51 1549.06 2410.9H1543.94C1543.94 2411.69 1544.34 2412.08 1544.73 2412.48C1545.12 2412.87 1545.52 2412.87 1546.3 2412.87C1546.7 2412.87 1547.09 2412.87 1547.48 2412.48C1547.88 2412.08 1547.88 2412.08 1548.27 2411.69H1549.45C1549.45 2412.48 1549.06 2412.87 1548.27 2413.27C1547.88 2413.66 1547.09 2413.66 1546.3 2413.66C1545.91 2413.66 1545.12 2413.66 1544.73 2413.27C1544.34 2412.87 1543.94 2412.48 1543.55 2412.09C1543.16 2411.69 1543.16 2410.9 1543.16 2410.51C1543.16 2409.72 1543.16 2409.33 1543.55 2408.94C1543.94 2408.54 1544.34 2408.15 1544.73 2407.76C1545.12 2407.36 1545.91 2407.36 1546.3 2407.36C1546.7 2407.36 1547.48 2407.36 1547.88 2407.76C1548.27 2408.15 1548.66 2408.54 1549.06 2408.94C1549.06 2408.94 1549.06 2409.33 1549.06 2410.12ZM1547.88 2409.72C1547.88 2409.33 1547.88 2408.94 1547.48 2408.54C1547.48 2408.15 1547.09 2408.15 1546.7 2407.76C1546.3 2407.76 1545.91 2407.36 1545.91 2407.36C1545.52 2407.36 1545.12 2407.36 1544.73 2407.76C1544.34 2408.15 1544.34 2408.54 1543.94 2408.94H1547.88V2409.72ZM1551.81 2407.76V2411.3C1551.81 2411.69 1551.81 2411.69 1552.2 2412.09C1552.2 2412.09 1552.6 2412.09 1552.99 2412.09H1553.78V2412.87H1552.99C1552.6 2412.87 1551.81 2412.87 1551.81 2412.48C1551.42 2412.08 1551.42 2411.69 1551.42 2411.3V2407.76H1550.63V2406.97H1551.42V2405.4H1552.6V2406.97H1554.17V2407.76H1551.81ZM1554.96 2413.27C1554.56 2413.27 1554.57 2413.27 1554.57 2412.87L1554.17 2412.48C1554.17 2412.48 1554.17 2412.09 1554.57 2412.09L1554.96 2411.69C1554.96 2411.69 1555.35 2411.69 1555.35 2412.09L1555.75 2412.48C1555.75 2412.87 1555.75 2412.87 1555.35 2412.87C1555.35 2413.27 1555.35 2413.27 1554.96 2413.27Z" fill="#898989"/>
<path d="M1414.51 2076.13C1416.47 2076.13 1418.05 2076.52 1419.62 2077.31C1421.2 2078.09 1422.38 2079.28 1423.16 2080.85C1423.95 2082.42 1424.34 2084.39 1424.34 2086.75V2101.7H1420.41V2087.54C1420.41 2085.18 1419.62 2083.21 1418.44 2081.64C1417.26 2080.46 1415.69 2079.67 1413.33 2079.67C1410.97 2079.67 1409.39 2080.46 1408.21 2081.64C1407.03 2082.82 1406.25 2085.18 1406.25 2087.54V2101.31H1401.92V2087.14C1401.92 2084.78 1401.13 2082.82 1399.95 2081.24C1398.77 2080.06 1397.2 2079.28 1394.84 2079.28C1392.48 2079.28 1390.9 2080.06 1389.72 2081.24C1388.54 2082.42 1387.76 2084.78 1387.76 2087.14V2100.91H1383.43V2075.73H1387.76V2079.28C1388.54 2078.09 1389.72 2076.92 1390.9 2076.13C1392.48 2075.34 1394.05 2074.95 1395.62 2074.95C1397.59 2074.95 1399.56 2075.34 1401.13 2076.52C1402.71 2077.31 1403.89 2078.88 1404.67 2080.85C1405.46 2078.88 1406.64 2077.7 1408.21 2076.91C1410.97 2076.91 1412.54 2076.13 1414.51 2076.13ZM1434.18 2072.59C1433.39 2072.59 1432.6 2072.19 1432.21 2071.8C1431.82 2071.41 1431.42 2070.62 1431.42 2069.83C1431.42 2069.05 1431.82 2068.26 1432.21 2067.87C1432.6 2067.47 1433.39 2067.08 1434.18 2067.08C1434.96 2067.08 1435.75 2067.47 1436.14 2067.87C1436.54 2068.26 1436.93 2069.05 1436.93 2069.83C1436.93 2070.62 1436.54 2071.41 1436.14 2071.8C1435.75 2072.19 1434.96 2072.59 1434.18 2072.59ZM1436.14 2076.91V2102.09H1431.82V2076.91H1436.14ZM1456.21 2076.13C1459.35 2076.13 1461.71 2076.91 1463.68 2078.88C1465.65 2080.85 1466.44 2083.21 1466.44 2086.75V2101.7H1462.5V2087.54C1462.5 2085.18 1461.71 2083.21 1460.53 2081.64C1459.35 2080.46 1457.39 2079.67 1455.42 2079.67C1453.06 2079.67 1451.49 2080.46 1450.31 2081.64C1449.13 2082.82 1448.34 2085.18 1448.34 2087.54V2101.31H1444.01V2076.13H1448.34V2079.67C1449.13 2078.49 1450.31 2077.31 1451.88 2076.52C1452.67 2076.52 1454.24 2076.13 1456.21 2076.13ZM1529.38 2076.13C1531.34 2076.13 1532.92 2076.52 1534.49 2077.31C1536.07 2078.09 1537.25 2079.28 1538.03 2080.85C1538.82 2082.42 1539.21 2084.39 1539.21 2086.75V2101.7H1534.89V2087.54C1534.89 2085.18 1534.1 2083.21 1532.92 2081.64C1531.74 2080.46 1530.16 2079.67 1527.8 2079.67C1525.44 2079.67 1523.87 2080.46 1522.69 2081.64C1521.51 2082.82 1520.72 2085.18 1520.72 2087.54V2101.31H1516.79V2087.14C1516.79 2084.78 1516 2082.82 1514.82 2081.24C1513.64 2080.06 1512.07 2079.28 1509.71 2079.28C1507.35 2079.28 1505.77 2080.06 1504.59 2081.24C1503.41 2082.42 1502.63 2084.78 1502.63 2087.14V2100.91H1498.3V2075.73H1502.63V2079.28C1503.41 2078.09 1504.59 2076.92 1505.77 2076.13C1507.35 2075.34 1508.92 2074.95 1510.5 2074.95C1512.46 2074.95 1514.43 2075.34 1516 2076.52C1517.58 2077.31 1518.76 2078.88 1519.54 2080.85C1520.33 2078.88 1521.51 2077.7 1523.08 2076.91C1525.44 2076.91 1527.41 2076.13 1529.38 2076.13ZM1569.9 2088.32C1569.9 2089.11 1569.9 2089.9 1569.9 2090.68H1549.83C1549.83 2093.04 1551.01 2095.01 1552.19 2096.58C1553.77 2098.16 1555.74 2098.55 1557.7 2098.55C1559.67 2098.55 1560.85 2098.16 1562.03 2097.37C1563.21 2096.58 1564 2095.4 1564.78 2093.83H1569.11C1568.32 2096.19 1567.14 2098.16 1565.18 2099.73C1563.21 2101.31 1560.46 2102.09 1557.7 2102.09C1555.34 2102.09 1552.98 2101.7 1551.41 2100.52C1549.44 2099.34 1548.26 2097.76 1547.08 2095.8C1545.9 2093.83 1545.51 2091.47 1545.51 2088.72C1545.51 2085.96 1545.9 2084 1547.08 2082.03C1548.26 2080.06 1549.44 2078.49 1551.41 2077.7C1553.37 2076.52 1555.34 2076.13 1558.1 2076.13C1560.46 2076.13 1562.42 2076.52 1564.39 2077.7C1566.36 2078.88 1567.54 2080.06 1568.72 2082.03C1569.5 2084 1569.9 2085.96 1569.9 2088.32ZM1565.57 2087.54C1565.57 2085.96 1565.18 2084.39 1564.39 2083.6C1563.6 2082.42 1562.82 2081.64 1561.64 2080.85C1560.46 2080.06 1559.28 2080.06 1557.7 2080.06C1555.74 2080.06 1553.77 2080.85 1552.19 2082.03C1550.62 2083.21 1549.83 2085.18 1549.83 2087.54H1565.57Z" fill="#5FB8DE"/>
<path d="M1479.82 2101.7C1479.82 2102.09 1479.82 2102.09 1479.42 2102.49C1479.42 2102.49 1479.03 2102.88 1478.24 2102.88C1477.85 2102.88 1477.06 2102.88 1477.06 2102.49C1476.67 2102.49 1476.67 2102.09 1476.67 2101.7C1476.67 2101.7 1476.67 2101.31 1477.06 2100.91C1477.46 2100.91 1477.85 2100.52 1478.24 2100.52C1478.64 2100.52 1479.03 2100.52 1479.42 2100.91C1479.42 2101.31 1479.82 2101.7 1479.82 2101.7Z" fill="#FF896D"/>
<path d="M1478.25 2104.06C1477.46 2104.06 1476.67 2104.06 1476.28 2103.66C1475.49 2103.27 1475.1 2102.48 1475.1 2101.7C1475.1 2100.91 1475.49 2100.12 1476.28 2099.73C1477.46 2098.94 1479.43 2098.94 1480.21 2099.73C1480.61 2100.12 1481 2100.91 1481 2101.3C1481 2101.7 1480.61 2102.48 1480.21 2102.88C1479.82 2104.06 1479.03 2104.06 1478.25 2104.06Z" fill="#FF896D"/>
<path d="M1484.13 2101.7C1484.13 2102.09 1484.13 2102.09 1484.53 2102.49C1484.53 2102.49 1484.92 2102.88 1485.71 2102.88C1486.5 2102.88 1486.89 2102.88 1486.89 2102.49C1487.28 2102.49 1487.28 2102.09 1487.28 2101.7C1487.28 2101.7 1487.28 2101.31 1486.89 2100.91C1486.5 2100.91 1486.1 2100.52 1485.71 2100.52C1485.32 2100.52 1484.92 2100.52 1484.53 2100.91C1484.13 2101.31 1484.13 2101.7 1484.13 2101.7Z" fill="#FF896D"/>
<path d="M1485.32 2104.06C1484.53 2104.06 1483.75 2103.67 1483.35 2103.27C1482.96 2102.88 1482.57 2102.09 1482.57 2101.7C1482.57 2101.31 1482.96 2100.52 1483.35 2100.13C1484.14 2099.34 1486.11 2099.34 1487.29 2100.13C1488.08 2100.52 1488.47 2101.31 1488.47 2102.09C1488.47 2102.88 1488.08 2103.67 1487.29 2104.06C1486.89 2104.06 1486.11 2104.06 1485.32 2104.06Z" fill="#FF896D"/>
<path d="M1477.84 2100.91L1477.45 2091.08L1477.84 2081.24C1477.84 2080.85 1478.24 2080.46 1478.63 2080.46C1479.02 2080.46 1479.42 2080.85 1479.42 2081.24L1478.63 2089.9C1478.63 2090.29 1478.63 2091.08 1478.63 2091.47L1479.42 2100.13C1479.42 2100.52 1479.02 2100.91 1478.63 2100.91C1478.24 2101.7 1477.84 2101.31 1477.84 2100.91Z" fill="#FF896D"/>
<path d="M1478.63 2102.88C1477.45 2102.88 1476.27 2102.09 1476.27 2100.91L1475.88 2091.08L1476.27 2081.24C1476.27 2080.06 1477.45 2079.28 1478.63 2079.28C1479.42 2079.28 1479.81 2079.67 1480.2 2080.06C1480.6 2080.46 1480.99 2081.24 1480.6 2081.64L1479.81 2090.29C1479.81 2090.68 1479.81 2091.47 1479.81 2091.86L1480.6 2100.52C1480.6 2101.31 1480.6 2101.7 1480.2 2102.09C1479.81 2102.88 1479.42 2102.88 1478.63 2102.88Z" fill="#FF896D"/>
<path d="M1472.74 2090.29L1472.34 2085.17C1472.34 2084.78 1472.34 2084.39 1472.34 2083.99L1472.74 2078.88C1472.74 2078.49 1473.13 2078.49 1473.13 2078.49C1473.52 2078.49 1473.52 2078.88 1473.52 2078.88L1473.13 2083.99C1473.13 2084.39 1473.13 2084.78 1473.13 2085.17L1473.52 2090.29C1473.52 2090.68 1473.13 2090.68 1473.13 2090.68L1472.74 2090.29Z" fill="#FF896D"/>
<path d="M1473.13 2092.26C1471.95 2092.26 1471.16 2091.47 1471.16 2090.68L1470.77 2085.57C1470.77 2085.18 1470.77 2084.39 1470.77 2084L1471.16 2078.88C1471.16 2077.31 1473.52 2076.52 1474.7 2077.7C1475.1 2078.1 1475.1 2078.49 1475.1 2079.28L1474.7 2084.39C1474.7 2084.78 1474.7 2084.78 1474.7 2085.18L1475.1 2090.29C1475.1 2090.68 1475.1 2091.47 1474.7 2091.86C1474.31 2091.86 1473.92 2092.26 1473.13 2092.26Z" fill="#FF896D"/>
<path d="M1490.82 2084.39L1490.43 2078.88C1490.43 2078.49 1490.82 2078.49 1490.82 2078.49C1491.22 2078.49 1491.22 2078.88 1491.22 2078.88L1491.61 2084.39L1491.22 2090.29C1491.22 2090.68 1490.82 2090.68 1490.82 2090.68C1490.43 2090.68 1490.43 2090.29 1490.43 2090.29L1490.82 2084.39Z" fill="#FF896D"/>
<path d="M1490.83 2092.26C1490.43 2092.26 1489.65 2091.86 1489.25 2091.47C1488.86 2091.08 1488.86 2090.68 1488.86 2089.9L1489.25 2084.39L1488.86 2078.88C1488.86 2078.49 1488.86 2077.7 1489.25 2077.31C1490.43 2076.13 1492.4 2076.91 1492.79 2078.49L1493.19 2084L1492.79 2089.9C1492.79 2091.47 1492.01 2092.26 1490.83 2092.26ZM1490.04 2089.9C1490.04 2090.29 1490.04 2090.29 1490.04 2089.9V2089.9Z" fill="#FF896D"/>
<path d="M1484.92 2091.08L1484.13 2081.64C1484.13 2081.24 1484.53 2080.85 1484.92 2080.85C1485.32 2080.85 1485.71 2081.24 1485.71 2081.64L1486.1 2091.08L1485.71 2100.91C1485.71 2101.31 1485.32 2101.7 1484.92 2101.7C1484.53 2101.7 1484.13 2101.31 1484.13 2100.91L1484.92 2091.08Z" fill="#FF896D"/>
<path d="M1485.33 2102.88C1484.54 2102.88 1484.15 2102.49 1483.75 2102.09C1483.36 2101.7 1482.97 2100.91 1482.97 2100.52L1483.75 2091.08L1482.97 2081.64C1482.97 2080.85 1482.97 2080.46 1483.75 2080.06C1484.54 2079.67 1484.93 2079.28 1485.33 2079.28C1486.51 2079.28 1487.69 2080.06 1487.69 2081.64L1488.08 2091.08L1487.69 2100.91C1487.29 2102.09 1486.51 2102.88 1485.33 2102.88Z" fill="#FF896D"/>
<path d="M1492 2091.08C1492 2091.86 1491.61 2092.26 1491.22 2092.26C1490.82 2092.26 1490.43 2091.86 1490.43 2091.08C1490.43 2090.29 1490.82 2089.9 1491.22 2089.9C1491.61 2089.9 1492 2090.29 1492 2091.08Z" fill="#FF896D"/>
<path d="M1491.22 2093.83C1490.04 2093.83 1488.86 2092.65 1488.86 2091.08C1488.86 2089.5 1490.04 2088.32 1491.22 2088.32C1492.4 2088.32 1493.58 2089.5 1493.58 2091.08C1493.58 2092.65 1492.4 2093.83 1491.22 2093.83ZM1490.83 2091.08H1491.61H1492.01H1491.61H1490.83Z" fill="#FF896D"/>
<path d="M1474.3 2091.08C1474.3 2091.87 1473.91 2092.26 1473.52 2092.26C1473.12 2092.26 1472.73 2091.87 1472.73 2091.08C1472.73 2090.29 1473.12 2089.9 1473.52 2089.9C1473.91 2089.9 1474.3 2090.29 1474.3 2091.08Z" fill="#FF896D"/>
<path d="M1473.52 2093.44C1472.34 2093.44 1471.16 2092.26 1471.16 2090.68C1471.16 2089.11 1472.34 2087.93 1473.52 2087.93C1474.7 2087.93 1475.88 2089.11 1475.88 2090.68C1475.88 2092.26 1474.7 2093.44 1473.52 2093.44ZM1472.73 2091.08H1473.52H1473.91H1473.52C1473.91 2090.68 1472.73 2090.68 1472.73 2091.08Z" fill="#FF896D"/>
<path d="M1501.06 2058.03C1501.06 2067.87 1497.91 2084 1479.42 2086.75C1465.26 2080.46 1465.26 2068.26 1465.26 2058.03C1465.26 2048.2 1472.34 2043.48 1482.57 2043.48C1492.8 2043.48 1501.06 2047.81 1501.06 2058.03Z" fill="#FF896D"/>
<path d="M1481.39 2055.67C1480.6 2057.24 1478.24 2058.42 1476.27 2058.42C1473.91 2058.42 1471.94 2056.85 1471.16 2055.28C1472.34 2054.1 1473.91 2052.52 1476.27 2052.52C1478.24 2052.52 1480.99 2054.1 1481.39 2055.67Z" fill="white"/>
<path d="M1493.58 2055.67C1492.79 2057.24 1490.43 2058.42 1488.46 2058.42C1486.1 2058.42 1484.14 2056.85 1483.35 2055.28C1484.53 2054.1 1486.1 2052.52 1488.46 2052.52C1490.82 2052.52 1493.19 2054.1 1493.58 2055.67Z" fill="white"/>
<path d="M1478.11 2054.99C1478.28 2053.92 1477.56 2052.9 1476.49 2052.73C1475.42 2052.55 1474.4 2053.27 1474.23 2054.35C1474.05 2055.42 1474.77 2056.43 1475.84 2056.61C1476.92 2056.79 1477.93 2056.06 1478.11 2054.99Z" fill="black"/>
<path d="M1490.48 2055.27C1490.66 2054.2 1489.94 2053.19 1488.86 2053.01C1487.79 2052.83 1486.78 2053.56 1486.6 2054.63C1486.42 2055.7 1487.15 2056.71 1488.22 2056.89C1489.29 2057.07 1490.3 2056.34 1490.48 2055.27Z" fill="black"/>
<path d="M1486.5 2063.54C1486.5 2064.32 1486.11 2064.72 1484.93 2065.5C1483.75 2066.29 1482.57 2066.29 1481.39 2066.29C1480.21 2066.29 1478.64 2065.9 1477.85 2065.5C1477.06 2065.11 1476.28 2064.32 1476.28 2063.54H1476.67C1476.67 2064.32 1477.06 2064.72 1478.24 2065.5C1479.03 2065.9 1480.21 2066.29 1481.78 2066.29C1482.96 2066.29 1484.14 2065.9 1485.32 2065.5C1485.72 2064.72 1486.11 2063.93 1486.5 2063.54Z" fill="white"/>
<path d="M1545.12 2387.3H1408.61C1393.66 2387.3 1381.47 2375.1 1381.47 2360.16C1381.47 2345.21 1393.66 2333.01 1408.61 2333.01H1545.12C1560.07 2333.01 1572.26 2345.21 1572.26 2360.16C1572.26 2375.1 1559.67 2387.3 1545.12 2387.3ZM1408.22 2338.52C1396.42 2338.52 1386.58 2348.35 1386.58 2360.16C1386.58 2371.96 1396.42 2381.79 1408.22 2381.79H1544.73C1556.53 2381.79 1566.36 2371.96 1566.36 2360.16C1566.36 2348.35 1556.53 2338.52 1544.73 2338.52H1408.22Z" fill="#D9D9D9"/>
<path d="M1405.45 2372.35C1412.19 2372.35 1417.65 2366.89 1417.65 2360.16C1417.65 2353.42 1412.19 2347.96 1405.45 2347.96C1398.72 2347.96 1393.26 2353.42 1393.26 2360.16C1393.26 2366.89 1398.72 2372.35 1405.45 2372.35Z" fill="white"/>
<path d="M1405.47 2375.11C1397.21 2375.11 1390.52 2368.42 1390.52 2360.16C1390.52 2351.89 1397.21 2345.21 1405.47 2345.21C1413.73 2345.21 1420.42 2351.89 1420.42 2360.16C1420.42 2368.42 1413.34 2375.11 1405.47 2375.11ZM1405.47 2350.71C1400.36 2350.71 1396.03 2355.04 1396.03 2360.16C1396.03 2365.27 1400.36 2369.6 1405.47 2369.6C1410.58 2369.6 1414.91 2365.27 1414.91 2360.16C1414.91 2354.65 1410.58 2350.71 1405.47 2350.71Z" fill="#DE5F8D"/>
<path d="M1409.8 2357.79C1408.62 2355.04 1405.47 2356.22 1405.08 2357.79C1404.68 2356.22 1401.54 2355.43 1400.36 2357.79C1399.18 2360.55 1404.68 2363.3 1405.08 2363.7C1405.86 2363.7 1410.98 2360.94 1409.8 2357.79Z" fill="#DE5F8D"/>
<path d="M1441.26 2372.35C1448 2372.35 1453.46 2366.89 1453.46 2360.16C1453.46 2353.42 1448 2347.96 1441.26 2347.96C1434.53 2347.96 1429.07 2353.42 1429.07 2360.16C1429.07 2366.89 1434.53 2372.35 1441.26 2372.35Z" fill="white"/>
<path d="M1441.26 2375.11C1433 2375.11 1426.32 2368.42 1426.32 2360.16C1426.32 2351.89 1433 2345.21 1441.26 2345.21C1449.53 2345.21 1456.21 2351.89 1456.21 2360.16C1456.21 2368.42 1449.53 2375.11 1441.26 2375.11ZM1441.26 2350.71C1436.15 2350.71 1431.82 2355.04 1431.82 2360.16C1431.82 2365.27 1436.15 2369.6 1441.26 2369.6C1446.38 2369.6 1450.71 2365.27 1450.71 2360.16C1451.1 2354.65 1446.77 2350.71 1441.26 2350.71Z" fill="#DDDF6C"/>
<path d="M1445.99 2358.59H1441.27L1443.63 2354.66H1440.09L1436.55 2360.56H1438.51H1440.09C1440.09 2360.56 1439.69 2360.95 1439.3 2361.74L1436.94 2365.67L1442.45 2361.34C1442.84 2360.95 1443.63 2360.56 1443.63 2360.56C1443.63 2360.56 1444.02 2360.16 1444.41 2359.77L1445.99 2358.59Z" fill="#DDDF6C"/>
<path d="M1437.73 2366.06H1436.94V2365.27L1439.31 2361.34H1436.94L1436.16 2360.94V2360.16L1439.7 2354.26L1440.09 2353.86H1443.63L1444.42 2354.65V2355.04L1442.85 2357.8H1446.39L1447.17 2358.58L1446.78 2358.98L1444.81 2360.55C1444.42 2360.94 1444.42 2360.94 1444.42 2360.94C1444.42 2360.94 1444.03 2361.34 1443.63 2361.73L1437.73 2366.06ZM1437.73 2359.76H1440.09L1440.49 2360.16C1440.88 2360.55 1440.49 2360.55 1439.7 2361.73L1438.91 2362.91L1441.67 2360.94C1442.06 2360.55 1442.45 2360.16 1442.45 2360.16L1442.85 2359.76L1443.63 2359.37H1440.88V2358.58L1440.49 2358.19L1442.06 2355.44H1440.09L1437.73 2359.76Z" fill="#DDDF6C"/>
<path d="M1477.46 2372.35C1484.19 2372.35 1489.65 2366.89 1489.65 2360.16C1489.65 2353.42 1484.19 2347.96 1477.46 2347.96C1470.72 2347.96 1465.26 2353.42 1465.26 2360.16C1465.26 2366.89 1470.72 2372.35 1477.46 2372.35Z" fill="white"/>
<path d="M1477.45 2375.11C1469.19 2375.11 1462.5 2368.42 1462.5 2360.16C1462.5 2351.89 1469.19 2345.21 1477.45 2345.21C1485.72 2345.21 1492.4 2351.89 1492.4 2360.16C1492.4 2368.42 1485.72 2375.11 1477.45 2375.11ZM1477.45 2350.71C1472.34 2350.71 1468.01 2355.04 1468.01 2360.16C1468.01 2365.27 1472.34 2369.6 1477.45 2369.6C1482.57 2369.6 1486.9 2365.27 1486.9 2360.16C1486.9 2354.65 1482.96 2350.71 1477.45 2350.71Z" fill="#30DDD3"/>
<path d="M1480.21 2357.4C1480.21 2357.4 1479.82 2357.4 1480.21 2357.4C1479.82 2357.4 1479.42 2357.4 1479.03 2357.4C1478.64 2357.4 1478.64 2357.8 1478.24 2357.8C1478.24 2357.8 1478.24 2357.8 1477.85 2357.8C1477.85 2357.8 1477.85 2357.8 1477.85 2357.4C1478.24 2357.01 1478.24 2357.01 1478.64 2356.62C1479.03 2356.62 1479.03 2356.62 1479.42 2356.62C1479.82 2357.01 1480.21 2357.01 1480.21 2357.4C1480.21 2357.01 1480.21 2357.01 1480.21 2357.4Z" fill="#30DDD3"/>
<path d="M1472.74 2358.19C1473.13 2358.19 1473.53 2358.19 1473.92 2358.58C1473.92 2357.4 1475.1 2356.62 1475.89 2356.62C1476.28 2356.62 1476.28 2356.62 1476.67 2356.62C1477.07 2355.83 1477.85 2355.44 1478.64 2355.44C1479.82 2355.44 1480.61 2356.22 1480.61 2357.4C1481.79 2357.4 1482.97 2358.58 1482.97 2360.16C1482.97 2361.73 1481.79 2362.91 1480.21 2362.91C1479.82 2362.91 1479.43 2362.91 1479.03 2362.52C1478.64 2362.91 1477.85 2363.3 1477.07 2363.7C1476.67 2363.7 1476.67 2363.7 1476.28 2363.7C1475.1 2363.7 1474.31 2363.3 1473.92 2362.52C1473.53 2362.91 1473.13 2362.91 1472.35 2362.91C1471.17 2362.91 1469.99 2362.12 1469.99 2360.55C1470.38 2358.98 1471.56 2358.19 1472.74 2358.19Z" fill="#30DDD3"/>
<mask id="mask1" mask-type="alpha" maskUnits="userSpaceOnUse" x="1469" y="2355" width="14" height="9">
<path d="M1482.97 2355.04H1469.99V2363.3H1482.97V2355.04Z" fill="white"/>
</mask>
<g mask="url(#mask1)">
<path d="M1472.74 2358.19C1473.13 2358.19 1473.53 2358.19 1473.92 2358.19C1473.92 2357.01 1475.1 2355.83 1476.28 2355.83C1476.67 2355.83 1476.67 2355.83 1477.07 2355.83C1477.46 2355.04 1478.25 2354.65 1479.03 2354.65C1480.21 2354.65 1481.39 2355.44 1481.39 2356.62C1482.57 2356.62 1483.75 2357.8 1483.75 2359.37C1483.75 2360.94 1482.57 2362.12 1481 2362.12C1480.61 2362.12 1479.82 2362.12 1479.43 2361.73C1479.03 2362.12 1478.25 2362.52 1477.46 2362.91C1477.07 2362.91 1477.07 2362.91 1476.67 2362.91C1475.49 2362.91 1474.71 2362.52 1473.92 2361.73C1473.53 2362.12 1473.13 2362.12 1472.35 2362.12C1471.17 2362.12 1469.99 2360.94 1469.99 2359.76C1470.38 2358.98 1471.17 2357.8 1472.74 2358.19C1472.35 2358.19 1471.56 2358.58 1471.17 2358.98C1470.77 2359.37 1470.38 2359.76 1470.38 2360.55C1470.38 2360.94 1470.77 2361.73 1471.17 2362.12C1471.56 2362.52 1471.95 2362.91 1472.74 2362.91C1473.13 2362.91 1473.53 2362.91 1473.92 2362.52C1474.31 2363.3 1475.49 2363.7 1476.28 2363.7C1476.67 2363.7 1476.67 2363.7 1476.67 2363.7C1477.46 2363.7 1477.85 2363.3 1478.64 2362.91C1479.03 2363.3 1479.43 2363.3 1479.82 2363.3C1480.61 2363.3 1481 2362.91 1481.39 2362.52C1481.79 2362.12 1482.18 2361.34 1482.18 2360.94C1482.18 2359.76 1481.39 2358.58 1480.21 2358.58C1480.21 2357.4 1479.43 2357.01 1478.25 2357.01C1477.46 2357.01 1476.67 2357.4 1476.67 2358.19C1476.28 2358.19 1476.28 2358.19 1475.89 2358.19C1474.71 2358.19 1473.92 2358.98 1473.92 2360.16V2360.55H1473.53C1473.13 2358.19 1473.13 2358.19 1472.74 2358.19Z" fill="#30DDD3"/>
<path d="M1481.78 2363.3C1481.78 2363.7 1482.17 2364.09 1482.56 2364.09C1482.96 2364.09 1483.35 2363.7 1483.35 2363.3C1483.35 2362.91 1482.96 2362.52 1482.56 2362.52C1482.17 2362.52 1481.78 2362.91 1481.78 2363.3Z" fill="#30DDD3"/>
<path d="M1481.78 2363.3C1481.78 2363.7 1482.17 2364.09 1482.56 2364.09C1482.96 2364.09 1483.35 2363.7 1483.35 2363.3C1483.35 2362.91 1482.96 2362.52 1482.56 2362.52C1482.17 2362.52 1482.17 2362.91 1481.78 2363.3C1481.78 2362.91 1482.17 2362.52 1482.56 2362.52C1482.96 2362.52 1483.35 2362.91 1483.35 2363.3C1483.35 2363.7 1482.96 2364.09 1482.56 2364.09C1482.17 2364.09 1481.78 2363.7 1481.78 2363.3Z" fill="#30DDD3"/>
</g>
<mask id="mask2" mask-type="alpha" maskUnits="userSpaceOnUse" x="1483" y="2364" width="2" height="1">
<path d="M1484.55 2364.09H1483.76V2364.88H1484.55V2364.09Z" fill="white"/>
</mask>
<g mask="url(#mask2)">
<path d="M1483.76 2364.49V2364.88H1484.15V2364.49C1484.15 2364.09 1483.76 2364.09 1483.76 2364.49Z" fill="#30DDD3"/>
<path d="M1483.76 2364.48C1484.15 2364.48 1484.15 2364.48 1483.76 2364.48C1484.15 2364.48 1484.15 2364.88 1483.76 2364.48C1484.15 2364.88 1484.15 2364.88 1484.15 2364.88L1483.76 2364.48C1484.15 2364.48 1484.15 2364.48 1483.76 2364.48C1483.76 2364.09 1484.15 2364.09 1483.76 2364.48C1484.15 2364.09 1484.15 2364.09 1484.54 2364.09L1484.94 2364.48V2364.88L1484.54 2365.27H1484.15C1483.76 2364.88 1483.76 2364.88 1483.76 2364.48Z" fill="#30DDD3"/>
</g>
</g>
<path d="M2001.85 2420.74L1837.41 2389.27H1837.02L1666.29 2381.01C1654.09 2380.22 1643.08 2389.66 1641.9 2401.86C1641.11 2408.15 1643.08 2414.84 1647.4 2419.95C1651.73 2425.07 1657.63 2427.82 1664.32 2428.21L1831.51 2436.48L1993.19 2467.16C1994.77 2467.55 1995.95 2467.55 1997.52 2467.55C2002.64 2467.55 2007.36 2465.98 2011.29 2462.83C2016.4 2458.9 2019.94 2453 2020.73 2446.71C2022.3 2434.51 2013.65 2423.1 2001.85 2420.74Z" fill="#833E78"/>
<path d="M1675.74 2402.64C1674.95 2395.96 1672.98 2388.87 1669.84 2381.79C1663.15 2366.84 1652.92 2354.65 1643.08 2349.93C1621.45 2339.7 1597.06 2346.39 1588.01 2364.88C1583.68 2373.53 1583.68 2384.15 1588.01 2393.99C1592.34 2403.82 1600.21 2412.09 1610.83 2417.2C1620.27 2421.92 1634.43 2427.82 1647.02 2429.79C1649.77 2430.18 1652.53 2430.57 1654.89 2430.57C1664.33 2430.57 1670.62 2427.43 1673.77 2420.74C1675.74 2415.63 1676.52 2409.72 1675.74 2402.64Z" fill="#833E78"/>
<path d="M1849.6 1905.4C1805.54 2178.02 1795.32 2464.8 2209.95 2615.08C2567.15 2615.08 2584.85 2307.44 2635.21 2076.13C2666.68 1930.58 2612.39 1667 2373.99 1615.47C2135.6 1563.54 1897.99 1607.6 1849.6 1905.4Z" fill="#833E78"/>
<path d="M2158.8 2049.77C2174.93 2084 2228.82 2119.4 2281.93 2119.4C2335.04 2119.4 2385 2078.88 2400.74 2049.77C2376.74 2018.69 2335.04 1980.54 2281.93 1980.54C2228.43 1980.14 2171.39 2015.55 2158.8 2049.77Z" fill="white"/>
<path d="M1866.12 2050.16C1882.24 2084.39 1936.14 2119.79 1989.25 2119.79C2042.35 2119.79 2092.32 2079.27 2108.05 2050.16C2084.05 2019.09 2042.35 1980.93 1989.25 1980.93C1936.14 1980.93 1879.1 2015.55 1866.12 2050.16Z" fill="white"/>
<path d="M2239.54 2073.27C2264.19 2069.18 2280.86 2045.88 2276.77 2021.23C2272.68 1996.58 2249.38 1979.92 2224.73 1984.01C2200.08 1988.1 2183.42 2011.4 2187.51 2036.04C2191.6 2060.69 2214.9 2077.36 2239.54 2073.27Z" fill="black"/>
<path d="M1944.89 2074.03C1969.53 2069.94 1986.2 2046.65 1982.11 2022C1978.02 1997.35 1954.72 1980.69 1930.07 1984.78C1905.43 1988.87 1888.76 2012.16 1892.85 2036.81C1896.94 2061.46 1920.24 2078.12 1944.89 2074.03Z" fill="black"/>
<path d="M1950.31 2203.59C1951.1 2218.14 1962.9 2231.12 1982.96 2240.17C2003.02 2249.22 2029.77 2253.15 2057.31 2251.19C2084.85 2249.22 2110.81 2242.14 2129.3 2230.34C2148.19 2218.93 2158.02 2204.37 2157.23 2189.82L2152.12 2190.21C2152.91 2203.98 2143.46 2217.75 2125.76 2228.76C2108.06 2239.78 2083.28 2246.86 2057.31 2248.43C2031.35 2250.01 2005.78 2246.47 1986.9 2237.81C1968.01 2229.16 1956.6 2216.96 1955.82 2203.19L1950.31 2203.59Z" fill="white"/>
<path d="M2318.91 3012.01C2311.44 3005.71 2300.82 3002.96 2286.26 3002.96C2271.7 3002.96 2257.94 3006.1 2247.31 3012.01C2233.15 3019.87 2231.19 3029.31 2231.19 3034.43C2231.19 3039.15 2233.15 3048.59 2247.31 3056.85C2257.54 3062.75 2271.31 3065.9 2286.26 3065.9C2300.42 3065.9 2311.44 3062.75 2318.91 3056.85C2325.21 3051.34 2328.75 3043.87 2328.75 3034.43C2328.75 3024.99 2325.21 3017.51 2318.91 3012.01Z" fill="#833E78"/>
<path d="M2327.97 2453.78C2327.57 2437.65 2314.2 2424.28 2298.07 2424.28C2290.2 2424.28 2282.33 2427.43 2276.82 2433.33C2271.32 2439.23 2268.17 2446.7 2268.17 2454.57L2273.68 2741.75L2268.17 3021.05C2268.17 3028.92 2270.92 3036.79 2276.82 3042.3C2282.33 3048.2 2290.2 3051.34 2298.07 3051.34C2314.2 3051.34 2327.57 3038.36 2327.97 3021.84L2331.9 2745.29L2327.97 2453.78Z" fill="#833E78"/>
<path d="M2215.85 2980.53C2208.38 2974.24 2197.36 2971.49 2183.2 2971.49C2168.64 2971.49 2154.87 2974.63 2144.25 2980.53C2130.09 2988.4 2128.12 2997.84 2128.12 3002.96C2128.12 3007.68 2130.09 3017.12 2144.25 3025.38C2154.48 3031.28 2168.25 3034.43 2183.2 3034.43C2197.36 3034.43 2208.38 3031.28 2215.85 3025.38C2222.14 3019.87 2225.68 3012.4 2225.68 3002.96C2225.68 2993.52 2222.54 2986.04 2215.85 2980.53Z" fill="#833E78"/>
<path d="M2227.25 2417.59C2226.86 2401.46 2213.49 2388.09 2197.36 2388.09C2189.49 2388.09 2181.62 2391.23 2176.11 2397.13C2170.61 2403.03 2167.46 2410.51 2167.46 2418.38L2172.97 2705.16L2167.46 2984.47C2167.46 2992.33 2170.21 3000.2 2176.11 3005.71C2181.62 3011.61 2189.49 3014.76 2197.36 3014.76C2213.49 3014.76 2226.86 3001.78 2227.25 2985.25L2231.19 2708.7L2227.25 2417.59Z" fill="#833E78"/>
<path d="M2279.96 812.162C2301.99 812.162 2323.63 817.669 2342.91 827.897C2348.81 831.044 2349.59 839.306 2344.87 844.42C2340.94 848.354 2335.04 848.747 2330.32 846.387C2315.37 838.913 2298.45 834.585 2280.36 834.585C2218.6 834.585 2168.63 884.546 2168.63 946.308C2168.63 1008.07 2218.6 1058.03 2280.36 1058.03C2342.12 1058.03 2392.08 1008.07 2392.08 946.308C2392.08 940.8 2391.69 934.9 2390.9 929.392C2390.11 925.065 2391.29 920.738 2394.44 917.984C2397.59 914.837 2401.92 914.05 2405.06 914.837C2408.6 915.623 2411.36 918.377 2412.14 922.704C2413.72 930.179 2414.11 938.44 2414.11 946.308C2414.11 1020.27 2353.92 1080.45 2279.96 1080.45C2206.01 1080.45 2145.82 1020.27 2145.82 946.308C2145.82 872.35 2206.01 812.162 2279.96 812.162ZM2405.06 860.549L2263.84 1001.78C2261.87 1003.74 2258.72 1003.74 2256.75 1001.78L2213.48 958.503C2209.55 954.57 2209.55 947.882 2213.48 943.554C2217.81 939.227 2224.89 939.62 2228.82 944.341L2254.79 975.419C2257.54 978.96 2263.05 978.959 2266.2 975.812L2389.33 845.6C2393.65 841.273 2400.34 841.273 2404.67 845.207C2409.39 849.534 2409.39 856.615 2405.06 860.549Z" fill="#5FB8DE"/>
<path d="M2275.65 1521.45C2270.14 1521.45 2265.81 1517.12 2265.81 1511.61V1154.02C2265.81 1148.51 2270.14 1144.18 2275.65 1144.18C2281.16 1144.18 2285.48 1148.51 2285.48 1154.02V1511.61C2285.48 1517.12 2281.16 1521.45 2275.65 1521.45Z" fill="#60B8DF"/>
</svg>
