<svg width="2673" height="2904" viewBox="0 0 2673 2904" fill="none" xmlns="http://www.w3.org/2000/svg">
<path opacity="0.2" d="M2507.25 850.17V1846.16H1042.55V850.17H2507.25ZM2577.07 780.346H973.13V1915.58H2577.07V780.346Z" fill="white"/>
<path opacity="0.2" d="M1534.91 849.977H1467.28V1842.82H1534.91V849.977Z" fill="#A2A2A2"/>
<path opacity="0.2" d="M2047.21 849.977H1979.58V1842.82H2047.21V849.977Z" fill="#A2A2A2"/>
<path opacity="0.2" d="M2672.17 1917.2H877.62V2005.88H2672.17V1917.2Z" fill="#A2A2A2"/>
<path opacity="0.2" d="M2117.19 2903.95C2406.63 2903.95 2641.27 2880.06 2641.27 2850.58C2641.27 2821.1 2406.63 2797.21 2117.19 2797.21C1827.75 2797.21 1593.11 2821.1 1593.11 2850.58C1593.11 2880.06 1827.75 2903.95 2117.19 2903.95Z" fill="#C6C6C6"/>
<path d="M2033.32 2842.55C2033.32 2861.81 2020.08 2877.06 1986.37 2877.06C1953.06 2877.06 1925.78 2861.41 1925.78 2842.55C1925.78 2823.29 1953.06 2808.04 1986.37 2808.04C2020.08 2808.04 2033.32 2823.29 2033.32 2842.55Z" fill="#FF896D"/>
<path d="M2146.09 2842.55C2146.09 2861.81 2159.33 2877.06 2193.04 2877.06C2226.35 2877.06 2253.64 2861.41 2253.64 2842.55C2253.64 2823.29 2226.35 2808.04 2193.04 2808.04C2159.74 2808.04 2146.09 2823.29 2146.09 2842.55Z" fill="#FF896D"/>
<path d="M1961.49 2243.83C1962.29 2226.58 1976.34 2213.34 1993.59 2213.34C2012.45 2213.34 2027.3 2229.79 2025.7 2248.65L2001.62 2501.46C2000.01 2517.91 2000.01 2534.77 2001.62 2551.22L2025.7 2804.83C2027.3 2823.69 2012.45 2840.15 1993.59 2840.15C1976.34 2840.15 1962.29 2826.9 1961.49 2809.65L1946.24 2526.34L1961.49 2243.83Z" fill="#FF896D"/>
<path d="M1816.63 2168.79C1817.84 2157.16 1827.87 2147.93 1839.51 2147.93C1853.15 2147.93 1863.99 2159.56 1862.38 2173.21L1848.34 2321.28C1847.53 2331.31 1847.53 2341.35 1848.34 2351.38L1862.38 2497.85C1863.58 2511.49 1853.15 2523.13 1839.51 2523.13C1827.47 2523.13 1817.84 2514.3 1816.63 2502.26L1801.39 2355.39C1800.18 2342.55 1800.18 2329.71 1801.39 2317.27L1816.63 2168.79Z" fill="#FF896D"/>
<path d="M2333.09 2172.81C2332.28 2159.56 2342.72 2147.93 2356.36 2147.93C2368.4 2147.93 2378.43 2157.16 2379.64 2169.6L2391.27 2334.12L2379.64 2501.46C2378.83 2513.5 2368.8 2523.13 2356.36 2523.13C2343.12 2523.13 2332.28 2511.89 2333.09 2498.25L2344.32 2334.12L2333.09 2172.81Z" fill="#FF896D"/>
<path d="M2153.71 2247.85C2152.51 2228.99 2167.35 2213.34 2185.81 2213.34C2203.07 2213.34 2217.51 2226.98 2217.92 2244.64L2227.55 2522.73L2217.92 2809.25C2217.51 2826.5 2203.07 2840.55 2185.81 2840.55C2166.95 2840.55 2152.1 2824.5 2153.71 2806.04L2172.97 2523.13L2153.71 2247.85Z" fill="#FF896D"/>
<path d="M2398.09 2527.14C2398.09 2550.42 2381.64 2569.68 2361.58 2569.68C2341.51 2569.68 2325.06 2550.82 2325.06 2527.14C2325.06 2503.87 2341.51 2484.6 2361.58 2484.6C2381.64 2484.6 2398.09 2503.87 2398.09 2527.14Z" fill="#FF896D"/>
<path d="M1878.43 2523.13C1878.43 2546.4 1861.97 2565.67 1841.91 2565.67C1821.85 2565.67 1805.39 2546.81 1805.39 2523.13C1805.39 2499.45 1821.85 2480.59 1841.91 2480.59C1861.97 2480.59 1878.43 2499.85 1878.43 2523.13Z" fill="#FF896D"/>
<path d="M2654.92 1555.63C2654.92 1848.17 2558.21 2319.28 2017.67 2391.91C1606.76 2206.52 1606.76 1848.17 1606.76 1555.63C1606.76 1263.09 1809.41 1133.48 2111.17 1133.48C2412.94 1133.48 2654.92 1263.09 2654.92 1555.63Z" fill="#FF896D"/>
<path d="M2177.78 1751.05H2173.37H2172.97C2171.76 1751.05 2164.94 1751.05 2148.09 1751.05C2132.04 1751.05 2109.97 1751.05 2087.09 1751.05C2064.22 1751.05 2042.15 1751.05 2026.1 1751.05C2009.24 1751.05 2002.42 1751.05 2001.22 1751.05H2000.82H1996.4C1993.19 1751.05 1990.38 1748.24 1990.38 1745.03C1990.38 1741.02 1992.39 1739.42 1996.4 1739.02H1998.81C2000.01 1739.02 2001.62 1739.02 2003.22 1739.02C2007.64 1739.02 2014.46 1739.02 2022.89 1739.02C2039.74 1739.02 2063.02 1739.02 2087.09 1739.02C2111.17 1739.02 2134.44 1739.02 2151.3 1739.02C2159.73 1739.02 2166.55 1739.02 2170.96 1739.02C2172.57 1739.02 2174.17 1739.02 2175.38 1739.02H2177.78C2181.8 1739.42 2183.8 1740.62 2183.8 1745.03C2183.8 1748.65 2180.99 1751.05 2177.78 1751.05Z" fill="white"/>
<path d="M2219.51 430.822L2031.31 382.267L2032.51 377.05C2033.32 373.439 2031.31 369.426 2027.7 368.623L1985.56 357.788C1981.95 356.986 1978.34 358.992 1977.14 363.005L1975.93 368.222L1954.26 362.604C1945.44 360.196 1937.01 365.413 1935 374.241L1893.27 536.361C1891.26 544.788 1896.08 553.616 1904.91 555.623L2170.16 624.243C2178.58 626.249 2187.01 621.434 2189.42 612.605L2231.15 450.485C2233.16 441.657 2227.94 433.23 2219.51 430.822Z" fill="#833E78"/>
<path d="M2043.76 564.052C2005.23 554.02 1982.36 514.694 1992.39 475.769C2002.43 437.246 2041.75 413.57 2079.87 423.602C2118.4 433.634 2141.27 472.96 2131.24 511.885C2121.61 550.81 2082.28 574.084 2043.76 564.052ZM2078.67 428.818C2042.96 419.589 2006.44 441.259 1997.21 477.374C1987.98 513.49 2009.25 550.007 2044.96 559.236C2080.68 568.466 2117.19 546.797 2126.42 510.681C2135.65 474.565 2114.38 438.048 2078.67 428.818Z" fill="white"/>
<path d="M2185.41 466.94C2178.59 465.335 2174.57 458.112 2176.58 451.691C2178.19 444.869 2185.01 440.856 2191.83 442.461C2198.65 444.066 2202.66 450.889 2200.66 457.71C2198.65 464.532 2191.83 468.545 2185.41 466.94ZM2190.22 447.277C2186.21 446.073 2182.2 448.481 2181.4 452.493C2180.19 456.506 2182.6 460.519 2186.61 461.723C2190.63 462.526 2194.64 460.118 2195.44 456.105C2196.65 452.092 2194.24 448.481 2190.22 447.277Z" fill="white"/>
<path d="M2096.72 484.999C2096.32 486.604 2097.13 487.808 2098.73 488.21C2099.93 488.611 2101.54 487.407 2101.94 486.203L2096.72 484.999ZM2083.88 456.508C2082.28 456.107 2081.07 457.31 2080.67 458.514C2080.27 460.119 2081.48 461.323 2082.68 461.725L2083.88 456.508ZM2087.9 482.993C2087.49 484.197 2088.7 485.802 2089.9 485.802C2091.51 486.203 2092.71 485.401 2093.11 483.796L2087.9 482.993ZM2081.48 465.336C2079.87 464.935 2078.67 466.139 2078.27 467.343C2077.86 468.948 2079.07 470.152 2080.27 470.553L2081.48 465.336ZM2101.94 486.203C2104.75 472.961 2096.72 459.718 2083.88 456.508L2082.68 461.725C2093.11 464.132 2099.53 474.566 2097.13 484.999L2101.94 486.203ZM2092.71 484.197C2094.72 475.77 2089.5 467.343 2081.48 465.336L2080.27 470.553C2085.89 471.757 2089.5 477.375 2087.9 482.993L2092.71 484.197Z" fill="white"/>
<path d="M2046.57 553.617C2014.07 545.19 1994.4 511.482 2002.83 478.577C2011.26 445.671 2044.56 426.008 2077.47 434.435C2109.97 442.862 2129.64 476.57 2121.21 509.074C2112.38 541.98 2079.07 562.044 2046.57 553.617ZM2076.27 439.251C2046.57 431.626 2015.67 449.684 2008.05 479.781C2000.42 509.877 2018.08 540.776 2048.18 548.401C2077.87 556.025 2108.37 537.967 2116.39 507.47C2123.62 477.774 2105.96 446.875 2076.27 439.251Z" fill="white"/>
<path d="M2003.62 409.152L2003.22 409.554C2000.01 413.165 1993.59 412.764 1987.17 409.554L1760.04 283.55L1873.2 407.146C1877.62 411.961 1879.22 417.579 1877.62 421.592C1876.01 425.605 1871.2 427.21 1865.18 425.605L1832.27 416.777L1847.92 448.478C1849.93 452.892 1849.93 456.905 1847.92 459.714L1795.76 525.927C1792.14 530.742 1782.91 529.94 1775.69 523.92C1768.47 518.302 1765.26 509.474 1769.27 504.658L1818.23 442.459L1796.56 398.317C1794.55 393.903 1794.55 389.891 1796.96 387.082C1799.37 384.273 1803.38 383.47 1808.2 384.674L1828.66 389.891L1696.24 245.427C1691.02 239.809 1689.82 232.988 1692.63 229.376C1695.84 225.363 1702.66 225.363 1709.08 228.975L1947.84 361.399L1855.15 242.217C1851.13 237 1850.33 231.382 1852.74 228.172C1855.15 224.56 1860.36 223.758 1866.38 225.764L1961.49 259.874L2018.47 187.642C2022.08 182.827 2031.31 183.629 2038.53 189.649C2045.76 195.267 2048.97 204.095 2044.95 208.911L1983.96 286.358C1981.55 289.569 1976.33 290.371 1970.72 288.365L1899.69 262.683L2001.62 393.903C2005.63 399.923 2006.43 405.942 2003.62 409.152Z" fill="#F1B47C"/>
<path d="M2169.76 27.1292C2095.52 -45.1023 2006.43 44.3846 2017.27 92.9403C1981.95 52.8116 1860.77 67.2577 1868.79 167.981C1878.02 280.341 2091.5 284.755 2110.77 293.182C2117.59 275.526 2249.61 104.577 2169.76 27.1292Z" fill="#DE5F8D"/>
<path d="M2487.58 206.505H2272.08L2381.64 25.9264H2222.33L2051.38 307.629C2051.38 308.03 2051.38 308.03 2051.78 308.03H2211.89C2212.69 308.03 2199.85 330.101 2183.8 356.586L2067.83 548L2325.46 344.949C2351.54 324.483 2372.41 307.629 2372 307.629C2371.6 307.629 2391.67 289.973 2416.15 268.705L2487.58 206.505Z" fill="#DDDF6C"/>
<path d="M2425.78 298.399C2431.8 266.296 2414.14 233.793 2382.84 222.557C2359.97 214.13 2335.89 219.346 2318.23 233.391C2313.02 229.378 2307 225.767 2300.58 223.359C2269.28 212.123 2235.57 225.366 2219.52 253.054C2212.7 246.634 2205.07 241.417 2196.24 238.206C2160.93 225.365 2121.6 243.825 2108.76 279.138C2095.92 314.451 2114.38 353.777 2149.69 366.618C2164.14 371.835 2178.99 371.434 2192.63 367.421C2202.66 391.899 2222.33 412.365 2248.81 421.996C2254.83 424.002 2260.85 425.607 2266.87 426.811C2287.74 432.429 2309.41 429.219 2327.86 419.989C2336.29 429.219 2346.73 436.442 2359.16 441.258C2400.1 456.105 2445.84 434.837 2460.69 393.505C2473.93 356.586 2458.28 316.859 2425.78 298.399Z" fill="#30DDD3"/>
<path d="M2392.87 291.175C2400.09 293.582 2404.51 296.391 2404.91 296.793C2407.72 298.398 2408.12 301.608 2406.92 304.417C2405.31 306.825 2402.9 307.627 2400.5 306.825C2400.09 306.825 2399.69 306.423 2399.69 306.423H2399.29C2398.49 306.022 2394.88 304.016 2389.26 302.009C2384.04 300.003 2377.22 298.398 2370 298.398C2362.77 298.398 2355.55 300.003 2348.33 305.22C2346.72 306.424 2344.72 306.423 2343.51 306.022C2342.31 305.621 2341.51 304.818 2341.1 304.016C2339.5 301.608 2339.9 298.398 2342.31 296.391C2351.14 289.569 2361.17 287.563 2370 287.162C2378.83 286.761 2386.85 288.767 2392.87 291.175Z" fill="white"/>
<path d="M2061.8 1529.54C2020.87 1565.26 1972.32 1588.13 1906.51 1587.73C1840.7 1587.73 1775.29 1554.02 1762.85 1529.14C1811.4 1490.22 2006.83 1485.8 2061.8 1529.54Z" fill="white"/>
<path d="M1963.49 1534.76C1958.27 1565.26 1929.78 1585.72 1899.28 1580.51C1868.78 1575.29 1848.32 1546.8 1853.53 1516.3C1858.75 1485.8 1887.24 1465.34 1917.74 1470.56C1947.83 1475.77 1968.3 1504.26 1963.49 1534.76Z" fill="black"/>
<path d="M2423.36 1529.95C2392.86 1566.46 2329.06 1588.13 2263.25 1588.13C2197.44 1588.13 2144.07 1566.06 2124.4 1529.95C2153.7 1491.02 2407.71 1487.41 2423.36 1529.95Z" fill="white"/>
<path d="M2327.86 1535.97C2322.64 1566.46 2294.15 1586.93 2263.65 1581.71C2233.15 1576.5 2212.69 1548 2217.9 1517.51C2223.12 1487.01 2251.61 1466.54 2282.11 1471.76C2312.21 1476.57 2333.07 1505.47 2327.86 1535.97Z" fill="black"/>
<path d="M2099.93 1070.88C2094.32 1070.88 2089.9 1066.46 2089.9 1060.84V724.566C2089.9 718.948 2094.32 714.534 2099.93 714.534C2105.55 714.534 2109.97 718.948 2109.97 724.566V1060.84C2109.97 1066.46 2105.55 1070.88 2099.93 1070.88Z" fill="white"/>
<path opacity="0.2" d="M195.427 1399.13C195.828 1401.13 196.23 1403.14 197.032 1405.15C197.835 1407.15 198.236 1409.16 199.039 1411.17C199.841 1413.17 200.644 1415.18 201.446 1417.59C202.249 1419.59 203.051 1422 203.854 1424.01C207.867 1432.43 211.88 1441.66 217.096 1450.09C219.504 1454.5 222.313 1458.92 224.721 1463.33C227.53 1467.75 230.339 1471.76 233.549 1476.17C236.358 1480.59 239.569 1484.6 242.779 1489.02C245.989 1493.03 249.199 1497.04 252.008 1501.05C255.219 1505.07 258.429 1509.08 261.639 1513.09C263.244 1515.1 264.85 1517.11 266.455 1519.11C268.06 1521.12 269.665 1522.72 271.27 1524.73C274.48 1528.34 277.289 1532.35 280.5 1535.97C282.105 1537.97 283.309 1539.58 284.914 1541.58C286.519 1543.59 287.723 1545.2 289.328 1547.2C294.946 1554.42 300.564 1561.65 305.379 1568.47C307.787 1572.08 310.195 1575.29 312.603 1578.5C315.01 1581.71 317.017 1584.92 319.023 1588.13C321.03 1591.34 323.036 1594.15 324.641 1596.96C325.444 1598.57 326.246 1599.77 327.45 1601.38C328.253 1602.58 329.055 1604.18 329.858 1605.39C333.068 1610.61 335.476 1615.42 337.482 1619.43C339.489 1623.45 340.693 1626.66 341.495 1629.06C342.298 1631.47 342.699 1632.68 342.699 1632.68C342.699 1632.68 342.699 1632.27 343.1 1631.87C343.1 1631.07 343.502 1630.27 343.903 1629.06C344.304 1626.66 345.107 1623.04 345.508 1618.23C345.909 1613.41 345.909 1607.8 345.107 1600.97C345.107 1599.37 344.706 1597.76 344.706 1595.76C344.304 1594.15 343.903 1592.15 343.903 1590.54C343.502 1586.93 342.298 1582.92 341.495 1578.9C339.489 1570.88 336.68 1562.45 333.068 1554.02C331.463 1549.61 329.457 1545.6 327.45 1540.78C325.444 1536.37 323.036 1531.95 320.628 1527.54C319.424 1525.53 318.221 1523.12 317.017 1520.72C315.813 1518.71 314.208 1516.3 313.004 1514.3C310.195 1509.88 307.386 1505.47 304.176 1501.46C302.57 1499.45 300.965 1497.04 299.36 1495.03L296.952 1491.82L294.545 1489.02C291.334 1485 288.124 1480.99 285.315 1476.98C278.895 1468.95 272.875 1461.33 266.455 1453.3C263.244 1449.69 260.435 1445.68 257.225 1442.06C254.416 1438.45 251.206 1434.44 248.397 1430.83C242.378 1423.61 237.161 1416.78 231.944 1409.96C229.135 1406.75 227.129 1403.14 224.721 1399.93C222.313 1396.72 219.905 1393.51 218.3 1390.7C214.287 1384.28 210.275 1378.66 207.466 1373.44C204.255 1368.23 201.446 1363.41 199.44 1359.4C195.026 1351.37 192.217 1346.96 192.217 1346.96C192.217 1346.96 191.815 1352.18 191.815 1361.81C191.815 1366.62 192.217 1372.24 193.019 1378.66C191.815 1383.88 193.822 1391.1 195.427 1399.13Z" fill="white"/>
<path opacity="0.2" d="M214.285 1235.8C215.087 1243.43 215.89 1251.05 217.094 1259.08C218.298 1267.1 219.502 1275.13 221.107 1283.16C224.317 1299.61 228.33 1316.06 233.948 1332.91C236.757 1341.34 239.566 1349.77 243.177 1358.2C244.783 1362.21 246.789 1366.62 248.795 1370.64C250.802 1374.65 252.808 1379.06 254.815 1383.08C256.821 1387.09 259.229 1391.1 261.637 1395.11L265.649 1401.53C266.853 1403.54 268.458 1405.95 269.662 1407.55C272.07 1411.17 274.879 1414.38 277.287 1417.99C279.694 1421.2 282.102 1424.41 284.109 1427.62C288.523 1434.04 292.937 1440.46 296.95 1446.88C298.956 1450.09 300.963 1453.3 302.969 1456.91C304.976 1460.12 306.982 1463.33 308.587 1466.94C310.192 1470.15 312.199 1473.37 313.804 1476.98C314.606 1478.58 315.409 1480.19 316.212 1481.79C317.014 1483.4 317.817 1485 318.619 1486.61C320.224 1489.82 321.428 1493.03 323.033 1496.64C324.237 1499.85 325.842 1503.06 327.046 1506.27C331.862 1519.11 335.875 1531.95 339.085 1543.99C345.104 1567.67 347.913 1588.53 349.117 1603.38C350.321 1618.23 349.92 1627.06 349.92 1627.06C349.92 1627.06 353.932 1619.03 357.945 1604.18C361.958 1589.34 365.57 1567.27 365.168 1540.38C364.767 1526.74 363.162 1512.29 360.353 1497.04C359.55 1493.43 358.748 1489.42 357.945 1485.4C357.143 1481.39 355.939 1477.78 354.735 1473.77C353.531 1469.75 352.327 1465.74 351.123 1461.73C349.92 1457.71 348.314 1453.7 346.709 1449.69C343.499 1441.66 339.887 1433.64 335.875 1426.01C331.862 1418.39 327.448 1410.36 322.632 1402.74C320.224 1398.73 317.817 1395.11 315.008 1391.5C312.6 1387.89 310.594 1384.68 308.186 1381.07C306.982 1379.06 306.179 1377.86 304.976 1376.25L302.167 1371.84C300.16 1368.23 298.154 1365.02 296.549 1361.81C292.937 1354.99 289.325 1347.76 286.115 1340.54L283.707 1334.92L281.3 1329.3C279.694 1325.69 278.089 1322.08 276.885 1318.07C271.267 1303.22 266.051 1287.97 261.637 1273.52C259.229 1266.3 257.222 1258.68 255.216 1251.45C253.21 1244.23 251.203 1237.01 249.598 1230.19C247.592 1223.36 245.986 1216.54 244.381 1209.72C242.776 1203.3 241.171 1196.88 239.967 1190.46C237.158 1178.02 234.349 1166.78 232.343 1156.75C230.336 1146.72 228.33 1137.89 226.725 1130.27C225.12 1123.04 224.317 1117.02 223.514 1113.01C223.113 1109 222.712 1106.99 222.712 1106.99C222.712 1106.99 222.712 1107.39 222.311 1108.6C221.909 1109.4 221.508 1111 220.705 1113.01C219.502 1117.02 218.298 1123.04 217.094 1130.67C215.89 1138.29 214.686 1147.52 213.884 1157.95C213.081 1168.39 212.68 1180.43 212.68 1193.67C212.68 1200.09 213.081 1206.91 213.081 1214.13C213.482 1220.96 213.884 1228.18 214.285 1235.8Z" fill="white"/>
<path opacity="0.2" d="M276.89 1217.34C277.693 1222.96 278.094 1228.58 278.897 1234.2C279.699 1239.82 280.502 1245.43 281.706 1250.65C282.508 1256.27 283.712 1261.49 284.916 1266.7C286.12 1271.92 287.324 1277.14 288.527 1282.35C291.336 1292.79 294.145 1302.42 297.356 1311.65C300.566 1320.88 303.776 1329.3 306.987 1337.33C310.197 1344.95 313.407 1352.18 316.617 1358.2C319.828 1364.22 322.637 1369.83 325.044 1373.85C327.452 1378.26 329.459 1381.47 331.064 1383.88C332.669 1386.29 333.471 1387.09 333.471 1387.09C333.471 1387.09 333.471 1385.48 333.07 1383.08C332.669 1380.27 332.268 1376.65 331.866 1371.84C330.663 1362.21 329.057 1348.16 326.65 1332.11C324.643 1316.06 321.834 1296.8 319.025 1276.73C317.821 1266.7 316.216 1256.27 315.012 1245.84C313.808 1235.4 312.605 1224.57 311.401 1213.73C310.197 1202.9 309.394 1192.46 308.19 1182.03C307.388 1171.6 306.585 1161.16 306.184 1151.13C306.184 1148.72 305.783 1146.32 305.783 1143.51C305.783 1141.1 305.783 1138.69 305.381 1136.28C305.381 1133.88 304.98 1131.47 304.98 1129.06C304.98 1126.65 304.98 1124.25 304.98 1122.24C304.98 1119.83 304.98 1117.83 304.579 1115.42C304.579 1113.01 304.579 1111 304.579 1108.6C304.579 1104.18 304.579 1100.17 304.579 1095.75C304.579 1091.74 304.579 1087.73 304.579 1084.12C304.579 1080.51 304.98 1076.89 304.98 1073.68C304.98 1066.86 305.381 1061.24 305.783 1056.43C306.184 1051.61 306.184 1047.6 306.585 1045.19C306.585 1042.38 306.585 1041.18 306.585 1041.18C306.585 1041.18 305.783 1042.38 304.579 1044.79C303.375 1047.2 301.369 1050.41 298.961 1054.82C296.954 1059.24 294.547 1064.86 292.139 1071.28C290.935 1074.49 289.731 1078.1 288.527 1081.71C287.324 1085.32 286.12 1089.33 284.916 1093.35C283.712 1097.36 282.909 1101.77 281.706 1106.19C281.304 1108.6 280.903 1110.6 280.1 1113.01C279.699 1115.42 279.298 1117.83 278.897 1120.23C278.094 1125.05 277.291 1129.86 276.89 1135.08C276.088 1140.3 275.686 1145.51 275.285 1150.73C275.285 1153.54 274.884 1155.95 274.884 1158.76C274.884 1161.57 274.884 1164.37 274.482 1166.78C274.482 1169.59 274.482 1172.4 274.482 1175.21C274.482 1178.02 274.482 1180.83 274.482 1183.64C274.884 1194.87 275.686 1206.11 276.89 1217.34Z" fill="white"/>
<path opacity="0.2" d="M388.445 1354.58C388.044 1356.99 387.242 1359.8 386.84 1362.21C386.439 1364.62 385.636 1367.42 385.235 1369.83L384.433 1373.84V1374.65V1375.05C384.433 1375.05 384.834 1374.25 384.433 1374.65V1375.05L384.031 1377.06C382.827 1382.67 381.623 1387.89 380.42 1393.11C378.413 1403.54 376.808 1413.57 375.604 1423.6C374.4 1433.24 373.598 1442.47 373.196 1451.29C372.795 1459.72 372.795 1467.75 373.196 1474.97C373.598 1478.58 373.598 1481.79 373.999 1485C374.4 1488.21 374.4 1491.02 375.203 1493.43C375.604 1495.84 376.005 1498.24 376.407 1500.25C376.808 1502.26 377.209 1503.86 377.611 1505.07C378.413 1507.87 378.815 1509.08 378.815 1509.08C378.815 1509.08 379.216 1507.87 380.42 1505.07C380.821 1503.86 381.222 1502.26 382.025 1500.25C382.827 1498.24 383.63 1496.24 384.433 1494.23C385.235 1491.82 386.439 1489.42 387.241 1486.61C388.445 1483.8 389.248 1480.99 390.853 1477.78C391.656 1476.17 392.057 1474.57 392.86 1472.96C393.662 1471.36 394.063 1469.75 394.866 1467.75C396.471 1464.13 397.675 1460.52 399.28 1456.91C402.49 1449.29 405.701 1440.86 409.312 1432.03C412.924 1423.2 416.535 1413.97 420.147 1404.34C421.752 1399.53 423.759 1394.71 425.765 1389.9L426.568 1388.29V1387.89L426.969 1387.09L427.37 1386.29L428.574 1382.27C429.377 1379.46 430.179 1377.06 430.982 1374.25C432.587 1368.63 434.192 1363.41 435.396 1357.79C436.6 1352.18 438.205 1346.56 439.409 1340.94C440.211 1335.32 441.415 1329.7 442.218 1323.68C442.619 1320.88 443.02 1318.07 443.422 1315.26C443.823 1312.45 444.224 1309.64 444.224 1306.83C444.625 1304.02 444.625 1301.21 445.027 1298.4C445.027 1295.59 445.428 1292.79 445.428 1289.98C445.829 1284.36 445.829 1278.74 445.829 1273.52C445.829 1268.31 445.829 1262.69 445.428 1257.47C445.027 1252.26 444.625 1247.04 444.224 1242.22C443.823 1237.41 443.02 1232.59 442.619 1227.78C441.816 1223.36 441.014 1218.55 440.613 1214.53C439.007 1206.11 437.402 1198.48 435.396 1191.66C433.389 1184.84 431.383 1179.22 429.778 1174.41C426.166 1164.77 423.357 1159.56 423.357 1159.56C423.357 1159.56 422.153 1165.18 420.548 1175.21C418.943 1184.84 416.937 1198.48 414.128 1214.94C412.924 1222.96 411.319 1231.79 410.115 1241.02C408.51 1250.25 406.905 1259.88 405.299 1269.91C404.497 1274.73 403.694 1279.94 402.49 1285.16C402.089 1287.57 401.688 1290.38 401.287 1292.79C400.885 1295.19 400.484 1298 399.681 1300.41C398.478 1305.63 398.076 1310.84 396.872 1316.06C395.669 1321.28 394.866 1326.49 393.662 1331.71C392.458 1336.93 391.656 1342.14 390.452 1347.36C389.649 1349.37 388.847 1352.18 388.445 1354.58Z" fill="white"/>
<path opacity="0.2" d="M439.411 1410.36C437.805 1413.98 435.799 1417.59 434.194 1421.2C432.589 1424.81 430.984 1428.42 428.977 1432.43C427.372 1436.05 425.366 1439.66 423.76 1443.67C420.55 1451.3 416.939 1458.52 413.728 1466.14C410.518 1473.37 407.308 1480.99 404.097 1488.21C400.887 1495.44 398.078 1502.26 395.269 1509.08C394.065 1512.29 392.46 1515.9 391.256 1519.11C390.052 1522.32 388.849 1525.53 387.645 1528.34C385.638 1534.36 383.231 1539.98 381.625 1545.2C380.02 1550.41 378.415 1554.83 377.211 1558.44C376.007 1562.05 375.205 1565.26 374.804 1567.27C374.402 1569.27 374.001 1570.48 374.001 1570.48C374.001 1570.48 375.205 1570.08 376.81 1568.87C378.816 1567.67 381.625 1566.06 384.836 1564.06C388.046 1561.65 392.059 1558.84 396.473 1555.63C400.486 1552.02 405.301 1548.01 410.117 1543.19C412.524 1540.78 414.932 1538.37 417.34 1535.57C419.748 1532.76 422.155 1529.95 424.563 1527.14C429.78 1521.52 434.194 1515.1 439.411 1508.28C444.226 1501.46 449.041 1494.23 453.054 1486.61C457.067 1478.98 461.481 1471.36 465.093 1462.93C466.698 1458.92 468.705 1454.91 470.31 1450.89C471.915 1446.88 473.52 1442.47 474.724 1438.45C476.329 1434.44 477.533 1430.03 478.737 1426.01C479.941 1422 480.743 1417.59 481.947 1413.57C482.75 1409.56 483.953 1405.55 484.756 1401.54C485.559 1397.52 485.96 1393.51 486.361 1389.9C487.164 1382.27 487.966 1375.05 487.966 1368.23C487.966 1361.41 487.966 1355.39 487.565 1349.77C486.762 1344.15 486.361 1339.34 485.559 1335.32C484.355 1327.3 482.75 1322.88 482.75 1322.88C482.75 1322.88 479.941 1326.9 476.329 1333.72C474.323 1337.33 472.316 1341.34 469.908 1346.16C467.501 1350.97 464.692 1356.19 461.883 1361.81C459.475 1367.43 455.863 1373.45 452.653 1379.87C451.048 1383.08 449.443 1386.29 447.838 1389.9C446.232 1393.11 444.627 1396.72 442.621 1399.93C442.621 1403.14 441.016 1406.75 439.411 1410.36Z" fill="white"/>
<path opacity="0.2" d="M476.728 1492.63C473.517 1494.23 470.709 1496.24 467.899 1498.25C464.689 1500.25 461.88 1502.26 459.071 1504.67C456.262 1506.67 453.453 1509.08 450.644 1511.49C445.026 1516.3 439.809 1521.52 434.593 1527.14C429.777 1532.76 424.962 1538.37 420.548 1544.39C416.134 1550.41 412.522 1556.43 408.91 1562.45C405.299 1568.47 402.49 1574.49 400.082 1580.51C397.674 1586.53 395.668 1592.15 393.662 1597.36C392.056 1602.58 390.853 1607.8 389.649 1612.21C388.846 1616.62 388.044 1620.64 387.642 1624.25C386.84 1631.07 387.241 1635.08 387.241 1635.08C387.241 1635.08 390.451 1632.68 395.668 1628.66C400.885 1624.65 408.108 1619.03 416.134 1611.81C420.146 1608.2 424.159 1604.59 428.573 1600.17C432.988 1596.16 437.402 1591.75 441.816 1587.33C446.23 1582.92 450.644 1578.1 455.46 1573.29C459.874 1568.47 464.288 1563.66 469.103 1558.84C473.518 1554.02 477.932 1549.21 482.346 1544.39C486.76 1539.58 490.773 1534.76 495.187 1530.35C496.391 1529.14 497.193 1527.94 498.397 1526.74C499.601 1525.53 500.404 1524.33 501.608 1523.53C502.41 1522.32 503.614 1521.12 504.417 1520.32C505.219 1519.11 506.423 1518.31 507.226 1517.11C509.232 1515.1 510.837 1512.69 512.844 1510.69C514.449 1508.68 516.455 1506.67 518.06 1504.67C521.672 1500.65 524.882 1497.04 527.691 1493.83C530.5 1490.62 533.309 1487.81 535.316 1485.4C539.73 1480.59 542.137 1477.38 542.137 1477.38C542.137 1477.38 538.125 1476.98 531.303 1476.98C528.092 1476.98 523.678 1477.38 519.264 1478.18C516.856 1478.58 514.449 1478.98 512.041 1479.79C509.633 1480.19 506.824 1481.39 504.015 1482.19C501.206 1483 498.397 1484.2 495.588 1485.4C492.779 1486.61 489.569 1487.81 486.76 1489.42C482.747 1489.42 479.938 1491.02 476.728 1492.63Z" fill="white"/>
<path opacity="0.2" d="M347.515 1347.36C348.719 1367.02 350.725 1383.48 352.33 1395.11C353.936 1406.75 355.139 1413.17 355.139 1413.17C355.139 1413.17 357.948 1406.75 361.56 1395.92C363.566 1390.3 365.573 1383.48 367.579 1375.85C369.586 1368.23 371.994 1359.4 374 1349.77C376.006 1340.14 378.414 1329.71 380.421 1318.47C382.427 1307.23 384.032 1295.6 385.637 1283.56C388.848 1259.08 390.854 1232.99 391.657 1206.91C392.058 1193.67 392.058 1180.83 392.058 1167.59C391.657 1154.74 391.255 1141.9 390.051 1129.46C389.249 1117.02 387.644 1104.98 386.039 1093.75C384.433 1082.51 382.427 1071.68 380.019 1062.05C377.612 1052.42 375.204 1043.19 372.796 1035.56C371.592 1031.55 370.388 1027.94 368.783 1024.73C367.579 1021.52 366.375 1018.31 365.172 1015.5C363.968 1012.69 362.764 1010.28 361.961 1008.27C360.758 1006.27 359.955 1004.66 359.152 1003.06C357.547 1000.25 356.745 999.045 356.745 999.045C356.745 999.045 356.745 1000.65 356.745 1003.86C356.745 1005.47 356.745 1007.47 356.745 1009.48C356.745 1011.89 356.745 1014.29 356.343 1017.1C356.343 1019.91 356.343 1023.12 355.942 1026.73C355.942 1030.35 355.541 1033.96 355.541 1037.97C355.139 1041.98 355.139 1046 354.738 1050.41C354.337 1054.82 354.337 1059.24 353.936 1064.05C353.133 1073.68 352.33 1084.12 351.528 1094.95C350.725 1105.79 349.923 1117.42 349.12 1129.46C348.318 1141.5 347.515 1153.94 347.114 1166.38C346.712 1178.82 345.91 1192.06 345.509 1204.9C345.107 1217.75 344.706 1230.59 344.706 1243.43C344.706 1256.27 344.706 1268.71 344.706 1280.75C345.107 1305.23 345.91 1327.7 347.515 1347.36Z" fill="white"/>
<path opacity="0.2" d="M65.0102 2757.48H23.6777V2869.84H56.9845V2893.52H128.413V2869.84H603.536V2893.52H674.965V2869.84H707.871V2757.48H666.94H65.0102Z" fill="white"/>
<g opacity="0.2">
<path opacity="0.5" d="M23.6777 2546.01H707.871V2394.32H23.6777V2546.01ZM286.922 2460.13H445.028C446.634 2460.13 447.837 2461.33 447.837 2462.94V2486.21C447.837 2487.82 446.634 2489.02 445.028 2489.02H286.922C285.316 2489.02 284.113 2487.82 284.113 2486.21V2462.94C283.711 2461.33 285.316 2460.13 286.922 2460.13Z" fill="white"/>
</g>
<g opacity="0.2">
<path opacity="0.5" d="M23.6777 2367.83H707.871V2206.12H23.6777V2367.83ZM286.922 2275.14H445.028C446.634 2275.14 447.837 2276.34 447.837 2277.95V2301.22C447.837 2302.83 446.634 2304.03 445.028 2304.03H286.922C285.316 2304.03 284.113 2302.83 284.113 2301.22V2277.95C283.711 2276.34 285.316 2275.14 286.922 2275.14Z" fill="white"/>
</g>
<g opacity="0.2">
<path opacity="0.5" d="M23.6777 2004.67V2180.43H707.871V2004.67H23.6777ZM445.028 2115.02H286.922C285.316 2115.02 284.113 2113.82 284.113 2112.21V2088.94C284.113 2087.33 285.316 2086.13 286.922 2086.13H445.028C446.634 2086.13 447.837 2087.33 447.837 2088.94V2112.21C447.837 2113.82 446.634 2115.02 445.028 2115.02Z" fill="white"/>
</g>
<path opacity="0.2" d="M707.869 1977.78H731.946V1898.73H466.295L478.333 1683.64H504.417L495.187 1642.71H248.396L244.383 1659.96L239.167 1683.64H265.25L266.454 1699.69L277.69 1898.73H0V1977.78H23.6759V1978.18H707.869V1977.78Z" fill="white"/>
<g opacity="0.2">
<path opacity="0.5" d="M23.6777 2731.4H707.871V2572.09H23.6777V2731.4ZM286.922 2645.12H445.028C446.634 2645.12 447.837 2646.33 447.837 2647.93V2671.21C447.837 2672.81 446.634 2674.02 445.028 2674.02H286.922C285.316 2674.02 284.113 2672.81 284.113 2671.21V2647.93C283.711 2646.33 285.316 2645.12 286.922 2645.12Z" fill="white"/>
</g>
</svg>
