<svg width="3593" height="2904" viewBox="0 0 3593 2904" fill="none" xmlns="http://www.w3.org/2000/svg">
<path d="M0 792.993C103.004 646.554 525.361 31.4278 1415.99 1.64356C2333.93 -28.968 2112.61 374.36 2128.33 682.958C2146.53 1035.82 2902.31 1192.19 3172.02 1156.61C3965.44 1051.54 3667.18 2689.67 2000.92 2568.47C1473.91 2529.99 1429.23 2447.67 950.2 2668.57C688.347 2789.37 336.314 2810.46 241.997 2452.22C182.428 2226.36 301.565 1841.65 0 1893.77V792.993H0Z" fill="#D8EFF4"/>
<path d="M1258.38 1512.77H641.6V726.8H1258.38V1512.77ZM728.47 1425.9H1171.51V813.671H728.47V1425.9Z" fill="white"/>
<path d="M1087.54 1057.74C1057.34 977.484 958.889 1013.47 950.202 1053.6C937.792 1010.99 841.82 979.553 812.863 1057.74C780.183 1145.02 939.033 1223.62 950.202 1236.44C961.371 1226.1 1120.22 1143.78 1087.54 1057.74Z" fill="white"/>
<path d="M1969.9 1512.77H1353.12V726.799H1969.9V1512.77ZM1439.99 1425.9H1883.03V813.67H1439.99V1425.9Z" fill="white"/>
<path d="M1797.4 1061.04H1663.37L1731.63 948.526H1632.34L1526.03 1124.34V1124.75H1585.19H1626.14C1626.55 1124.75 1618.69 1138.4 1608.77 1154.95L1536.37 1274.08L1696.88 1147.5C1713.01 1134.68 1726.25 1124.34 1725.83 1124.34C1725.42 1124.34 1738.24 1113.17 1753.55 1099.93L1797.4 1061.04Z" fill="white"/>
<path d="M839.747 2408.78H1775.47V2184.57H839.747V2408.78ZM1308.85 2264.41C1324.15 2264.41 1336.56 2276.82 1336.56 2292.13C1336.56 2307.43 1324.15 2319.84 1308.85 2319.84C1293.54 2319.84 1281.13 2307.43 1281.13 2292.13C1280.72 2276.82 1293.13 2264.41 1308.85 2264.41Z" fill="white"/>
<path d="M1775.47 1616.19H839.752V1871.01H1775.47V1616.19ZM1308.85 1781.66C1293.55 1781.66 1281.14 1769.25 1281.14 1753.94C1281.14 1738.64 1293.55 1726.23 1308.85 1726.23C1324.16 1726.23 1336.57 1738.64 1336.57 1753.94C1336.57 1768.83 1324.16 1781.66 1308.85 1781.66Z" fill="white"/>
<path d="M839.747 1912.38V2143.21H1775.47V1912.38H839.747ZM1308.85 2050.54C1293.54 2050.54 1281.13 2038.13 1281.13 2022.83C1281.13 2007.52 1293.54 1995.11 1308.85 1995.11C1324.15 1995.11 1336.56 2007.52 1336.56 2022.83C1336.56 2038.13 1324.15 2050.54 1308.85 2050.54Z" fill="white"/>
<path d="M909.664 2393.48V2798.46" stroke="#FCFCFC" stroke-width="37.2303" stroke-miterlimit="10"/>
<path d="M1687.77 2393.48V2597.83" stroke="#FCFCFC" stroke-width="37.2303" stroke-miterlimit="10"/>
<path d="M0 2903.95C155.126 2701.25 186.979 2950.28 376.44 2886.58C502.609 2843.97 582.034 2789.37 650.703 2685.12C718.131 2590.8 680.073 2522.55 633.742 2468.77C485.648 2296.68 342.932 2530.41 339.209 2298.34C333.418 1928.52 203.112 1871.43 170.432 1854.06C119.551 1827.17 64.9462 1842.06 0.41367 1863.57C0 2022.83 0 2474.56 0 2903.95Z" fill="#DDDF6C"/>
<path opacity="0.2" d="M2546.96 2791.02C3045.24 2791.02 3449.18 2754.72 3449.18 2709.94C3449.18 2665.16 3045.24 2628.86 2546.96 2628.86C2048.69 2628.86 1644.75 2665.16 1644.75 2709.94C1644.75 2754.72 2048.69 2791.02 2546.96 2791.02Z" fill="#C6C6C6"/>
<path d="M2924.65 2063.78L2903.55 2048.06L3380.52 1492.08L3389.2 1499.94C3399.54 1508.63 3401.2 1524.35 3392.1 1535.11L2959.4 2061.29C2951.13 2071.22 2935.41 2072.46 2924.65 2063.78Z" fill="#BDBEBF"/>
<path d="M2897.36 1772.55C2876.26 1763.04 2850.2 1775.04 2839.03 1799.86C2834.06 1810.61 2827.86 1826.74 2826.2 1840.81C2824.14 1856.53 2827.86 1866.46 2837.37 1870.59C2840.68 1872.25 2844.82 1873.07 2849.78 1873.07C2852.27 1873.07 2854.33 1873.07 2856.82 1872.66C2864.26 1871.83 2872.12 1868.94 2879.98 1865.22C2896.53 1857.36 2910.18 1845.36 2915.14 1834.19C2926.31 1809.37 2918.45 1782.07 2897.36 1772.55Z" fill="#FF896D"/>
<path d="M2875.01 1842.05C2873.77 1835.02 2869.64 1828.4 2863.43 1824.26C2857.23 1820.12 2849.78 1818.88 2842.75 1820.54L2659.08 1863.56L2474.58 1880.52C2467.14 1881.35 2460.52 1885.07 2455.97 1890.86C2451.42 1896.65 2449.76 1904.1 2450.59 1911.55C2452.66 1924.37 2463.83 1933.88 2476.65 1933.88C2477.48 1933.88 2478.31 1933.88 2479.13 1933.88L2667.35 1916.51L2854.33 1872.25C2868.4 1868.94 2877.08 1855.7 2875.01 1842.05Z" fill="#FF896D"/>
<path d="M2921.33 2046.4C2914.71 2046.4 2908.09 2043.92 2903.13 2039.79L2764.14 1921.06C2761.24 1918.58 2760.83 1914.44 2763.31 1911.55L3164.15 1435.41C3167.05 1432.1 3170.77 1430.45 3174.91 1430.45C3176.56 1430.45 3177.81 1430.86 3179.46 1431.28L3373.06 1494.98C3376.78 1496.22 3379.26 1498.71 3380.09 1502.43C3380.92 1506.15 3380.5 1509.87 3378.02 1512.77L2942.84 2036.89C2937.46 2042.68 2929.6 2046.4 2921.33 2046.4Z" fill="white"/>
<path d="M3174.92 1436.24C3175.75 1436.24 3176.57 1436.24 3177.4 1436.65L3371 1499.95C3373.07 1500.77 3373.89 1502.43 3374.31 1503.26C3374.72 1504.08 3374.72 1506.15 3373.48 1507.8L2938.3 2031.92C2934.16 2036.89 2927.96 2039.78 2921.34 2039.78C2915.96 2039.78 2911 2038.13 2907.27 2034.41L2768.28 1915.68C2767.87 1915.27 2767.87 1914.86 2768.28 1914.86L3169.13 1438.72C3170.37 1437.48 3172.85 1436.24 3174.92 1436.24ZM3174.92 1423.83C3169.13 1423.83 3163.34 1426.31 3159.2 1430.86L2758.35 1907C2753.8 1912.37 2754.22 1920.65 2760.01 1925.61L2899 2044.33C2905.62 2049.71 2913.48 2052.61 2921.34 2052.61C2931.27 2052.61 2940.78 2048.47 2947.81 2040.2L3382.99 1516.08C3390.85 1506.56 3386.72 1492.5 3375.13 1488.36L3181.54 1425.07C3179.47 1424.24 3177.4 1423.83 3174.92 1423.83Z" fill="#BDBEBF"/>
<path d="M2944.92 1878.87C2942.02 1883 2935.82 1883.83 2931.68 1880.93C2927.55 1877.62 2926.72 1871.83 2929.61 1867.7C2932.51 1863.56 2938.72 1862.73 2942.85 1865.63C2946.99 1868.52 2948.23 1874.73 2944.92 1878.87Z" fill="white" stroke="#30DDD3" stroke-width="1.03418"/>
<path d="M3240.28 1473.06L3272.96 1485.47C3275.03 1486.29 3275.86 1488.36 3275.44 1490.43C3274.61 1492.5 3272.55 1493.33 3270.48 1492.91L3237.8 1480.5C3235.73 1479.67 3234.9 1477.61 3235.32 1475.54C3236.14 1473.06 3238.21 1472.23 3240.28 1473.06Z" fill="#BDBEBF"/>
<path d="M3219.19 1463.95C3220.84 1465.2 3221.67 1467.26 3220.43 1469.33L3218.77 1471.81C3217.53 1473.47 3215.46 1474.3 3213.4 1473.06C3211.74 1471.81 3210.91 1469.75 3212.15 1467.68L3213.81 1465.2C3215.05 1463.13 3217.53 1462.71 3219.19 1463.95Z" fill="#BDBEBF"/>
<path d="M2874.59 1931.82C2867.98 1926.44 2858.87 1924.78 2849.77 1926.85C2841.5 1928.92 2834.05 1933.88 2828.26 1940.92C2822.47 1947.95 2819.16 1956.64 2819.16 1964.91C2819.16 1974.42 2822.89 1982.7 2829.5 1988.08C2834.47 1991.8 2840.26 1993.87 2846.46 1993.87C2848.95 1993.87 2851.84 1993.45 2854.32 1993.04C2862.6 1990.97 2870.04 1986.01 2875.83 1978.98C2881.63 1971.94 2884.94 1963.26 2884.94 1954.98C2884.94 1945.88 2881.21 1937.19 2874.59 1931.82Z" stroke="#BDBEBF" stroke-width="4.1367" stroke-miterlimit="10"/>
<path d="M3089.29 1625.29C3090.53 1626.12 3091.77 1626.94 3092.19 1628.18C3093.01 1629.42 3093.43 1630.66 3093.43 1631.91C3093.43 1633.56 3093.01 1634.8 3092.19 1636.46L3086.39 1646.38L3083.5 1644.73L3088.88 1635.22C3089.7 1633.56 3090.12 1631.91 3089.7 1630.66C3089.29 1629.42 3088.46 1628.18 3087.22 1627.36C3085.57 1626.53 3084.33 1626.53 3082.67 1626.94C3081.43 1627.36 3080.19 1628.6 3078.95 1630.25L3073.57 1639.77L3070.68 1638.11L3076.05 1628.6C3076.88 1626.94 3077.29 1625.29 3076.88 1624.05C3076.47 1622.81 3075.64 1621.56 3074.4 1620.74C3072.74 1619.91 3071.5 1619.91 3069.85 1620.32C3068.61 1620.74 3067.37 1621.98 3066.12 1623.63L3060.75 1633.15L3057.85 1631.49L3067.37 1614.12L3070.26 1615.77L3069.02 1618.25C3070.26 1617.84 3071.09 1617.43 3072.33 1617.43C3073.57 1617.43 3074.81 1617.84 3076.05 1618.67C3077.29 1619.5 3078.54 1620.32 3079.36 1621.98C3080.19 1623.22 3080.6 1624.46 3080.19 1626.11C3081.43 1625.29 3082.67 1624.87 3084.33 1624.46C3086.39 1624.05 3087.64 1624.46 3089.29 1625.29ZM3103.77 1630.25C3103.36 1629.84 3102.94 1629.42 3102.53 1629.01C3102.53 1628.6 3102.53 1627.77 3102.94 1627.36C3103.36 1626.94 3103.77 1626.53 3104.18 1626.11C3104.6 1626.11 3105.42 1626.11 3105.84 1626.53C3106.25 1626.94 3106.66 1627.36 3106.66 1627.77C3106.66 1628.18 3106.66 1629.01 3106.25 1629.42C3105.84 1629.84 3105.42 1630.25 3105.01 1630.66C3105.01 1630.66 3104.6 1630.67 3103.77 1630.25ZM3103.77 1633.97L3094.25 1651.35L3091.36 1649.69L3100.87 1632.32L3103.77 1633.97ZM3117.42 1641.42C3119.49 1642.66 3120.73 1644.32 3121.56 1645.97C3121.97 1648.04 3121.97 1650.11 3120.32 1652.59L3114.52 1662.52L3111.63 1660.86L3117.01 1651.35C3117.83 1649.69 3118.25 1648.04 3117.83 1646.8C3117.42 1645.56 3116.59 1644.32 3114.94 1643.49C3113.28 1642.66 3112.04 1642.25 3110.39 1643.07C3109.15 1643.49 3107.91 1644.73 3106.66 1646.38L3101.29 1655.9L3098.39 1654.24L3107.91 1636.87L3110.8 1638.52L3109.56 1641.01C3110.8 1640.59 3111.63 1640.18 3112.87 1640.18C3114.94 1640.18 3116.18 1640.59 3117.42 1641.42ZM3167.47 1669.14C3168.72 1669.96 3169.96 1670.79 3170.37 1672.03C3171.2 1673.27 3171.61 1674.51 3171.61 1675.76C3171.61 1677 3171.2 1678.65 3170.37 1680.3L3164.58 1690.23L3161.68 1688.58L3167.06 1679.06C3167.89 1677.41 3168.3 1675.76 3167.89 1674.51C3167.47 1673.27 3166.65 1672.03 3165.41 1671.2C3163.75 1670.38 3162.51 1670.38 3160.86 1670.79C3159.61 1671.21 3158.37 1672.45 3157.13 1674.1L3151.75 1683.61L3148.86 1681.96L3154.24 1672.45C3155.06 1670.79 3155.48 1669.14 3155.06 1667.89C3154.65 1666.65 3153.82 1665.41 3152.58 1664.59C3150.93 1663.76 3149.69 1663.76 3148.03 1664.17C3146.79 1664.59 3145.55 1665.83 3144.31 1667.48L3138.93 1677L3136.04 1675.34L3145.55 1657.97L3148.45 1659.62L3147.2 1662.1C3148.45 1661.69 3149.27 1661.28 3150.51 1661.28C3151.75 1661.28 3153 1661.69 3154.24 1662.52C3155.48 1663.35 3156.72 1664.17 3157.55 1665.83C3158.37 1667.07 3158.79 1668.31 3158.37 1669.96C3159.61 1669.14 3160.86 1668.72 3162.51 1668.31C3164.58 1668.31 3166.23 1668.31 3167.47 1669.14ZM3190.64 1693.13C3190.23 1693.54 3189.81 1694.37 3189.4 1694.78L3175.75 1686.92C3174.92 1688.58 3174.92 1690.23 3175.33 1691.89C3175.75 1693.54 3176.99 1694.78 3178.23 1695.61C3179.47 1696.44 3180.71 1696.44 3181.95 1696.44C3183.19 1696.44 3184.02 1696.02 3184.85 1695.2L3187.74 1696.85C3186.5 1698.09 3184.85 1698.92 3182.78 1699.33C3180.71 1699.75 3178.64 1699.33 3176.57 1698.09C3174.92 1697.27 3173.68 1696.03 3172.85 1694.37C3172.02 1693.13 3171.61 1691.47 3171.61 1689.41C3171.61 1687.75 3172.02 1685.68 3173.27 1684.03C3174.09 1682.37 3175.33 1680.72 3176.99 1679.89C3178.64 1679.06 3179.88 1678.65 3181.54 1678.65C3183.19 1678.65 3184.85 1679.06 3186.5 1679.89C3188.16 1680.72 3189.4 1681.96 3190.23 1683.2C3191.05 1684.44 3191.47 1686.1 3191.47 1687.75C3191.88 1689.82 3191.47 1691.47 3190.64 1693.13ZM3187.74 1690.65C3188.16 1689.41 3188.57 1688.58 3188.57 1687.34C3188.57 1686.1 3188.16 1685.27 3187.74 1684.44C3187.33 1683.61 3186.5 1682.79 3185.26 1682.37C3184.02 1681.55 3182.37 1681.13 3180.71 1681.55C3179.06 1681.96 3177.82 1682.79 3176.99 1684.44L3187.74 1690.65Z" fill="#5FB8DE"/>
<path d="M3123.22 1667.07L3122.8 1667.48C3122.8 1667.48 3122.39 1667.48 3121.98 1667.07C3121.56 1667.07 3121.15 1666.65 3121.15 1666.24C3121.15 1665.83 3121.15 1665.83 3121.15 1665.83L3121.56 1665.41C3121.98 1665.41 3122.39 1665.41 3122.39 1665.83C3122.8 1665.83 3122.8 1666.24 3122.8 1666.24C3123.63 1666.65 3123.63 1666.65 3123.22 1667.07Z" fill="#FF896D" stroke="#FF896D" stroke-width="3.05454"/>
<path d="M3126.51 1668.72V1669.13L3126.93 1669.55C3127.34 1669.55 3127.75 1669.96 3127.75 1669.96C3128.17 1669.96 3128.17 1669.96 3128.17 1669.55V1669.13C3128.17 1668.72 3127.75 1668.72 3127.34 1668.31C3126.93 1668.31 3126.51 1667.89 3126.51 1667.89C3126.51 1668.31 3126.51 1668.31 3126.51 1668.72Z" fill="#FF896D" stroke="#FF896D" stroke-width="3.05454"/>
<path d="M3122.38 1665.41L3125.69 1658.79L3129.83 1652.59C3129.83 1652.18 3130.24 1652.18 3130.65 1652.18C3131.07 1652.18 3131.07 1652.59 3131.07 1653L3127.34 1658.38C3126.93 1658.79 3126.93 1659.21 3126.52 1659.62L3123.62 1665.83C3123.62 1666.24 3123.21 1666.24 3122.79 1666.24C3122.38 1666.24 3122.38 1665.83 3122.38 1665.41Z" fill="#FF896D" stroke="#FF896D" stroke-width="3.05454"/>
<path d="M3123.21 1656.73L3124.87 1653C3124.87 1652.59 3125.28 1652.59 3125.28 1652.18L3127.35 1648.87C3127.35 1648.87 3127.77 1648.45 3127.77 1648.87C3127.77 1648.87 3128.18 1649.28 3127.77 1649.28L3125.7 1652.59C3125.7 1653 3125.28 1653 3125.28 1653.42L3123.63 1657.14C3123.63 1657.55 3123.21 1657.55 3123.21 1657.14V1656.73Z" fill="#FF896D" stroke="#FF896D" stroke-width="3.05454"/>
<path d="M3137.68 1659.62L3139.34 1655.9C3139.34 1655.48 3139.75 1655.48 3139.75 1655.9C3139.75 1655.9 3140.17 1656.31 3139.75 1656.31L3138.1 1660.04L3135.62 1663.76C3135.62 1663.76 3135.2 1664.17 3135.2 1663.76C3135.2 1663.76 3134.79 1663.34 3135.2 1663.34L3137.68 1659.62Z" fill="#FF896D" stroke="#FF896D" stroke-width="3.05454"/>
<path d="M3131.07 1661.69L3133.96 1655.07C3133.96 1654.66 3134.38 1654.66 3134.79 1654.66C3135.2 1654.66 3135.2 1655.07 3135.2 1655.48L3131.89 1662.1L3128.17 1668.72C3128.17 1669.14 3127.76 1669.13 3127.34 1669.13C3126.93 1669.13 3126.93 1668.72 3126.93 1668.31L3131.07 1661.69Z" fill="#FF896D" stroke="#FF896D" stroke-width="3.05454"/>
<path d="M3136.04 1664.59C3135.63 1665 3135.22 1665 3134.8 1665C3134.39 1665 3134.39 1664.17 3134.39 1663.76C3134.8 1663.34 3135.22 1663.34 3135.63 1663.34C3136.04 1663.34 3136.04 1664.17 3136.04 1664.59Z" fill="#FF896D" stroke="#FF896D" stroke-width="3.05454"/>
<path d="M3124.04 1657.55C3123.62 1657.97 3123.21 1657.97 3122.79 1657.97C3122.38 1657.97 3122.38 1657.14 3122.38 1656.73C3122.79 1656.31 3123.21 1656.31 3123.62 1656.31C3124.04 1656.73 3124.04 1657.14 3124.04 1657.55Z" fill="#FF896D" stroke="#FF896D" stroke-width="3.05454"/>
<path d="M3154.65 1645.56C3150.92 1652.18 3142.65 1661.69 3129 1656.31C3121.97 1646.8 3126.52 1638.53 3130.24 1631.91C3133.96 1625.29 3140.17 1624.87 3147.2 1628.6C3154.23 1632.73 3158.37 1638.94 3154.65 1645.56Z" fill="#FF896D"/>
<path d="M3141.83 1636.46C3141 1637.28 3138.52 1637.28 3137.28 1636.46C3135.62 1635.63 3134.8 1633.56 3134.8 1632.73C3136.04 1632.32 3137.69 1631.91 3139.35 1632.73C3141 1633.56 3142.24 1635.22 3141.83 1636.46Z" fill="white"/>
<path d="M3150.51 1641.01C3149.68 1641.83 3147.2 1641.83 3145.96 1641.01C3144.3 1640.18 3143.48 1638.11 3143.48 1637.28C3144.72 1636.87 3146.37 1636.46 3148.03 1637.28C3149.27 1638.11 3150.51 1640.18 3150.51 1641.01Z" fill="white"/>
<path d="M3140.93 1635.15C3141.5 1634.44 3141.38 1633.4 3140.67 1632.83C3139.96 1632.25 3138.92 1632.37 3138.34 1633.08C3137.77 1633.79 3137.89 1634.84 3138.6 1635.41C3139.31 1635.98 3140.35 1635.87 3140.93 1635.15Z" fill="#6D6D6D"/>
<path d="M3149.09 1639.9C3149.66 1639.19 3149.55 1638.14 3148.84 1637.57C3148.12 1637 3147.08 1637.11 3146.51 1637.83C3145.94 1638.54 3146.05 1639.58 3146.77 1640.15C3147.48 1640.72 3148.52 1640.61 3149.09 1639.9Z" fill="#6D6D6D"/>
<path d="M3142.24 1643.9C3141.83 1644.32 3141.41 1644.73 3140.59 1644.73C3139.76 1644.73 3138.93 1644.32 3137.69 1643.9C3136.86 1643.49 3136.04 1642.66 3135.62 1641.83C3135.21 1641.01 3135.21 1640.59 3135.21 1640.18C3134.8 1640.59 3135.21 1641.42 3135.62 1641.83C3136.04 1642.66 3136.86 1643.07 3137.69 1643.49C3138.52 1643.9 3139.35 1644.31 3140.17 1644.31C3141.41 1644.31 3141.83 1643.9 3142.24 1643.9Z" fill="white"/>
<path d="M2864.25 1869.35L2865.91 1870.59L2865.49 1871.01L2863.01 1869.35L2866.73 1864.39L2867.56 1864.8L2864.25 1869.35ZM2867.98 1873.07C2867.56 1872.66 2867.15 1872.66 2867.15 1872.25C2867.15 1871.83 2866.73 1871.42 2867.15 1871.01C2867.15 1870.59 2867.56 1870.18 2867.56 1869.76C2867.98 1869.35 2868.39 1868.94 2868.39 1868.94C2868.8 1868.94 2869.22 1868.52 2869.63 1868.94C2870.04 1868.94 2870.46 1869.35 2870.87 1869.35C2871.29 1869.77 2871.7 1869.77 2871.7 1870.18C2871.7 1870.59 2872.11 1871.01 2871.7 1871.42C2871.7 1871.83 2871.29 1872.25 2871.29 1872.66C2870.87 1873.07 2870.46 1873.49 2870.04 1873.49C2869.63 1873.49 2869.22 1873.9 2868.8 1873.49C2868.8 1873.49 2868.39 1873.07 2867.98 1873.07ZM2868.39 1872.25C2868.8 1872.25 2868.8 1872.66 2869.22 1872.66C2869.63 1872.66 2869.63 1872.66 2870.04 1872.66C2870.46 1872.66 2870.46 1872.25 2870.87 1871.83C2871.29 1871.42 2871.29 1871.42 2871.29 1871.01C2871.29 1870.59 2871.29 1870.59 2871.29 1870.18C2871.29 1869.77 2870.87 1869.77 2870.87 1869.35C2870.46 1869.35 2870.46 1868.94 2870.04 1868.94C2869.63 1868.94 2869.63 1868.94 2869.22 1868.94C2868.8 1868.94 2868.8 1869.35 2868.39 1869.76C2867.98 1870.18 2867.98 1870.59 2867.98 1870.59C2867.98 1871.01 2867.98 1871.01 2867.98 1871.42C2867.98 1871.83 2867.98 1872.25 2868.39 1872.25ZM2873.77 1872.25C2874.18 1872.25 2874.18 1872.25 2874.59 1872.25C2875.01 1872.25 2875.01 1872.25 2875.42 1872.66L2875.01 1873.49C2874.18 1873.07 2873.77 1873.07 2872.94 1873.9L2871.29 1875.97L2870.46 1875.56L2873.35 1871.83L2874.18 1872.25H2873.77ZM2878.73 1877.63C2878.73 1877.63 2878.32 1878.04 2878.73 1877.63L2875.42 1875.56C2875.01 1875.97 2875.01 1876.38 2875.01 1876.8C2875.01 1877.21 2875.42 1877.63 2875.84 1877.63C2876.25 1878.04 2876.25 1878.04 2876.66 1878.04C2877.08 1878.04 2877.08 1878.04 2877.49 1877.63L2878.32 1878.04C2877.9 1878.45 2877.49 1878.45 2877.08 1878.45C2876.66 1878.45 2876.25 1878.45 2875.84 1878.04C2875.42 1877.62 2875.01 1877.62 2875.01 1877.21C2875.01 1876.8 2874.59 1876.38 2875.01 1875.97C2875.01 1875.56 2875.42 1875.14 2875.42 1874.73C2875.84 1874.32 2876.25 1873.9 2876.25 1873.9C2876.66 1873.9 2877.08 1873.49 2877.49 1873.9C2877.9 1873.9 2878.32 1874.32 2878.73 1874.32C2879.15 1874.73 2879.56 1874.73 2879.56 1875.14C2879.56 1875.56 2879.97 1875.97 2879.56 1876.38C2879.14 1876.8 2878.73 1877.21 2878.73 1877.63ZM2877.9 1877.21C2877.9 1876.8 2878.32 1876.8 2878.32 1876.38C2878.32 1875.97 2878.32 1875.97 2878.32 1875.56C2878.32 1875.14 2877.9 1875.14 2877.9 1875.14C2877.49 1874.73 2877.08 1874.73 2876.66 1874.73C2876.25 1874.73 2875.84 1875.14 2875.84 1875.14L2877.9 1877.21ZM2885.76 1880.11C2886.18 1880.52 2886.18 1880.52 2886.59 1880.93C2886.59 1881.35 2886.59 1881.76 2886.59 1881.76C2886.59 1882.18 2886.18 1882.59 2886.18 1883L2884.52 1885.48L2883.7 1885.07L2885.35 1883C2885.76 1882.59 2885.76 1882.18 2885.76 1881.76C2885.76 1881.35 2885.35 1880.93 2885.35 1880.93C2884.94 1880.52 2884.52 1880.52 2884.11 1880.52C2883.7 1880.52 2883.28 1880.93 2883.28 1881.35L2881.63 1883.42L2880.8 1883L2882.45 1880.93C2882.87 1880.52 2882.87 1880.11 2882.87 1879.69C2882.87 1879.28 2882.45 1878.87 2882.45 1878.87C2882.04 1878.45 2881.63 1878.45 2881.21 1878.45C2880.8 1878.45 2880.39 1878.87 2880.39 1879.28L2878.73 1881.35L2877.9 1880.93L2880.8 1877.21L2881.63 1877.63L2881.21 1878.04C2881.63 1878.04 2881.63 1878.04 2882.04 1878.04C2882.45 1878.04 2882.45 1878.04 2882.87 1878.45C2883.28 1878.87 2883.28 1878.87 2883.7 1879.28C2883.7 1879.69 2883.7 1880.11 2883.7 1880.52C2884.11 1880.52 2884.52 1880.11 2884.52 1880.11C2884.94 1879.69 2885.35 1879.69 2885.76 1880.11ZM2891.14 1883C2890.73 1883 2890.73 1883 2891.14 1883C2890.73 1882.59 2891.14 1882.18 2891.14 1882.18C2891.14 1882.18 2891.56 1882.18 2891.56 1881.76H2891.97C2891.97 1881.76 2891.97 1881.76 2891.97 1882.18V1882.59C2891.55 1883 2891.56 1883 2891.14 1883ZM2890.73 1883.83L2887.83 1887.55L2887 1887.14L2889.9 1883.42L2890.73 1883.83ZM2891.97 1885.9C2892.38 1885.9 2892.38 1885.9 2892.8 1885.9C2893.21 1885.9 2893.62 1885.9 2894.04 1886.31C2894.45 1886.73 2894.45 1886.73 2894.86 1887.14C2894.86 1887.55 2894.86 1887.97 2894.86 1888.38C2894.86 1888.79 2894.45 1889.21 2894.45 1889.62C2894.04 1890.04 2893.62 1890.45 2893.62 1890.45C2893.21 1890.45 2892.8 1890.86 2892.38 1890.86C2891.97 1890.86 2891.56 1890.86 2891.14 1890.45C2890.73 1890.03 2890.73 1890.04 2890.31 1889.62C2890.31 1889.21 2890.31 1888.79 2890.31 1888.79L2888.25 1891.28L2887.42 1890.86L2891.56 1885.07L2892.38 1885.48L2891.97 1885.9ZM2894.04 1889.21C2894.45 1888.79 2894.45 1888.79 2894.45 1888.38C2894.45 1887.97 2894.45 1887.97 2894.45 1887.55C2894.45 1887.14 2894.04 1887.14 2894.04 1886.73C2893.62 1886.73 2893.62 1886.31 2893.21 1886.31C2892.8 1886.31 2892.8 1886.31 2892.38 1886.31C2891.97 1886.31 2891.97 1886.73 2891.56 1887.14C2891.14 1887.55 2891.14 1887.55 2891.14 1887.97C2891.14 1888.38 2891.14 1888.38 2891.14 1888.79C2891.14 1889.21 2891.56 1889.21 2891.56 1889.62C2891.97 1889.62 2891.97 1890.04 2892.38 1890.04C2892.8 1890.04 2892.8 1890.04 2893.21 1890.04C2893.21 1889.62 2893.62 1889.62 2894.04 1889.21ZM2895.28 1893.34C2894.86 1892.93 2894.86 1892.93 2894.45 1892.52C2894.45 1892.1 2894.04 1892.1 2894.04 1891.69C2894.04 1891.28 2894.04 1891.28 2894.45 1890.86L2895.28 1891.28C2895.28 1891.69 2895.28 1891.69 2895.28 1892.1C2895.28 1892.52 2895.69 1892.52 2895.69 1892.93C2896.11 1892.93 2896.11 1893.34 2896.52 1893.34C2896.93 1893.34 2896.93 1893.34 2896.93 1892.93V1892.52C2896.93 1892.52 2896.52 1892.1 2896.52 1891.69C2896.11 1891.28 2896.11 1891.28 2896.11 1890.86C2896.11 1890.45 2896.11 1890.45 2895.69 1890.04C2895.69 1889.62 2895.69 1889.62 2896.11 1889.21L2896.52 1888.79C2896.93 1888.79 2896.93 1888.79 2897.35 1888.79C2897.76 1888.79 2897.76 1888.79 2898.17 1889.21C2898.59 1889.62 2899 1890.03 2899 1890.45C2899 1890.86 2899 1891.28 2898.59 1891.69L2897.76 1891.28C2897.76 1890.86 2897.76 1890.86 2897.76 1890.45C2897.76 1890.03 2897.76 1890.04 2897.35 1889.62C2896.93 1889.62 2896.93 1889.21 2896.52 1889.21C2896.11 1889.21 2896.11 1889.21 2896.11 1889.62V1890.04V1890.45L2896.52 1890.86C2896.93 1891.28 2896.93 1891.28 2896.93 1891.69C2896.93 1891.69 2896.93 1892.1 2897.35 1892.52C2897.35 1892.93 2897.35 1892.93 2896.93 1893.34C2896.93 1893.76 2896.52 1893.76 2896.52 1893.76C2896.11 1893.76 2896.11 1893.76 2895.69 1893.76C2895.69 1893.76 2895.69 1893.76 2895.28 1893.34ZM2903.97 1893.76L2901.07 1897.48L2900.24 1897.07L2900.66 1896.65C2900.24 1896.65 2900.24 1896.65 2899.83 1896.65C2899.41 1896.65 2899.41 1896.65 2899 1896.24C2898.59 1895.83 2898.59 1895.83 2898.17 1895.41C2897.76 1895 2898.17 1894.59 2898.17 1894.59C2898.17 1894.17 2898.59 1893.76 2898.59 1893.34L2900.24 1891.28L2901.07 1891.69L2899.41 1893.76C2899 1894.17 2899 1894.59 2899 1895C2899 1895.41 2899.41 1895.83 2899.41 1895.83C2899.83 1896.24 2900.24 1896.24 2900.66 1896.24C2901.07 1896.24 2901.48 1895.83 2901.48 1895.41L2903.14 1893.34L2903.97 1893.76ZM2909.76 1897.89C2910.17 1898.31 2910.17 1898.31 2910.58 1898.72C2910.58 1899.14 2910.58 1899.55 2910.58 1899.55C2910.58 1899.96 2910.17 1900.38 2910.17 1900.79L2908.52 1903.27L2907.69 1902.86L2909.34 1900.79C2909.76 1900.38 2909.76 1899.96 2909.76 1899.55C2909.76 1899.14 2909.34 1898.72 2909.34 1898.72C2908.93 1898.31 2908.52 1898.31 2908.1 1898.31C2907.69 1898.31 2907.27 1898.72 2907.27 1899.14L2905.62 1901.2L2904.79 1900.79L2906.45 1898.72C2906.86 1898.31 2906.86 1897.89 2906.86 1897.48C2906.86 1897.07 2906.45 1896.65 2906.45 1896.65C2906.03 1896.24 2905.62 1896.24 2905.21 1896.24C2904.79 1896.24 2904.38 1896.65 2904.38 1897.07L2902.72 1899.14L2901.9 1898.72L2904.79 1895L2905.62 1895.41L2905.21 1895.83C2905.62 1895.83 2905.62 1895.83 2906.03 1895.83C2906.45 1895.83 2906.45 1895.83 2906.86 1896.24C2907.27 1896.65 2907.27 1896.65 2907.69 1897.07C2907.69 1897.48 2907.69 1897.9 2907.69 1898.31C2908.1 1898.31 2908.52 1897.89 2908.52 1897.89C2909.34 1897.48 2909.76 1897.89 2909.76 1897.89ZM2912.65 1903.27C2913.07 1902.86 2913.48 1902.45 2913.48 1902.45C2913.89 1902.45 2914.31 1902.03 2914.72 1902.03C2915.13 1902.03 2915.55 1902.03 2915.96 1902.45C2916.38 1902.86 2916.38 1902.86 2916.79 1903.27C2916.79 1903.69 2917.2 1904.1 2916.79 1904.1L2918.44 1902.03L2919.27 1902.45L2915.55 1907.82L2914.72 1907.41L2915.13 1906.58C2914.72 1906.58 2914.31 1906.58 2914.31 1906.58C2913.89 1906.58 2913.48 1906.58 2913.07 1906.17C2912.65 1905.75 2912.65 1905.75 2912.24 1905.34C2912.24 1904.93 2912.24 1904.51 2912.24 1904.1C2912.24 1904.1 2912.65 1903.69 2912.65 1903.27ZM2915.96 1905.75C2916.38 1905.34 2916.38 1905.34 2916.38 1904.93C2916.38 1904.51 2916.38 1904.51 2916.38 1904.1C2916.38 1903.69 2915.96 1903.69 2915.96 1903.27C2915.55 1903.27 2915.55 1902.86 2915.13 1902.86C2914.72 1902.86 2914.72 1902.86 2914.31 1902.86C2913.89 1902.86 2913.89 1903.27 2913.48 1903.69C2913.07 1904.1 2913.07 1904.1 2913.07 1904.51C2913.07 1904.93 2913.07 1904.93 2913.07 1905.34C2913.07 1905.75 2913.48 1905.75 2913.48 1906.17C2913.89 1906.17 2913.89 1906.58 2914.31 1906.58C2914.72 1906.58 2914.72 1906.58 2915.13 1906.58C2915.55 1906.17 2915.96 1906.17 2915.96 1905.75ZM2918.03 1910.3C2917.62 1909.89 2917.2 1909.89 2917.2 1909.48C2917.2 1909.06 2916.79 1908.65 2917.2 1908.24C2917.2 1907.82 2917.62 1907.41 2917.62 1907C2918.03 1906.58 2918.44 1906.17 2918.44 1906.17C2918.86 1906.17 2919.27 1905.75 2919.68 1906.17C2920.1 1906.17 2920.51 1906.58 2920.93 1906.58C2921.34 1907 2921.75 1907 2921.75 1907.41C2921.75 1907.82 2922.17 1908.24 2921.75 1908.65C2921.75 1909.06 2921.34 1909.48 2921.34 1909.89C2920.93 1910.3 2920.51 1910.72 2920.1 1910.72C2919.68 1910.72 2919.27 1911.13 2918.86 1910.72C2918.86 1910.72 2918.44 1910.72 2918.03 1910.3ZM2918.44 1909.89C2918.86 1909.89 2918.86 1910.3 2919.27 1910.3C2919.68 1910.3 2919.68 1910.3 2920.1 1910.3C2920.51 1910.3 2920.51 1909.89 2920.93 1909.48C2921.34 1909.06 2921.34 1909.06 2921.34 1908.65C2921.34 1908.24 2921.34 1908.24 2921.34 1907.82C2921.34 1907.41 2920.93 1907.41 2920.93 1907C2920.51 1907 2920.51 1906.58 2920.1 1906.58C2919.68 1906.58 2919.68 1906.58 2919.27 1906.58C2918.86 1906.58 2918.86 1907 2918.44 1907.41C2918.03 1907.82 2918.03 1908.24 2918.03 1908.24C2918.03 1908.65 2918.03 1908.65 2918.03 1909.06C2918.03 1909.48 2918.44 1909.48 2918.44 1909.89ZM2925.48 1907.82L2921.75 1913.2L2920.93 1912.79L2924.65 1907.41L2925.48 1907.82ZM2924.65 1915.27C2924.23 1914.86 2923.82 1914.86 2923.82 1914.44C2923.82 1914.03 2923.41 1913.61 2923.82 1913.2C2923.82 1912.79 2924.24 1912.37 2924.24 1911.96C2924.65 1911.55 2925.06 1911.13 2925.06 1911.13C2925.48 1911.13 2925.89 1910.72 2926.3 1911.13C2926.72 1911.13 2927.13 1911.55 2927.54 1911.55C2927.96 1911.96 2928.37 1911.96 2928.37 1912.37C2928.37 1912.79 2928.79 1913.2 2928.37 1913.61C2928.37 1914.03 2927.96 1914.44 2927.96 1914.86C2927.54 1915.27 2927.13 1915.68 2926.72 1915.68C2926.3 1915.68 2925.89 1916.1 2925.48 1915.68C2925.06 1915.68 2925.06 1915.27 2924.65 1915.27ZM2925.06 1914.44C2925.48 1914.44 2925.48 1914.86 2925.89 1914.86C2926.3 1914.86 2926.3 1914.86 2926.72 1914.86C2927.13 1914.86 2927.13 1914.44 2927.54 1914.03C2927.96 1913.61 2927.96 1913.2 2927.96 1913.2C2927.96 1912.79 2927.96 1912.79 2927.96 1912.37C2927.96 1911.96 2927.54 1911.96 2927.54 1911.55C2927.13 1911.55 2927.13 1911.13 2926.72 1911.13C2926.3 1911.13 2926.3 1911.13 2925.89 1911.13C2925.48 1911.13 2925.48 1911.55 2925.06 1911.96C2924.65 1912.37 2924.65 1912.79 2924.65 1912.79C2924.65 1913.2 2924.65 1913.2 2924.65 1913.61C2924.65 1914.03 2924.65 1914.44 2925.06 1914.44ZM2930.44 1914.44C2930.85 1914.44 2930.85 1914.44 2931.27 1914.44C2931.68 1914.44 2931.68 1914.44 2932.09 1914.86L2931.68 1915.68C2930.85 1915.27 2930.44 1915.27 2929.61 1916.1L2927.96 1918.16L2927.13 1917.75L2930.03 1914.03L2930.85 1914.44H2930.44ZM2933.34 1921.89C2932.92 1921.47 2932.92 1921.47 2932.51 1921.06C2932.51 1920.65 2932.09 1920.65 2932.09 1920.23C2932.09 1919.82 2932.09 1919.82 2932.51 1919.41L2933.34 1919.82C2933.34 1920.23 2933.34 1920.23 2933.34 1920.65C2933.34 1921.06 2933.75 1921.06 2933.75 1921.47C2934.16 1921.47 2934.16 1921.89 2934.58 1921.89C2934.99 1921.89 2934.99 1921.89 2934.99 1921.47V1921.06C2934.99 1921.06 2934.58 1920.65 2934.58 1920.23C2934.16 1919.82 2934.16 1919.82 2934.16 1919.41C2934.16 1918.99 2934.16 1918.99 2933.75 1918.58C2933.75 1918.16 2933.75 1918.16 2934.16 1917.75L2934.58 1917.34C2934.99 1917.34 2934.99 1917.34 2935.4 1917.34C2935.82 1917.34 2935.82 1917.34 2936.23 1917.75C2936.65 1918.16 2937.06 1918.58 2937.06 1918.99C2937.06 1919.41 2937.06 1919.82 2936.65 1920.23L2935.82 1919.82C2935.82 1919.41 2935.82 1919.41 2935.82 1918.99C2935.82 1918.58 2935.4 1918.58 2935.4 1918.16C2934.99 1918.16 2934.99 1917.75 2934.58 1917.75C2934.16 1917.75 2934.16 1917.75 2934.16 1918.16V1918.58V1918.99L2934.58 1919.41C2934.99 1919.82 2934.99 1919.82 2934.99 1920.23C2934.99 1920.23 2934.99 1920.65 2934.99 1921.06C2934.99 1921.47 2934.99 1921.47 2934.58 1921.89C2934.58 1922.3 2934.16 1922.3 2934.16 1922.3C2933.75 1922.3 2933.75 1922.3 2933.34 1922.3C2934.16 1922.3 2933.75 1921.89 2933.34 1921.89ZM2939.54 1919.41C2939.54 1918.99 2939.54 1918.99 2939.54 1919.41C2939.13 1918.99 2939.54 1918.58 2939.54 1918.58C2939.54 1918.58 2939.95 1918.58 2939.95 1918.16H2940.37V1918.58V1918.99C2940.37 1919.41 2939.95 1919.41 2939.54 1919.41C2939.95 1919.41 2939.54 1919.41 2939.54 1919.41ZM2939.54 1920.23L2936.65 1923.96L2935.82 1923.54L2938.71 1919.82L2939.54 1920.23ZM2940.78 1921.89L2939.13 1924.37V1924.78C2939.13 1924.78 2939.13 1925.2 2939.54 1925.2L2939.95 1925.61L2939.54 1926.02L2939.13 1925.61C2938.71 1925.2 2938.71 1925.2 2938.71 1924.78C2938.71 1924.37 2938.71 1923.96 2939.13 1923.96L2940.78 1921.47L2940.37 1921.06L2940.78 1920.65L2941.2 1921.06L2942.02 1920.23L2942.85 1920.65L2942.02 1921.47L2942.85 1922.3L2942.44 1922.71L2940.78 1921.89ZM2943.26 1926.02C2943.68 1925.61 2944.09 1925.2 2944.09 1925.2C2944.5 1925.2 2944.92 1924.78 2945.33 1924.78C2945.75 1924.78 2946.16 1924.78 2946.57 1925.2C2946.99 1925.61 2946.99 1925.61 2947.4 1926.02C2947.4 1926.44 2947.4 1926.85 2947.4 1926.85L2947.81 1926.02L2948.64 1926.44L2945.75 1930.16L2944.92 1929.75L2945.33 1928.92C2944.92 1928.92 2944.5 1928.92 2944.5 1928.92C2944.09 1928.92 2943.68 1928.92 2943.26 1928.51C2942.85 1928.09 2942.85 1928.09 2942.44 1927.68C2942.44 1927.27 2942.44 1926.85 2942.44 1926.44C2942.85 1926.85 2943.26 1926.44 2943.26 1926.02ZM2946.57 1928.51C2946.99 1928.09 2946.99 1928.09 2946.99 1927.68C2946.99 1927.27 2946.99 1927.27 2946.99 1926.85C2946.99 1926.44 2946.57 1926.44 2946.57 1926.02C2946.57 1925.61 2946.16 1925.61 2945.75 1925.61C2945.33 1925.61 2945.33 1925.61 2944.92 1925.61C2944.5 1925.61 2944.5 1926.02 2944.09 1926.44C2943.68 1926.85 2943.68 1926.85 2943.68 1927.27C2943.68 1927.68 2943.68 1927.68 2943.68 1928.09C2943.68 1928.51 2944.09 1928.51 2944.09 1928.92C2944.5 1928.92 2944.5 1929.33 2944.92 1929.33C2945.33 1929.33 2945.33 1929.33 2945.75 1929.33C2946.16 1928.92 2946.57 1928.92 2946.57 1928.51ZM2954.85 1931.4C2955.26 1931.82 2955.26 1931.82 2955.67 1932.23C2955.67 1932.64 2955.67 1933.06 2955.67 1933.06C2955.67 1933.47 2955.26 1933.88 2955.26 1934.3L2953.61 1936.78L2952.78 1936.37L2954.43 1934.3C2954.85 1933.88 2954.85 1933.47 2954.85 1933.06C2954.85 1932.64 2954.43 1932.23 2954.43 1932.23C2954.02 1931.82 2953.61 1931.82 2953.19 1931.82C2952.78 1931.82 2952.36 1932.23 2952.36 1932.64L2950.71 1934.71L2949.88 1934.3L2951.54 1932.23C2951.95 1931.82 2951.95 1931.4 2951.95 1930.99C2951.95 1930.57 2951.54 1930.16 2951.54 1930.16C2951.12 1929.75 2950.71 1929.75 2950.3 1929.75C2949.88 1929.75 2949.47 1930.16 2949.47 1930.57L2947.81 1932.64L2946.99 1932.23L2949.88 1928.51L2950.71 1928.92L2950.3 1929.33C2950.71 1929.33 2950.71 1929.33 2951.12 1929.33C2951.54 1929.33 2951.54 1929.33 2951.95 1929.75C2952.36 1930.16 2952.36 1930.16 2952.78 1930.57C2952.78 1930.99 2952.78 1931.4 2952.78 1931.82C2953.19 1931.82 2953.61 1931.4 2953.61 1931.4C2954.02 1930.99 2954.43 1930.99 2954.85 1931.4ZM2959.4 1938.02L2956.09 1935.95C2955.67 1936.37 2955.67 1936.78 2955.67 1937.19C2955.67 1937.61 2956.09 1938.02 2956.5 1938.02C2956.91 1938.43 2956.92 1938.43 2957.33 1938.43C2957.74 1938.43 2957.74 1938.43 2958.16 1938.02L2958.98 1938.43C2958.57 1938.85 2958.16 1938.85 2957.74 1938.85C2957.33 1938.85 2956.91 1938.85 2956.5 1938.43C2956.09 1938.02 2955.67 1938.02 2955.67 1937.61C2955.67 1937.19 2955.26 1936.78 2955.67 1936.37C2955.67 1935.95 2956.09 1935.54 2956.09 1935.13C2956.5 1934.71 2956.91 1934.3 2956.91 1934.3C2957.33 1934.3 2957.74 1933.88 2958.16 1934.3C2958.57 1934.3 2958.98 1934.71 2959.4 1934.71C2959.81 1935.12 2960.22 1935.13 2960.22 1935.54C2960.22 1935.95 2960.64 1936.37 2960.22 1936.78C2959.81 1937.19 2959.81 1937.61 2959.4 1938.02ZM2958.98 1937.19C2958.98 1936.78 2959.4 1936.78 2959.4 1936.37C2959.4 1935.95 2959.4 1935.95 2959.4 1935.54C2959.4 1935.13 2958.98 1935.13 2958.98 1935.13C2958.57 1934.71 2958.16 1934.71 2957.74 1934.71C2957.33 1934.71 2956.91 1935.13 2956.91 1935.13L2958.98 1937.19ZM2962.29 1938.02L2960.64 1940.5V1940.92C2960.64 1940.92 2960.64 1941.33 2961.05 1941.33L2961.47 1941.74L2961.05 1942.16L2960.64 1941.74C2960.22 1941.33 2960.22 1941.33 2960.22 1940.92C2960.22 1940.5 2960.22 1940.09 2960.64 1940.09L2962.29 1937.61L2961.88 1937.19L2962.29 1936.78L2962.71 1937.19L2963.53 1936.37L2964.36 1936.78L2963.53 1937.61L2964.36 1938.43L2963.95 1938.85L2962.29 1938.02ZM2961.88 1942.98C2961.47 1942.57 2961.47 1942.57 2961.88 1942.98C2961.47 1942.57 2961.88 1942.16 2961.88 1942.16C2961.88 1942.16 2962.29 1942.16 2962.29 1941.74H2962.71C2962.71 1941.74 2962.71 1941.74 2962.71 1942.16V1942.57C2962.29 1942.98 2962.29 1942.98 2961.88 1942.98Z" fill="#898989"/>
<path d="M2905.21 1825.92L2990.43 1889.21C2998.7 1895.41 3000.36 1907 2994.15 1915.27C2987.95 1923.54 2976.37 1925.2 2968.09 1918.99L2882.88 1855.7C2874.6 1849.5 2872.95 1837.91 2879.15 1829.64C2885.36 1821.37 2896.94 1819.71 2905.21 1825.92Z" stroke="#D9D9D9" stroke-width="4.1367"/>
<path d="M2899.83 1845.36C2896.93 1849.49 2890.73 1850.32 2886.59 1847.43C2882.45 1844.12 2881.63 1838.33 2884.52 1834.19C2887.42 1830.05 2893.62 1829.23 2897.76 1832.12C2902.31 1835.43 2903.14 1841.22 2899.83 1845.36Z" fill="white" stroke="#DE5F8D" stroke-width="1.03418"/>
<path d="M2896.11 1840.4C2896.52 1838.33 2894.04 1837.5 2893.21 1838.33C2893.62 1837.09 2891.97 1835.02 2890.31 1836.26C2888.25 1837.5 2890.31 1841.64 2890.31 1842.05C2891.14 1842.05 2895.69 1842.88 2896.11 1840.4Z" fill="#DE5F8D"/>
<path d="M2922.58 1861.91C2919.69 1866.04 2913.48 1866.87 2909.35 1863.97C2905.21 1860.67 2904.38 1854.87 2907.28 1850.74C2910.17 1846.6 2916.38 1845.77 2920.51 1848.67C2924.65 1851.98 2925.48 1857.77 2922.58 1861.91Z" fill="white" stroke="#DDDF6C" stroke-width="1.03418"/>
<path d="M2918.44 1857.36L2915.54 1855.29L2918.85 1854.05L2916.78 1852.39L2911.82 1854.46L2913.06 1855.29L2913.89 1856.11C2913.89 1856.11 2913.47 1856.11 2913.06 1856.53L2909.75 1857.77H2915.13C2915.54 1857.77 2915.96 1857.77 2915.96 1857.77C2915.96 1857.77 2916.37 1857.77 2916.78 1857.77L2918.44 1857.36Z" fill="#DDDF6C"/>
<path d="M2939.97 1872.66C2939.55 1872.25 2939.55 1872.25 2939.14 1872.25H2938.72C2939.14 1872.25 2939.14 1872.25 2939.55 1872.25C2939.97 1872.25 2939.97 1872.25 2939.97 1872.66C2940.38 1872.25 2940.38 1872.66 2939.97 1872.66C2940.38 1872.66 2940.38 1872.66 2939.97 1872.66C2940.38 1872.66 2940.38 1872.66 2939.97 1872.66Z" fill="#30DDD3"/>
<path d="M2935.4 1869.35C2935.82 1869.35 2935.82 1869.76 2935.82 1870.18C2936.23 1869.35 2937.47 1869.35 2937.89 1869.76L2938.3 1870.18C2938.71 1869.76 2939.54 1869.76 2939.95 1870.18C2940.78 1870.59 2940.78 1871.83 2940.37 1872.25C2941.2 1873.07 2941.2 1873.9 2940.78 1874.73C2939.95 1875.56 2938.71 1875.97 2937.89 1875.14C2937.47 1874.73 2937.47 1874.73 2937.06 1874.32C2936.64 1874.32 2935.82 1874.31 2935.4 1873.9C2935.4 1873.9 2934.99 1873.9 2934.99 1873.49C2934.16 1873.07 2934.16 1872.25 2934.16 1871.42C2933.75 1871.42 2933.34 1871.42 2932.92 1871.01C2932.09 1870.59 2932.09 1869.35 2932.51 1868.52C2933.34 1868.94 2934.58 1868.94 2935.4 1869.35Z" fill="#30DDD3"/>
<path d="M2935.41 1869.35C2935.82 1869.35 2935.82 1869.77 2936.23 1870.18C2936.65 1869.35 2937.89 1869.35 2938.72 1869.77L2939.13 1870.18C2939.54 1869.77 2940.37 1869.77 2941.2 1870.18C2942.03 1870.59 2942.03 1871.83 2941.61 1872.66C2942.44 1873.49 2942.44 1874.73 2942.03 1875.56C2941.2 1876.38 2939.96 1876.8 2939.13 1875.97C2938.72 1875.56 2938.72 1875.56 2938.3 1875.14C2937.89 1875.14 2937.06 1875.14 2936.65 1874.73C2936.65 1874.73 2936.23 1874.73 2936.23 1874.32C2935.41 1873.9 2935.41 1873.08 2934.99 1872.25C2934.58 1872.25 2934.17 1872.25 2933.75 1871.83C2932.92 1871.42 2932.92 1870.18 2933.34 1869.35C2933.34 1868.94 2934.58 1868.94 2935.41 1869.35C2934.99 1869.35 2934.58 1868.94 2934.17 1869.35C2933.75 1869.35 2933.34 1869.77 2933.34 1869.77C2933.34 1869.77 2932.92 1870.59 2932.92 1871.01C2932.92 1871.42 2933.34 1871.83 2933.34 1871.83C2933.75 1872.25 2934.17 1872.25 2934.58 1872.25C2934.58 1873.08 2934.99 1873.49 2935.41 1873.9C2935.41 1873.9 2935.82 1873.9 2935.82 1874.32C2936.23 1874.73 2936.65 1874.73 2937.48 1874.73C2937.48 1875.14 2937.89 1875.14 2937.89 1875.56C2938.3 1875.97 2938.72 1875.97 2939.13 1875.97C2939.54 1875.97 2939.96 1875.56 2940.37 1875.14C2940.78 1874.32 2940.78 1873.49 2940.37 1872.66C2940.78 1871.83 2940.78 1871.01 2939.96 1870.59C2939.54 1870.18 2938.72 1870.18 2938.3 1870.59L2937.89 1870.18C2937.06 1869.77 2936.23 1869.77 2935.82 1870.59V1870.18C2935.41 1870.18 2935.41 1869.77 2935.41 1869.35Z" fill="#30DDD3"/>
<path d="M2938.72 1876.8C2938.72 1877.21 2938.72 1877.63 2938.72 1877.63C2939.14 1877.63 2939.56 1877.63 2939.56 1877.63C2939.56 1877.21 2939.56 1876.8 2939.56 1876.8C2939.14 1876.8 2938.72 1876.8 2938.72 1876.8Z" fill="#30DDD3"/>
<path d="M2938.7 1876.8C2938.7 1877.21 2938.7 1877.21 2939.12 1877.62C2939.53 1877.62 2939.53 1877.62 2939.94 1877.62C2939.94 1877.21 2939.94 1877.21 2939.94 1876.8C2939.12 1876.8 2938.7 1876.8 2938.7 1876.8C2938.7 1876.38 2939.12 1876.38 2939.53 1876.38C2939.94 1876.8 2939.94 1877.21 2939.53 1877.62C2939.12 1878.04 2938.7 1878.04 2938.29 1877.62C2938.29 1877.62 2938.29 1877.21 2938.7 1876.8Z" fill="#30DDD3"/>
<path d="M2939.12 1878.87C2939.12 1879.28 2939.12 1879.28 2939.54 1879.28C2939.54 1879.28 2939.54 1878.87 2939.12 1878.87C2939.54 1878.87 2939.54 1878.45 2939.12 1878.87Z" fill="#30DDD3"/>
<path d="M2939.96 1878.87L2939.54 1878.45L2939.12 1878.87L2939.54 1879.29L2939.96 1878.87Z" fill="white"/>
<path d="M2939.54 1878.87C2939.54 1878.87 2939.12 1878.87 2939.54 1878.87C2939.54 1879.28 2939.54 1879.28 2939.54 1878.87C2939.54 1878.45 2939.54 1878.45 2939.54 1878.87C2939.96 1878.87 2939.96 1878.87 2939.96 1878.87V1879.29H2939.54C2939.12 1878.87 2939.12 1878.87 2939.54 1878.87C2939.12 1878.87 2939.12 1878.45 2939.54 1878.87Z" fill="#30DDD3"/>
<path d="M2939.97 1872.25C2939.97 1872.66 2940.38 1872.66 2939.97 1872.25C2940.38 1872.66 2940.38 1872.66 2940.38 1872.66C2939.97 1872.66 2939.97 1872.66 2939.97 1872.25C2939.55 1872.25 2939.55 1872.25 2939.14 1872.25H2938.72C2939.14 1872.25 2939.14 1872.25 2939.55 1872.25H2939.97Z" fill="white"/>
<path d="M2967.26 1895.41C2964.36 1899.55 2958.16 1900.38 2954.02 1897.48C2949.88 1894.17 2949.06 1888.38 2951.95 1884.25C2954.85 1880.11 2961.05 1879.28 2965.19 1882.18C2969.74 1885.49 2970.57 1891.28 2967.26 1895.41Z" fill="white" stroke="#5FB8DE" stroke-width="1.03418"/>
<path d="M2964.36 1890.04L2960.22 1886.73L2959.4 1885.9L2958.98 1885.48H2958.57L2956.09 1889.21V1889.62L2961.88 1894.17H2962.29L2964.77 1890.45C2964.36 1890.45 2964.36 1890.45 2964.36 1890.04Z" fill="#5FB8DE"/>
<path d="M2964.36 1890.04L2960.22 1886.73L2959.4 1885.9L2958.98 1885.48H2958.57L2956.09 1889.21V1889.62L2961.88 1894.17H2962.29L2964.77 1890.45C2964.36 1890.45 2964.36 1890.45 2964.36 1890.04Z" stroke="#5FB8DE" stroke-width="0.985776"/>
<path d="M2961.06 1890.86C2960.65 1891.69 2959.41 1891.69 2958.99 1891.28C2958.17 1890.86 2958.17 1889.62 2958.58 1889.21C2958.99 1888.38 2960.23 1888.38 2960.65 1888.8C2961.48 1889.21 2961.47 1890.45 2961.06 1890.86Z" stroke="white" stroke-width="0.206835"/>
<path d="M2963.54 1890.45C2963.54 1890.45 2963.12 1890.45 2963.54 1890.45C2963.12 1890.45 2963.12 1890.45 2963.12 1890.04C2963.12 1890.04 2963.12 1890.03 2963.54 1890.45C2963.54 1890.03 2963.54 1890.45 2963.54 1890.45Z" fill="#5FB8DE"/>
<path d="M2963.54 1890.45C2963.54 1890.45 2963.12 1890.45 2963.54 1890.45C2963.12 1890.45 2963.12 1890.45 2963.12 1890.04C2963.12 1890.04 2963.12 1890.03 2963.54 1890.45ZM2963.54 1890.45C2963.54 1890.03 2963.54 1890.45 2963.54 1890.45Z" stroke="white" stroke-width="0.985776"/>
<path d="M2958.98 1885.9L2960.22 1886.73" stroke="white" stroke-width="0.985776"/>
<path d="M2960.64 1890.04C2960.64 1890.04 2960.64 1890.45 2960.64 1890.04C2960.64 1890.45 2960.64 1890.45 2960.64 1890.04ZM2960.64 1889.21C2960.64 1889.21 2960.64 1889.62 2960.64 1889.21V1889.21ZM2960.64 1889.62C2960.64 1889.62 2960.22 1889.62 2960.64 1889.62C2960.22 1889.62 2960.22 1889.62 2960.64 1889.62ZM2960.64 1890.45C2961.05 1890.04 2960.64 1889.62 2960.64 1889.62C2960.64 1889.62 2960.64 1890.04 2960.64 1890.45ZM2960.64 1890.04V1889.62V1890.04Z" fill="white"/>
<path d="M2958.98 1885.9L2959.81 1886.73L2958.98 1885.9Z" fill="#5FB8DE"/>
<path d="M2990.01 1912.37C2987.12 1916.51 2980.91 1917.34 2976.77 1914.44C2972.64 1911.13 2971.81 1905.34 2974.71 1901.21C2977.6 1897.07 2983.81 1896.24 2987.94 1899.14C2992.08 1902.03 2992.91 1908.24 2990.01 1912.37Z" fill="white" stroke="#F1B47C" stroke-width="1.03418"/>
<path d="M2980.08 1909.89L2982.56 1904.51L2980.08 1906.99H2979.66C2979.66 1906.99 2979.66 1906.99 2979.66 1906.58V1905.75L2978.83 1906.17C2978.83 1906.17 2978.83 1906.17 2978.42 1906.17L2976.77 1904.93V1904.51C2976.77 1904.51 2977.18 1904.1 2977.18 1904.51L2978.42 1905.75L2979.25 1905.34C2979.25 1905.34 2979.25 1905.34 2979.66 1905.34C2979.66 1905.34 2979.66 1905.34 2979.66 1905.75V1906.17L2982.97 1903.27H2983.38V1903.68L2980.49 1909.06L2982.97 1906.99H2983.38C2983.38 1906.99 2983.38 1906.99 2983.38 1907.41L2982.56 1909.48L2984.21 1910.72V1911.13C2984.21 1911.13 2983.8 1911.54 2983.8 1911.13L2982.14 1909.89C2982.14 1909.89 2982.14 1909.89 2982.14 1909.48L2982.56 1907.82L2980.08 1909.89C2980.49 1909.89 2980.49 1909.89 2980.08 1909.89Z" fill="#F1B47C"/>
<path d="M2834.88 1989.32C2833.64 1982.29 2829.5 1975.67 2823.3 1971.53C2817.09 1967.39 2809.64 1966.15 2802.61 1967.81L2618.94 2010.83L2434.45 2028.2C2427 2029.03 2420.38 2032.75 2415.83 2038.54C2411.28 2044.34 2409.63 2051.78 2410.45 2059.23C2412.52 2072.05 2423.69 2081.57 2436.51 2081.57C2437.34 2081.57 2438.17 2081.57 2439 2081.57L2627.22 2064.19L2814.19 2019.93C2828.26 2016.21 2836.95 2002.97 2834.88 1989.32Z" fill="#FF896D"/>
<path d="M2878.31 1944.64C2875 1933.06 2867.14 1923.96 2857.21 1919.41C2847.29 1914.86 2835.29 1915.27 2824.53 1920.24C2813.36 1925.2 2804.68 1934.71 2799.3 1946.71C2794.34 1957.47 2788.13 1973.6 2786.48 1987.66C2784.41 2003.38 2788.13 2013.31 2797.65 2017.45C2800.95 2019.1 2805.09 2019.93 2810.06 2019.93C2812.54 2019.93 2814.61 2019.93 2817.09 2019.52C2824.53 2018.27 2832.39 2015.79 2840.25 2012.07C2856.8 2004.21 2870.45 1992.21 2875.41 1981.05C2880.79 1969.46 2881.62 1956.22 2878.31 1944.64Z" fill="#FF896D"/>
<path d="M1687.78 1479.67C1687.78 1738.63 1773.41 2156.03 2252.02 2220.14C2615.64 2055.92 2615.64 1738.63 2615.64 1479.67C2615.64 1220.72 2436.11 1105.72 2168.87 1105.72C1901.64 1105.72 1687.78 1220.72 1687.78 1479.67Z" fill="#FF896D"/>
<path d="M2185.42 1629.84C2185.42 1648.04 2199.07 1665.41 2223.89 1678.65C2248.3 1691.47 2281.8 1698.92 2316.55 1698.92C2351.3 1698.92 2384.39 1691.47 2409.21 1678.65C2433.62 1665.83 2447.69 1648.45 2447.69 1629.84H2441.07C2441.07 1647.21 2427.83 1663.76 2404.66 1676.17C2381.5 1688.58 2349.65 1695.2 2316.97 1695.2C2283.87 1695.2 2252.43 1688.16 2229.27 1676.17C2206.1 1663.76 2192.86 1647.21 2192.86 1629.84H2185.42Z" fill="white"/>
<path d="M2132.06 2682.22C2120.48 2675.6 2104.76 2671.87 2088.22 2671.87C2072.08 2671.87 2059.67 2675.18 2051.4 2682.22C2043.95 2688.42 2040.23 2697.11 2040.23 2707.45C2040.23 2717.79 2043.95 2726.48 2051.4 2732.68C2059.67 2739.72 2072.08 2743.03 2088.22 2743.03C2104.76 2743.03 2120.07 2739.3 2132.06 2732.68C2147.78 2723.58 2150.27 2713.24 2150.27 2707.45C2149.85 2701.66 2147.78 2691.32 2132.06 2682.22Z" fill="#FF896D"/>
<path d="M2150.68 2057.57C2150.68 2048.47 2147.37 2039.78 2141.16 2033.58C2134.96 2026.96 2126.27 2023.65 2117.17 2023.65C2098.97 2023.65 2084.08 2038.54 2083.66 2056.74L2079.11 2384.78L2083.66 2695.86C2084.08 2714.07 2098.97 2728.96 2117.17 2728.96C2126.27 2728.96 2134.55 2725.24 2141.16 2719.03C2147.37 2712.41 2151.09 2704.14 2150.68 2695.04L2144.47 2380.65L2150.68 2057.57Z" fill="#FF896D"/>
<path d="M2290.49 2649.53C2278.9 2642.91 2263.18 2639.19 2246.64 2639.19C2230.5 2639.19 2218.09 2642.5 2209.82 2649.53C2202.38 2655.74 2198.65 2664.43 2198.65 2674.77C2198.65 2685.11 2202.38 2693.8 2209.82 2700C2218.09 2707.03 2230.5 2710.34 2246.64 2710.34C2263.18 2710.34 2278.49 2706.62 2290.49 2700C2306.21 2690.9 2308.69 2680.56 2308.69 2674.77C2308.69 2668.98 2306.21 2658.22 2290.49 2649.53Z" fill="#FF896D"/>
<path d="M2264.43 2017.03C2264.43 2007.93 2261.12 1999.25 2254.92 1993.04C2248.71 1986.42 2240.03 1983.11 2230.92 1983.11C2212.72 1983.11 2197.83 1998 2197.42 2016.21L2192.87 2344.25L2197.42 2655.33C2197.83 2673.53 2212.72 2688.42 2230.92 2688.42C2240.03 2688.42 2248.3 2684.7 2254.92 2678.49C2261.12 2671.87 2264.85 2663.6 2264.43 2654.5L2258.23 2340.11L2264.43 2017.03Z" fill="#FF896D"/>
<path d="M2919.69 1468.09L2681 998.988" stroke="#60B8DF" stroke-width="20.6835" stroke-miterlimit="10" stroke-linecap="round" stroke-linejoin="round"/>
<path d="M3004.91 1487.12L3051.66 908.396" stroke="#60B8DF" stroke-width="20.6835" stroke-miterlimit="10" stroke-linecap="round" stroke-linejoin="round"/>
<path d="M3051.65 1435.41L3005.31 1497.88L2966.84 1433.34" stroke="#60B8DF" stroke-width="20.6835" stroke-miterlimit="10" stroke-linecap="round" stroke-linejoin="round"/>
<path d="M2985.47 1310.48L2955.69 1382.46L2902.32 1329.51" stroke="#60B8DF" stroke-width="20.6835" stroke-miterlimit="10" stroke-linecap="round" stroke-linejoin="round"/>
<path d="M2943.27 1412.24L2928.38 1488.36L2865.5 1447.82" stroke="#60B8DF" stroke-width="20.6835" stroke-miterlimit="10" stroke-linecap="round" stroke-linejoin="round"/>
<path d="M2709.55 499.274C2676.04 409.921 2566.42 449.634 2556.49 494.724C2542.84 447.565 2436.11 411.989 2403.43 499.274C2367.03 596.486 2544.08 683.771 2556.49 698.249C2568.9 686.666 2745.95 594.831 2709.55 499.274Z" fill="#DE5F8D"/>
<path d="M3106.27 431.018H2956.93L3033.05 305.677H2922.6L2803.88 501.342C2803.88 501.342 2803.88 501.756 2804.29 501.756H2870.06H2915.57C2915.98 501.756 2907.29 517.062 2896.12 535.677L2815.87 668.466L2994.58 527.404C3012.36 513.339 3027.26 501.756 3026.84 501.756C3026.43 501.756 3040.49 489.346 3057.45 474.454L3106.27 431.018Z" fill="#DDDF6C"/>
<path d="M2725.27 831.453H2725.68C2729.82 831.453 2732.71 827.73 2733.54 823.593L2755.46 735.481L2767.46 771.47C2768.7 775.193 2771.6 778.09 2774.91 778.09H2832.82C2835.3 778.09 2837.79 776.434 2839.03 774.366C2840.27 772.298 2841.09 769.402 2841.09 766.092C2841.09 763.197 2840.27 760.301 2839.03 757.819C2837.79 755.751 2835.3 754.096 2832.82 754.096H2780.29L2761.67 699.078C2760.43 695.355 2757.53 692.046 2753.4 692.46C2749.67 692.874 2747.19 696.183 2745.95 700.319L2726.92 777.262L2702.52 627.927C2702.1 625.445 2701.27 623.377 2699.62 621.722C2698.38 620.067 2696.31 618.827 2694.24 618.827C2692.17 618.827 2690.11 620.067 2688.86 621.722C2687.62 623.377 2686.38 625.445 2685.97 627.927L2668.59 735.067L2666.11 729.69C2664.87 726.795 2662.39 724.312 2659.08 723.898C2656.18 723.898 2653.7 725.966 2652.05 728.862L2640.05 753.682H2594.96C2592.48 753.682 2590 755.338 2588.76 757.406C2587.51 759.474 2586.69 762.37 2586.69 765.679C2586.69 768.575 2587.51 771.471 2588.76 773.953C2590 776.021 2592.48 777.675 2594.96 777.675H2644.6C2647.5 777.675 2649.98 775.607 2651.63 772.712L2658.67 757.819L2664.87 772.298C2666.53 776.021 2669.84 778.916 2673.56 777.675C2677.28 776.848 2679.35 772.712 2680.18 768.575L2694.24 682.945L2716.99 821.938C2717.41 824.42 2718.23 826.488 2719.48 828.143C2721.54 829.798 2723.2 831.039 2725.27 831.453Z" fill="#F1B47C"/>
<path d="M2951.54 1362.19L2844.4 834.348" stroke="#60B8DF" stroke-width="20.6835" stroke-miterlimit="10" stroke-linecap="round" stroke-linejoin="round"/>
<path d="M2818.34 186.543L2595.37 188.612V182.407C2595.37 177.856 2591.65 174.546 2587.51 174.546L2537.46 174.96C2532.91 174.96 2529.6 178.683 2529.6 183.234V189.439L2503.95 189.853C2493.61 189.853 2485.75 198.126 2485.75 208.468L2487.4 400.41C2487.4 410.339 2495.67 418.612 2506.02 418.612L2820.41 415.716C2830.33 415.716 2838.61 407.443 2838.19 397.101L2836.54 205.158C2836.54 194.403 2828.27 186.13 2818.34 186.543Z" fill="#5FB8DE"/>
<path d="M2663.22 386.345C2617.71 386.758 2580.48 349.941 2580.07 304.024C2579.65 258.106 2616.47 220.462 2661.97 220.049C2707.48 219.635 2744.71 256.452 2745.12 302.369C2745.12 348.287 2708.72 385.931 2663.22 386.345ZM2661.56 225.841C2619.37 226.254 2585.45 261.003 2585.86 303.611C2586.27 346.219 2621.02 380.553 2663.22 380.14C2705.41 379.726 2739.33 344.978 2738.92 302.369C2738.5 259.761 2703.76 225.427 2661.56 225.841Z" fill="white"/>
<path d="M2698.36 282.929C2698.36 284.584 2699.61 285.825 2701.26 285.825C2702.92 285.825 2704.16 284.17 2704.16 282.929H2698.36ZM2675.2 255.212C2673.54 255.212 2672.3 256.868 2672.3 258.109C2672.3 259.764 2673.96 261.004 2675.2 261.004V255.212ZM2687.61 283.342C2687.61 284.997 2689.26 286.238 2690.51 286.238C2692.16 286.238 2693.4 284.997 2693.4 283.342H2687.61ZM2675.61 265.554C2673.96 265.554 2672.72 267.21 2672.72 268.451C2672.72 270.105 2674.37 271.346 2675.61 271.346V265.554ZM2704.16 282.515C2703.33 266.796 2690.51 254.799 2675.2 255.212V261.418C2687.61 261.004 2697.54 270.519 2697.95 282.929L2704.16 282.515ZM2693.81 282.929C2693.4 273.001 2685.54 265.141 2675.61 265.554V271.759C2682.23 271.346 2687.61 276.724 2687.61 283.342L2693.81 282.929Z" fill="white"/>
<path d="M2663.21 373.932C2624.33 374.346 2592.89 342.907 2592.47 303.608C2592.06 264.723 2623.5 232.87 2661.97 232.456C2700.44 232.043 2732.29 263.482 2732.29 302.367C2732.71 341.666 2701.68 373.519 2663.21 373.932ZM2661.97 238.248C2626.39 238.662 2598.26 267.619 2598.26 303.608C2598.68 339.598 2627.63 368.14 2662.8 368.14C2697.96 367.727 2726.5 338.356 2726.09 302.78C2726.09 266.791 2697.13 238.248 2661.97 238.248Z" fill="white"/>
<path d="M3133.14 613.861C3128.18 584.904 3102.94 563.393 3072.74 563.806C3050.82 564.22 3032.2 576.216 3021.86 593.59C3016.07 591.936 3010.28 590.695 3003.66 591.109C2973.88 591.523 2949.47 613.446 2944.92 641.99C2937.47 638.68 2929.2 636.612 2920.51 637.026C2886.59 637.44 2859.7 665.569 2860.12 699.49C2860.53 733.411 2888.66 760.299 2922.58 759.886C2936.23 759.472 2948.64 754.509 2958.98 747.062C2975.12 764.437 2998.28 775.606 3023.93 775.192C3029.72 775.192 3035.51 774.365 3040.48 773.124C3059.92 771.056 3076.88 761.541 3089.7 747.89C3099.63 752.854 3110.8 755.749 3122.8 755.749C3162.1 754.922 3193.53 722.656 3192.71 682.944C3192.29 647.782 3166.23 619.239 3133.14 613.861Z" fill="#30DDD3"/>
<path d="M3103.35 618.408C3110.39 618.408 3114.94 619.235 3115.35 619.235C3118.25 619.649 3119.9 622.132 3119.49 625.027C3119.07 627.509 3117 629.164 3114.94 629.164C3114.52 629.164 3114.11 629.164 3114.11 629.164C3113.28 629.164 3109.56 628.336 3104.18 628.75C3099.22 628.75 3092.6 629.578 3086.81 632.06C3080.6 634.128 3075.22 638.265 3071.09 644.884C3070.26 646.125 3068.6 646.952 3067.36 646.952C3066.54 646.952 3065.3 646.538 3064.47 646.124C3062.4 644.469 3061.57 641.574 3062.81 639.506C3068.19 630.819 3075.64 625.855 3083.08 622.959C3089.7 619.236 3097.15 618.408 3103.35 618.408Z" fill="white"/>
<path d="M2316.14 1447.82C2333.51 1485.05 2392.66 1523.94 2450.99 1523.94C2509.32 1523.94 2563.51 1479.67 2580.88 1447.41C2554.82 1413.49 2508.91 1371.71 2450.58 1371.71C2392.25 1371.71 2329.79 1410.18 2316.14 1447.82Z" fill="white"/>
<path d="M2531.28 1522.6C2558.1 1518.15 2576.23 1492.8 2571.78 1465.98C2567.33 1439.16 2541.98 1421.03 2515.16 1425.48C2488.34 1429.93 2470.2 1455.28 2474.66 1482.1C2479.11 1508.92 2504.46 1527.05 2531.28 1522.6Z" fill="black"/>
<path d="M1995.96 1447.82C2013.34 1485.05 2072.49 1523.94 2130.82 1523.94C2189.15 1523.94 2243.34 1479.67 2260.71 1447.41C2234.65 1413.49 2188.73 1371.71 2130.4 1371.71C2072.08 1372.12 2009.61 1410.18 1995.96 1447.82Z" fill="white"/>
<path d="M2200.36 1516.82C2227.18 1512.37 2245.32 1487.02 2240.87 1460.2C2236.42 1433.38 2211.07 1415.25 2184.25 1419.7C2157.43 1424.15 2139.29 1449.5 2143.74 1476.32C2148.19 1503.14 2173.54 1521.27 2200.36 1516.82Z" fill="black"/>
</svg>
