<svg width="3794" height="3127" viewBox="0 0 3794 3127" fill="none" xmlns="http://www.w3.org/2000/svg">
<path d="M2933.72 826.89H2285.31V0.61377H2933.72V826.89ZM2376.64 735.564H2842.4V91.939H2376.64V735.564Z" fill="white" fill-opacity="0.4"/>
<path d="M2754.11 348.522C2722.37 264.154 2618.86 301.989 2609.73 344.173C2596.69 299.38 2495.79 266.329 2465.35 348.522C2431 440.282 2597.99 522.909 2609.73 536.39C2621.47 525.083 2788.47 438.977 2754.11 348.522Z" fill="white" fill-opacity="0.4"/>
<path d="M3681.71 826.89H3033.3V0.61377H3681.71V826.89ZM3124.62 735.564H3590.38V91.939H3124.62V735.564Z" fill="white" fill-opacity="0.4"/>
<path d="M3500.37 351.564H3359.47L3431.22 233.276H3326.85L3215.09 418.101V418.536H3277.27H3320.33C3320.76 418.536 3312.5 432.888 3302.06 450.283L3225.96 575.528L3394.69 442.455C3411.65 428.974 3425.57 418.101 3425.13 418.101C3424.7 418.101 3438.18 406.36 3454.27 392.444L3500.37 351.564Z" fill="white" fill-opacity="0.4"/>
<path opacity="0.2" d="M1896.52 3126.11C2943.94 3126.11 3793.04 3047.45 3793.04 2950.42C3793.04 2853.38 2943.94 2774.73 1896.52 2774.73C849.101 2774.73 0 2853.38 0 2950.42C0 3047.45 849.101 3126.11 1896.52 3126.11Z" fill="#C6C6C6"/>
<path d="M3221.18 1598.37L3413.4 2883.01H3510.81L3381.22 1598.37H3221.18Z" fill="#BFBEBE"/>
<path d="M3175.51 1598.37L3367.73 2883.01H3465.14L3335.55 1598.37H3175.51Z" fill="#DBDBDB"/>
<path d="M470.55 1598.37L335.736 2883.01H441.848L629.716 1598.37H487.945C482.292 1598.37 476.203 1600.11 470.55 1598.37Z" fill="#BFBEBE"/>
<path d="M3414.26 1598.37H515.336V2000.64H3414.26V1598.37Z" fill="#BFBEBE"/>
<path d="M873.684 1618.37L747.568 2883.01H894.993L1082.86 1598.37L891.515 1618.37C884.991 1618.37 879.338 1620.11 873.684 1618.37Z" fill="#94989B"/>
<path d="M2784.99 1598.37L2977.21 2883.01H3074.62L2944.59 1598.37H2784.99Z" fill="#BFBEBE"/>
<path d="M2739.32 1598.37L2931.54 2883.01H3028.95L2898.92 1598.37H2739.32Z" fill="#DBDBDB"/>
<path d="M416.186 1598.37L290.07 2883.01H387.484L575.353 1598.37H433.581C427.928 1598.37 421.84 1600.11 416.186 1598.37Z" fill="#DBDBDB"/>
<path d="M2934.6 1598.37H382.275V2000.64H2934.6V1598.37Z" fill="#DBDBDB"/>
<path opacity="0.1" d="M3411.23 1598.37H382.275V1737.53H3411.23V1598.37Z" fill="black"/>
<path d="M3527.34 1598.37H290.514V1704.48H3527.34V1598.37Z" fill="#BFBEBE"/>
<path d="M3056.79 1598.37H262.67V1704.48H3056.79V1598.37Z" fill="#E5E5E5"/>
<path d="M1490.34 1329.61V1400.06C1490.34 1435.29 1525.57 1470.52 1560.79 1470.52H2476.65C2511.88 1470.52 2547.1 1435.29 2547.1 1400.06V1329.61H1490.34Z" fill="#DDDDDD"/>
<path d="M1877.83 1505.74C1877.83 1576.19 1807.37 1576.19 1736.92 1576.19H2300.53C2230.08 1576.19 2159.63 1576.19 2159.63 1505.74V1470.51H1877.83V1505.74Z" fill="#BFBEBE"/>
<path d="M1561.22 660.331H2477.08V1259.16H1561.22V660.331Z" fill="#FEFFFF"/>
<path d="M2018.73 1416.16C2028.29 1416.16 2036.56 1408.33 2036.56 1398.33C2036.56 1388.76 2028.73 1380.5 2018.73 1380.5C2009.16 1380.5 2000.9 1388.32 2000.9 1398.33C2001.33 1408.33 2009.16 1416.16 2018.73 1416.16Z" fill="#94989B"/>
<path d="M2507.54 640.326H1530.36V1279.17H2507.54V640.326Z" fill="white"/>
<path opacity="0.2" d="M2095.29 666.807V1039.96H1556V666.807H2095.29ZM2120.93 640.326H1530.36V1065.64H2120.93V640.326Z" fill="#C6C6C6"/>
<path opacity="0.2" d="M1734.31 653.964H1708.67V1054H1734.31V653.964Z" fill="#C6C6C6"/>
<path opacity="0.2" d="M1929.2 653.964H1903.55V1054H1929.2V653.964Z" fill="#C6C6C6"/>
<path opacity="0.2" d="M2159.09 1065.64H1430.66V1101.74H2159.09V1065.64Z" fill="#C6C6C6"/>
<g opacity="0.3">
<path d="M2380.57 665.08C2437.54 665.08 2484.07 711.178 2484.07 768.582C2484.07 825.552 2437.97 872.083 2380.57 872.083C2323.17 872.083 2277.07 825.987 2277.07 768.582C2277.07 711.178 2323.17 665.08 2380.57 665.08ZM2380.57 644.206C2347.52 644.206 2316.21 657.252 2292.72 680.735C2269.24 704.219 2256.19 735.531 2256.19 768.582C2256.19 801.633 2269.24 832.945 2292.72 856.428C2316.21 879.912 2347.52 892.958 2380.57 892.958C2413.62 892.958 2444.93 879.912 2468.42 856.428C2491.9 832.945 2504.95 801.633 2504.95 768.582C2504.95 735.531 2491.9 704.219 2468.42 680.735C2444.93 657.252 2413.62 644.206 2380.57 644.206Z" fill="#C6C6C6"/>
</g>
<g opacity="0.3">
<path d="M2431.88 783.804H2372.73V703.351C2372.73 699.002 2376.21 695.523 2380.56 695.523C2384.91 695.523 2388.39 699.002 2388.39 703.351V768.148H2431.88C2436.23 768.148 2439.71 771.627 2439.71 775.976C2439.71 780.325 2435.79 783.804 2431.88 783.804Z" fill="#C6C6C6"/>
</g>
<path opacity="0.2" d="M2213.99 1242.85H2507.1V1172.4H2213.99V1242.85ZM2360.98 1197.62C2365.76 1197.62 2369.68 1201.54 2369.68 1206.32C2369.68 1211.1 2365.76 1215.02 2360.98 1215.02C2356.19 1215.02 2352.28 1211.1 2352.28 1206.32C2352.28 1201.54 2356.19 1197.62 2360.98 1197.62Z" fill="#C6C6C6"/>
<path opacity="0.2" d="M2507.54 994.534H2214.43V1074.55H2507.54V994.534ZM2360.98 1046.28C2356.2 1046.28 2352.29 1042.37 2352.29 1037.59C2352.29 1032.8 2356.2 1028.89 2360.98 1028.89C2365.77 1028.89 2369.68 1032.8 2369.68 1037.59C2369.68 1042.37 2365.77 1046.28 2360.98 1046.28Z" fill="#C6C6C6"/>
<path opacity="0.2" d="M2213.99 1087.6V1159.79H2507.1V1087.6H2213.99ZM2360.98 1130.65C2356.19 1130.65 2352.28 1126.74 2352.28 1121.95C2352.28 1117.17 2356.19 1113.26 2360.98 1113.26C2365.76 1113.26 2369.68 1117.17 2369.68 1121.95C2369.68 1126.74 2365.76 1130.65 2360.98 1130.65Z" fill="#C6C6C6"/>
<path d="M1774.51 1084.48L1774.93 1084.9L1828.61 1156.75C1831.57 1160.56 1837.06 1161.4 1840.86 1158.02C1844.25 1155.06 1844.67 1150.41 1842.13 1146.61L1787.61 1073.49L1722.1 1007.56C1719.14 1004.6 1714.07 1004.18 1710.69 1007.14C1706.89 1010.1 1706.89 1016.01 1710.27 1019.39L1774.51 1084.48Z" fill="#833E78"/>
<path d="M1729.29 989.808C1725.91 979.242 1716.19 974.17 1708.16 976.706C1700.55 979.242 1695.9 988.963 1699.28 999.952C1701.39 1005.87 1704.35 1012.63 1707.73 1017.7C1711.54 1022.77 1714.07 1023.62 1716.61 1022.77C1718.3 1022.35 1719.99 1021.08 1722.1 1018.55C1724.22 1016.01 1725.91 1013.05 1727.18 1009.67C1729.71 1002.06 1730.56 994.458 1729.29 989.808Z" fill="#833E78"/>
<path d="M2277.03 1109.42L2276.61 1109.84L2211.1 1171.12C2207.72 1174.5 2202.22 1174.08 2198.84 1170.28C2195.88 1166.9 2196.31 1161.83 2199.69 1158.87L2266.04 1096.32L2342.12 1042.64C2345.5 1040.1 2350.57 1040.95 2353.53 1044.33C2356.49 1048.13 2355.64 1053.63 2351.84 1056.16L2277.03 1109.42Z" fill="#833E78"/>
<path d="M2344.66 1020.66C2350.58 1011.36 2361.14 1008.4 2367.9 1012.63C2374.67 1016.86 2377.2 1027.42 2371.29 1037.14C2367.91 1042.64 2363.68 1048.56 2359.03 1052.36C2354.38 1056.59 2351.42 1056.59 2349.31 1055.32C2348.04 1054.47 2346.35 1052.78 2345.08 1049.82C2343.81 1046.87 2342.55 1043.48 2342.12 1039.68C2341.28 1032.5 2342.12 1024.89 2344.66 1020.66Z" fill="#833E78"/>
<path d="M1810.86 942.472C1786.77 1091.24 1781.27 1247.62 2007.39 1329.61C2202.23 1329.61 2211.95 1161.82 2239.42 1035.45C2256.75 955.996 2227.16 812.297 2096.99 783.98C1966.82 756.085 1837.06 780.176 1810.86 942.472Z" fill="#833E78"/>
<path d="M2028.52 1015.17C2037.4 1033.76 2066.56 1053.21 2095.72 1053.21C2124.88 1053.21 2151.93 1031.23 2160.38 1015.17C2147.28 998.262 2124.46 977.552 2095.72 977.552C2066.98 977.552 2035.7 996.571 2028.52 1015.17Z" fill="white"/>
<path d="M1869.18 1015.17C1878.06 1033.76 1907.22 1053.21 1936.38 1053.21C1965.54 1053.21 1992.59 1031.23 2001.05 1015.17C1987.94 998.262 1965.12 977.552 1936.38 977.552C1907.22 977.552 1875.94 996.571 1869.18 1015.17Z" fill="white"/>
<path d="M2100.86 1040.24C2114.22 1038.02 2123.25 1025.4 2121.03 1012.05C2118.82 998.69 2106.19 989.661 2092.84 991.877C2079.48 994.093 2070.45 1006.72 2072.67 1020.07C2074.88 1033.43 2087.51 1042.46 2100.86 1040.24Z" fill="black"/>
<path d="M1939.83 1040.71C1953.19 1038.49 1962.22 1025.87 1960 1012.51C1957.79 999.154 1945.16 990.124 1931.81 992.34C1918.45 994.556 1909.42 1007.18 1911.64 1020.54C1913.86 1033.89 1926.48 1042.92 1939.83 1040.71Z" fill="black"/>
<path d="M1955.4 1110.26C1955.82 1118.29 1962.16 1125.48 1973.15 1130.13C1984.14 1135.2 1998.51 1137.31 2013.73 1136.04C2028.52 1135.2 2042.89 1130.97 2053.03 1124.63C2063.18 1118.29 2068.67 1110.26 2068.25 1102.65H2065.29C2065.71 1110.26 2060.64 1117.87 2050.92 1123.79C2041.2 1129.7 2027.67 1133.51 2013.73 1134.35C1999.36 1135.2 1985.83 1133.08 1975.27 1128.44C1964.7 1123.79 1958.78 1117.02 1958.36 1109.42L1955.4 1110.26Z" fill="white"/>
<path d="M2477.09 615.379C2486.41 615.379 2497.86 620.296 2507.49 629.926C2517.12 639.557 2522.04 651.011 2522.04 660.33V1304.11H1516.27V660.33C1516.27 651.011 1521.19 639.557 1530.82 629.926C1540.45 620.296 1551.91 615.379 1561.22 615.379H2477.09Z" stroke="#212528" stroke-width="51"/>
<path d="M1736.92 1576.19H2300.53V1597.94H1736.92V1576.19Z" fill="#94989B"/>
<path d="M1142.44 2883.01H933.697L978.49 2846.05H1097.65L1142.44 2883.01Z" fill="#083640"/>
<path d="M822.793 1302.65C822.793 1541.84 901.942 1927.57 1344.22 1986.72C1680.38 1834.95 1680.38 1541.84 1680.38 1302.65C1680.38 1063.47 1514.26 957.354 1267.68 957.354C1020.66 957.354 822.793 1063.03 822.793 1302.65Z" fill="#FF896D"/>
<path d="M1569.06 1738.84C1668.21 1738.4 1764.75 1701.87 1838.25 1635.34C1910.44 1569.67 1953.06 1479.21 1964.36 1383.1C1966.54 1364.4 1946.97 1348.31 1929.57 1348.31C1908.7 1348.31 1896.96 1364.4 1894.78 1383.1C1875.21 1546.62 1732.14 1668.82 1569.06 1669.26C1524.26 1669.69 1524.26 1739.27 1569.06 1738.84Z" fill="#FF896D"/>
<path d="M1903.91 1333.96C1875.21 1359.62 1873.04 1420.07 1920.01 1426.16C1939.58 1428.76 1956.54 1416.59 1966.1 1400.06C1974.37 1385.71 1974.8 1368.75 1977.41 1352.66C1979.58 1340.05 1977.84 1328.31 1968.28 1318.74C1959.58 1310.04 1946.1 1306.13 1934.36 1309.61C1897.39 1321.35 1878.26 1365.27 1899.13 1399.63C1913.48 1423.11 1944.36 1420.94 1959.14 1399.63C1968.28 1386.15 1973.06 1369.19 1971.76 1352.66C1970.02 1328.74 1950.88 1314.83 1927.83 1319.17C1893.91 1325.7 1873.04 1366.14 1890.87 1396.58C1908.7 1427.46 1955.67 1432.24 1974.8 1399.63C1992.2 1370.06 1970.45 1318.74 1930.88 1329.61C1902.18 1337.44 1886.52 1371.36 1894.35 1399.19C1899.57 1417.46 1914.35 1433.11 1934.36 1433.11C1952.19 1432.68 1968.71 1422.24 1977.84 1407.02C1995.24 1377.45 1977.84 1338.31 1943.92 1332.22C1908.7 1326.13 1877.39 1356.14 1886.08 1392.23C1895.22 1430.07 1944.79 1443.99 1967.41 1408.76C1973.5 1399.19 1976.97 1384.41 1980.02 1373.1C1984.8 1354.4 1980.02 1333.53 1962.19 1323.09C1929.14 1303.52 1887.39 1337.01 1889.56 1372.23C1891.74 1407.02 1932.18 1432.24 1963.93 1413.54C1994.37 1395.71 1994.81 1350.92 1966.1 1331.35C1934.36 1309.61 1888.69 1340.05 1893.48 1377.01C1898.26 1411.37 1939.14 1433.55 1969.15 1412.24C1997.85 1392.23 2000.02 1346.14 1968.28 1327.44C1942.62 1312.22 1908.26 1320.48 1894.35 1347.44C1876.52 1381.8 1900 1441.38 1945.23 1430.5C1960.45 1426.59 1973.06 1414.41 1979.58 1400.5C1985.67 1388.32 1992.63 1369.62 1992.2 1355.7C1991.76 1331.79 1971.76 1314.39 1948.27 1315.26C1929.14 1316.13 1910.87 1328.31 1900.44 1344.4C1878.26 1377.88 1900 1427.89 1942.62 1427.03C1960.88 1426.59 1978.28 1411.37 1977.41 1392.23C1976.54 1373.97 1962.19 1357.01 1942.62 1357.44C1948.71 1357.44 1957.41 1363.1 1959.14 1368.75C1960.88 1373.53 1958.27 1378.32 1958.71 1382.23C1959.14 1384.84 1955.23 1383.54 1959.58 1381.8C1951.32 1385.28 1954.8 1390.93 1937.84 1381.8C1933.49 1377.45 1929.57 1373.53 1925.22 1369.19C1925.22 1351.36 1924.35 1346.14 1922.18 1353.53C1921.75 1355.27 1920.88 1357.01 1920.44 1359.18C1919.57 1362.23 1918.27 1365.27 1917.83 1368.32C1916.96 1371.36 1916.96 1370.93 1918.7 1367.01C1918.27 1367.88 1917.83 1368.75 1917.4 1369.62C1918.27 1368.32 1919.57 1367.01 1920.88 1366.14C1932.18 1358.31 1945.23 1362.23 1959.14 1378.32C1959.14 1377.45 1956.97 1368.75 1957.84 1373.1C1958.27 1375.71 1958.27 1374.84 1957.84 1371.36C1956.97 1374.4 1956.54 1377.01 1955.67 1380.06C1953.06 1385.71 1945.66 1390.06 1939.58 1389.63C1938.27 1389.19 1936.53 1389.19 1935.23 1388.76C1939.14 1390.06 1938.27 1389.19 1932.62 1386.58C1927.4 1383.54 1922.18 1377.45 1922.18 1370.93C1923.05 1367.45 1923.92 1364.4 1924.79 1360.92C1928.27 1354.83 1933.49 1352.23 1940.01 1353.1C1944.36 1351.36 1947.84 1351.36 1951.75 1353.53C1954.8 1357.88 1958.28 1361.79 1961.32 1366.14C1971.76 1389.19 1926.53 1410.07 1918.27 1376.58C1914.35 1360.92 1934.36 1344.4 1948.71 1352.66C1960.88 1359.62 1962.19 1388.76 1943.05 1387.45C1937.4 1385.71 1931.31 1384.41 1925.66 1382.67C1926.09 1383.1 1926.96 1383.54 1927.4 1383.97C1923.05 1379.62 1919.14 1375.71 1914.79 1371.36C1913.92 1365.27 1913.48 1359.62 1912.61 1353.53C1912.61 1354.4 1912.18 1355.27 1912.18 1355.7C1910.87 1357.88 1910.44 1361.79 1909.57 1364.4C1908.7 1366.58 1908.26 1369.19 1907.39 1371.36C1903.91 1382.23 1904.35 1371.36 1915.66 1364.4C1921.31 1362.66 1927.4 1361.36 1933.05 1359.62C1944.79 1358.75 1956.97 1373.53 1953.06 1384.84C1949.58 1394.84 1938.27 1403.11 1927.4 1399.19C1908.7 1392.23 1912.61 1365.27 1932.62 1363.53C1940.88 1367.01 1949.14 1370.49 1957.41 1373.53C1960.01 1376.14 1960.45 1379.62 1961.75 1382.67C1961.75 1385.28 1962.19 1385.71 1962.19 1383.54C1962.19 1380.93 1962.19 1381.8 1961.75 1386.58C1960.88 1388.76 1958.71 1391.37 1961.32 1388.32C1960.01 1390.06 1953.06 1395.28 1958.27 1393.1C1946.53 1393.1 1934.79 1393.1 1923.05 1393.1C1896.52 1379.19 1924.79 1339.18 1946.97 1356.14C1954.8 1361.79 1956.1 1371.8 1951.32 1379.62C1950.45 1382.23 1949.14 1383.97 1946.53 1385.28C1942.62 1386.58 1942.62 1387.02 1946.53 1385.71C1931.75 1374.4 1916.96 1363.53 1902.61 1352.23C1903.05 1354.4 1903.05 1357.01 1902.61 1359.18C1903.05 1356.14 1903.05 1356.14 1902.61 1358.31C1901.74 1360.49 1902.18 1360.49 1903.05 1357.88C1902.18 1360.05 1900.87 1361.79 1899.57 1363.53C1919.57 1363.53 1939.58 1363.53 1959.58 1363.53C1956.54 1358.75 1960.01 1367.45 1960.45 1369.19C1959.58 1360.92 1960.01 1377.01 1960.45 1368.32C1960.01 1369.62 1959.58 1370.93 1958.71 1371.8C1960.88 1368.75 1960.45 1368.75 1957.84 1372.66C1956.97 1373.53 1955.67 1373.97 1954.8 1374.84C1958.28 1373.1 1957.41 1373.1 1953.49 1375.27C1939.14 1360.92 1924.79 1346.57 1910.87 1332.66C1909.13 1343.53 1905.65 1355.27 1905.22 1366.58C1905.22 1369.19 1906.09 1364.84 1906.96 1363.53C1912.18 1356.14 1920.01 1358.75 1930.44 1370.93C1946.97 1369.19 1954.36 1372.23 1952.62 1380.93C1952.62 1381.8 1952.19 1382.67 1951.75 1383.54C1950.88 1385.28 1950.88 1384.84 1951.75 1383.1C1952.62 1381.36 1952.62 1381.36 1951.75 1382.67C1950.45 1384.41 1950.88 1383.97 1953.49 1381.36C1966.97 1369.19 1966.97 1344.4 1953.49 1332.22C1938.71 1320.48 1918.27 1320.91 1903.91 1333.96Z" fill="#FF896D"/>
<path d="M1363.79 1936.27C1407.28 1940.19 1450.76 1945.84 1494.25 1951.06C1518.61 1954.1 1542.52 1962.37 1561.22 1978.89C1578.62 1994.55 1582.1 2017.6 1583.4 2039.77C1592.54 2188.5 1585.58 2339.84 1576.01 2488.14C1574.27 2512.49 1597.75 2533.37 1621.24 2533.37C1646.9 2533.37 1664.73 2512.49 1666.47 2488.14C1672.12 2402.47 1675.6 2316.79 1676.47 2230.69C1676.9 2190.68 1676.9 2150.67 1676.03 2110.66C1675.6 2072.39 1676.03 2033.25 1668.64 1995.42C1654.29 1921.49 1588.62 1873.65 1516.87 1863.21C1466.42 1855.82 1415.1 1850.17 1364.22 1845.82C1339.87 1843.64 1319 1868 1319 1891.04C1318.56 1917.14 1339 1934.1 1363.79 1936.27Z" fill="#FF896D"/>
<path d="M1237.23 2088.05C1245.93 2145.02 1253.76 2201.99 1255.5 2259.39C1257.24 2318.97 1252.45 2378.11 1246.37 2437.26C1243.76 2461.61 1268.98 2482.48 1291.59 2482.48C1318.12 2482.48 1334.21 2461.61 1336.82 2437.26C1343.34 2375.94 1348.13 2314.62 1345.52 2253.3C1343.34 2189.81 1333.78 2126.75 1324.21 2064.13C1320.3 2039.77 1290.29 2026.73 1268.54 2032.38C1242.89 2039.34 1233.32 2063.69 1237.23 2088.05Z" fill="#FF896D"/>
<path d="M1644.29 2450.74C1628.63 2448.13 1613.85 2447.26 1599.06 2455.09C1584.71 2462.92 1575.14 2478.57 1575.58 2495.1C1575.58 2512.49 1586.02 2529.02 1600.8 2537.72C1614.72 2545.98 1631.24 2545.98 1646.46 2546.41C1660.82 2546.41 1676.04 2547.72 1689.95 2542.06C1707.35 2534.67 1717.79 2518.15 1716.92 2499.45C1715.18 2461.18 1670.82 2447.26 1639.07 2449.43C1620.37 2450.74 1604.28 2464.65 1604.28 2484.22C1604.28 2502.05 1620.37 2520.32 1639.07 2519.01C1642.12 2519.01 1649.94 2520.32 1652.55 2519.45C1656.9 2517.71 1653.86 2521.62 1652.12 2517.27C1650.38 2511.62 1649.07 2505.53 1647.33 2499.88C1647.77 2499.01 1647.77 2497.71 1648.2 2496.84C1651.25 2491.62 1654.29 2486.4 1657.34 2481.61C1670.82 2478.14 1673.86 2476.83 1665.6 2477.27C1663.86 2477.27 1662.12 2477.27 1660.38 2477.27C1653.86 2477.27 1647.77 2477.27 1641.25 2476.83C1639.07 2476.83 1636.46 2476.83 1634.29 2476.83C1634.72 2476.83 1635.16 2477.27 1635.59 2477.7C1644.29 2489.01 1640.81 2502.49 1624.72 2518.58C1629.07 2519.01 1629.5 2518.58 1625.59 2518.15C1644.29 2521.19 1662.99 2513.36 1668.21 2493.79C1672.99 2477.27 1662.99 2453.78 1644.29 2450.74Z" fill="#FF896D"/>
<path d="M1252.03 2467.7C1263.33 2488.57 1284.64 2499.88 1307.69 2503.79C1334.65 2508.14 1365.96 2508.58 1382.49 2482.92C1401.19 2453.78 1382.49 2422.91 1353.79 2411.6C1330.74 2402.47 1304.65 2402.03 1281.6 2410.73C1264.2 2417.25 1252.03 2434.21 1257.24 2453.35C1262.03 2470.31 1282.47 2484.23 1299.86 2477.7C1306.82 2475.09 1312.91 2473.35 1319.87 2473.79C1330.74 2474.66 1307.69 2472.48 1326.39 2475.09C1334.22 2476.4 1328.13 2479.44 1325.09 2472.92C1323.35 2467.26 1322.04 2461.18 1320.3 2455.52C1341.61 2442.04 1345.96 2435.95 1333.35 2437.26C1332.04 2437.26 1330.3 2437.26 1329 2437.26C1326.39 2437.26 1323.78 2436.82 1321.17 2436.39C1323.35 2436.39 1322.91 2436.39 1320.74 2435.95C1318.56 2435.52 1311.6 2433.34 1312.04 2433.34C1314.21 2434.21 1316.39 2439.87 1312.91 2432.91C1290.3 2393.33 1230.28 2428.13 1252.03 2467.7Z" fill="#FF896D"/>
<path d="M1097.2 2155.45H978.475V2883.01H1097.2V2155.45Z" fill="#083640"/>
<path d="M674.07 2091.53C674.07 2121.53 698.423 2145.45 727.995 2145.45H1309.43C1339.44 2145.45 1363.36 2121.1 1363.36 2091.53H674.07Z" fill="#083640"/>
<path d="M1197.23 2143.71H877.594V2212.42H1197.23V2143.71Z" fill="#083640"/>
<path d="M1539.05 1924.97H1241.59C1293.34 1577.5 1275.95 1223.07 1215.06 876.906C1205.06 819.937 1151.57 774.275 1097.64 774.275C904.556 774.275 741.91 774.275 549.257 774.275C495.332 774.275 461.411 819.937 471.414 876.906C536.646 1246.56 530.123 1543.58 464.89 1913.23C454.888 1970.2 478.807 2098.49 615.795 2098.49C621.448 2098.49 627.102 2098.49 632.755 2098.49C815.405 2098.49 925.43 2098.49 1112.86 2098.49H1539.48C1587.32 2098.49 1626.46 2059.79 1626.46 2011.51C1626.46 1963.24 1586.89 1924.97 1539.05 1924.97Z" fill="#D8833D"/>
<path d="M1079.82 1826.25C1094.6 1691 1155.49 1114.35 1023.72 895.165C1011.54 876.465 1010.67 852.982 1015.46 831.673C1019.81 812.103 1036.33 792.533 1053.29 782.531C1060.25 778.182 1067.64 775.138 1075.9 773.833H548.828C494.903 773.833 460.982 819.497 470.984 876.466C536.216 1246.12 529.693 1543.14 464.461 1912.79C454.458 1969.76 478.377 2098.05 615.365 2098.05H1539.05C1568.19 2098.05 1593.85 2083.7 1609.51 2061.95C1585.15 2061.08 1205.5 2056.3 1186.8 2055.87C1042.85 2051.95 1066.34 1904.09 1079.82 1826.25Z" fill="#B25712"/>
<path d="M990.22 2879.53H996.308L937.165 2952.59H976.304L1060.24 2849.09H985.002L701.023 2947.38L765.821 2957.38L990.22 2879.53Z" fill="#083640"/>
<path d="M733.65 3062.18C765.354 3062.18 791.055 3036.48 791.055 3004.78C791.055 2973.08 765.354 2947.38 733.65 2947.38C701.947 2947.38 676.246 2973.08 676.246 3004.78C676.246 3036.48 701.947 3062.18 733.65 3062.18Z" fill="#06282D"/>
<path d="M666.238 3004.78C666.238 2967.38 696.245 2937.37 733.645 2937.37C771.045 2937.37 801.052 2967.38 801.052 3004.78H666.238Z" fill="#083640"/>
<path d="M958.478 3062.18C990.182 3062.18 1015.88 3036.48 1015.88 3004.78C1015.88 2973.08 990.182 2947.38 958.478 2947.38C926.775 2947.38 901.074 2973.08 901.074 3004.78C901.074 3036.48 926.775 3062.18 958.478 3062.18Z" fill="#06282D"/>
<path d="M891.074 3004.78C891.074 2967.38 921.081 2937.37 958.481 2937.37C995.881 2937.37 1025.89 2967.38 1025.89 3004.78H891.074Z" fill="#083640"/>
<path d="M1105.91 2883.88H1100.26L1159.41 2956.94H1120.27L1035.9 2853.44H1111.13L1395.11 2951.72L1330.75 2961.73L1105.91 2883.88Z" fill="#083640"/>
<path d="M1362.48 3066.53C1394.19 3066.53 1419.89 3040.83 1419.89 3009.13C1419.89 2977.43 1394.19 2951.73 1362.48 2951.73C1330.78 2951.73 1305.08 2977.43 1305.08 3009.13C1305.08 3040.83 1330.78 3066.53 1362.48 3066.53Z" fill="#06282D"/>
<path d="M1429.89 3009.13C1429.89 2971.73 1399.88 2941.72 1362.48 2941.72C1325.08 2941.72 1295.08 2971.73 1295.08 3009.13H1429.89Z" fill="#083640"/>
<path d="M1138.08 3066.53C1169.79 3066.53 1195.49 3040.83 1195.49 3009.13C1195.49 2977.43 1169.79 2951.73 1138.08 2951.73C1106.38 2951.73 1080.68 2977.43 1080.68 3009.13C1080.68 3040.83 1106.38 3066.53 1138.08 3066.53Z" fill="#06282D"/>
<path d="M1205.5 3009.13C1205.5 2971.73 1175.49 2941.72 1138.09 2941.72C1100.69 2941.72 1070.69 2971.73 1070.69 3009.13H1205.5Z" fill="#083640"/>
<path d="M1107.65 2118.49H968.484V2621.21H1107.65V2118.49Z" fill="#083640"/>
</svg>
