<svg width="1714" height="1670" viewBox="0 0 1714 1670" fill="none" xmlns="http://www.w3.org/2000/svg">
<ellipse cx="857.069" cy="834.774" rx="856.103" ry="834.547" fill="white"/>
<path d="M983.322 579.643C1035.68 579.643 1082.3 590.686 1123.2 612.773C1164.11 634.042 1196.42 666.354 1220.14 709.709C1243.86 753.064 1255.72 805.827 1255.72 867.997V1264.33H1145.29V883.949C1145.29 816.87 1128.52 765.744 1094.98 730.569C1062.26 694.576 1017.68 676.579 961.236 676.579C903.156 676.579 856.937 695.394 822.58 733.023C788.223 769.834 771.044 823.415 771.044 893.765V1264.33H660.611V883.949C660.611 816.87 643.841 765.744 610.302 730.569C577.581 694.576 532.999 676.579 476.555 676.579C418.475 676.579 372.257 695.394 337.9 733.023C303.543 769.834 286.364 823.415 286.364 893.765V1264.33H174.704V591.913H286.364V688.849C308.451 653.674 337.9 626.679 374.711 607.865C412.34 589.05 453.65 579.643 498.642 579.643C555.086 579.643 604.985 592.322 648.341 617.681C691.696 643.04 724.008 680.26 745.277 729.342C764.091 681.896 795.176 645.085 838.532 618.908C881.887 592.731 930.151 579.643 983.322 579.643Z" fill="#5FB8DE"/>
<path d="M1358.98 1257.02C1358.98 1260.32 1357.86 1263.03 1355.52 1264.98C1353.09 1267.01 1348.91 1268.59 1342.11 1268.59C1335.31 1268.59 1329.34 1267.01 1325.18 1264.63C1320.93 1262.19 1319.24 1259.37 1319.24 1257.02C1319.24 1254.67 1320.93 1251.85 1325.18 1249.41C1329.34 1247.03 1335.31 1245.45 1342.11 1245.45C1348.91 1245.45 1353.09 1247.03 1355.52 1249.06C1357.86 1251.01 1358.98 1253.71 1358.98 1257.02Z" fill="#FF896D" stroke="#FF896D" stroke-width="7.15639"/>
<path d="M1415.4 1257.02C1415.4 1260.32 1416.51 1263.03 1418.85 1264.98C1421.28 1267.01 1425.46 1268.59 1432.26 1268.59C1439.06 1268.59 1445.03 1267.01 1449.19 1264.63C1453.44 1262.19 1455.14 1259.37 1455.14 1257.02C1455.14 1254.67 1453.44 1251.85 1449.19 1249.41C1445.03 1247.03 1439.06 1245.45 1432.26 1245.45C1425.46 1245.45 1421.28 1247.03 1418.85 1249.06C1416.51 1251.01 1415.4 1253.71 1415.4 1257.02Z" fill="#FF896D" stroke="#FF896D" stroke-width="7.15639"/>
<path d="M1334.74 1242.45L1328.03 1118.97L1334.74 995.809C1335.04 990.259 1339.63 985.913 1345.19 985.913C1351.36 985.913 1356.19 991.228 1355.61 997.373L1345.07 1107.73C1344.36 1115.21 1344.36 1122.73 1345.07 1130.21L1355.61 1240.89C1356.2 1247.03 1351.37 1252.34 1345.19 1252.34C1339.63 1252.34 1335.04 1248 1334.74 1242.45Z" fill="#FF896D" stroke="#FF896D" stroke-width="7.15639"/>
<path d="M1271.4 1108.15L1264.77 1044.06C1264.22 1038.75 1264.22 1033.39 1264.76 1028.08L1271.41 963.262C1271.75 959.927 1274.56 957.391 1277.91 957.391C1281.77 957.391 1284.79 960.714 1284.42 964.554L1278.21 1029.16C1277.77 1033.76 1277.77 1038.39 1278.22 1042.99L1284.41 1106.85C1284.78 1110.69 1281.76 1114.01 1277.9 1114.01C1274.55 1114.01 1271.75 1111.48 1271.4 1108.15Z" fill="#FF896D" stroke="#FF896D" stroke-width="7.15639"/>
<path d="M1501.87 1035.3L1501.89 1035.06L1501.87 1034.81L1496.99 964.379C1496.73 960.601 1499.72 957.391 1503.51 957.391C1506.94 957.391 1509.79 960.045 1510.03 963.468L1515.08 1035.06L1510.02 1107.93C1509.78 1111.36 1506.93 1114.01 1503.5 1114.01C1499.72 1114.01 1496.72 1110.81 1496.98 1107.03L1501.87 1035.3Z" fill="#FF896D" stroke="#FF896D" stroke-width="7.15639"/>
<path d="M1427.02 1117.51L1427.04 1117.26L1427.02 1117.02L1418.57 997.175C1418.14 991.088 1422.97 985.913 1429.07 985.913C1434.74 985.913 1439.39 990.404 1439.58 996.069L1443.8 1117.27L1439.57 1242.17C1439.38 1247.84 1434.73 1252.34 1429.05 1252.34C1422.95 1252.34 1418.13 1247.18 1418.54 1241.09L1427.02 1117.51Z" fill="#FF896D" stroke="#FF896D" stroke-width="7.15639"/>
<path d="M1518.22 1119.32C1518.22 1128.1 1512.18 1134.28 1505.82 1134.28C1499.46 1134.28 1493.42 1128.1 1493.42 1119.32C1493.42 1110.53 1499.46 1104.35 1505.82 1104.35C1512.18 1104.35 1518.22 1110.53 1518.22 1119.32Z" fill="#FF896D" stroke="#FF896D" stroke-width="7.15639"/>
<path d="M1291.32 1117.6C1291.32 1126.39 1285.28 1132.57 1278.92 1132.57C1272.56 1132.57 1266.53 1126.39 1266.53 1117.6C1266.53 1108.81 1272.56 1102.63 1278.92 1102.63C1285.28 1102.63 1291.32 1108.81 1291.32 1117.6Z" fill="#FF896D" stroke="#FF896D" stroke-width="7.15639"/>
<path d="M1633.94 695.217C1633.94 822.931 1591.68 1028.6 1355.71 1060.3C1176.37 979.292 1176.37 822.931 1176.37 695.217C1176.37 567.502 1264.91 510.949 1396.59 510.949C1528.26 510.949 1633.94 567.502 1633.94 695.217Z" fill="#FF896D"/>
<path d="M1380.49 665.186C1371.88 683.559 1342.77 702.75 1314.05 702.725C1285.32 702.699 1258.53 680.882 1249.95 665.07C1262.85 648.252 1285.39 627.661 1314.11 627.687C1342.84 627.712 1373.63 646.633 1380.49 665.186Z" fill="white"/>
<path d="M1538.33 665.305C1529.72 683.678 1500.61 702.869 1471.88 702.844C1443.16 702.818 1416.36 681.001 1407.79 665.189C1420.69 648.371 1443.23 627.781 1471.95 627.806C1500.68 627.831 1531.47 646.752 1538.33 665.305Z" fill="white"/>
<circle cx="1313.54" cy="652.03" r="24.3539" transform="rotate(9.41996 1313.54 652.03)" fill="black"/>
<circle cx="1472.61" cy="652.501" r="24.3539" transform="rotate(9.41996 1472.61 652.501)" fill="black"/>
<path d="M1444.62 766.174C1444.62 775.163 1437.83 783.784 1425.73 790.14C1413.64 796.496 1397.24 800.067 1380.14 800.067C1363.04 800.067 1346.64 796.496 1334.54 790.14C1322.45 783.784 1315.66 775.163 1315.66 766.174L1318.89 766.174C1318.89 774.713 1325.34 782.902 1336.83 788.939C1348.32 794.977 1363.89 798.369 1380.14 798.369C1396.38 798.369 1411.96 794.977 1423.45 788.939C1434.94 782.902 1441.39 774.713 1441.39 766.174H1444.62Z" fill="white"/>
</svg>
