<svg width="932" height="1046" viewBox="0 0 932 1046" fill="none" xmlns="http://www.w3.org/2000/svg">
<path d="M927.495 10.5002C927.495 10.5002 997.484 248 480.5 301M440.5 301C256.637 246.428 155.261 385.83 72.9978 409M6.49651 600.5C6.49651 600.5 -8.97239 553.775 72.9978 745C155.013 936.309 444.781 872.566 658.998 1018.5" stroke="#515151" stroke-width="1.45652" stroke-miterlimit="10" stroke-dasharray="2.43 2.43"/>
<path opacity="0.2" d="M680.726 1045.25C660.745 1045.25 644.547 1043.8 644.547 1042.01C644.547 1040.22 660.745 1038.76 680.726 1038.76C700.708 1038.76 716.906 1040.22 716.906 1042.01C716.906 1043.8 700.708 1045.25 680.726 1045.25Z" fill="#C6C6C6"/>
<path d="M703.217 991.637C703.153 991.015 702.63 990.543 702.006 990.543C701.287 990.543 700.725 991.162 700.794 991.877L701.95 1003.91C702.032 1004.77 702.032 1005.63 701.949 1006.49L700.796 1018.38C700.726 1019.1 701.289 1019.72 702.007 1019.72C702.631 1019.72 703.154 1019.24 703.219 1018.62L704.454 1006.69C704.556 1005.7 704.557 1004.7 704.455 1003.71L703.217 991.637Z" fill="#833E78" stroke="#833E78" stroke-width="1.33294"/>
<path d="M662.861 1003.85L662.858 1003.81L662.861 1003.76L663.77 990.642C663.819 989.938 663.261 989.34 662.555 989.34C661.916 989.34 661.386 989.835 661.341 990.472L660.401 1003.81L661.343 1017.38C661.387 1018.02 661.918 1018.51 662.557 1018.51C663.262 1018.51 663.82 1017.92 663.772 1017.21L662.861 1003.85Z" fill="#833E78" stroke="#833E78" stroke-width="1.33294"/>
<path d="M660.396 1019.18C660.396 1020.82 661.519 1021.97 662.704 1021.97C663.89 1021.97 665.013 1020.82 665.013 1019.18C665.013 1017.54 663.89 1016.39 662.704 1016.39C661.519 1016.39 660.396 1017.54 660.396 1019.18Z" fill="#833E78" stroke="#833E78" stroke-width="1.33294"/>
<path d="M699.993 1019.18C699.993 1020.82 701.117 1021.97 702.302 1021.97C703.487 1021.97 704.611 1020.82 704.611 1019.18C704.611 1017.54 703.487 1016.39 702.302 1016.39C701.117 1016.39 699.993 1017.54 699.993 1019.18Z" fill="#833E78" stroke="#833E78" stroke-width="1.33294"/>
<path d="M653.364 962.567C650.227 981.957 649.497 1002.34 678.994 1013.02C704.399 1013.02 709.23 992.959 710.979 977.977C712.205 967.464 707.594 945.619 690.64 941.938C673.685 938.257 656.789 941.397 653.364 962.567Z" fill="#833E78"/>
<path d="M682.126 972.826C683.259 975.247 687.095 977.776 690.88 977.773C694.665 977.769 698.195 974.895 699.325 972.811C697.625 970.595 694.656 967.882 690.871 967.886C687.086 967.889 683.029 970.382 682.126 972.826Z" fill="white"/>
<path d="M661.325 972.844C662.458 975.265 666.294 977.793 670.079 977.79C673.864 977.787 677.394 974.912 678.524 972.829C676.825 970.613 673.855 967.9 670.07 967.903C666.285 967.906 662.228 970.399 661.325 972.844Z" fill="white"/>
<circle r="3.20884" transform="matrix(-0.986515 0.16367 0.16367 0.986515 691.41 972.012)" fill="black"/>
<circle r="3.20884" transform="matrix(-0.986515 0.16367 0.16367 0.986515 670.449 972.074)" fill="black"/>
<mask id="path-12-outside-1_378_8652" maskUnits="userSpaceOnUse" x="674.353" y="981.867" width="17.3528" height="7.08809" fill="black">
<rect fill="white" x="674.353" y="981.867" width="17.3528" height="7.08809"/>
<path d="M675.664 983.759C675.731 984.785 676.57 985.718 677.996 986.354C679.423 986.989 681.32 987.275 683.271 987.148C685.222 987.022 687.066 986.493 688.399 985.679C689.731 984.864 690.442 983.83 690.376 982.805L690.007 982.829C690.071 983.803 689.395 984.785 688.129 985.559C686.864 986.332 685.111 986.835 683.258 986.955C681.405 987.075 679.603 986.803 678.248 986.2C676.893 985.596 676.096 984.71 676.033 983.735L675.664 983.759Z"/>
</mask>
<path d="M675.664 983.759C675.731 984.785 676.57 985.718 677.996 986.354C679.423 986.989 681.32 987.275 683.271 987.148C685.222 987.022 687.066 986.493 688.399 985.679C689.731 984.864 690.442 983.83 690.376 982.805L690.007 982.829C690.071 983.803 689.395 984.785 688.129 985.559C686.864 986.332 685.111 986.835 683.258 986.955C681.405 987.075 679.603 986.803 678.248 986.2C676.893 985.596 676.096 984.71 676.033 983.735L675.664 983.759Z" fill="white"/>
<path d="M675.664 983.759C675.731 984.785 676.57 985.718 677.996 986.354C679.423 986.989 681.32 987.275 683.271 987.148C685.222 987.022 687.066 986.493 688.399 985.679C689.731 984.864 690.442 983.83 690.376 982.805L690.007 982.829C690.071 983.803 689.395 984.785 688.129 985.559C686.864 986.332 685.111 986.835 683.258 986.955C681.405 987.075 679.603 986.803 678.248 986.2C676.893 985.596 676.096 984.71 676.033 983.735L675.664 983.759Z" stroke="white" stroke-width="0.594976" mask="url(#path-12-outside-1_378_8652)"/>
<path d="M679.559 1040.58C679.559 1041.07 679.394 1041.47 679.049 1041.75C678.691 1042.05 678.074 1042.29 677.069 1042.29C676.066 1042.29 675.184 1042.05 674.57 1041.7C673.942 1041.34 673.692 1040.93 673.692 1040.58C673.692 1040.23 673.942 1039.82 674.57 1039.46C675.184 1039.1 676.066 1038.87 677.069 1038.87C678.074 1038.87 678.691 1039.1 679.049 1039.4C679.394 1039.69 679.559 1040.09 679.559 1040.58Z" fill="#833E78" stroke="#833E78" stroke-width="1.05656"/>
<path d="M683.546 1040.43C683.546 1040.92 683.711 1041.32 684.057 1041.61C684.414 1041.91 685.032 1042.14 686.036 1042.14C687.039 1042.14 687.922 1041.91 688.535 1041.56C689.163 1041.2 689.413 1040.78 689.413 1040.43C689.413 1040.09 689.163 1039.67 688.535 1039.31C687.922 1038.96 687.039 1038.72 686.036 1038.72C685.032 1038.72 684.414 1038.96 684.057 1039.26C683.711 1039.55 683.546 1039.95 683.546 1040.43Z" fill="#833E78" stroke="#833E78" stroke-width="1.05656"/>
<path d="M684.044 1020.67L684.044 1020.66L684.044 1020.65L683.659 1000.24C683.642 999.352 684.358 998.622 685.247 998.622C686.116 998.622 686.823 999.32 686.835 1000.19L687.129 1020.93L686.837 1040.58C686.824 1041.44 686.117 1042.14 685.248 1042.14C684.359 1042.14 683.643 1041.41 683.66 1040.52L684.044 1020.67Z" fill="#833E78" stroke="#833E78" stroke-width="1.05656"/>
<path d="M676.864 1019.47L676.864 1019.46L676.864 1019.45L676.479 999.037C676.462 998.149 677.178 997.419 678.067 997.419C678.936 997.419 679.643 998.116 679.656 998.985L679.95 1019.72L679.657 1039.37C679.644 1040.24 678.937 1040.94 678.069 1040.94C677.179 1040.94 676.463 1040.21 676.48 1039.32L676.864 1019.47Z" fill="#833E78" stroke="#833E78" stroke-width="1.05656"/>
<path d="M678.962 893C680.289 893 681.592 893.331 682.753 893.946C683.108 894.136 683.155 894.632 682.871 894.94C682.634 895.177 682.279 895.2 681.994 895.058C681.094 894.609 680.075 894.349 678.985 894.349C675.266 894.349 672.257 897.353 672.257 901.067C672.257 904.781 675.266 907.785 678.985 907.785C682.705 907.785 685.714 904.781 685.714 901.067C685.714 900.735 685.69 900.381 685.643 900.05C685.596 899.789 685.667 899.529 685.856 899.363C686.046 899.174 686.306 899.127 686.496 899.174C686.709 899.222 686.875 899.387 686.922 899.647C687.017 900.097 687.041 900.594 687.041 901.067C687.041 905.514 683.416 909.133 678.962 909.133C674.508 909.133 670.883 905.514 670.883 901.067C670.883 896.619 674.508 893 678.962 893ZM686.496 895.91L677.99 904.402C677.872 904.52 677.682 904.52 677.564 904.402L674.958 901.8C674.721 901.563 674.721 901.161 674.958 900.901C675.218 900.641 675.645 900.665 675.882 900.948L677.446 902.817C677.611 903.03 677.943 903.03 678.133 902.841L685.548 895.011C685.809 894.751 686.212 894.751 686.472 894.987C686.756 895.247 686.756 895.673 686.496 895.91Z" fill="#515151"/>
<path d="M679.232 935.649C679.564 935.649 679.824 935.389 679.824 935.058V913.555C679.824 913.224 679.564 912.964 679.232 912.964C678.9 912.964 678.64 913.224 678.64 913.555V935.058C678.64 935.389 678.9 935.649 679.232 935.649Z" fill="#515151"/>
<path d="M456.747 195.232C457.507 195.232 458.121 195.446 458.589 195.876C459.057 196.306 459.291 196.881 459.291 197.602C459.291 198.408 459.041 199.006 458.543 199.398C458.044 199.781 457.369 199.973 456.517 199.973L456.483 201.066H455.573L455.527 199.248H455.861C456.621 199.248 457.215 199.133 457.645 198.903C458.075 198.673 458.289 198.239 458.289 197.602C458.289 197.142 458.151 196.778 457.875 196.509C457.599 196.241 457.227 196.106 456.759 196.106C456.283 196.106 455.907 196.237 455.631 196.498C455.362 196.751 455.228 197.1 455.228 197.545H454.238C454.238 197.084 454.342 196.682 454.549 196.336C454.756 195.983 455.048 195.711 455.424 195.519C455.807 195.327 456.248 195.232 456.747 195.232ZM456.022 203.426C455.823 203.426 455.654 203.357 455.516 203.219C455.378 203.08 455.309 202.912 455.309 202.712C455.309 202.513 455.378 202.344 455.516 202.206C455.654 202.068 455.823 201.999 456.022 201.999C456.214 201.999 456.375 202.068 456.506 202.206C456.644 202.344 456.713 202.513 456.713 202.712C456.713 202.912 456.644 203.08 456.506 203.219C456.375 203.357 456.214 203.426 456.022 203.426Z" fill="#515151"/>
<path opacity="0.2" d="M457.779 323.134C440.228 323.134 425.999 321.858 425.999 320.283C425.999 318.708 440.228 317.431 457.779 317.431C475.33 317.431 489.559 318.708 489.559 320.283C489.559 321.858 475.33 323.134 457.779 323.134Z" fill="#C6C6C6"/>
<path d="M478.015 276.517C477.959 275.971 477.499 275.556 476.951 275.556C476.319 275.556 475.826 276.1 475.886 276.728L476.901 287.299C476.974 288.051 476.973 288.808 476.9 289.56L475.888 300.008C475.827 300.636 476.321 301.181 476.952 301.181C477.5 301.181 477.959 300.766 478.016 300.221L479.101 289.736C479.191 288.867 479.191 287.991 479.102 287.121L478.015 276.517Z" fill="#833E78" stroke="#833E78" stroke-width="1.17083"/>
<path d="M442.569 287.246L442.566 287.206L442.569 287.166L443.368 275.643C443.41 275.025 442.921 274.499 442.301 274.499C441.74 274.499 441.274 274.934 441.234 275.494L440.409 287.207L441.236 299.129C441.275 299.689 441.741 300.124 442.303 300.124C442.922 300.124 443.412 299.6 443.37 298.982L442.569 287.246Z" fill="#833E78" stroke="#833E78" stroke-width="1.17083"/>
<path d="M440.402 300.709C440.402 302.147 441.389 303.158 442.43 303.158C443.471 303.158 444.458 302.147 444.458 300.709C444.458 299.271 443.471 298.26 442.43 298.26C441.389 298.26 440.402 299.271 440.402 300.709Z" fill="#833E78" stroke="#833E78" stroke-width="1.17083"/>
<path d="M475.183 300.709C475.183 302.147 476.17 303.158 477.211 303.158C478.252 303.158 479.239 302.147 479.239 300.709C479.239 299.271 478.252 298.26 477.211 298.26C476.17 298.26 475.183 299.271 475.183 300.709Z" fill="#833E78" stroke="#833E78" stroke-width="1.17083"/>
<path d="M434.225 250.983C431.47 268.014 430.829 285.917 456.738 295.296C479.053 295.296 483.297 277.679 484.832 264.519C485.91 255.284 481.86 236.096 466.967 232.862C452.075 229.629 437.233 232.387 434.225 250.983Z" fill="#833E78"/>
<path d="M459.482 259.995C460.478 262.121 463.847 264.342 467.172 264.339C470.496 264.336 473.598 261.811 474.59 259.981C473.097 258.035 470.489 255.652 467.164 255.655C463.84 255.658 460.276 257.847 459.482 259.995Z" fill="white"/>
<path d="M441.213 260.01C442.209 262.136 445.578 264.358 448.902 264.355C452.227 264.352 455.328 261.827 456.32 259.997C454.828 258.05 452.219 255.667 448.895 255.67C445.57 255.673 442.006 257.863 441.213 260.01Z" fill="white"/>
<circle r="2.81858" transform="matrix(-0.986515 0.16367 0.16367 0.986515 467.638 259.279)" fill="black"/>
<circle r="2.81858" transform="matrix(-0.986515 0.16367 0.16367 0.986515 449.228 259.333)" fill="black"/>
<mask id="path-30-outside-2_378_8652" maskUnits="userSpaceOnUse" x="452.735" y="268.292" width="15.2923" height="5.9607" fill="black">
<rect fill="white" x="452.735" y="268.292" width="15.2923" height="5.9607"/>
<path d="M453.81 269.598C453.868 270.498 454.605 271.318 455.858 271.876C457.111 272.435 458.778 272.686 460.491 272.575C462.205 272.463 463.825 271.999 464.995 271.283C466.166 270.568 466.791 269.66 466.732 268.759L466.408 268.78C466.464 269.636 465.87 270.498 464.759 271.178C463.647 271.858 462.108 272.299 460.48 272.404C458.852 272.51 457.269 272.271 456.079 271.741C454.889 271.211 454.189 270.432 454.133 269.577L453.81 269.598Z"/>
</mask>
<path d="M453.81 269.598C453.868 270.498 454.605 271.318 455.858 271.876C457.111 272.435 458.778 272.686 460.491 272.575C462.205 272.463 463.825 271.999 464.995 271.283C466.166 270.568 466.791 269.66 466.732 268.759L466.408 268.78C466.464 269.636 465.87 270.498 464.759 271.178C463.647 271.858 462.108 272.299 460.48 272.404C458.852 272.51 457.269 272.271 456.079 271.741C454.889 271.211 454.189 270.432 454.133 269.577L453.81 269.598Z" fill="white"/>
<path d="M453.81 269.598C453.868 270.498 454.605 271.318 455.858 271.876C457.111 272.435 458.778 272.686 460.491 272.575C462.205 272.463 463.825 271.999 464.995 271.283C466.166 270.568 466.791 269.66 466.732 268.759L466.408 268.78C466.464 269.636 465.87 270.498 464.759 271.178C463.647 271.858 462.108 272.299 460.48 272.404C458.852 272.51 457.269 272.271 456.079 271.741C454.889 271.211 454.189 270.432 454.133 269.577L453.81 269.598Z" stroke="white" stroke-width="0.522615" mask="url(#path-30-outside-2_378_8652)"/>
<path d="M457.235 319.507C457.235 319.935 457.09 320.286 456.786 320.539C456.472 320.802 455.93 321.007 455.048 321.007C454.166 321.007 453.391 320.801 452.853 320.493C452.301 320.177 452.081 319.811 452.081 319.507C452.081 319.202 452.301 318.836 452.853 318.52C453.391 318.212 454.166 318.006 455.048 318.006C455.93 318.006 456.472 318.211 456.786 318.474C457.09 318.727 457.235 319.078 457.235 319.507Z" fill="#833E78" stroke="#833E78" stroke-width="0.928061"/>
<path d="M460.73 319.378C460.73 319.807 460.875 320.158 461.179 320.411C461.493 320.673 462.035 320.879 462.917 320.879C463.799 320.879 464.574 320.673 465.112 320.365C465.664 320.049 465.884 319.683 465.884 319.378C465.884 319.074 465.664 318.708 465.112 318.392C464.574 318.083 463.799 317.878 462.917 317.878C462.035 317.878 461.493 318.083 461.179 318.345C460.875 318.599 460.73 318.95 460.73 319.378Z" fill="#833E78" stroke="#833E78" stroke-width="0.928061"/>
<path d="M461.17 302.018L461.17 302.009L461.17 302L460.832 284.074C460.817 283.293 461.446 282.653 462.227 282.653C462.99 282.653 463.611 283.265 463.622 284.028L463.88 302.243L463.623 319.504C463.612 320.267 462.991 320.879 462.228 320.879C461.447 320.879 460.818 320.238 460.833 319.457L461.17 302.018Z" fill="#833E78" stroke="#833E78" stroke-width="0.928061"/>
<path d="M454.861 300.961L454.861 300.952L454.861 300.943L454.523 283.017C454.508 282.237 455.137 281.596 455.918 281.596C456.681 281.596 457.303 282.208 457.313 282.971L457.572 301.186L457.315 318.447C457.303 319.21 456.682 319.822 455.919 319.822C455.138 319.822 454.509 319.181 454.524 318.4L454.861 300.961Z" fill="#833E78" stroke="#833E78" stroke-width="0.928061"/>
<path d="M462.13 201.361C461.406 202.274 460.468 202.991 459.411 203.455C459.087 203.597 458.719 203.358 458.663 202.995C458.629 202.703 458.806 202.445 459.059 202.327C459.86 201.952 460.594 201.392 461.188 200.642C463.217 198.08 462.789 194.37 460.231 192.345C457.673 190.32 453.964 190.754 451.936 193.315C449.908 195.877 450.336 199.587 452.893 201.612C453.121 201.793 453.379 201.97 453.632 202.118C453.837 202.227 453.978 202.418 453.989 202.639C454.016 202.872 453.906 203.078 453.77 203.182C453.621 203.303 453.417 203.327 453.212 203.218C452.851 203.038 452.496 202.784 452.17 202.526C449.107 200.101 448.591 195.631 451.02 192.564C453.449 189.497 457.918 188.974 460.98 191.399C464.043 193.824 464.559 198.293 462.13 201.361Z" fill="#515151"/>
<path d="M456.941 227.339C457.232 227.339 457.461 227.11 457.461 226.819V207.932C457.461 207.641 457.232 207.413 456.941 207.413C456.649 207.413 456.42 207.641 456.42 207.932V226.819C456.42 227.11 456.649 227.339 456.941 227.339Z" fill="#515151"/>
</svg>
