<svg width="30" height="30" viewBox="0 0 30 30" fill="none" xmlns="http://www.w3.org/2000/svg">
<path d="M11.1724 21.4368H11.6724V20.9368V11.291V10.791H11.1724H8.17666H7.67666V11.291V20.9368V21.4368H8.17666H11.1724ZM11.771 8.60661H11.7712L11.7709 8.59569C11.7592 8.05752 11.5631 7.55494 11.1901 7.18539C10.815 6.81388 10.2941 6.60947 9.69457 6.60947C9.09664 6.60947 8.56846 6.81268 8.18688 7.18073C7.80524 7.54883 7.59807 8.0556 7.59807 8.60661C7.59807 9.71201 8.43346 10.6068 9.65604 10.6068C10.2729 10.6068 10.8071 10.3987 11.1895 10.0257C11.5708 9.6537 11.771 9.14648 11.771 8.60661ZM22.1137 21.4368H22.6137V20.9368V15.2335C22.6137 13.7305 22.2221 12.5569 21.5003 11.7535C20.7733 10.9445 19.7658 10.572 18.6649 10.572C17.4923 10.572 16.6156 11.0054 16.0156 11.5105L15.9878 11.2385L15.9418 10.7894H15.4904H12.8876H12.3639L12.3881 11.3125C12.428 12.1755 12.4662 13.1737 12.4662 14.367V20.9352V21.4352H12.9662H15.9635H16.4635V20.9352V15.3738C16.4635 15.0996 16.4869 14.9104 16.5264 14.8138L16.5264 14.8138L16.5287 14.808C16.7019 14.3693 17.0514 14.002 17.6 14.002C17.9893 14.002 18.2056 14.1415 18.349 14.357C18.5144 14.6056 18.6179 15.0129 18.6179 15.5912V20.9368V21.4368H19.1179H22.1137ZM0.5 14.8018C0.5 6.90276 6.89971 0.5 14.7938 0.5C22.6879 0.5 29.0876 6.90276 29.0876 14.8018C29.0876 22.7008 22.6879 29.1035 14.7938 29.1035C6.89971 29.1035 0.5 22.7008 0.5 14.8018Z" stroke="#515151"/>
</svg>
