<svg width="502" height="150" viewBox="0 0 502 150" fill="none" xmlns="http://www.w3.org/2000/svg">
<path d="M214.187 97.6314C214.187 98.1076 214.347 98.4982 214.68 98.7791C215.024 99.0691 215.615 99.2947 216.575 99.2947C217.534 99.2947 218.377 99.0688 218.965 98.7291C219.565 98.382 219.81 97.9763 219.81 97.6314C219.81 97.2866 219.565 96.8808 218.965 96.5337C218.377 96.1941 217.534 95.9682 216.575 95.9682C215.615 95.9682 215.024 96.1937 214.68 96.4838C214.347 96.7646 214.187 97.1552 214.187 97.6314Z" fill="#DE5F8D" stroke="#DE5F8D" stroke-width="0.989137"/>
<path d="M206.251 97.6314C206.251 98.1076 206.091 98.4982 205.758 98.7791C205.414 99.0691 204.822 99.2947 203.863 99.2947C202.904 99.2947 202.06 99.0688 201.473 98.7291C200.873 98.382 200.627 97.9763 200.627 97.6314C200.627 97.2866 200.873 96.8808 201.473 96.5337C202.06 96.1941 202.904 95.9682 203.863 95.9682C204.822 95.9682 205.414 96.1937 205.758 96.4838C206.091 96.7646 206.251 97.1552 206.251 97.6314Z" fill="#DE5F8D" stroke="#DE5F8D" stroke-width="0.989137"/>
<path d="M217.628 60.4046C217.585 59.6161 216.933 58.9985 216.144 58.9985C215.268 58.9985 214.582 59.7524 214.664 60.6245L216.153 76.3801C216.253 77.4352 216.253 78.4973 216.154 79.5524L214.664 95.3536C214.581 96.2258 215.267 96.9795 216.143 96.9795C216.933 96.9795 217.585 96.3617 217.627 95.5731L218.575 77.9663L217.628 60.4046Z" fill="#DE5F8D" stroke="#DE5F8D" stroke-width="0.989137"/>
<path d="M222.117 58.9481C221.84 58.5609 221.313 58.4406 220.897 58.6698C220.419 58.9328 220.278 59.5458 220.593 59.9922L225.983 67.6357C226.358 68.1669 226.681 68.7313 226.948 69.3214L230.752 77.7157C230.977 78.2118 231.585 78.4133 232.063 78.1501C232.479 77.9211 232.648 77.4174 232.456 76.9844L228.691 68.535C228.386 67.8503 228.012 67.197 227.574 66.585L222.117 58.9481Z" fill="#DE5F8D" stroke="#DE5F8D" stroke-width="0.989137"/>
<path d="M184.716 68.1547L184.738 68.1309L184.764 68.1101L192.725 61.6889C193.138 61.3553 193.177 60.7481 192.809 60.3656C192.475 60.018 191.924 59.9832 191.548 60.2859L183.456 66.7978L176.21 74.4544C175.879 74.8044 175.881 75.3465 176.216 75.6944C176.583 76.0766 177.203 76.075 177.568 75.6908L184.716 68.1547Z" fill="#DE5F8D" stroke="#DE5F8D" stroke-width="0.989137"/>
<path d="M204.61 77.7574L204.608 77.7234L204.61 77.6894L205.803 60.5966C205.864 59.7326 205.179 58.9985 204.313 58.9985C203.508 58.9985 202.848 59.6365 202.82 60.4411L202.225 77.7241L202.822 95.5344C202.849 96.3402 203.51 96.9795 204.316 96.9795C205.181 96.9795 205.866 96.2467 205.808 95.383L204.61 77.7574Z" fill="#DE5F8D" stroke="#DE5F8D" stroke-width="0.989137"/>
<path d="M174.245 74.7144C173.298 75.5891 173.24 76.8081 173.849 77.441C174.457 78.0739 175.702 78.0897 176.649 77.2151C177.596 76.3404 177.654 75.1214 177.045 74.4885C176.437 73.8556 175.192 73.8398 174.245 74.7144Z" fill="#DE5F8D" stroke="#DE5F8D" stroke-width="0.989137"/>
<path d="M230.654 79.4897C231.288 80.5957 232.479 80.9504 233.259 80.5212C234.038 80.0919 234.349 78.9101 233.715 77.8041C233.081 76.6981 231.89 76.3434 231.11 76.7727C230.331 77.2019 230.02 78.3837 230.654 79.4897Z" fill="#DE5F8D" stroke="#DE5F8D" stroke-width="0.989137"/>
<path d="M179.835 37.8827C177.825 46.7989 183.01 81.3393 212.86 77.1168C231.563 77.1168 242.125 55.8436 239.513 37.8826C237.293 22.6142 228.467 12.6328 209.9 12.6328C191.332 12.6328 183.171 23.0843 179.835 37.8827Z" fill="#DE5F8D"/>
<path d="M209.7 54.2724C210.913 56.8119 215.018 59.4644 219.068 59.4609C223.119 59.4574 226.897 56.4419 228.106 54.2564C226.288 51.9319 223.11 49.0859 219.059 49.0894C215.009 49.0929 210.666 51.7081 209.7 54.2724Z" fill="white"/>
<path d="M187.434 54.2924C188.647 56.8319 192.752 59.4845 196.803 59.4809C200.853 59.4774 204.632 56.4619 205.841 54.2764C204.022 51.9519 200.844 49.1059 196.793 49.1094C192.743 49.1129 188.401 51.7281 187.434 54.2924Z" fill="white"/>
<ellipse rx="3.43229" ry="3.36796" transform="matrix(-0.987033 0.160515 0.166883 0.985977 218.229 53.3516)" fill="black"/>
<ellipse rx="3.43229" ry="3.36796" transform="matrix(-0.987033 0.160515 0.166883 0.985977 195.791 53.4176)" fill="black"/>
<mask id="path-14-outside-1_970_9261" maskUnits="userSpaceOnUse" x="204.514" y="62.573" width="10.244" height="4.62596" fill="black">
<rect fill="white" x="204.514" y="62.573" width="10.244" height="4.62596"/>
<path d="M205.841 64.1185C205.876 64.6459 206.316 65.1259 207.065 65.4528C207.813 65.7798 208.809 65.9269 209.833 65.8618C210.857 65.7966 211.825 65.5247 212.524 65.1057C213.223 64.6867 213.596 64.1549 213.561 63.6275L213.368 63.6398C213.401 64.1408 213.047 64.6459 212.382 65.0439C211.718 65.4419 210.799 65.7003 209.826 65.7621C208.854 65.824 207.908 65.6842 207.197 65.3737C206.486 65.0631 206.068 64.6072 206.035 64.1062L205.841 64.1185Z"/>
</mask>
<path d="M205.841 64.1185C205.876 64.6459 206.316 65.1259 207.065 65.4528C207.813 65.7798 208.809 65.9269 209.833 65.8618C210.857 65.7966 211.825 65.5247 212.524 65.1057C213.223 64.6867 213.596 64.1549 213.561 63.6275L213.368 63.6398C213.401 64.1408 213.047 64.6459 212.382 65.0439C211.718 65.4419 210.799 65.7003 209.826 65.7621C208.854 65.824 207.908 65.6842 207.197 65.3737C206.486 65.0631 206.068 64.6072 206.035 64.1062L205.841 64.1185Z" fill="white"/>
<path d="M205.841 64.1185C205.876 64.6459 206.316 65.1259 207.065 65.4528C207.813 65.7798 208.809 65.9269 209.833 65.8618C210.857 65.7966 211.825 65.5247 212.524 65.1057C213.223 64.6867 213.596 64.1549 213.561 63.6275L213.368 63.6398C213.401 64.1408 213.047 64.6459 212.382 65.0439C211.718 65.4419 210.799 65.7003 209.826 65.7621C208.854 65.824 207.908 65.6842 207.197 65.3737C206.486 65.0631 206.068 64.6072 206.035 64.1062L205.841 64.1185Z" stroke="white" stroke-width="0.897164" mask="url(#path-14-outside-1_970_9261)"/>
<g filter="url(#filter0_d_970_9261)">
<ellipse rx="118.532" ry="4.52937" transform="matrix(-1 0 0 1 136.531 102.134)" fill="#C4C4C4" fill-opacity="0.1"/>
</g>
<path d="M84.743 111.321C84.743 111.775 84.5869 112.148 84.2556 112.419C83.9113 112.701 83.3177 112.921 82.355 112.921C81.3937 112.921 80.5478 112.701 79.9596 112.371C79.3557 112.032 79.1196 111.641 79.1196 111.321C79.1196 111.002 79.3557 110.611 79.9596 110.272C80.5478 109.942 81.3937 109.722 82.355 109.722C83.3177 109.722 83.9113 109.942 84.2556 110.224C84.5869 110.495 84.743 110.868 84.743 111.321Z" fill="#F1B47C" stroke="#F1B47C" stroke-width="0.989137"/>
<path d="M92.6789 111.321C92.6789 111.775 92.8349 112.148 93.1663 112.419C93.5106 112.701 94.1042 112.921 95.0669 112.921C96.0282 112.921 96.8741 112.701 97.4623 112.371C98.0662 112.032 98.3023 111.641 98.3023 111.321C98.3023 111.002 98.0662 110.611 97.4623 110.272C96.8741 109.942 96.0282 109.722 95.0669 109.722C94.1042 109.722 93.5106 109.942 93.1663 110.224C92.8349 110.495 92.6789 110.868 92.6789 111.321Z" fill="#F1B47C" stroke="#F1B47C" stroke-width="0.989137"/>
<path d="M81.307 75.2498C81.3507 74.4631 82.0014 73.8476 82.7893 73.8476C83.6662 73.8476 84.352 74.6035 84.267 75.4762L82.7881 90.6584C82.6858 91.7091 82.6856 92.7673 82.7878 93.818L84.2675 109.045C84.3523 109.917 83.6665 110.673 82.7897 110.673C82.0016 110.673 81.3508 110.057 81.3072 109.27L80.3625 92.2383L81.307 75.2498Z" fill="#F1B47C" stroke="#F1B47C" stroke-width="0.989137"/>
<path d="M72.3755 70.7409C72.4251 70.2665 72.8251 69.9062 73.3021 69.9062C73.8525 69.9062 74.2829 70.3809 74.2292 70.9287L73.3587 79.8103C73.2954 80.4563 73.2957 81.1069 73.3596 81.7528L74.2278 90.5309C74.282 91.079 73.8515 91.5542 73.3008 91.5542C72.8242 91.5542 72.4244 91.1944 72.3744 90.7204L71.444 81.9077C71.3649 81.1587 71.3645 80.4036 71.4429 79.6545L72.3755 70.7409Z" fill="#F1B47C" stroke="#F1B47C" stroke-width="0.989137"/>
<path d="M104.873 80.6755L104.876 80.6409L104.873 80.6063L104.187 70.9033C104.149 70.3644 104.576 69.9062 105.116 69.9062C105.605 69.9062 106.01 70.2836 106.045 70.7708L106.7 79.8773C106.737 80.3861 106.737 80.8968 106.701 81.4056L106.044 90.6884C106.009 91.1761 105.604 91.5542 105.115 91.5542C104.575 91.5542 104.148 91.0966 104.185 90.5579L104.873 80.6755Z" fill="#F1B47C" stroke="#F1B47C" stroke-width="0.989137"/>
<path d="M93.1309 75.4475C93.0687 74.5831 93.7532 73.8476 94.6199 73.8476C95.4237 73.8476 96.0832 74.4841 96.1117 75.2875L96.7047 92.0033L96.11 109.231C96.0822 110.035 95.422 110.673 94.617 110.673C93.7508 110.673 93.0662 109.939 93.1267 109.075L94.2385 93.1932C94.294 92.4004 94.2932 91.6047 94.2362 90.812L93.1309 75.4475Z" fill="#F1B47C" stroke="#F1B47C" stroke-width="0.989137"/>
<path d="M107.198 92.2872C107.198 93.492 106.353 94.3562 105.44 94.3562C104.527 94.3562 103.682 93.492 103.682 92.2872C103.682 91.0825 104.527 90.2182 105.44 90.2182C106.353 90.2182 107.198 91.0825 107.198 92.2872Z" fill="#F1B47C" stroke="#F1B47C" stroke-width="0.989137"/>
<path d="M75.2056 92.0499C75.2056 93.2547 74.3604 94.1189 73.4477 94.1189C72.5351 94.1189 71.6899 93.2547 71.6899 92.0499C71.6899 90.8452 72.5351 89.9809 73.4477 89.9809C74.3604 89.9809 75.2056 90.8452 75.2056 92.0499Z" fill="#F1B47C" stroke="#F1B47C" stroke-width="0.989137"/>
<path d="M121.521 45.4689C121.521 63.1213 118.365 78.1907 85.0919 82.5718C59.8035 71.3758 57 63.1213 57 45.4689C61.7929 30.886 69.4845 20 88.0521 20C106.62 20 114.522 29.2833 121.521 45.4689Z" fill="#F1B47C"/>
<path d="M87.3236 49.6059C86.1104 52.1454 82.0055 54.7979 77.955 54.7944C73.9044 54.7909 70.1261 51.7754 68.9172 49.5899C70.7357 47.2654 73.9138 44.4194 77.9643 44.4229C82.0148 44.4264 86.3572 47.0416 87.3236 49.6059Z" fill="white"/>
<path d="M109.589 49.6235C108.376 52.163 104.271 54.8155 100.221 54.812C96.1701 54.8085 92.3918 51.793 91.1828 49.6075C93.0013 47.283 96.1794 44.437 100.23 44.4405C104.28 44.444 108.623 47.0591 109.589 49.6235Z" fill="white"/>
<ellipse rx="3.43229" ry="3.36796" transform="matrix(0.987033 0.160515 -0.166883 0.985977 77.9038 49.5826)" fill="black"/>
<ellipse rx="3.43229" ry="3.36796" transform="matrix(0.987033 0.160515 -0.166883 0.985977 100.334 49.648)" fill="black"/>
<mask id="path-29-outside-2_970_9261" maskUnits="userSpaceOnUse" x="79.0404" y="59.6277" width="18.36" height="7.12935" fill="black">
<rect fill="white" x="79.0404" y="59.6277" width="18.36" height="7.12935"/>
<path d="M96.1086 61.7549C96.0374 62.8306 95.1397 63.8095 93.6131 64.4763C92.0864 65.143 90.0558 65.443 87.968 65.3102C85.8802 65.1774 83.9062 64.6227 82.4802 63.7682C81.0542 62.9137 80.2931 61.8293 80.3643 60.7536L80.7588 60.7787C80.6911 61.8005 81.4141 62.8306 82.7686 63.6423C84.1231 64.454 85.9982 64.9808 87.9815 65.107C89.9647 65.2331 91.8935 64.9482 93.3437 64.3148C94.7939 63.6815 95.6466 62.7517 95.7142 61.7299L96.1086 61.7549Z"/>
</mask>
<path d="M96.1086 61.7549C96.0374 62.8306 95.1397 63.8095 93.6131 64.4763C92.0864 65.143 90.0558 65.443 87.968 65.3102C85.8802 65.1774 83.9062 64.6227 82.4802 63.7682C81.0542 62.9137 80.2931 61.8293 80.3643 60.7536L80.7588 60.7787C80.6911 61.8005 81.4141 62.8306 82.7686 63.6423C84.1231 64.454 85.9982 64.9808 87.9815 65.107C89.9647 65.2331 91.8935 64.9482 93.3437 64.3148C94.7939 63.6815 95.6466 62.7517 95.7142 61.7299L96.1086 61.7549Z" fill="white"/>
<path d="M96.1086 61.7549C96.0374 62.8306 95.1397 63.8095 93.6131 64.4763C92.0864 65.143 90.0558 65.443 87.968 65.3102C85.8802 65.1774 83.9062 64.6227 82.4802 63.7682C81.0542 62.9137 80.2931 61.8293 80.3643 60.7536L80.7588 60.7787C80.6911 61.8005 81.4141 62.8306 82.7686 63.6423C84.1231 64.454 85.9982 64.9808 87.9815 65.107C89.9647 65.2331 91.8935 64.9482 93.3437 64.3148C94.7939 63.6815 95.6466 62.7517 95.7142 61.7299L96.1086 61.7549Z" stroke="white" stroke-width="0.897164" mask="url(#path-29-outside-2_970_9261)"/>
<path d="M140.791 123.286C140.791 123.828 140.604 124.275 140.208 124.599C139.796 124.936 139.087 125.198 137.936 125.198C136.787 125.198 135.775 124.936 135.072 124.541C134.35 124.136 134.068 123.669 134.068 123.286C134.068 122.904 134.35 122.437 135.072 122.032C135.775 121.637 136.787 121.374 137.936 121.374C139.087 121.374 139.796 121.637 140.208 121.974C140.604 122.298 140.791 122.744 140.791 123.286Z" fill="#FF896D" stroke="#FF896D" stroke-width="1.18254"/>
<path d="M150.287 123.286C150.287 123.828 150.474 124.275 150.87 124.599C151.282 124.936 151.991 125.198 153.142 125.198C154.292 125.198 155.303 124.936 156.006 124.541C156.728 124.136 157.01 123.669 157.01 123.286C157.01 122.904 156.728 122.437 156.006 122.032C155.303 121.637 154.292 121.374 153.142 121.374C151.991 121.374 151.282 121.637 150.87 121.974C150.474 122.298 150.287 122.744 150.287 123.286Z" fill="#FF896D" stroke="#FF896D" stroke-width="1.18254"/>
<path d="M136.682 80.1627C136.735 79.2222 137.512 78.4863 138.454 78.4863C139.503 78.4863 140.323 79.39 140.221 80.4333L138.453 98.5841C138.331 99.8403 138.33 101.105 138.453 102.362L140.222 120.565C140.323 121.609 139.503 122.512 138.455 122.512C137.513 122.512 136.735 121.776 136.683 120.835L135.553 100.473L136.682 80.1627Z" fill="#FF896D" stroke="#FF896D" stroke-width="1.18254"/>
<path d="M126.006 74.7732C126.066 74.2061 126.544 73.7754 127.114 73.7754C127.772 73.7754 128.287 74.3429 128.222 74.9978L127.182 85.616C127.106 86.3883 127.106 87.1661 127.183 87.9384L128.221 98.4328C128.285 99.088 127.771 99.6561 127.112 99.6561C126.543 99.6561 126.065 99.226 126.005 98.6594L124.893 88.1235C124.798 87.2281 124.798 86.3253 124.891 85.4298L126.006 74.7732Z" fill="#FF896D" stroke="#FF896D" stroke-width="1.18254"/>
<path d="M164.859 86.6504L164.862 86.609L164.859 86.5676L164.039 74.9674C163.994 74.3231 164.504 73.7754 165.15 73.7754C165.734 73.7754 166.219 74.2266 166.261 74.8091L167.043 85.6961C167.087 86.3044 167.087 86.915 167.044 87.5233L166.259 98.621C166.218 99.2041 165.733 99.6561 165.148 99.6561C164.503 99.6561 163.992 99.1091 164.037 98.4651L164.859 86.6504Z" fill="#FF896D" stroke="#FF896D" stroke-width="1.18254"/>
<path d="M150.82 80.399C150.745 79.3656 151.564 78.4863 152.6 78.4863C153.561 78.4863 154.349 79.2473 154.383 80.2077L155.092 100.192L154.381 120.788C154.348 121.75 153.559 122.512 152.596 122.512C151.561 122.512 150.742 121.634 150.815 120.601L152.144 101.615C152.21 100.667 152.209 99.7154 152.141 98.7677L150.82 80.399Z" fill="#FF896D" stroke="#FF896D" stroke-width="1.18254"/>
<path d="M167.638 100.533C167.638 101.973 166.628 103.006 165.537 103.006C164.445 103.006 163.435 101.973 163.435 100.533C163.435 99.0923 164.445 98.059 165.537 98.059C166.628 98.059 167.638 99.0923 167.638 100.533Z" fill="#FF896D" stroke="#FF896D" stroke-width="1.18254"/>
<path d="M129.388 100.246C129.388 101.686 128.378 102.72 127.287 102.72C126.195 102.72 125.185 101.686 125.185 100.246C125.185 98.8057 126.195 97.7724 127.287 97.7724C128.378 97.7724 129.388 98.8057 129.388 100.246Z" fill="#FF896D" stroke="#FF896D" stroke-width="1.18254"/>
<path d="M187.136 30.4488C187.136 51.5527 180.012 85.5377 140.233 90.7754C110 77.3902 110 51.5527 110 30.4488C110 9.34496 124.926 0 147.124 0C169.322 0 187.136 9.34496 187.136 30.4488Z" fill="#FF896D"/>
<path d="M144.406 25.4871C142.956 28.5231 138.048 31.6943 133.206 31.6901C128.363 31.6859 123.846 28.0808 122.401 25.4679C124.575 22.6889 128.374 19.2864 133.217 19.2906C138.059 19.2948 143.251 22.4213 144.406 25.4871Z" fill="white"/>
<path d="M171.023 25.511C169.573 28.547 164.665 31.7182 159.823 31.714C154.98 31.7098 150.463 28.1047 149.018 25.4919C151.192 22.7128 154.991 19.3104 159.834 19.3146C164.676 19.3188 169.868 22.4453 171.023 25.511Z" fill="white"/>
<ellipse rx="4.10339" ry="4.02649" transform="matrix(0.987033 0.160515 -0.166883 0.985977 133.128 25.2122)" fill="black"/>
<ellipse rx="4.10339" ry="4.02649" transform="matrix(0.987033 0.160515 -0.166883 0.985977 159.941 25.2884)" fill="black"/>
<mask id="path-43-outside-3_970_9261" maskUnits="userSpaceOnUse" x="133.947" y="46.93" width="18.36" height="7.12935" fill="black">
<rect fill="white" x="133.947" y="46.93" width="18.36" height="7.12935"/>
<path d="M151.015 49.0572C150.944 50.1329 150.046 51.1118 148.519 51.7785C146.993 52.4452 144.962 52.7452 142.874 52.6124C140.786 52.4796 138.812 51.925 137.386 51.0705C135.96 50.216 135.199 49.1316 135.271 48.0559L135.665 48.081C135.597 49.1028 136.32 50.1328 137.675 50.9445C139.029 51.7562 140.904 52.2831 142.888 52.4092C144.871 52.5353 146.8 52.2504 148.25 51.6171C149.7 50.9837 150.553 50.0539 150.62 49.0321L151.015 49.0572Z"/>
</mask>
<path d="M151.015 49.0572C150.944 50.1329 150.046 51.1118 148.519 51.7785C146.993 52.4452 144.962 52.7452 142.874 52.6124C140.786 52.4796 138.812 51.925 137.386 51.0705C135.96 50.216 135.199 49.1316 135.271 48.0559L135.665 48.081C135.597 49.1028 136.32 50.1328 137.675 50.9445C139.029 51.7562 140.904 52.2831 142.888 52.4092C144.871 52.5353 146.8 52.2504 148.25 51.6171C149.7 50.9837 150.553 50.0539 150.62 49.0321L151.015 49.0572Z" fill="white"/>
<path d="M151.015 49.0572C150.944 50.1329 150.046 51.1118 148.519 51.7785C146.993 52.4452 144.962 52.7452 142.874 52.6124C140.786 52.4796 138.812 51.925 137.386 51.0705C135.96 50.216 135.199 49.1316 135.271 48.0559L135.665 48.081C135.597 49.1028 136.32 50.1328 137.675 50.9445C139.029 51.7562 140.904 52.2831 142.888 52.4092C144.871 52.5353 146.8 52.2504 148.25 51.6171C149.7 50.9837 150.553 50.0539 150.62 49.0321L151.015 49.0572Z" stroke="white" stroke-width="0.897164" mask="url(#path-43-outside-3_970_9261)"/>
<path d="M271.366 123.42C271.366 123.874 271.21 124.247 270.879 124.518C270.535 124.799 269.941 125.019 268.979 125.019C268.018 125.019 267.172 124.799 266.584 124.469C265.98 124.13 265.744 123.74 265.744 123.42C265.744 123.101 265.98 122.71 266.584 122.371C267.172 122.041 268.018 121.822 268.979 121.822C269.941 121.822 270.535 122.041 270.879 122.323C271.21 122.594 271.366 122.967 271.366 123.42Z" fill="#5FB8DE" stroke="#5FB8DE" stroke-width="0.988867"/>
<path d="M279.298 123.42C279.298 123.874 279.454 124.247 279.785 124.518C280.129 124.799 280.723 125.019 281.685 125.019C282.646 125.019 283.492 124.799 284.08 124.469C284.684 124.13 284.92 123.74 284.92 123.42C284.92 123.101 284.684 122.71 284.08 122.371C283.492 122.041 282.646 121.822 281.685 121.822C280.723 121.822 280.129 122.041 279.785 122.323C279.454 122.594 279.298 122.967 279.298 123.42Z" fill="#5FB8DE" stroke="#5FB8DE" stroke-width="0.988867"/>
<path d="M267.924 87.3616C267.967 86.5751 268.618 85.9598 269.406 85.9598C270.282 85.9598 270.968 86.7154 270.883 87.5879L269.405 102.766C269.302 103.816 269.302 104.874 269.404 105.925L270.883 121.147C270.968 122.02 270.283 122.775 269.406 122.775C268.618 122.775 267.968 122.16 267.924 121.373L266.98 104.345L267.924 87.3616Z" fill="#5FB8DE" stroke="#5FB8DE" stroke-width="0.988867"/>
<path d="M252.689 83.1714C253.038 83.1179 253.314 82.8487 253.377 82.5025C253.478 81.9459 252.997 81.461 252.438 81.5553L244.827 82.8394C243.231 83.1086 241.595 82.8396 240.176 82.0749L232.835 78.1176C232.338 77.8498 231.721 78.148 231.621 78.7047C231.557 79.0594 231.73 79.4132 232.048 79.58L238.892 83.161C240.936 84.2304 243.273 84.6176 245.563 84.266L252.689 83.1714Z" fill="#5FB8DE" stroke="#5FB8DE" stroke-width="0.988867"/>
<path d="M292.405 90.2898L292.395 90.2569L292.38 90.2259L288.128 81.4313C287.893 80.9466 288.121 80.3707 288.623 80.1779C289.077 80.0035 289.594 80.2079 289.806 80.6461L293.808 88.8985C294.03 89.3567 294.22 89.8295 294.375 90.3135L297.22 99.1994C297.368 99.6627 297.131 100.157 296.676 100.332C296.174 100.525 295.609 100.254 295.444 99.7428L292.405 90.2898Z" fill="#5FB8DE" stroke="#5FB8DE" stroke-width="0.988867"/>
<path d="M279.756 87.5593C279.694 86.6951 280.378 85.9598 281.244 85.9598C282.048 85.9598 282.707 86.5961 282.736 87.3993L283.329 104.11L282.734 121.333C282.706 122.137 282.046 122.775 281.241 122.775C280.375 122.775 279.691 122.041 279.751 121.177L280.863 105.3C280.918 104.508 280.918 103.712 280.861 102.92L279.756 87.5593Z" fill="#5FB8DE" stroke="#5FB8DE" stroke-width="0.988867"/>
<path d="M298.68 101.623C298.654 102.827 297.791 103.674 296.878 103.655C295.966 103.636 295.14 102.755 295.166 101.551C295.192 100.346 296.055 99.5 296.967 99.5188C297.879 99.5376 298.706 100.419 298.68 101.623Z" fill="#5FB8DE" stroke="#5FB8DE" stroke-width="0.988867"/>
<path d="M232.703 76.4662C232.044 75.4419 230.858 75.1587 230.092 75.6325C229.326 76.1063 229.076 77.2778 229.736 78.302C230.395 79.3263 231.582 79.6095 232.348 79.1357C233.113 78.662 233.363 77.4905 232.703 76.4662Z" fill="#5FB8DE" stroke="#5FB8DE" stroke-width="0.988867"/>
<path d="M308.136 57.589C308.136 75.2365 304.981 90.3018 271.717 94.6817C246.436 83.4887 243.633 75.2365 243.633 57.589C248.424 43.0099 256.114 32.127 274.676 32.127C293.239 32.127 301.139 41.4077 308.136 57.589Z" fill="#5FB8DE"/>
<path d="M273.959 61.7222C272.746 64.2609 268.643 66.9128 264.593 66.9093C260.544 66.9057 256.766 63.8911 255.558 61.7062C257.376 59.3823 260.553 56.537 264.602 56.5406C268.652 56.5441 272.993 59.1585 273.959 61.7222Z" fill="white"/>
<path d="M296.225 61.7441C295.012 64.2829 290.908 66.9348 286.859 66.9312C282.809 66.9277 279.032 63.913 277.823 61.7281C279.641 59.4043 282.819 56.559 286.868 56.5625C290.918 56.5661 295.259 59.1805 296.225 61.7441Z" fill="white"/>
<ellipse rx="3.43135" ry="3.36704" transform="matrix(0.987033 0.160515 -0.166883 0.985977 268.497 61.2461)" fill="black"/>
<ellipse rx="3.43135" ry="3.36704" transform="matrix(0.987033 0.160515 -0.166883 0.985977 290.927 61.312)" fill="black"/>
<mask id="path-57-outside-4_970_9261" maskUnits="userSpaceOnUse" x="265.673" y="71.7444" width="18.36" height="7.12935" fill="black">
<rect fill="white" x="265.673" y="71.7444" width="18.36" height="7.12935"/>
<path d="M282.737 73.8703C282.666 74.9457 281.769 75.9243 280.242 76.5908C278.716 77.2574 276.686 77.5573 274.599 77.4245C272.512 77.2918 270.538 76.7373 269.113 75.883C267.687 75.0287 266.926 73.9446 266.997 72.8692L267.392 72.8943C267.324 73.9158 268.047 74.9456 269.401 75.7571C270.755 76.5686 272.63 77.0953 274.612 77.2214C276.595 77.3475 278.523 77.0626 279.973 76.4294C281.423 75.7963 282.275 74.8667 282.343 73.8452L282.737 73.8703Z"/>
</mask>
<path d="M282.737 73.8703C282.666 74.9457 281.769 75.9243 280.242 76.5908C278.716 77.2574 276.686 77.5573 274.599 77.4245C272.512 77.2918 270.538 76.7373 269.113 75.883C267.687 75.0287 266.926 73.9446 266.997 72.8692L267.392 72.8943C267.324 73.9158 268.047 74.9456 269.401 75.7571C270.755 76.5686 272.63 77.0953 274.612 77.2214C276.595 77.3475 278.523 77.0626 279.973 76.4294C281.423 75.7963 282.275 74.8667 282.343 73.8452L282.737 73.8703Z" fill="white"/>
<path d="M282.737 73.8703C282.666 74.9457 281.769 75.9243 280.242 76.5908C278.716 77.2574 276.686 77.5573 274.599 77.4245C272.512 77.2918 270.538 76.7373 269.113 75.883C267.687 75.0287 266.926 73.9446 266.997 72.8692L267.392 72.8943C267.324 73.9158 268.047 74.9456 269.401 75.7571C270.755 76.5686 272.63 77.0953 274.612 77.2214C276.595 77.3475 278.523 77.0626 279.973 76.4294C281.423 75.7963 282.275 74.8667 282.343 73.8452L282.737 73.8703Z" stroke="white" stroke-width="0.663828" mask="url(#path-57-outside-4_970_9261)"/>
<path d="M383.288 123.314C383.288 123.767 383.444 124.141 383.776 124.412C384.12 124.693 384.714 124.913 385.676 124.913C386.638 124.913 387.483 124.693 388.072 124.363C388.676 124.024 388.912 123.634 388.912 123.314C388.912 122.994 388.676 122.604 388.072 122.265C387.483 121.935 386.638 121.715 385.676 121.715C384.714 121.715 384.12 121.935 383.776 122.216C383.444 122.487 383.288 122.861 383.288 123.314Z" fill="#DDDF6C" stroke="#DDDF6C" stroke-width="0.989137"/>
<path d="M375.352 123.314C375.352 123.767 375.196 124.141 374.865 124.412C374.521 124.693 373.927 124.913 372.964 124.913C372.003 124.913 371.157 124.693 370.569 124.363C369.965 124.024 369.729 123.634 369.729 123.314C369.729 122.994 369.965 122.604 370.569 122.265C371.157 121.935 372.003 121.715 372.964 121.715C373.927 121.715 374.521 121.935 374.865 122.216C375.196 122.487 375.352 122.861 375.352 123.314Z" fill="#DDDF6C" stroke="#DDDF6C" stroke-width="0.989137"/>
<path d="M386.732 87.2454C386.688 86.4587 386.038 85.8432 385.25 85.8432C384.373 85.8432 383.687 86.5991 383.772 87.4718L385.251 102.654C385.353 103.705 385.353 104.763 385.251 105.814L383.772 121.04C383.687 121.913 384.373 122.669 385.249 122.669C386.037 122.669 386.688 122.053 386.732 121.266L387.677 104.234L386.732 87.2454Z" fill="#DDDF6C" stroke="#DDDF6C" stroke-width="0.989137"/>
<path d="M392.872 77.7283C392.471 77.4827 391.945 77.5752 391.653 77.9425C391.318 78.365 391.424 78.9773 391.883 79.2627L399.621 84.0763C400.168 84.4166 400.681 84.8079 401.151 85.2445L407.731 91.3488C408.126 91.7151 408.758 91.6664 409.093 91.2438C409.385 90.8767 409.347 90.3541 409.006 90.0338L402.441 83.8627C401.899 83.3539 401.306 82.901 400.67 82.5111L392.872 77.7283Z" fill="#DDDF6C" stroke="#DDDF6C" stroke-width="0.989137"/>
<path d="M361.229 88.483L361.235 88.449L361.246 88.4161L364.327 79.1668C364.498 78.6548 364.198 78.1099 363.674 77.9808C363.201 77.864 362.714 78.1321 362.559 78.5949L359.656 87.2741C359.495 87.7577 359.367 88.2517 359.276 88.7526L357.601 97.9166C357.514 98.3965 357.813 98.8591 358.287 98.976C358.81 99.1051 359.338 98.7647 359.435 98.2351L361.229 88.483Z" fill="#DDDF6C" stroke="#DDDF6C" stroke-width="0.989137"/>
<path d="M374.9 87.4431C374.963 86.5787 374.278 85.8432 373.411 85.8432C372.608 85.8432 371.948 86.4797 371.92 87.2831L371.327 103.999L371.921 121.226C371.949 122.031 372.609 122.669 373.414 122.669C374.28 122.669 374.965 121.934 374.905 121.07L373.793 105.189C373.737 104.396 373.738 103.6 373.795 102.808L374.9 87.4431Z" fill="#DDDF6C" stroke="#DDDF6C" stroke-width="0.989137"/>
<path d="M356.083 99.1893C355.783 100.359 356.388 101.399 357.272 101.617C358.155 101.835 359.191 101.2 359.491 100.03C359.791 98.8601 359.186 97.8204 358.302 97.6025C357.418 97.3845 356.383 98.0195 356.083 99.1893Z" fill="#DDDF6C" stroke="#DDDF6C" stroke-width="0.989137"/>
<path d="M408.324 93.0098C409.306 93.7587 410.519 93.6236 411.07 92.9291C411.622 92.2347 411.457 91.0486 410.475 90.2996C409.493 89.5507 408.28 89.6858 407.729 90.3803C407.177 91.0747 407.342 92.2608 408.324 93.0098Z" fill="#DDDF6C" stroke="#DDDF6C" stroke-width="0.989137"/>
<path d="M346.273 46.604C346.273 67.2081 349.38 90.3743 382.653 94.7553C407.941 83.5593 411.266 64.2563 411.266 46.604C406.473 32.021 398.26 32.1836 379.692 32.1836C361.125 32.1836 353.272 30.4183 346.273 46.604Z" fill="#DDDF6C"/>
<path d="M387.544 54.29C388.757 56.8295 392.862 59.482 396.912 59.4785C400.963 59.475 404.741 56.4595 405.95 54.274C404.131 51.9495 400.953 49.1035 396.903 49.107C392.852 49.1105 388.51 51.7256 387.544 54.29Z" fill="white"/>
<path d="M365.278 54.31C366.491 56.8495 370.596 59.502 374.647 59.4985C378.697 59.495 382.475 56.4795 383.684 54.294C381.866 51.9695 378.688 49.1235 374.637 49.127C370.587 49.1305 366.244 51.7457 365.278 54.31Z" fill="white"/>
<ellipse rx="3.43229" ry="3.36796" transform="matrix(-0.987033 0.160515 0.166883 0.985977 396.979 54.2667)" fill="black"/>
<ellipse rx="3.43229" ry="3.36796" transform="matrix(-0.987033 0.160515 0.166883 0.985977 374.541 54.3321)" fill="black"/>
<mask id="path-71-outside-5_970_9261" maskUnits="userSpaceOnUse" x="382.12" y="65.3137" width="16.2319" height="5.00678" fill="black">
<rect fill="white" x="382.12" y="65.3137" width="16.2319" height="5.00678"/>
<path d="M383.42 67.4693C383.458 68.0569 384.22 68.5744 385.537 68.9078C386.854 69.2413 388.618 69.3635 390.441 69.2475C392.265 69.1316 393.998 68.787 395.26 68.2895C396.522 67.792 397.209 67.1824 397.17 66.5948L396.826 66.6168C396.863 67.1749 396.21 67.7539 395.011 68.2265C393.813 68.699 392.166 69.0264 390.434 69.1365C388.702 69.2467 387.026 69.1306 385.775 68.8139C384.524 68.4971 383.801 68.0056 383.764 67.4474L383.42 67.4693Z"/>
</mask>
<path d="M383.42 67.4693C383.458 68.0569 384.22 68.5744 385.537 68.9078C386.854 69.2413 388.618 69.3635 390.441 69.2475C392.265 69.1316 393.998 68.787 395.26 68.2895C396.522 67.792 397.209 67.1824 397.17 66.5948L396.826 66.6168C396.863 67.1749 396.21 67.7539 395.011 68.2265C393.813 68.699 392.166 69.0264 390.434 69.1365C388.702 69.2467 387.026 69.1306 385.775 68.8139C384.524 68.4971 383.801 68.0056 383.764 67.4474L383.42 67.4693Z" fill="white"/>
<path d="M383.42 67.4693C383.458 68.0569 384.22 68.5744 385.537 68.9078C386.854 69.2413 388.618 69.3635 390.441 69.2475C392.265 69.1316 393.998 68.787 395.26 68.2895C396.522 67.792 397.209 67.1824 397.17 66.5948L396.826 66.6168C396.863 67.1749 396.21 67.7539 395.011 68.2265C393.813 68.699 392.166 69.0264 390.434 69.1365C388.702 69.2467 387.026 69.1306 385.775 68.8139C384.524 68.4971 383.801 68.0056 383.764 67.4474L383.42 67.4693Z" stroke="white" stroke-width="0.897164" mask="url(#path-71-outside-5_970_9261)"/>
<g filter="url(#filter1_d_970_9261)">
<ellipse rx="139.148" ry="4.52937" transform="matrix(-1 0 0 1 345.258 127.637)" fill="#C4C4C4" fill-opacity="0.1"/>
</g>
<path d="M298.756 35.6184C295.186 57.2515 294.355 79.9911 327.929 91.9049C356.847 91.9047 362.346 69.5272 364.336 52.8112C365.732 41.082 360.484 16.7087 341.185 12.6014C321.887 8.49415 302.654 11.9978 298.756 35.6184Z" fill="#833E78"/>
<path d="M331.506 47.0644C332.797 49.7654 337.163 52.5866 341.471 52.5829C345.779 52.5791 349.797 49.3719 351.083 47.0474C349.149 44.5751 345.769 41.5481 341.461 41.5518C337.153 41.5556 332.534 44.337 331.506 47.0644Z" fill="white"/>
<path d="M307.834 47.0834C309.125 49.7844 313.491 52.6057 317.799 52.6019C322.107 52.5982 326.125 49.3909 327.411 47.0664C325.477 44.5941 322.097 41.5671 317.789 41.5709C313.481 41.5746 308.862 44.356 307.834 47.0834Z" fill="white"/>
<ellipse rx="3.65055" ry="3.58213" transform="matrix(-0.987033 0.160515 0.166883 0.985977 342.073 46.1555)" fill="black"/>
<ellipse rx="3.65055" ry="3.58213" transform="matrix(-0.987033 0.160515 0.166883 0.985977 318.213 46.2248)" fill="black"/>
<mask id="path-78-outside-6_970_9261" maskUnits="userSpaceOnUse" x="322.836" y="56.8133" width="19.358" height="7.19282" fill="black">
<rect fill="white" x="322.836" y="56.8133" width="19.358" height="7.19282"/>
<path d="M324.142 59.2621C324.217 60.4062 325.172 61.4473 326.796 62.1564C328.42 62.8656 330.579 63.1846 332.8 63.0434C335.02 62.9022 337.12 62.3122 338.637 61.4034C340.153 60.4945 340.963 59.3412 340.887 58.1971L340.468 58.2238C340.54 59.3106 339.771 60.4061 338.33 61.2694C336.889 62.1327 334.895 62.6931 332.786 62.8273C330.676 62.9614 328.625 62.6584 327.082 61.9847C325.54 61.3111 324.633 60.3222 324.561 59.2354L324.142 59.2621Z"/>
</mask>
<path d="M324.142 59.2621C324.217 60.4062 325.172 61.4473 326.796 62.1564C328.42 62.8656 330.579 63.1846 332.8 63.0434C335.02 62.9022 337.12 62.3122 338.637 61.4034C340.153 60.4945 340.963 59.3412 340.887 58.1971L340.468 58.2238C340.54 59.3106 339.771 60.4061 338.33 61.2694C336.889 62.1327 334.895 62.6931 332.786 62.8273C330.676 62.9614 328.625 62.6584 327.082 61.9847C325.54 61.3111 324.633 60.3222 324.561 59.2354L324.142 59.2621Z" fill="white"/>
<path d="M324.142 59.2621C324.217 60.4062 325.172 61.4473 326.796 62.1564C328.42 62.8656 330.579 63.1846 332.8 63.0434C335.02 62.9022 337.12 62.3122 338.637 61.4034C340.153 60.4945 340.963 59.3412 340.887 58.1971L340.468 58.2238C340.54 59.3106 339.771 60.4061 338.33 61.2694C336.889 62.1327 334.895 62.6931 332.786 62.8273C330.676 62.9614 328.625 62.6584 327.082 61.9847C325.54 61.3111 324.633 60.3222 324.561 59.2354L324.142 59.2621Z" stroke="white" stroke-width="0.663828" mask="url(#path-78-outside-6_970_9261)"/>
<path d="M328.596 122.657C328.596 123.197 328.41 123.642 328.015 123.965C327.605 124.301 326.897 124.563 325.75 124.563C324.604 124.563 323.596 124.301 322.895 123.907C322.176 123.503 321.894 123.038 321.894 122.657C321.894 122.276 322.176 121.81 322.895 121.406C323.596 121.013 324.604 120.751 325.75 120.751C326.897 120.751 327.605 121.013 328.015 121.349C328.41 121.672 328.596 122.117 328.596 122.657Z" fill="#833E78" stroke="#833E78" stroke-width="1.17883"/>
<path d="M333.107 122.494C333.107 123.035 333.293 123.48 333.688 123.803C334.098 124.138 334.806 124.4 335.953 124.4C337.099 124.4 338.107 124.138 338.808 123.745C339.528 123.341 339.809 122.875 339.809 122.494C339.809 122.113 339.528 121.648 338.808 121.244C338.107 120.85 337.099 120.588 335.953 120.588C334.806 120.588 334.098 120.85 333.688 121.186C333.293 121.509 333.107 121.954 333.107 122.494Z" fill="#833E78" stroke="#833E78" stroke-width="1.17883"/>
<path d="M333.675 100.443L333.676 100.431L333.675 100.42L333.238 77.6993C333.219 76.6806 334.039 75.8443 335.058 75.8443C336.053 75.8443 336.863 76.6432 336.878 77.638L337.211 100.729L336.879 122.607C336.864 123.602 336.054 124.4 335.059 124.4C334.04 124.4 333.219 123.563 333.239 122.544L333.675 100.443Z" fill="#833E78" stroke="#833E78" stroke-width="1.17883"/>
<path d="M325.503 99.1009L325.504 99.0894L325.503 99.0779L325.066 76.3575C325.047 75.3388 325.867 74.5025 326.886 74.5025C327.881 74.5025 328.691 75.3014 328.706 76.2962L329.039 99.3867L328.707 121.266C328.692 122.26 327.882 123.058 326.887 123.058C325.868 123.058 325.047 122.221 325.067 121.202L325.503 99.1009Z" fill="#833E78" stroke="#833E78" stroke-width="1.17883"/>
<path d="M355.525 68.086C355.45 67.3727 354.849 66.831 354.132 66.831C353.304 66.831 352.657 67.5447 352.738 68.3683L354.047 81.7221C354.142 82.6934 354.142 83.6716 354.045 84.6427L352.74 97.8409C352.659 98.6649 353.306 99.3793 354.134 99.3793C354.85 99.3793 355.451 98.8384 355.527 98.1258L356.926 84.8756C357.045 83.7495 357.045 82.6141 356.927 81.4879L355.525 68.086Z" fill="#833E78" stroke="#833E78" stroke-width="1.48719"/>
<path d="M309.588 81.6807L309.584 81.6286L309.588 81.5766L310.619 66.9879C310.677 66.1776 310.035 65.4887 309.222 65.4887C308.488 65.4887 307.878 66.0562 307.826 66.7888L306.841 80.4806C306.786 81.2455 306.786 82.0134 306.84 82.7784L307.828 96.7353C307.88 97.4686 308.49 98.037 309.225 98.037C310.037 98.037 310.678 97.349 310.622 96.5392L309.588 81.6807Z" fill="#833E78" stroke="#833E78" stroke-width="1.48719"/>
<path d="M306.76 98.7797C306.76 100.591 308.03 101.891 309.403 101.891C310.775 101.891 312.045 100.591 312.045 98.7797C312.045 96.9683 310.775 95.6689 309.403 95.6689C308.03 95.6689 306.76 96.9683 306.76 98.7797Z" fill="#833E78" stroke="#833E78" stroke-width="1.48719"/>
<path d="M351.822 98.7797C351.822 100.591 353.093 101.891 354.465 101.891C355.837 101.891 357.108 100.591 357.108 98.7797C357.108 96.9683 355.837 95.6689 354.465 95.6689C353.093 95.6689 351.822 96.9683 351.822 98.7797Z" fill="#833E78" stroke="#833E78" stroke-width="1.48719"/>
<path d="M430.358 124.064C430.358 124.535 430.195 124.924 429.851 125.206C429.492 125.499 428.875 125.728 427.873 125.728C426.873 125.728 425.993 125.499 425.381 125.155C424.752 124.803 424.507 124.396 424.507 124.064C424.507 123.731 424.752 123.325 425.381 122.972C425.993 122.629 426.873 122.4 427.873 122.4C428.875 122.4 429.492 122.629 429.851 122.922C430.195 123.204 430.358 123.592 430.358 124.064Z" fill="#30DDD3" stroke="#30DDD3" stroke-width="1.02914"/>
<path d="M438.611 124.064C438.611 124.535 438.773 124.924 439.118 125.206C439.476 125.499 440.094 125.728 441.096 125.728C442.096 125.728 442.976 125.499 443.588 125.155C444.216 124.803 444.462 124.396 444.462 124.064C444.462 123.731 444.216 123.325 443.588 122.972C442.976 122.629 442.096 122.4 441.096 122.4C440.094 122.4 439.476 122.629 439.118 122.922C438.773 123.204 438.611 123.592 438.611 124.064Z" fill="#30DDD3" stroke="#30DDD3" stroke-width="1.02914"/>
<path d="M426.771 86.536C426.817 85.7175 427.494 85.0771 428.314 85.0771C429.226 85.0771 429.94 85.8635 429.851 86.7715L428.313 102.568C428.206 103.661 428.206 104.762 428.312 105.855L429.852 121.698C429.94 122.606 429.226 123.392 428.314 123.392C427.494 123.392 426.817 122.751 426.772 121.933L425.789 104.212L426.771 86.536Z" fill="#30DDD3" stroke="#30DDD3" stroke-width="1.02914"/>
<path d="M417.485 81.842C417.537 81.3484 417.953 80.9736 418.449 80.9736C419.022 80.9736 419.47 81.4674 419.414 82.0374L418.508 91.2783C418.442 91.9504 418.442 92.6273 418.509 93.2994L419.412 102.433C419.469 103.003 419.021 103.497 418.448 103.497C417.952 103.497 417.536 103.123 417.484 102.63L416.516 93.4605C416.433 92.6812 416.433 91.8955 416.515 91.1162L417.485 81.842Z" fill="#30DDD3" stroke="#30DDD3" stroke-width="1.02914"/>
<path d="M451.3 92.1784L451.303 92.1424L451.3 92.1064L450.587 82.011C450.547 81.4503 450.991 80.9736 451.553 80.9736C452.061 80.9736 452.483 81.3662 452.52 81.8732L453.201 91.348C453.239 91.8773 453.239 92.4087 453.202 92.9381L452.518 102.596C452.482 103.104 452.06 103.497 451.552 103.497C450.99 103.497 450.546 103.021 450.585 102.461L451.3 92.1784Z" fill="#30DDD3" stroke="#30DDD3" stroke-width="1.02914"/>
<path d="M439.095 86.7417C439.03 85.8423 439.742 85.0771 440.644 85.0771C441.48 85.0771 442.166 85.7394 442.196 86.5752L442.813 103.967L442.194 121.891C442.165 122.728 441.478 123.392 440.641 123.392C439.74 123.392 439.027 122.628 439.09 121.729L440.247 105.205C440.305 104.38 440.304 103.552 440.245 102.728L439.095 86.7417Z" fill="#30DDD3" stroke="#30DDD3" stroke-width="1.02914"/>
<path d="M453.727 104.262C453.727 105.515 452.848 106.415 451.898 106.415C450.949 106.415 450.069 105.515 450.069 104.262C450.069 103.009 450.949 102.109 451.898 102.109C452.848 102.109 453.727 103.009 453.727 104.262Z" fill="#30DDD3" stroke="#30DDD3" stroke-width="1.02914"/>
<path d="M420.43 104.011C420.43 105.265 419.551 106.164 418.601 106.164C417.652 106.164 416.772 105.265 416.772 104.011C416.772 102.758 417.652 101.858 418.601 101.858C419.551 101.858 420.43 102.758 420.43 104.011Z" fill="#30DDD3" stroke="#30DDD3" stroke-width="1.02914"/>
<path d="M468.866 44.2515C471.434 72.2138 480.494 94.6247 431.057 94.6247C394.73 94.6247 398.324 71.6395 401.245 44.2515C406.232 29.0787 414.777 29.2479 434.095 29.2479C453.414 29.2479 461.584 27.4112 468.866 44.2515Z" fill="#30DDD3"/>
<path d="M443.26 45.7543C444.523 48.3965 448.793 51.1564 453.008 51.1527C457.222 51.149 461.153 48.0116 462.411 45.7377C460.519 43.3191 457.212 40.358 452.998 40.3617C448.784 40.3653 444.266 43.0863 443.26 45.7543Z" fill="white"/>
<path d="M420.096 45.7768C421.358 48.419 425.629 51.1788 429.844 51.1752C434.058 51.1715 437.989 48.034 439.247 45.7601C437.355 43.3416 434.048 40.3805 429.834 40.3841C425.62 40.3878 421.102 43.1087 420.096 45.7768Z" fill="white"/>
<ellipse rx="3.57111" ry="3.50418" transform="matrix(-0.987033 0.160515 0.166883 0.985977 452.076 46.205)" fill="black"/>
<ellipse rx="3.57111" ry="3.50418" transform="matrix(-0.987033 0.160515 0.166883 0.985977 430.396 46.2739)" fill="black"/>
<mask id="path-100-outside-7_970_9261" maskUnits="userSpaceOnUse" x="439.85" y="55.3572" width="18.36" height="7.12935" fill="black">
<rect fill="white" x="439.85" y="55.3572" width="18.36" height="7.12935"/>
<path d="M440.515 57.689C440.59 58.8082 441.524 59.8267 443.112 60.5204C444.7 61.2141 446.813 61.5262 448.985 61.388C451.158 61.2499 453.211 60.6728 454.695 59.7837C456.179 58.8946 456.971 57.7664 456.897 56.6472L456.486 56.6733C456.557 57.7364 455.804 58.8081 454.395 59.6526C452.986 60.4972 451.035 61.0454 448.971 61.1766C446.908 61.3078 444.901 61.0113 443.392 60.3524C441.883 59.6935 440.996 58.726 440.926 57.6629L440.515 57.689Z"/>
</mask>
<path d="M440.515 57.689C440.59 58.8082 441.524 59.8267 443.112 60.5204C444.7 61.2141 446.813 61.5262 448.985 61.388C451.158 61.2499 453.211 60.6728 454.695 59.7837C456.179 58.8946 456.971 57.7664 456.897 56.6472L456.486 56.6733C456.557 57.7364 455.804 58.8081 454.395 59.6526C452.986 60.4972 451.035 61.0454 448.971 61.1766C446.908 61.3078 444.901 61.0113 443.392 60.3524C441.883 59.6935 440.996 58.726 440.926 57.6629L440.515 57.689Z" fill="white"/>
<path d="M440.515 57.689C440.59 58.8082 441.524 59.8267 443.112 60.5204C444.7 61.2141 446.813 61.5262 448.985 61.388C451.158 61.2499 453.211 60.6728 454.695 59.7837C456.179 58.8946 456.971 57.7664 456.897 56.6472L456.486 56.6733C456.557 57.7364 455.804 58.8081 454.395 59.6526C452.986 60.4972 451.035 61.0454 448.971 61.1766C446.908 61.3078 444.901 61.0113 443.392 60.3524C441.883 59.6935 440.996 58.726 440.926 57.6629L440.515 57.689Z" stroke="white" stroke-width="0.663828" mask="url(#path-100-outside-7_970_9261)"/>
<defs>
<filter id="filter0_d_970_9261" x="0.692997" y="80.2975" width="271.677" height="43.6726" filterUnits="userSpaceOnUse" color-interpolation-filters="sRGB">
<feFlood flood-opacity="0" result="BackgroundImageFix"/>
<feColorMatrix in="SourceAlpha" type="matrix" values="0 0 0 0 0 0 0 0 0 0 0 0 0 0 0 0 0 0 127 0" result="hardAlpha"/>
<feOffset/>
<feGaussianBlur stdDeviation="8.6535"/>
<feColorMatrix type="matrix" values="0 0 0 0 0 0 0 0 0 0 0 0 0 0 0 0 0 0 0.3 0"/>
<feBlend mode="normal" in2="BackgroundImageFix" result="effect1_dropShadow_970_9261"/>
<feBlend mode="normal" in="SourceGraphic" in2="effect1_dropShadow_970_9261" result="shape"/>
</filter>
<filter id="filter1_d_970_9261" x="188.802" y="105.801" width="312.911" height="43.6726" filterUnits="userSpaceOnUse" color-interpolation-filters="sRGB">
<feFlood flood-opacity="0" result="BackgroundImageFix"/>
<feColorMatrix in="SourceAlpha" type="matrix" values="0 0 0 0 0 0 0 0 0 0 0 0 0 0 0 0 0 0 127 0" result="hardAlpha"/>
<feOffset/>
<feGaussianBlur stdDeviation="8.6535"/>
<feColorMatrix type="matrix" values="0 0 0 0 0 0 0 0 0 0 0 0 0 0 0 0 0 0 0.3 0"/>
<feBlend mode="normal" in2="BackgroundImageFix" result="effect1_dropShadow_970_9261"/>
<feBlend mode="normal" in="SourceGraphic" in2="effect1_dropShadow_970_9261" result="shape"/>
</filter>
</defs>
</svg>
